<svg width="577" height="150" viewBox="0 0 577 150" fill="none" xmlns="http://www.w3.org/2000/svg">
<path d="M40.8743 148.641V100.797H56.0834V78.3699H39.9238V78.234C39.9238 75.3343 40.5801 73.1823 41.8928 71.7777C43.2055 70.3732 44.9934 69.671 47.2567 69.671C49.3389 69.671 51.6474 70.26 54.1822 71.438L61.5152 50.0984C59.3425 48.9205 56.6266 48.0143 53.3675 47.38C50.1084 46.7457 46.7588 46.4286 43.3186 46.4286C32.8172 46.4286 24.6694 49.2602 18.8755 54.9236C13.0816 60.587 10.1846 68.2665 10.1846 77.9621V78.3699H0V100.797H10.1846V148.641H40.8743ZM103.204 150C111.533 150 118.979 148.346 125.543 145.039C132.106 141.731 137.221 137.156 140.887 131.311C144.554 125.466 146.387 118.829 146.387 111.399C146.387 103.968 144.554 97.3308 140.887 91.4862C137.221 85.6416 132.106 81.0883 125.543 77.8262C118.979 74.5641 111.533 72.9331 103.204 72.9331C94.966 72.9331 87.5652 74.5641 81.0018 77.8262C74.4383 81.0883 69.3008 85.6416 65.589 91.4862C61.8773 97.3308 60.0214 103.968 60.0214 111.399C60.0214 118.829 61.8773 125.466 65.589 131.311C69.3008 137.156 74.4383 141.731 81.0018 145.039C87.5652 148.346 94.966 150 103.204 150ZM103.204 126.078C99.6736 126.078 96.7766 124.787 94.5134 122.204C92.2501 119.622 91.1185 116.02 91.1185 111.399C91.1185 106.777 92.2501 103.198 94.5134 100.661C96.7766 98.1237 99.6736 96.8551 103.204 96.8551C106.735 96.8551 109.632 98.1237 111.895 100.661C114.158 103.198 115.29 106.777 115.29 111.399C115.29 116.02 114.158 119.622 111.895 122.204C109.632 124.787 106.735 126.078 103.204 126.078ZM195.273 150C203.602 150 211.048 148.346 217.612 145.039C224.175 141.731 229.29 137.156 232.956 131.311C236.623 125.466 238.456 118.829 238.456 111.399C238.456 103.968 236.623 97.3308 232.956 91.4862C229.29 85.6416 224.175 81.0883 217.612 77.8262C211.048 74.5641 203.602 72.9331 195.273 72.9331C187.035 72.9331 179.634 74.5641 173.071 77.8262C166.507 81.0883 161.37 85.6416 157.658 91.4862C153.946 97.3308 152.091 103.968 152.091 111.399C152.091 118.829 153.946 125.466 157.658 131.311C161.37 137.156 166.507 141.731 173.071 145.039C179.634 148.346 187.035 150 195.273 150ZM195.273 126.078C191.743 126.078 188.846 124.787 186.582 122.204C184.319 119.622 183.188 116.02 183.188 111.399C183.188 106.777 184.319 103.198 186.582 100.661C188.846 98.1237 191.743 96.8551 195.273 96.8551C198.804 96.8551 201.701 98.1237 203.964 100.661C206.227 103.198 207.359 106.777 207.359 111.399C207.359 116.02 206.227 119.622 203.964 122.204C201.701 124.787 198.804 126.078 195.273 126.078ZM280.688 150C289.832 150 296.622 147.508 301.058 142.524V148.641H330.254V47.7878H299.564V79.3213C295.219 75.0625 288.927 72.9331 280.688 72.9331C274.17 72.9331 268.173 74.4962 262.696 77.6223C257.219 80.7485 252.873 85.2339 249.659 91.0785C246.445 96.923 244.839 103.696 244.839 111.399C244.839 119.101 246.445 125.897 249.659 131.787C252.873 137.677 257.219 142.185 262.696 145.311C268.173 148.437 274.17 150 280.688 150ZM288.021 126.078C284.491 126.078 281.594 124.787 279.331 122.204C277.067 119.622 275.936 116.02 275.936 111.399C275.936 106.777 277.067 103.198 279.331 100.661C281.594 98.1237 284.491 96.8551 288.021 96.8551C291.552 96.8551 294.449 98.1237 296.712 100.661C298.976 103.198 300.107 106.777 300.107 111.399C300.107 116.02 298.976 119.622 296.712 122.204C294.449 124.787 291.552 126.078 288.021 126.078ZM384.843 150C399.238 150 410.056 146.013 417.298 138.039L401.275 121.864C398.649 123.858 396.227 125.262 394.009 126.078C391.792 126.894 389.053 127.301 385.794 127.301C381.992 127.301 378.823 126.554 376.288 125.059C373.753 123.563 371.943 121.411 370.856 118.602H422.459C422.73 114.253 422.866 111.852 422.866 111.399C422.866 103.334 421.033 96.402 417.366 90.6027C413.7 84.8035 408.766 80.4087 402.565 77.4184C396.363 74.4282 389.506 72.9331 381.992 72.9331C374.025 72.9331 366.85 74.5641 360.468 77.8262C354.086 81.0883 349.061 85.6416 345.395 91.4862C341.728 97.3308 339.895 103.968 339.895 111.399C339.895 118.738 341.751 125.353 345.463 131.243C349.174 137.133 354.425 141.731 361.215 145.039C368.005 148.346 375.881 150 384.843 150ZM394.213 103.787H370.313C370.947 100.616 372.305 98.169 374.387 96.4473C376.469 94.7257 379.095 93.8648 382.263 93.8648C385.432 93.8648 388.057 94.7483 390.139 96.5153C392.221 98.2822 393.579 100.706 394.213 103.787ZM516.075 0C549.669 0 577 26.9575 577 60.0927V61.7537C577 78.5113 567.259 98.0399 548.048 119.795C534.121 135.566 520.387 146.563 519.81 147.024L516.075 150V134.762C528.121 124.352 565.112 90.0714 565.112 61.7537V60.0927C565.112 33.4234 543.113 11.7254 516.075 11.7254C490.67 11.7254 469.717 30.8797 467.277 55.3154L455.362 66.0364C455.225 64.5901 455.149 63.161 455.149 61.7537V60.0927C455.149 26.9575 482.48 0 516.075 0ZM457.901 74.2923L468.493 90.0591L479.628 74.2923H511.812L484.517 110.447L512.491 148.641H477.32L467.135 132.738L455.728 148.641H422.459L450.568 111.806L423.273 74.2923H457.901ZM498.527 28.5714C501.213 28.5714 503.592 29.0203 505.663 29.9182C507.734 30.816 509.352 32.0963 510.517 33.759C511.682 35.4217 512.264 37.3337 512.264 39.4952C512.264 41.4239 511.868 43.2279 511.075 44.9072C510.282 46.5865 508.737 48.4903 506.439 50.6185L501.585 55.1576H513.041V64.2857H485.81V57.0531L498.091 45.3811L498.287 45.1895C499.246 44.2407 499.893 43.4233 500.226 42.7374C500.582 42.0058 500.76 41.2909 500.76 40.5926C500.76 39.728 500.477 39.0546 499.911 38.5724C499.345 38.0903 498.527 37.8492 497.46 37.8492C496.424 37.8492 495.453 38.1318 494.547 38.6971C493.641 39.2624 492.945 40.0605 492.46 41.0914L483.82 36.652L483.978 36.3553C485.267 34.0012 487.107 32.1299 489.499 30.7412C491.991 29.2947 495 28.5714 498.527 28.5714ZM541.242 29.3695L528.428 49.172H533.039V43.8348H543.815V49.172H548.329V58.3001H543.815V64.2857H532.699V58.3001H515.08V50.818L529.496 29.3695H541.242Z" fill="#31B574"/>
</svg>
