<svg className="start-page-text" viewBox="0 0 870 48" fill="none" xmlns="http://www.w3.org/2000/svg">
<path d="M11.869 11.995C12.0157 12.1783 12.089 12.4167 12.089 12.71C12.1257 12.9667 12.089 13.1867 11.979 13.37C11.7957 13.7733 11.484 13.92 11.044 13.81C10.274 13.6267 9.46734 13.5533 8.624 13.59C7.78067 13.6267 6.93734 13.9567 6.094 14.58C5.25067 15.2033 4.59067 16.12 4.114 17.33C3.63734 18.5033 3.399 19.7317 3.399 21.015C3.399 22.2617 3.69234 23.3433 4.279 24.26C4.90234 25.14 5.69067 25.7817 6.644 26.185C7.23067 26.4417 7.89067 26.5883 8.624 26.625C9.35734 26.6617 10.0907 26.6433 10.824 26.57C11.594 26.46 12.3457 26.3133 13.079 26.13C13.8123 25.91 14.509 25.6717 15.169 25.415C15.389 25.3417 15.5907 25.36 15.774 25.47C15.994 25.58 16.1407 25.7267 16.214 25.91C16.3973 26.3867 16.3057 26.8633 15.939 27.34C15.499 27.8167 14.9123 28.2383 14.179 28.605C13.4457 28.9717 12.639 29.265 11.759 29.485C10.879 29.705 9.98067 29.8333 9.064 29.87C8.14734 29.87 7.28567 29.76 6.479 29.54C5.34234 29.2467 4.37067 28.825 3.564 28.275C2.794 27.6883 2.15234 27.0283 1.639 26.295C1.12567 25.525 0.740671 24.7183 0.484004 23.875C0.227337 22.995 0.0806706 22.0967 0.0440039 21.18C-0.0293294 18.98 0.392337 17 1.309 15.24C2.26234 13.48 3.58234 12.1783 5.269 11.335C6.51567 10.7117 7.76234 10.4733 9.009 10.62C10.2923 10.73 11.2457 11.1883 11.869 11.995ZM32.0403 12.93C33.1403 13.3333 34.0569 13.9383 34.7903 14.745C35.5603 15.5517 36.1469 16.4683 36.5503 17.495C36.9536 18.485 37.1736 19.5117 37.2103 20.575C37.2836 21.6383 37.1736 22.6283 36.8803 23.545C36.4769 24.5717 35.9636 25.58 35.3403 26.57C34.7169 27.56 34.0019 28.44 33.1953 29.21C32.3886 29.98 31.4719 30.6033 30.4453 31.08C29.4186 31.5567 28.2819 31.795 27.0353 31.795C25.5319 31.795 24.2669 31.4467 23.2403 30.75C22.2136 30.0533 21.4069 29.155 20.8203 28.055C20.2336 26.955 19.8486 25.7083 19.6653 24.315C19.5186 22.9217 19.5553 21.5283 19.7753 20.135C19.9219 19.1083 20.1603 18.1183 20.4903 17.165C20.8569 16.175 21.3153 15.3133 21.8653 14.58C22.4153 13.81 23.0386 13.1867 23.7353 12.71C24.4686 12.2333 25.2936 11.995 26.2103 11.995C26.7236 11.995 27.3653 12.105 28.1353 12.325C28.9053 12.5083 29.6203 12.7833 30.2803 13.15C30.7569 12.71 31.3436 12.6367 32.0403 12.93ZM29.9503 16.945C29.5469 16.6883 29.0703 16.3583 28.5203 15.955C28.0069 15.515 27.5486 15.295 27.1453 15.295C26.7053 15.295 26.2653 15.4967 25.8253 15.9C25.4219 16.3033 25.0553 16.78 24.7253 17.33C24.4319 17.8433 24.1753 18.375 23.9553 18.925C23.7353 19.475 23.5886 19.915 23.5153 20.245C23.4053 20.795 23.3319 21.455 23.2953 22.225C23.2586 22.995 23.3136 23.765 23.4603 24.535C23.6069 25.2683 23.8819 25.9467 24.2853 26.57C24.7253 27.1567 25.3669 27.5783 26.2103 27.835C26.7236 27.9817 27.3286 27.9817 28.0253 27.835C28.7219 27.6517 29.4003 27.34 30.0603 26.9C30.7569 26.46 31.3986 25.8733 31.9853 25.14C32.6086 24.4067 33.0853 23.5633 33.4153 22.61C33.7819 21.5467 33.7819 20.4467 33.4153 19.31C33.0853 18.1367 32.3886 17.2933 31.3253 16.78C31.0686 16.9633 30.8119 17.055 30.5553 17.055C30.2986 17.055 30.0969 17.0183 29.9503 16.945ZM45.1466 13.975C45.2566 14.525 45.3666 15.1483 45.4766 15.845C45.6232 16.505 45.7699 17.2017 45.9166 17.935C46.0632 18.6317 46.1916 19.3467 46.3016 20.08C46.4116 20.8133 46.5032 21.51 46.5766 22.17C47.0166 21.2167 47.4932 20.2083 48.0066 19.145C48.5199 18.0817 49.0699 17.11 49.6566 16.23C50.2799 15.3133 50.9216 14.5617 51.5816 13.975C52.2782 13.3883 53.0299 13.095 53.8366 13.095C55.0466 13.095 56.0549 13.535 56.8616 14.415C57.7049 15.295 58.4016 16.395 58.9516 17.715C59.5382 18.9983 59.9966 20.355 60.3266 21.785C60.6566 23.215 60.9316 24.48 61.1516 25.58C61.3716 26.57 60.9316 27.3033 59.8316 27.78C59.3182 28.0367 58.9332 28.0733 58.6766 27.89C58.4199 27.7067 58.2732 27.5233 58.2366 27.34C58.0533 26.9 57.8149 26.13 57.5216 25.03C57.2649 23.93 56.9532 22.8117 56.5866 21.675C56.2566 20.5383 55.8716 19.5483 55.4316 18.705C54.9916 17.8617 54.4966 17.4767 53.9466 17.55C53.2866 17.5867 52.6999 18.0817 52.1866 19.035C51.7466 19.805 51.2882 20.6667 50.8116 21.62C50.3716 22.5367 49.9316 23.49 49.4916 24.48C49.0516 25.4333 48.6116 26.405 48.1716 27.395C47.7682 28.3483 47.3832 29.2283 47.0166 30.035C46.7599 30.2917 46.4299 30.475 46.0266 30.585C45.6599 30.6583 45.2749 30.6217 44.8716 30.475C44.5049 30.365 44.2116 30.1817 43.9916 29.925C43.7716 29.6683 43.6616 29.4117 43.6616 29.155C43.3316 26.295 42.9832 23.6917 42.6166 21.345C42.2866 18.9983 41.8466 16.5967 41.2966 14.14C41.0399 13.2967 40.9849 12.6367 41.1316 12.16C41.3149 11.6467 41.8649 11.445 42.7816 11.555C44.0649 11.775 44.8532 12.5817 45.1466 13.975ZM74.9471 16.945C75.2405 17.3483 75.5155 17.8617 75.7721 18.485C76.0655 19.0717 76.2855 19.6767 76.4321 20.3C76.6521 21.29 76.8905 22.3717 77.1471 23.545C77.4405 24.6817 77.7155 25.8733 77.9721 27.12C78.2655 28.3667 78.5221 29.6317 78.7421 30.915C78.9988 32.1983 79.2188 33.4267 79.4021 34.6C79.6221 36.2133 79.4938 37.7533 79.0171 39.22C78.5771 40.7233 77.8255 42.0617 76.7621 43.235C75.6988 44.4083 74.3788 45.3433 72.8021 46.04C71.2255 46.7367 69.4471 47.1217 67.4671 47.195C67.0271 47.1583 66.5688 46.9383 66.0921 46.535C65.6155 46.1683 65.3771 45.7833 65.3771 45.38C65.3405 44.9767 65.5238 44.6467 65.9271 44.39C66.3671 44.17 66.8071 44.0233 67.2471 43.95C68.0171 43.8767 68.8055 43.7117 69.6121 43.455C70.4555 43.235 71.2438 42.905 71.9771 42.465C72.7105 42.025 73.3705 41.4933 73.9571 40.87C74.5805 40.2467 75.0571 39.5133 75.3871 38.67C75.6438 38.01 75.7721 37.2033 75.7721 36.25C75.7721 35.26 75.6988 34.2883 75.5521 33.335C75.4421 32.3817 75.2771 31.4833 75.0571 30.64C74.8738 29.76 74.7088 29.1 74.5621 28.66C74.3055 28.9167 73.9755 29.1917 73.5721 29.485C73.2055 29.7783 72.7838 30.0533 72.3071 30.31C71.8305 30.5667 71.2988 30.7683 70.7121 30.915C70.1621 31.0617 69.5938 31.1167 69.0071 31.08C68.3838 31.0433 67.7971 30.8233 67.2471 30.42C66.7338 30.0167 66.2755 29.5033 65.8721 28.88C65.4688 28.22 65.1388 27.4683 64.8821 26.625C64.6621 25.7817 64.5521 24.9017 64.5521 23.985C64.6255 21.785 65.1755 19.8417 66.2021 18.155C67.2655 16.4317 68.9521 15.0933 71.2621 14.14C71.4455 14.1033 71.6838 14.0667 71.9771 14.03C72.3071 13.9933 72.6371 13.9933 72.9671 14.03C73.2971 14.03 73.6088 14.0667 73.9021 14.14C74.2321 14.2133 74.5071 14.3233 74.7271 14.47C75.1305 14.7633 75.3321 15.185 75.3321 15.735C75.3321 16.285 75.2038 16.6883 74.9471 16.945ZM68.0171 24.48C68.0171 24.8833 68.0538 25.3417 68.1271 25.855C68.2005 26.3317 68.4388 26.68 68.8421 26.9C69.2821 27.1567 69.8138 27.1933 70.4371 27.01C71.0971 26.8267 71.7021 26.515 72.2521 26.075C72.7655 25.6717 73.0955 25.2317 73.2421 24.755C73.4255 24.2417 73.4255 23.5633 73.2421 22.72C73.0588 21.8767 72.8571 20.9967 72.6371 20.08C72.4171 19.1633 72.2705 18.3383 72.1971 17.605C71.7571 17.825 71.2805 18.1367 70.7671 18.54C70.2905 18.9433 69.8505 19.4567 69.4471 20.08C69.0438 20.6667 68.6955 21.3267 68.4021 22.06C68.1455 22.7933 68.0171 23.6 68.0171 24.48ZM100.02 13.15C99.3598 13.5167 98.6632 13.9017 97.9298 14.305C97.2332 14.7083 96.5182 15.185 95.7848 15.735C95.0882 16.2483 94.4098 16.8717 93.7498 17.605C93.1265 18.3017 92.5582 19.145 92.0448 20.135C91.3115 21.5283 90.8165 22.9583 90.5598 24.425C90.3032 25.855 90.1382 27.2667 90.0648 28.66C90.0648 29.32 89.8998 29.9983 89.5698 30.695C89.2765 31.355 88.8548 31.685 88.3048 31.685C87.6082 31.685 87.0398 31.3367 86.5998 30.64C86.1965 29.9067 85.9215 29.21 85.7748 28.55C85.1515 25.9467 84.6382 23.38 84.2348 20.85C83.8315 18.2833 83.4832 15.735 83.1898 13.205C83.1898 12.6917 83.3365 12.3617 83.6298 12.215C83.9598 12.0683 84.3265 12.0133 84.7298 12.05C85.1698 12.0867 85.5915 12.1967 85.9948 12.38C86.3982 12.5633 86.6365 12.8567 86.7098 13.26C86.8565 14.6167 87.0398 16.0467 87.2598 17.55C87.4798 19.0167 87.6998 20.2817 87.9198 21.345C88.0665 20.0983 88.4698 18.8883 89.1298 17.715C89.7898 16.5417 90.5965 15.4783 91.5498 14.525C92.5398 13.5717 93.6398 12.765 94.8498 12.105C96.0965 11.445 97.3615 11.005 98.6448 10.785C99.1948 10.7117 99.6532 10.7117 100.02 10.785C100.386 10.8583 100.643 10.9867 100.79 11.17C100.936 11.3533 100.955 11.6467 100.845 12.05C100.771 12.4533 100.496 12.82 100.02 13.15ZM117.09 11.775C117.237 12.8017 117.347 13.9017 117.42 15.075C117.53 16.2117 117.604 17.3667 117.64 18.54C117.714 19.7133 117.75 20.85 117.75 21.95C117.75 23.05 117.732 24.04 117.695 24.92C118.869 25.7267 119.565 26.4417 119.785 27.065C120.042 27.6883 120.079 28.2383 119.895 28.715C119.675 29.375 119.272 29.7233 118.685 29.76C118.135 29.76 117.494 29.5583 116.76 29.155C116.247 29.5217 115.66 29.925 115 30.365C114.34 30.7683 113.644 31.1717 112.91 31.575C112.177 31.9417 111.444 32.2717 110.71 32.565C109.977 32.8583 109.299 33.06 108.675 33.17C107.502 33.3533 106.439 33.1333 105.485 32.51C104.569 31.8867 103.945 30.9517 103.615 29.705C103.395 28.8617 103.34 28 103.45 27.12C103.56 26.2033 103.835 25.3417 104.275 24.535C104.715 23.6917 105.302 22.94 106.035 22.28C106.805 21.62 107.704 21.1067 108.73 20.74C108.987 20.63 109.335 20.5383 109.775 20.465C110.252 20.3917 110.729 20.3733 111.205 20.41C111.719 20.41 112.232 20.5017 112.745 20.685C113.259 20.8683 113.735 21.18 114.175 21.62C114.175 20.9967 114.157 20.3183 114.12 19.585C114.12 18.815 114.102 18.045 114.065 17.275C114.029 16.505 113.974 15.79 113.9 15.13C113.864 14.4333 113.809 13.8467 113.735 13.37C113.662 12.82 113.442 12.49 113.075 12.38C112.745 12.2333 112.324 12.2517 111.81 12.435C110.93 12.7283 109.904 13.2967 108.73 14.14C107.557 14.9833 106.439 15.8817 105.375 16.835C105.045 17.165 104.66 17.3117 104.22 17.275C103.817 17.2383 103.469 17.0733 103.175 16.78C102.882 16.4867 102.717 16.1567 102.68 15.79C102.644 15.3867 102.79 14.965 103.12 14.525C103.744 13.865 104.44 13.1867 105.21 12.49C105.98 11.7933 106.787 11.17 107.63 10.62C108.474 10.0333 109.335 9.55667 110.215 9.19C111.095 8.82333 111.975 8.62166 112.855 8.585C114.139 8.54833 115.129 8.84167 115.825 9.465C116.522 10.0517 116.944 10.8217 117.09 11.775ZM110.71 23.6C110.234 23.71 109.72 23.9483 109.17 24.315C108.657 24.645 108.18 25.0667 107.74 25.58C107.337 26.0567 107.025 26.6067 106.805 27.23C106.622 27.8167 106.622 28.4033 106.805 28.99C106.879 29.21 107.025 29.375 107.245 29.485C107.502 29.595 107.777 29.6133 108.07 29.54C108.95 29.3567 109.94 29.0083 111.04 28.495C112.177 27.945 113.075 27.3583 113.735 26.735C113.735 26.515 113.625 26.24 113.405 25.91C113.185 25.5433 112.929 25.195 112.635 24.865C112.342 24.4983 112.012 24.1867 111.645 23.93C111.315 23.6733 111.004 23.5633 110.71 23.6ZM135.591 17.385C136.288 17.3483 136.984 17.5133 137.681 17.88C138.378 18.2467 138.726 18.815 138.726 19.585C138.653 20.2083 138.304 20.6117 137.681 20.795C137.094 20.9417 136.618 21.015 136.251 21.015C135.518 21.015 134.729 21.0333 133.886 21.07C133.043 21.1067 132.181 21.1617 131.301 21.235C131.228 22.445 131.154 23.5817 131.081 24.645C131.044 25.7083 131.008 26.6617 130.971 27.505C130.934 28.3117 130.916 28.9717 130.916 29.485C130.916 29.9983 130.934 30.2733 130.971 30.31C131.778 30.1633 132.639 29.925 133.556 29.595C134.509 29.2283 135.444 28.8433 136.361 28.44C137.314 28 138.231 27.56 139.111 27.12C140.028 26.6433 140.889 26.2033 141.696 25.8C142.063 25.6167 142.393 25.5617 142.686 25.635C143.016 25.7083 143.218 25.8733 143.291 26.13C143.364 26.5333 143.309 27.0283 143.126 27.615C142.943 28.2017 142.613 28.7333 142.136 29.21C141.586 29.65 140.853 30.1633 139.936 30.75C139.056 31.3 138.103 31.8317 137.076 32.345C136.049 32.8583 135.004 33.3167 133.941 33.72C132.914 34.0867 131.998 34.3067 131.191 34.38C129.981 34.49 129.064 34.16 128.441 33.39C127.818 32.62 127.469 31.6483 127.396 30.475C127.323 29.3017 127.304 27.945 127.341 26.405C127.414 24.865 127.488 23.2333 127.561 21.51C126.864 21.5833 126.186 21.6567 125.526 21.73C124.903 21.7667 124.298 21.8217 123.711 21.895C123.234 21.895 122.703 21.785 122.116 21.565C121.566 21.345 121.291 20.9233 121.291 20.3C121.291 20.08 121.383 19.7867 121.566 19.42C121.749 19.0533 122.153 18.7783 122.776 18.595C124.279 18.3383 125.948 18.1183 127.781 17.935C127.891 16.2117 128.019 14.5433 128.166 12.93C128.313 11.3167 128.441 9.85 128.551 8.53C128.588 8.09 128.716 7.705 128.936 7.375C129.156 7.045 129.394 6.88 129.651 6.88C130.274 6.84333 130.861 7.00833 131.411 7.375C131.998 7.705 132.291 8.09 132.291 8.53C132.144 9.77666 131.998 11.1883 131.851 12.765C131.741 14.3417 131.631 15.955 131.521 17.605C132.254 17.5317 132.951 17.495 133.611 17.495C134.308 17.4583 134.968 17.4217 135.591 17.385ZM150.287 15.845C150.067 16.835 149.847 17.935 149.627 19.145C149.407 20.3183 149.242 21.455 149.132 22.555C149.059 23.655 149.059 24.645 149.132 25.525C149.242 26.405 149.481 27.0283 149.847 27.395C150.471 27.505 151.186 27.2483 151.992 26.625C152.799 25.965 153.587 25.14 154.357 24.15C155.127 23.16 155.824 22.0967 156.447 20.96C157.071 19.7867 157.511 18.76 157.767 17.88C157.914 17.44 158.042 16.9817 158.152 16.505C158.262 16.0283 158.317 15.5333 158.317 15.02C158.317 14.7267 158.501 14.4517 158.867 14.195C159.271 13.9017 159.601 13.7367 159.857 13.7C160.041 13.6633 160.242 13.7 160.462 13.81C160.719 13.92 160.939 14.085 161.122 14.305C161.342 14.4883 161.526 14.7267 161.672 15.02C161.856 15.2767 161.947 15.5517 161.947 15.845C162.021 16.945 162.131 18.155 162.277 19.475C162.424 20.795 162.589 22.115 162.772 23.435C162.992 24.755 163.212 26.0383 163.432 27.285C163.652 28.5317 163.872 29.65 164.092 30.64C164.202 31.0433 164.092 31.5017 163.762 32.015C163.432 32.5283 163.066 32.84 162.662 32.95C162.332 33.0233 161.984 32.9867 161.617 32.84C161.287 32.6933 161.031 32.4 160.847 31.96C160.664 31.4467 160.481 30.8233 160.297 30.09C160.151 29.32 160.004 28.5317 159.857 27.725C159.747 26.8817 159.637 26.0933 159.527 25.36C159.417 24.59 159.344 23.9483 159.307 23.435C158.757 24.425 158.097 25.4333 157.327 26.46C156.594 27.45 155.787 28.3667 154.907 29.21C154.064 30.0167 153.166 30.6583 152.212 31.135C151.296 31.575 150.342 31.74 149.352 31.63C147.886 31.4467 146.767 30.0717 145.997 27.505C145.704 26.4783 145.557 25.3417 145.557 24.095C145.594 22.8483 145.686 21.62 145.832 20.41C146.016 19.1633 146.217 17.99 146.437 16.89C146.694 15.79 146.914 14.8917 147.097 14.195C147.171 13.9017 147.317 13.645 147.537 13.425C147.757 13.1683 148.014 13.0767 148.307 13.15C148.857 13.26 149.352 13.59 149.792 14.14C150.269 14.69 150.434 15.2583 150.287 15.845ZM172.736 6.385C172.919 10.3817 173.231 14.525 173.671 18.815C174.111 23.0683 174.588 27.1383 175.101 31.025C175.211 32.6383 174.771 33.4633 173.781 33.5C173.561 33.5 173.341 33.4267 173.121 33.28C172.901 33.0967 172.699 32.8767 172.516 32.62C172.333 32.3633 172.149 32.0883 171.966 31.795C171.819 31.5017 171.728 31.245 171.691 31.025C171.398 29.155 171.123 27.175 170.866 25.085C170.609 22.995 170.371 20.905 170.151 18.815C169.968 16.6883 169.803 14.6167 169.656 12.6C169.509 10.5833 169.418 8.73167 169.381 7.045C169.454 6.165 169.583 5.43167 169.766 4.845C169.949 4.22167 170.334 3.92833 170.921 3.965C171.544 4.00166 171.984 4.25833 172.241 4.735C172.534 5.175 172.699 5.725 172.736 6.385ZM193.36 11.775C193.507 12.8017 193.617 13.9017 193.69 15.075C193.8 16.2117 193.873 17.3667 193.91 18.54C193.983 19.7133 194.02 20.85 194.02 21.95C194.02 23.05 194.002 24.04 193.965 24.92C195.138 25.7267 195.835 26.4417 196.055 27.065C196.312 27.6883 196.348 28.2383 196.165 28.715C195.945 29.375 195.542 29.7233 194.955 29.76C194.405 29.76 193.763 29.5583 193.03 29.155C192.517 29.5217 191.93 29.925 191.27 30.365C190.61 30.7683 189.913 31.1717 189.18 31.575C188.447 31.9417 187.713 32.2717 186.98 32.565C186.247 32.8583 185.568 33.06 184.945 33.17C183.772 33.3533 182.708 33.1333 181.755 32.51C180.838 31.8867 180.215 30.9517 179.885 29.705C179.665 28.8617 179.61 28 179.72 27.12C179.83 26.2033 180.105 25.3417 180.545 24.535C180.985 23.6917 181.572 22.94 182.305 22.28C183.075 21.62 183.973 21.1067 185 20.74C185.257 20.63 185.605 20.5383 186.045 20.465C186.522 20.3917 186.998 20.3733 187.475 20.41C187.988 20.41 188.502 20.5017 189.015 20.685C189.528 20.8683 190.005 21.18 190.445 21.62C190.445 20.9967 190.427 20.3183 190.39 19.585C190.39 18.815 190.372 18.045 190.335 17.275C190.298 16.505 190.243 15.79 190.17 15.13C190.133 14.4333 190.078 13.8467 190.005 13.37C189.932 12.82 189.712 12.49 189.345 12.38C189.015 12.2333 188.593 12.2517 188.08 12.435C187.2 12.7283 186.173 13.2967 185 14.14C183.827 14.9833 182.708 15.8817 181.645 16.835C181.315 17.165 180.93 17.3117 180.49 17.275C180.087 17.2383 179.738 17.0733 179.445 16.78C179.152 16.4867 178.987 16.1567 178.95 15.79C178.913 15.3867 179.06 14.965 179.39 14.525C180.013 13.865 180.71 13.1867 181.48 12.49C182.25 11.7933 183.057 11.17 183.9 10.62C184.743 10.0333 185.605 9.55667 186.485 9.19C187.365 8.82333 188.245 8.62166 189.125 8.585C190.408 8.54833 191.398 8.84167 192.095 9.465C192.792 10.0517 193.213 10.8217 193.36 11.775ZM186.98 23.6C186.503 23.71 185.99 23.9483 185.44 24.315C184.927 24.645 184.45 25.0667 184.01 25.58C183.607 26.0567 183.295 26.6067 183.075 27.23C182.892 27.8167 182.892 28.4033 183.075 28.99C183.148 29.21 183.295 29.375 183.515 29.485C183.772 29.595 184.047 29.6133 184.34 29.54C185.22 29.3567 186.21 29.0083 187.31 28.495C188.447 27.945 189.345 27.3583 190.005 26.735C190.005 26.515 189.895 26.24 189.675 25.91C189.455 25.5433 189.198 25.195 188.905 24.865C188.612 24.4983 188.282 24.1867 187.915 23.93C187.585 23.6733 187.273 23.5633 186.98 23.6ZM211.861 17.385C212.557 17.3483 213.254 17.5133 213.951 17.88C214.647 18.2467 214.996 18.815 214.996 19.585C214.922 20.2083 214.574 20.6117 213.951 20.795C213.364 20.9417 212.887 21.015 212.521 21.015C211.787 21.015 210.999 21.0333 210.156 21.07C209.312 21.1067 208.451 21.1617 207.571 21.235C207.497 22.445 207.424 23.5817 207.351 24.645C207.314 25.7083 207.277 26.6617 207.241 27.505C207.204 28.3117 207.186 28.9717 207.186 29.485C207.186 29.9983 207.204 30.2733 207.241 30.31C208.047 30.1633 208.909 29.925 209.826 29.595C210.779 29.2283 211.714 28.8433 212.631 28.44C213.584 28 214.501 27.56 215.381 27.12C216.297 26.6433 217.159 26.2033 217.966 25.8C218.332 25.6167 218.662 25.5617 218.956 25.635C219.286 25.7083 219.487 25.8733 219.561 26.13C219.634 26.5333 219.579 27.0283 219.396 27.615C219.212 28.2017 218.882 28.7333 218.406 29.21C217.856 29.65 217.122 30.1633 216.206 30.75C215.326 31.3 214.372 31.8317 213.346 32.345C212.319 32.8583 211.274 33.3167 210.211 33.72C209.184 34.0867 208.267 34.3067 207.461 34.38C206.251 34.49 205.334 34.16 204.711 33.39C204.087 32.62 203.739 31.6483 203.666 30.475C203.592 29.3017 203.574 27.945 203.611 26.405C203.684 24.865 203.757 23.2333 203.831 21.51C203.134 21.5833 202.456 21.6567 201.796 21.73C201.172 21.7667 200.567 21.8217 199.981 21.895C199.504 21.895 198.972 21.785 198.386 21.565C197.836 21.345 197.561 20.9233 197.561 20.3C197.561 20.08 197.652 19.7867 197.836 19.42C198.019 19.0533 198.422 18.7783 199.046 18.595C200.549 18.3383 202.217 18.1183 204.051 17.935C204.161 16.2117 204.289 14.5433 204.436 12.93C204.582 11.3167 204.711 9.85 204.821 8.53C204.857 8.09 204.986 7.705 205.206 7.375C205.426 7.045 205.664 6.88 205.921 6.88C206.544 6.84333 207.131 7.00833 207.681 7.375C208.267 7.705 208.561 8.09 208.561 8.53C208.414 9.77666 208.267 11.1883 208.121 12.765C208.011 14.3417 207.901 15.955 207.791 17.605C208.524 17.5317 209.221 17.495 209.881 17.495C210.577 17.4583 211.237 17.4217 211.861 17.385ZM231.067 9.685C230.993 10.0517 230.737 10.2533 230.297 10.29C229.857 10.3267 229.49 10.345 229.197 10.345C228.28 10.3817 227.327 10.4733 226.337 10.62C225.383 10.7667 224.375 10.9867 223.312 11.28C222.872 11.4267 222.395 11.3717 221.882 11.115C221.368 10.8583 221.057 10.345 220.947 9.575C220.947 9.28166 221.057 9.04333 221.277 8.86C221.497 8.67666 221.753 8.51166 222.047 8.365C222.523 8.145 223.092 7.96167 223.752 7.815C224.412 7.63167 225.072 7.50333 225.732 7.43C226.428 7.35667 227.088 7.33833 227.712 7.375C228.335 7.375 228.848 7.43 229.252 7.54C229.838 7.72333 230.297 7.99833 230.627 8.365C230.993 8.73166 231.14 9.17166 231.067 9.685ZM229.802 28C230.058 28.5867 230.187 29.2283 230.187 29.925C230.223 30.585 230.04 31.0433 229.637 31.3C229.123 31.63 228.573 31.6117 227.987 31.245C227.4 30.8783 226.96 30.3833 226.667 29.76C226.263 28.99 225.952 28.055 225.732 26.955C225.512 25.8183 225.347 24.7 225.237 23.6C225.127 22.5 225.053 21.4733 225.017 20.52C225.017 19.5667 225.017 18.8517 225.017 18.375C225.053 17.8617 225.2 17.385 225.457 16.945C225.713 16.505 226.043 16.2483 226.447 16.175C227.107 16.2117 227.638 16.5233 228.042 17.11C228.445 17.66 228.628 18.3567 228.592 19.2C228.592 19.86 228.61 20.5933 228.647 21.4C228.683 22.2067 228.757 23.0133 228.867 23.82C228.977 24.6267 229.105 25.415 229.252 26.185C229.398 26.9183 229.582 27.5233 229.802 28ZM247.797 12.93C248.897 13.3333 249.814 13.9383 250.547 14.745C251.317 15.5517 251.904 16.4683 252.307 17.495C252.71 18.485 252.93 19.5117 252.967 20.575C253.04 21.6383 252.93 22.6283 252.637 23.545C252.234 24.5717 251.72 25.58 251.097 26.57C250.474 27.56 249.759 28.44 248.952 29.21C248.145 29.98 247.229 30.6033 246.202 31.08C245.175 31.5567 244.039 31.795 242.792 31.795C241.289 31.795 240.024 31.4467 238.997 30.75C237.97 30.0533 237.164 29.155 236.577 28.055C235.99 26.955 235.605 25.7083 235.422 24.315C235.275 22.9217 235.312 21.5283 235.532 20.135C235.679 19.1083 235.917 18.1183 236.247 17.165C236.614 16.175 237.072 15.3133 237.622 14.58C238.172 13.81 238.795 13.1867 239.492 12.71C240.225 12.2333 241.05 11.995 241.967 11.995C242.48 11.995 243.122 12.105 243.892 12.325C244.662 12.5083 245.377 12.7833 246.037 13.15C246.514 12.71 247.1 12.6367 247.797 12.93ZM245.707 16.945C245.304 16.6883 244.827 16.3583 244.277 15.955C243.764 15.515 243.305 15.295 242.902 15.295C242.462 15.295 242.022 15.4967 241.582 15.9C241.179 16.3033 240.812 16.78 240.482 17.33C240.189 17.8433 239.932 18.375 239.712 18.925C239.492 19.475 239.345 19.915 239.272 20.245C239.162 20.795 239.089 21.455 239.052 22.225C239.015 22.995 239.07 23.765 239.217 24.535C239.364 25.2683 239.639 25.9467 240.042 26.57C240.482 27.1567 241.124 27.5783 241.967 27.835C242.48 27.9817 243.085 27.9817 243.782 27.835C244.479 27.6517 245.157 27.34 245.817 26.9C246.514 26.46 247.155 25.8733 247.742 25.14C248.365 24.4067 248.842 23.5633 249.172 22.61C249.539 21.5467 249.539 20.4467 249.172 19.31C248.842 18.1367 248.145 17.2933 247.082 16.78C246.825 16.9633 246.569 17.055 246.312 17.055C246.055 17.055 245.854 17.0183 245.707 16.945ZM260.903 13.975C261.013 14.525 261.123 15.1483 261.233 15.845C261.38 16.505 261.527 17.2017 261.673 17.935C261.82 18.6317 261.948 19.3467 262.058 20.08C262.168 20.8133 262.26 21.51 262.333 22.17C262.773 21.2167 263.25 20.2083 263.763 19.145C264.277 18.0817 264.827 17.11 265.413 16.23C266.037 15.3133 266.678 14.5617 267.338 13.975C268.035 13.3883 268.787 13.095 269.593 13.095C270.803 13.095 271.812 13.535 272.618 14.415C273.462 15.295 274.158 16.395 274.708 17.715C275.295 18.9983 275.753 20.355 276.083 21.785C276.413 23.215 276.688 24.48 276.908 25.58C277.128 26.57 276.688 27.3033 275.588 27.78C275.075 28.0367 274.69 28.0733 274.433 27.89C274.177 27.7067 274.03 27.5233 273.993 27.34C273.81 26.9 273.572 26.13 273.278 25.03C273.022 23.93 272.71 22.8117 272.343 21.675C272.013 20.5383 271.628 19.5483 271.188 18.705C270.748 17.8617 270.253 17.4767 269.703 17.55C269.043 17.5867 268.457 18.0817 267.943 19.035C267.503 19.805 267.045 20.6667 266.568 21.62C266.128 22.5367 265.688 23.49 265.248 24.48C264.808 25.4333 264.368 26.405 263.928 27.395C263.525 28.3483 263.14 29.2283 262.773 30.035C262.517 30.2917 262.187 30.475 261.783 30.585C261.417 30.6583 261.032 30.6217 260.628 30.475C260.262 30.365 259.968 30.1817 259.748 29.925C259.528 29.6683 259.418 29.4117 259.418 29.155C259.088 26.295 258.74 23.6917 258.373 21.345C258.043 18.9983 257.603 16.5967 257.053 14.14C256.797 13.2967 256.742 12.6367 256.888 12.16C257.072 11.6467 257.622 11.445 258.538 11.555C259.822 11.775 260.61 12.5817 260.903 13.975ZM290.979 15.68C290.906 15.2767 290.832 14.8917 290.759 14.525C290.686 14.1583 290.502 13.92 290.209 13.81C289.586 13.6267 288.926 13.6083 288.229 13.755C287.532 13.9017 286.891 14.14 286.304 14.47C285.717 14.7633 285.222 15.1117 284.819 15.515C284.416 15.8817 284.196 16.2117 284.159 16.505C284.049 17.055 284.196 17.5867 284.599 18.1C285.002 18.6133 285.589 19.1267 286.359 19.64C287.642 20.41 288.981 21.1983 290.374 22.005C291.767 22.8117 292.941 23.6367 293.894 24.48C294.847 25.3233 295.489 26.2583 295.819 27.285C296.186 28.275 296.112 29.4117 295.599 30.695C295.196 31.685 294.444 32.4917 293.344 33.115C292.244 33.7383 291.034 34.2333 289.714 34.6C288.394 34.93 287.074 35.1683 285.754 35.315C284.434 35.425 283.316 35.48 282.399 35.48C282.179 35.48 281.904 35.4067 281.574 35.26C281.281 35.0767 280.987 34.875 280.694 34.655C280.437 34.435 280.199 34.215 279.979 33.995C279.796 33.7383 279.704 33.5183 279.704 33.335C279.704 32.675 279.997 32.2167 280.584 31.96C281.171 31.7033 281.776 31.575 282.399 31.575C283.279 31.575 284.214 31.5383 285.204 31.465C286.231 31.355 287.202 31.2083 288.119 31.025C289.036 30.805 289.861 30.53 290.594 30.2C291.327 29.87 291.841 29.4483 292.134 28.935C292.391 28.495 292.226 27.9817 291.639 27.395C291.089 26.7717 290.337 26.13 289.384 25.47C288.467 24.81 287.459 24.1683 286.359 23.545C285.296 22.9217 284.379 22.3533 283.609 21.84C282.839 21.3267 282.179 20.7217 281.629 20.025C281.079 19.2917 280.731 18.3933 280.584 17.33C280.547 16.3767 280.749 15.46 281.189 14.58C281.629 13.7 282.197 12.93 282.894 12.27C283.627 11.5733 284.452 11.0233 285.369 10.62C286.286 10.2167 287.202 10.015 288.119 10.015C289.696 10.0883 290.997 10.5283 292.024 11.335C293.051 12.105 293.656 13.26 293.839 14.8C293.839 15.3133 293.747 15.735 293.564 16.065C293.417 16.395 293.142 16.5967 292.739 16.67C292.226 16.7433 291.804 16.6883 291.474 16.505C291.181 16.285 291.016 16.01 290.979 15.68ZM300.597 43.29C300.303 43.0333 300.23 42.7033 300.377 42.3C300.523 41.8967 300.67 41.5483 300.817 41.255C301.183 40.4117 301.513 39.5317 301.807 38.615C302.1 37.6617 302.338 36.6533 302.522 35.59C302.595 35.1133 302.852 34.71 303.292 34.38C303.732 34.0133 304.318 33.94 305.052 34.16C305.345 34.3067 305.51 34.5267 305.547 34.82C305.62 35.0767 305.657 35.37 305.657 35.7C305.657 36.2133 305.583 36.8183 305.437 37.515C305.327 38.175 305.162 38.8167 304.942 39.44C304.722 40.1 304.465 40.705 304.172 41.255C303.878 41.805 303.603 42.2267 303.347 42.52C302.907 42.9967 302.43 43.3083 301.917 43.455C301.44 43.6383 301 43.5833 300.597 43.29ZM344.741 14.8C344.851 16.78 344.961 18.7783 345.071 20.795C345.218 22.8117 345.254 24.81 345.181 26.79C345.108 28.7333 344.906 30.64 344.576 32.51C344.283 34.38 343.769 36.1767 343.036 37.9C342.303 39.5867 341.313 41.1633 340.066 42.63C338.856 44.0967 337.316 45.4167 335.446 46.59C335.153 46.7733 334.823 46.8833 334.456 46.92C334.126 46.9567 333.796 46.9383 333.466 46.865C333.136 46.8283 332.843 46.7367 332.586 46.59C332.329 46.48 332.164 46.315 332.091 46.095C331.981 45.765 332.036 45.3983 332.256 44.995C332.476 44.5917 332.843 44.17 333.356 43.73C334.969 42.52 336.326 41.2367 337.426 39.88C338.526 38.5233 339.406 37.0567 340.066 35.48C340.726 33.9033 341.148 32.1983 341.331 30.365C341.551 28.495 341.551 26.46 341.331 24.26C340.891 24.81 340.378 25.3783 339.791 25.965C339.204 26.5517 338.581 27.0833 337.921 27.56C337.261 28 336.583 28.385 335.886 28.715C335.189 29.0083 334.529 29.155 333.906 29.155C333.393 29.155 332.879 29.045 332.366 28.825C331.853 28.605 331.339 28.1833 330.826 27.56C330.239 26.79 329.708 25.9283 329.231 24.975C328.791 23.985 328.406 23.0317 328.076 22.115C327.746 21.1983 327.471 20.3733 327.251 19.64C327.068 18.9067 326.958 18.3933 326.921 18.1C326.848 17.7333 326.848 17.385 326.921 17.055C326.994 16.725 327.233 16.5233 327.636 16.45C328.186 16.34 328.699 16.3767 329.176 16.56C329.653 16.7433 329.983 17.0367 330.166 17.44C330.313 17.8433 330.514 18.4667 330.771 19.31C331.028 20.1533 331.339 20.9967 331.706 21.84C332.073 22.6467 332.458 23.3617 332.861 23.985C333.301 24.6083 333.759 24.92 334.236 24.92C334.786 24.92 335.428 24.645 336.161 24.095C336.931 23.545 337.664 22.83 338.361 21.95C339.058 21.07 339.644 20.0983 340.121 19.035C340.634 17.935 340.891 16.8717 340.891 15.845C340.891 15.625 340.928 15.3683 341.001 15.075C341.074 14.7817 341.184 14.5067 341.331 14.25C341.478 13.9567 341.643 13.7183 341.826 13.535C342.046 13.315 342.266 13.1867 342.486 13.15C343.073 13.0767 343.586 13.2417 344.026 13.645C344.503 14.0117 344.741 14.3967 344.741 14.8ZM362.685 12.93C363.785 13.3333 364.701 13.9383 365.435 14.745C366.205 15.5517 366.791 16.4683 367.195 17.495C367.598 18.485 367.818 19.5117 367.855 20.575C367.928 21.6383 367.818 22.6283 367.525 23.545C367.121 24.5717 366.608 25.58 365.985 26.57C365.361 27.56 364.646 28.44 363.84 29.21C363.033 29.98 362.116 30.6033 361.09 31.08C360.063 31.5567 358.926 31.795 357.68 31.795C356.176 31.795 354.911 31.4467 353.885 30.75C352.858 30.0533 352.051 29.155 351.465 28.055C350.878 26.955 350.493 25.7083 350.31 24.315C350.163 22.9217 350.2 21.5283 350.42 20.135C350.566 19.1083 350.805 18.1183 351.135 17.165C351.501 16.175 351.96 15.3133 352.51 14.58C353.06 13.81 353.683 13.1867 354.38 12.71C355.113 12.2333 355.938 11.995 356.855 11.995C357.368 11.995 358.01 12.105 358.78 12.325C359.55 12.5083 360.265 12.7833 360.925 13.15C361.401 12.71 361.988 12.6367 362.685 12.93ZM360.595 16.945C360.191 16.6883 359.715 16.3583 359.165 15.955C358.651 15.515 358.193 15.295 357.79 15.295C357.35 15.295 356.91 15.4967 356.47 15.9C356.066 16.3033 355.7 16.78 355.37 17.33C355.076 17.8433 354.82 18.375 354.6 18.925C354.38 19.475 354.233 19.915 354.16 20.245C354.05 20.795 353.976 21.455 353.94 22.225C353.903 22.995 353.958 23.765 354.105 24.535C354.251 25.2683 354.526 25.9467 354.93 26.57C355.37 27.1567 356.011 27.5783 356.855 27.835C357.368 27.9817 357.973 27.9817 358.67 27.835C359.366 27.6517 360.045 27.34 360.705 26.9C361.401 26.46 362.043 25.8733 362.63 25.14C363.253 24.4067 363.73 23.5633 364.06 22.61C364.426 21.5467 364.426 20.4467 364.06 19.31C363.73 18.1367 363.033 17.2933 361.97 16.78C361.713 16.9633 361.456 17.055 361.2 17.055C360.943 17.055 360.741 17.0183 360.595 16.945ZM377.001 15.845C376.781 16.835 376.561 17.935 376.341 19.145C376.121 20.3183 375.956 21.455 375.846 22.555C375.773 23.655 375.773 24.645 375.846 25.525C375.956 26.405 376.194 27.0283 376.561 27.395C377.184 27.505 377.899 27.2483 378.706 26.625C379.513 25.965 380.301 25.14 381.071 24.15C381.841 23.16 382.538 22.0967 383.161 20.96C383.784 19.7867 384.224 18.76 384.481 17.88C384.628 17.44 384.756 16.9817 384.866 16.505C384.976 16.0283 385.031 15.5333 385.031 15.02C385.031 14.7267 385.214 14.4517 385.581 14.195C385.984 13.9017 386.314 13.7367 386.571 13.7C386.754 13.6633 386.956 13.7 387.176 13.81C387.433 13.92 387.653 14.085 387.836 14.305C388.056 14.4883 388.239 14.7267 388.386 15.02C388.569 15.2767 388.661 15.5517 388.661 15.845C388.734 16.945 388.844 18.155 388.991 19.475C389.138 20.795 389.303 22.115 389.486 23.435C389.706 24.755 389.926 26.0383 390.146 27.285C390.366 28.5317 390.586 29.65 390.806 30.64C390.916 31.0433 390.806 31.5017 390.476 32.015C390.146 32.5283 389.779 32.84 389.376 32.95C389.046 33.0233 388.698 32.9867 388.331 32.84C388.001 32.6933 387.744 32.4 387.561 31.96C387.378 31.4467 387.194 30.8233 387.011 30.09C386.864 29.32 386.718 28.5317 386.571 27.725C386.461 26.8817 386.351 26.0933 386.241 25.36C386.131 24.59 386.058 23.9483 386.021 23.435C385.471 24.425 384.811 25.4333 384.041 26.46C383.308 27.45 382.501 28.3667 381.621 29.21C380.778 30.0167 379.879 30.6583 378.926 31.135C378.009 31.575 377.056 31.74 376.066 31.63C374.599 31.4467 373.481 30.0717 372.711 27.505C372.418 26.4783 372.271 25.3417 372.271 24.095C372.308 22.8483 372.399 21.62 372.546 20.41C372.729 19.1633 372.931 17.99 373.151 16.89C373.408 15.79 373.628 14.8917 373.811 14.195C373.884 13.9017 374.031 13.645 374.251 13.425C374.471 13.1683 374.728 13.0767 375.021 13.15C375.571 13.26 376.066 13.59 376.506 14.14C376.983 14.69 377.148 15.2583 377.001 15.845ZM423.995 11.775C424.141 12.8017 424.251 13.9017 424.325 15.075C424.435 16.2117 424.508 17.3667 424.545 18.54C424.618 19.7133 424.655 20.85 424.655 21.95C424.655 23.05 424.636 24.04 424.6 24.92C425.773 25.7267 426.47 26.4417 426.69 27.065C426.946 27.6883 426.983 28.2383 426.8 28.715C426.58 29.375 426.176 29.7233 425.59 29.76C425.04 29.76 424.398 29.5583 423.665 29.155C423.151 29.5217 422.565 29.925 421.905 30.365C421.245 30.7683 420.548 31.1717 419.815 31.575C419.081 31.9417 418.348 32.2717 417.615 32.565C416.881 32.8583 416.203 33.06 415.58 33.17C414.406 33.3533 413.343 33.1333 412.39 32.51C411.473 31.8867 410.85 30.9517 410.52 29.705C410.3 28.8617 410.245 28 410.355 27.12C410.465 26.2033 410.74 25.3417 411.18 24.535C411.62 23.6917 412.206 22.94 412.94 22.28C413.71 21.62 414.608 21.1067 415.635 20.74C415.891 20.63 416.24 20.5383 416.68 20.465C417.156 20.3917 417.633 20.3733 418.11 20.41C418.623 20.41 419.136 20.5017 419.65 20.685C420.163 20.8683 420.64 21.18 421.08 21.62C421.08 20.9967 421.061 20.3183 421.025 19.585C421.025 18.815 421.006 18.045 420.97 17.275C420.933 16.505 420.878 15.79 420.805 15.13C420.768 14.4333 420.713 13.8467 420.64 13.37C420.566 12.82 420.346 12.49 419.98 12.38C419.65 12.2333 419.228 12.2517 418.715 12.435C417.835 12.7283 416.808 13.2967 415.635 14.14C414.461 14.9833 413.343 15.8817 412.28 16.835C411.95 17.165 411.565 17.3117 411.125 17.275C410.721 17.2383 410.373 17.0733 410.08 16.78C409.786 16.4867 409.621 16.1567 409.585 15.79C409.548 15.3867 409.695 14.965 410.025 14.525C410.648 13.865 411.345 13.1867 412.115 12.49C412.885 11.7933 413.691 11.17 414.535 10.62C415.378 10.0333 416.24 9.55667 417.12 9.19C418 8.82333 418.88 8.62166 419.76 8.585C421.043 8.54833 422.033 8.84167 422.73 9.465C423.426 10.0517 423.848 10.8217 423.995 11.775ZM417.615 23.6C417.138 23.71 416.625 23.9483 416.075 24.315C415.561 24.645 415.085 25.0667 414.645 25.58C414.241 26.0567 413.93 26.6067 413.71 27.23C413.526 27.8167 413.526 28.4033 413.71 28.99C413.783 29.21 413.93 29.375 414.15 29.485C414.406 29.595 414.681 29.6133 414.975 29.54C415.855 29.3567 416.845 29.0083 417.945 28.495C419.081 27.945 419.98 27.3583 420.64 26.735C420.64 26.515 420.53 26.24 420.31 25.91C420.09 25.5433 419.833 25.195 419.54 24.865C419.246 24.4983 418.916 24.1867 418.55 23.93C418.22 23.6733 417.908 23.5633 417.615 23.6ZM446.455 13.15C445.795 13.5167 445.099 13.9017 444.365 14.305C443.669 14.7083 442.954 15.185 442.22 15.735C441.524 16.2483 440.845 16.8717 440.185 17.605C439.562 18.3017 438.994 19.145 438.48 20.135C437.747 21.5283 437.252 22.9583 436.995 24.425C436.739 25.855 436.574 27.2667 436.5 28.66C436.5 29.32 436.335 29.9983 436.005 30.695C435.712 31.355 435.29 31.685 434.74 31.685C434.044 31.685 433.475 31.3367 433.035 30.64C432.632 29.9067 432.357 29.21 432.21 28.55C431.587 25.9467 431.074 23.38 430.67 20.85C430.267 18.2833 429.919 15.735 429.625 13.205C429.625 12.6917 429.772 12.3617 430.065 12.215C430.395 12.0683 430.762 12.0133 431.165 12.05C431.605 12.0867 432.027 12.1967 432.43 12.38C432.834 12.5633 433.072 12.8567 433.145 13.26C433.292 14.6167 433.475 16.0467 433.695 17.55C433.915 19.0167 434.135 20.2817 434.355 21.345C434.502 20.0983 434.905 18.8883 435.565 17.715C436.225 16.5417 437.032 15.4783 437.985 14.525C438.975 13.5717 440.075 12.765 441.285 12.105C442.532 11.445 443.797 11.005 445.08 10.785C445.63 10.7117 446.089 10.7117 446.455 10.785C446.822 10.8583 447.079 10.9867 447.225 11.17C447.372 11.3533 447.39 11.6467 447.28 12.05C447.207 12.4533 446.932 12.82 446.455 13.15ZM463.086 19.2C461.656 20.0433 460.116 20.7033 458.466 21.18C456.816 21.62 455.038 21.84 453.131 21.84C453.204 23.1233 453.571 24.15 454.231 24.92C454.891 25.6533 455.716 26.0933 456.706 26.24C457.293 26.3133 457.879 26.295 458.466 26.185C459.089 26.075 459.658 25.91 460.171 25.69C460.721 25.4333 461.216 25.1583 461.656 24.865C462.096 24.5717 462.481 24.2783 462.811 23.985C463.141 23.6917 463.489 23.5083 463.856 23.435C464.223 23.325 464.498 23.3067 464.681 23.38C465.194 23.5633 465.378 24.1133 465.231 25.03C464.644 26.2033 463.801 27.2117 462.701 28.055C461.601 28.8617 460.373 29.375 459.016 29.595C457.843 29.815 456.633 29.76 455.386 29.43C454.139 29.1 453.021 28.4583 452.031 27.505C451.188 26.6617 450.546 25.6717 450.106 24.535C449.666 23.3983 449.391 22.225 449.281 21.015C449.171 19.8783 449.263 18.7967 449.556 17.77C449.886 16.7433 450.381 15.845 451.041 15.075C451.701 14.2683 452.526 13.6083 453.516 13.095C454.506 12.5817 455.661 12.2883 456.981 12.215C458.558 12.105 459.988 12.3983 461.271 13.095C462.554 13.7917 463.453 14.7633 463.966 16.01C464.259 16.7067 464.333 17.3117 464.186 17.825C464.076 18.3383 463.709 18.7967 463.086 19.2ZM456.761 15.46C456.394 15.5333 455.991 15.6617 455.551 15.845C455.148 16.0283 454.763 16.2667 454.396 16.56C454.066 16.8167 453.754 17.1283 453.461 17.495C453.204 17.825 453.058 18.21 453.021 18.65C453.644 18.65 454.323 18.595 455.056 18.485C455.826 18.375 456.559 18.2467 457.256 18.1C457.989 17.9167 458.649 17.715 459.236 17.495C459.859 17.275 460.373 17.0367 460.776 16.78C460.483 16.0833 459.933 15.6617 459.126 15.515C458.356 15.3317 457.568 15.3133 456.761 15.46ZM498.223 11.775C498.37 12.8017 498.48 13.9017 498.553 15.075C498.663 16.2117 498.737 17.3667 498.773 18.54C498.847 19.7133 498.883 20.85 498.883 21.95C498.883 23.05 498.865 24.04 498.828 24.92C500.002 25.7267 500.698 26.4417 500.918 27.065C501.175 27.6883 501.212 28.2383 501.028 28.715C500.808 29.375 500.405 29.7233 499.818 29.76C499.268 29.76 498.627 29.5583 497.893 29.155C497.38 29.5217 496.793 29.925 496.133 30.365C495.473 30.7683 494.777 31.1717 494.043 31.575C493.31 31.9417 492.577 32.2717 491.843 32.565C491.11 32.8583 490.432 33.06 489.808 33.17C488.635 33.3533 487.572 33.1333 486.618 32.51C485.702 31.8867 485.078 30.9517 484.748 29.705C484.528 28.8617 484.473 28 484.583 27.12C484.693 26.2033 484.968 25.3417 485.408 24.535C485.848 23.6917 486.435 22.94 487.168 22.28C487.938 21.62 488.837 21.1067 489.863 20.74C490.12 20.63 490.468 20.5383 490.908 20.465C491.385 20.3917 491.862 20.3733 492.338 20.41C492.852 20.41 493.365 20.5017 493.878 20.685C494.392 20.8683 494.868 21.18 495.308 21.62C495.308 20.9967 495.29 20.3183 495.253 19.585C495.253 18.815 495.235 18.045 495.198 17.275C495.162 16.505 495.107 15.79 495.033 15.13C494.997 14.4333 494.942 13.8467 494.868 13.37C494.795 12.82 494.575 12.49 494.208 12.38C493.878 12.2333 493.457 12.2517 492.943 12.435C492.063 12.7283 491.037 13.2967 489.863 14.14C488.69 14.9833 487.572 15.8817 486.508 16.835C486.178 17.165 485.793 17.3117 485.353 17.275C484.95 17.2383 484.602 17.0733 484.308 16.78C484.015 16.4867 483.85 16.1567 483.813 15.79C483.777 15.3867 483.923 14.965 484.253 14.525C484.877 13.865 485.573 13.1867 486.343 12.49C487.113 11.7933 487.92 11.17 488.763 10.62C489.607 10.0333 490.468 9.55667 491.348 9.19C492.228 8.82333 493.108 8.62166 493.988 8.585C495.272 8.54833 496.262 8.84167 496.958 9.465C497.655 10.0517 498.077 10.8217 498.223 11.775ZM491.843 23.6C491.367 23.71 490.853 23.9483 490.303 24.315C489.79 24.645 489.313 25.0667 488.873 25.58C488.47 26.0567 488.158 26.6067 487.938 27.23C487.755 27.8167 487.755 28.4033 487.938 28.99C488.012 29.21 488.158 29.375 488.378 29.485C488.635 29.595 488.91 29.6133 489.203 29.54C490.083 29.3567 491.073 29.0083 492.173 28.495C493.31 27.945 494.208 27.3583 494.868 26.735C494.868 26.515 494.758 26.24 494.538 25.91C494.318 25.5433 494.062 25.195 493.768 24.865C493.475 24.4983 493.145 24.1867 492.778 23.93C492.448 23.6733 492.137 23.5633 491.843 23.6ZM507.759 13.975C507.869 14.525 507.979 15.1483 508.089 15.845C508.236 16.505 508.382 17.2017 508.529 17.935C508.676 18.6317 508.804 19.3467 508.914 20.08C509.024 20.8133 509.116 21.51 509.189 22.17C509.629 21.2167 510.106 20.2083 510.619 19.145C511.132 18.0817 511.682 17.11 512.269 16.23C512.892 15.3133 513.534 14.5617 514.194 13.975C514.891 13.3883 515.642 13.095 516.449 13.095C517.659 13.095 518.667 13.535 519.474 14.415C520.317 15.295 521.014 16.395 521.564 17.715C522.151 18.9983 522.609 20.355 522.939 21.785C523.269 23.215 523.544 24.48 523.764 25.58C523.984 26.57 523.544 27.3033 522.444 27.78C521.931 28.0367 521.546 28.0733 521.289 27.89C521.032 27.7067 520.886 27.5233 520.849 27.34C520.666 26.9 520.427 26.13 520.134 25.03C519.877 23.93 519.566 22.8117 519.199 21.675C518.869 20.5383 518.484 19.5483 518.044 18.705C517.604 17.8617 517.109 17.4767 516.559 17.55C515.899 17.5867 515.312 18.0817 514.799 19.035C514.359 19.805 513.901 20.6667 513.424 21.62C512.984 22.5367 512.544 23.49 512.104 24.48C511.664 25.4333 511.224 26.405 510.784 27.395C510.381 28.3483 509.996 29.2283 509.629 30.035C509.372 30.2917 509.042 30.475 508.639 30.585C508.272 30.6583 507.887 30.6217 507.484 30.475C507.117 30.365 506.824 30.1817 506.604 29.925C506.384 29.6683 506.274 29.4117 506.274 29.155C505.944 26.295 505.596 23.6917 505.229 21.345C504.899 18.9983 504.459 16.5967 503.909 14.14C503.652 13.2967 503.597 12.6367 503.744 12.16C503.927 11.6467 504.477 11.445 505.394 11.555C506.677 11.775 507.466 12.5817 507.759 13.975ZM556.274 19.2C554.844 20.0433 553.304 20.7033 551.654 21.18C550.004 21.62 548.226 21.84 546.319 21.84C546.393 23.1233 546.759 24.15 547.419 24.92C548.079 25.6533 548.904 26.0933 549.894 26.24C550.481 26.3133 551.068 26.295 551.654 26.185C552.278 26.075 552.846 25.91 553.359 25.69C553.909 25.4333 554.404 25.1583 554.844 24.865C555.284 24.5717 555.669 24.2783 555.999 23.985C556.329 23.6917 556.678 23.5083 557.044 23.435C557.411 23.325 557.686 23.3067 557.869 23.38C558.383 23.5633 558.566 24.1133 558.419 25.03C557.833 26.2033 556.989 27.2117 555.889 28.055C554.789 28.8617 553.561 29.375 552.204 29.595C551.031 29.815 549.821 29.76 548.574 29.43C547.328 29.1 546.209 28.4583 545.219 27.505C544.376 26.6617 543.734 25.6717 543.294 24.535C542.854 23.3983 542.579 22.225 542.469 21.015C542.359 19.8783 542.451 18.7967 542.744 17.77C543.074 16.7433 543.569 15.845 544.229 15.075C544.889 14.2683 545.714 13.6083 546.704 13.095C547.694 12.5817 548.849 12.2883 550.169 12.215C551.746 12.105 553.176 12.3983 554.459 13.095C555.743 13.7917 556.641 14.7633 557.154 16.01C557.448 16.7067 557.521 17.3117 557.374 17.825C557.264 18.3383 556.898 18.7967 556.274 19.2ZM549.949 15.46C549.583 15.5333 549.179 15.6617 548.739 15.845C548.336 16.0283 547.951 16.2667 547.584 16.56C547.254 16.8167 546.943 17.1283 546.649 17.495C546.393 17.825 546.246 18.21 546.209 18.65C546.833 18.65 547.511 18.595 548.244 18.485C549.014 18.375 549.748 18.2467 550.444 18.1C551.178 17.9167 551.838 17.715 552.424 17.495C553.048 17.275 553.561 17.0367 553.964 16.78C553.671 16.0833 553.121 15.6617 552.314 15.515C551.544 15.3317 550.756 15.3133 549.949 15.46ZM578.417 26.955C579.113 27.7983 579.517 28.5683 579.627 29.265C579.737 29.925 579.462 30.4017 578.802 30.695C578.655 30.7683 578.435 30.7867 578.142 30.75C577.885 30.6767 577.592 30.585 577.262 30.475C576.968 30.3283 576.675 30.1633 576.382 29.98C576.088 29.7967 575.85 29.6133 575.667 29.43C574.86 28.5133 574.053 27.5967 573.247 26.68C572.477 25.7633 571.67 24.8467 570.827 23.93L564.832 30.035C564.208 30.5483 563.64 30.7683 563.127 30.695C562.613 30.585 562.357 30.31 562.357 29.87C562.357 29.1733 562.467 28.5317 562.687 27.945C562.943 27.3217 563.273 26.735 563.677 26.185C564.41 25.305 565.162 24.4433 565.932 23.6C566.702 22.7567 567.472 21.9133 568.242 21.07C567.288 20.08 566.317 19.1083 565.327 18.155C564.373 17.165 563.383 16.1933 562.357 15.24C561.917 15.24 561.623 15.1667 561.477 15.02C561.33 14.8733 561.238 14.7083 561.202 14.525C561.202 14.305 561.238 14.1033 561.312 13.92C561.385 13.7367 561.458 13.6083 561.532 13.535C562.192 12.875 562.852 12.5633 563.512 12.6C564.172 12.6 564.832 12.8017 565.492 13.205C567.435 14.745 569.25 16.4133 570.937 18.21C572.403 16.67 573.907 15.1667 575.447 13.7C575.923 13.4067 576.437 13.2233 576.987 13.15C577.537 13.0767 578.142 13.205 578.802 13.535C579.132 13.9383 579.223 14.415 579.077 14.965C578.967 15.4783 578.673 15.9917 578.197 16.505L573.632 21.125C574.475 22.0783 575.3 23.05 576.107 24.04C576.913 25.03 577.683 26.0017 578.417 26.955ZM592.598 38.12C592.561 38.5233 592.378 38.89 592.048 39.22C591.718 39.5867 591.351 39.7517 590.948 39.715C590.324 39.6783 589.848 39.44 589.518 39C589.188 38.56 589.023 38.1933 589.023 37.9C589.023 36.5067 588.986 35.0583 588.913 33.555C588.839 32.015 588.748 30.4383 588.638 28.825C588.161 28.8983 587.721 28.8617 587.318 28.715C586.951 28.5317 586.694 28.2567 586.548 27.89C586.291 27.2667 586.328 26.7167 586.658 26.24C586.988 25.7633 587.519 25.305 588.253 24.865C588.069 23.5083 587.886 22.17 587.703 20.85C587.556 19.53 587.391 18.2467 587.208 17C587.171 16.78 587.189 16.5783 587.263 16.395C587.336 16.2117 587.428 16.0467 587.538 15.9C587.648 15.7167 587.849 15.5517 588.143 15.405C588.619 15.2217 589.151 15.3683 589.738 15.845C590.361 16.3217 590.783 16.9267 591.003 17.66C591.113 18.3567 591.223 19.1633 591.333 20.08C591.479 20.96 591.608 21.9317 591.718 22.995C592.488 22.5183 593.203 22.005 593.863 21.455C594.559 20.905 595.146 20.3183 595.623 19.695C596.136 19.0717 596.521 18.43 596.778 17.77C597.034 17.0733 597.108 16.3583 596.998 15.625C596.924 15.0017 596.649 14.4517 596.173 13.975C595.696 13.4617 594.944 13.1867 593.918 13.15C593.001 13.1133 592.084 13.1867 591.168 13.37C590.288 13.5533 589.408 13.7917 588.528 14.085C587.684 14.3783 586.841 14.7267 585.998 15.13C585.191 15.5333 584.403 15.9367 583.633 16.34C583.119 16.6333 582.606 16.7617 582.093 16.725C581.616 16.6517 581.304 16.4683 581.158 16.175C580.828 15.4417 580.846 14.7817 581.213 14.195C581.616 13.6083 582.221 13.0583 583.028 12.545C583.724 12.1417 584.549 11.7383 585.503 11.335C586.493 10.895 587.519 10.5283 588.583 10.235C589.683 9.905 590.783 9.685 591.883 9.575C593.019 9.42833 594.101 9.44666 595.128 9.63C596.154 9.77666 597.071 10.125 597.878 10.675C598.721 11.1883 599.399 11.9583 599.913 12.985C600.536 14.6717 600.701 16.23 600.408 17.66C600.151 19.0533 599.601 20.3367 598.758 21.51C597.951 22.6467 596.943 23.6917 595.733 24.645C594.559 25.5617 593.368 26.3867 592.158 27.12C592.341 29.1 592.469 31.0617 592.543 33.005C592.616 34.9483 592.634 36.6533 592.598 38.12ZM617.559 19.2C616.129 20.0433 614.589 20.7033 612.939 21.18C611.289 21.62 609.51 21.84 607.604 21.84C607.677 23.1233 608.044 24.15 608.704 24.92C609.364 25.6533 610.189 26.0933 611.179 26.24C611.765 26.3133 612.352 26.295 612.939 26.185C613.562 26.075 614.13 25.91 614.644 25.69C615.194 25.4333 615.689 25.1583 616.129 24.865C616.569 24.5717 616.954 24.2783 617.284 23.985C617.614 23.6917 617.962 23.5083 618.329 23.435C618.695 23.325 618.97 23.3067 619.154 23.38C619.667 23.5633 619.85 24.1133 619.704 25.03C619.117 26.2033 618.274 27.2117 617.174 28.055C616.074 28.8617 614.845 29.375 613.489 29.595C612.315 29.815 611.105 29.76 609.859 29.43C608.612 29.1 607.494 28.4583 606.504 27.505C605.66 26.6617 605.019 25.6717 604.579 24.535C604.139 23.3983 603.864 22.225 603.754 21.015C603.644 19.8783 603.735 18.7967 604.029 17.77C604.359 16.7433 604.854 15.845 605.514 15.075C606.174 14.2683 606.999 13.6083 607.989 13.095C608.979 12.5817 610.134 12.2883 611.454 12.215C613.03 12.105 614.46 12.3983 615.744 13.095C617.027 13.7917 617.925 14.7633 618.439 16.01C618.732 16.7067 618.805 17.3117 618.659 17.825C618.549 18.3383 618.182 18.7967 617.559 19.2ZM611.234 15.46C610.867 15.5333 610.464 15.6617 610.024 15.845C609.62 16.0283 609.235 16.2667 608.869 16.56C608.539 16.8167 608.227 17.1283 607.934 17.495C607.677 17.825 607.53 18.21 607.494 18.65C608.117 18.65 608.795 18.595 609.529 18.485C610.299 18.375 611.032 18.2467 611.729 18.1C612.462 17.9167 613.122 17.715 613.709 17.495C614.332 17.275 614.845 17.0367 615.249 16.78C614.955 16.0833 614.405 15.6617 613.599 15.515C612.829 15.3317 612.04 15.3133 611.234 15.46ZM639.976 13.15C639.316 13.5167 638.619 13.9017 637.886 14.305C637.189 14.7083 636.474 15.185 635.741 15.735C635.044 16.2483 634.366 16.8717 633.706 17.605C633.083 18.3017 632.514 19.145 632.001 20.135C631.268 21.5283 630.773 22.9583 630.516 24.425C630.259 25.855 630.094 27.2667 630.021 28.66C630.021 29.32 629.856 29.9983 629.526 30.695C629.233 31.355 628.811 31.685 628.261 31.685C627.564 31.685 626.996 31.3367 626.556 30.64C626.153 29.9067 625.878 29.21 625.731 28.55C625.108 25.9467 624.594 23.38 624.191 20.85C623.788 18.2833 623.439 15.735 623.146 13.205C623.146 12.6917 623.293 12.3617 623.586 12.215C623.916 12.0683 624.283 12.0133 624.686 12.05C625.126 12.0867 625.548 12.1967 625.951 12.38C626.354 12.5633 626.593 12.8567 626.666 13.26C626.813 14.6167 626.996 16.0467 627.216 17.55C627.436 19.0167 627.656 20.2817 627.876 21.345C628.023 20.0983 628.426 18.8883 629.086 17.715C629.746 16.5417 630.553 15.4783 631.506 14.525C632.496 13.5717 633.596 12.765 634.806 12.105C636.053 11.445 637.318 11.005 638.601 10.785C639.151 10.7117 639.609 10.7117 639.976 10.785C640.343 10.8583 640.599 10.9867 640.746 11.17C640.893 11.3533 640.911 11.6467 640.801 12.05C640.728 12.4533 640.453 12.82 639.976 13.15ZM655.782 17.385C656.478 17.3483 657.175 17.5133 657.872 17.88C658.568 18.2467 658.917 18.815 658.917 19.585C658.843 20.2083 658.495 20.6117 657.872 20.795C657.285 20.9417 656.808 21.015 656.442 21.015C655.708 21.015 654.92 21.0333 654.077 21.07C653.233 21.1067 652.372 21.1617 651.492 21.235C651.418 22.445 651.345 23.5817 651.272 24.645C651.235 25.7083 651.198 26.6617 651.162 27.505C651.125 28.3117 651.107 28.9717 651.107 29.485C651.107 29.9983 651.125 30.2733 651.162 30.31C651.968 30.1633 652.83 29.925 653.747 29.595C654.7 29.2283 655.635 28.8433 656.552 28.44C657.505 28 658.422 27.56 659.302 27.12C660.218 26.6433 661.08 26.2033 661.887 25.8C662.253 25.6167 662.583 25.5617 662.877 25.635C663.207 25.7083 663.408 25.8733 663.482 26.13C663.555 26.5333 663.5 27.0283 663.317 27.615C663.133 28.2017 662.803 28.7333 662.327 29.21C661.777 29.65 661.043 30.1633 660.127 30.75C659.247 31.3 658.293 31.8317 657.267 32.345C656.24 32.8583 655.195 33.3167 654.132 33.72C653.105 34.0867 652.188 34.3067 651.382 34.38C650.172 34.49 649.255 34.16 648.632 33.39C648.008 32.62 647.66 31.6483 647.587 30.475C647.513 29.3017 647.495 27.945 647.532 26.405C647.605 24.865 647.678 23.2333 647.752 21.51C647.055 21.5833 646.377 21.6567 645.717 21.73C645.093 21.7667 644.488 21.8217 643.902 21.895C643.425 21.895 642.893 21.785 642.307 21.565C641.757 21.345 641.482 20.9233 641.482 20.3C641.482 20.08 641.573 19.7867 641.757 19.42C641.94 19.0533 642.343 18.7783 642.967 18.595C644.47 18.3383 646.138 18.1183 647.972 17.935C648.082 16.2117 648.21 14.5433 648.357 12.93C648.503 11.3167 648.632 9.85 648.742 8.53C648.778 8.09 648.907 7.705 649.127 7.375C649.347 7.045 649.585 6.88 649.842 6.88C650.465 6.84333 651.052 7.00833 651.602 7.375C652.188 7.705 652.482 8.09 652.482 8.53C652.335 9.77666 652.188 11.1883 652.042 12.765C651.932 14.3417 651.822 15.955 651.712 17.605C652.445 17.5317 653.142 17.495 653.802 17.495C654.498 17.4583 655.158 17.4217 655.782 17.385ZM690.403 9.685C690.329 10.0517 690.073 10.2533 689.633 10.29C689.193 10.3267 688.826 10.345 688.533 10.345C687.616 10.3817 686.663 10.4733 685.673 10.62C684.719 10.7667 683.711 10.9867 682.648 11.28C682.208 11.4267 681.731 11.3717 681.218 11.115C680.704 10.8583 680.393 10.345 680.283 9.575C680.283 9.28166 680.393 9.04333 680.613 8.86C680.833 8.67666 681.089 8.51166 681.383 8.365C681.859 8.145 682.428 7.96167 683.088 7.815C683.748 7.63167 684.408 7.50333 685.068 7.43C685.764 7.35667 686.424 7.33833 687.048 7.375C687.671 7.375 688.184 7.43 688.588 7.54C689.174 7.72333 689.633 7.99833 689.963 8.365C690.329 8.73166 690.476 9.17166 690.403 9.685ZM689.138 28C689.394 28.5867 689.523 29.2283 689.523 29.925C689.559 30.585 689.376 31.0433 688.973 31.3C688.459 31.63 687.909 31.6117 687.323 31.245C686.736 30.8783 686.296 30.3833 686.003 29.76C685.599 28.99 685.288 28.055 685.068 26.955C684.848 25.8183 684.683 24.7 684.573 23.6C684.463 22.5 684.389 21.4733 684.353 20.52C684.353 19.5667 684.353 18.8517 684.353 18.375C684.389 17.8617 684.536 17.385 684.793 16.945C685.049 16.505 685.379 16.2483 685.783 16.175C686.443 16.2117 686.974 16.5233 687.378 17.11C687.781 17.66 687.964 18.3567 687.928 19.2C687.928 19.86 687.946 20.5933 687.983 21.4C688.019 22.2067 688.093 23.0133 688.203 23.82C688.313 24.6267 688.441 25.415 688.588 26.185C688.734 26.9183 688.918 27.5233 689.138 28ZM698.003 13.975C698.113 14.525 698.223 15.1483 698.333 15.845C698.48 16.505 698.626 17.2017 698.773 17.935C698.92 18.6317 699.048 19.3467 699.158 20.08C699.268 20.8133 699.36 21.51 699.433 22.17C699.873 21.2167 700.35 20.2083 700.863 19.145C701.376 18.0817 701.926 17.11 702.513 16.23C703.136 15.3133 703.778 14.5617 704.438 13.975C705.135 13.3883 705.886 13.095 706.693 13.095C707.903 13.095 708.911 13.535 709.718 14.415C710.561 15.295 711.258 16.395 711.808 17.715C712.395 18.9983 712.853 20.355 713.183 21.785C713.513 23.215 713.788 24.48 714.008 25.58C714.228 26.57 713.788 27.3033 712.688 27.78C712.175 28.0367 711.79 28.0733 711.533 27.89C711.276 27.7067 711.13 27.5233 711.093 27.34C710.91 26.9 710.671 26.13 710.378 25.03C710.121 23.93 709.81 22.8117 709.443 21.675C709.113 20.5383 708.728 19.5483 708.288 18.705C707.848 17.8617 707.353 17.4767 706.803 17.55C706.143 17.5867 705.556 18.0817 705.043 19.035C704.603 19.805 704.145 20.6667 703.668 21.62C703.228 22.5367 702.788 23.49 702.348 24.48C701.908 25.4333 701.468 26.405 701.028 27.395C700.625 28.3483 700.24 29.2283 699.873 30.035C699.616 30.2917 699.286 30.475 698.883 30.585C698.516 30.6583 698.131 30.6217 697.728 30.475C697.361 30.365 697.068 30.1817 696.848 29.925C696.628 29.6683 696.518 29.4117 696.518 29.155C696.188 26.295 695.84 23.6917 695.473 21.345C695.143 18.9983 694.703 16.5967 694.153 14.14C693.896 13.2967 693.841 12.6367 693.988 12.16C694.171 11.6467 694.721 11.445 695.638 11.555C696.921 11.775 697.71 12.5817 698.003 13.975ZM745.859 17.99C745.602 18.1367 745.29 18.1917 744.924 18.155C744.557 18.0817 744.245 17.8433 743.989 17.44C743.402 16.67 742.687 16.285 741.844 16.285C741.074 16.285 740.377 16.4683 739.754 16.835C739.167 17.165 738.635 17.6233 738.159 18.21C737.719 18.76 737.352 19.3833 737.059 20.08C736.765 20.7767 736.564 21.4733 736.454 22.17C736.27 23.4533 736.49 24.535 737.114 25.415C737.737 26.295 738.709 26.735 740.029 26.735C741.092 26.7717 742.284 26.57 743.604 26.13C744.96 25.6533 746.225 25.0483 747.399 24.315C747.912 24.095 748.389 23.9667 748.829 23.93C749.269 23.8933 749.635 24.1133 749.929 24.59C750.295 25.1767 750.204 25.7817 749.654 26.405C749.104 26.9917 748.37 27.5233 747.454 28C746.537 28.5133 745.565 28.9717 744.539 29.375C743.549 29.7417 742.54 30.0167 741.514 30.2C740.487 30.3467 739.46 30.3467 738.434 30.2C737.444 30.0533 736.509 29.705 735.629 29.155C734.235 28.2017 733.392 26.845 733.099 25.085C732.805 23.325 732.934 21.51 733.484 19.64C733.704 18.9433 734.015 18.2467 734.419 17.55C734.822 16.8167 735.299 16.1567 735.849 15.57C736.435 14.9833 737.077 14.4883 737.774 14.085C738.47 13.645 739.24 13.3517 740.084 13.205C741.44 12.985 742.742 13.1317 743.989 13.645C745.235 14.1217 746.06 15.02 746.464 16.34C746.537 16.6333 746.537 16.945 746.464 17.275C746.39 17.5683 746.189 17.8067 745.859 17.99ZM769.58 13.15C768.92 13.5167 768.224 13.9017 767.49 14.305C766.794 14.7083 766.079 15.185 765.345 15.735C764.649 16.2483 763.97 16.8717 763.31 17.605C762.687 18.3017 762.119 19.145 761.605 20.135C760.872 21.5283 760.377 22.9583 760.12 24.425C759.864 25.855 759.699 27.2667 759.625 28.66C759.625 29.32 759.46 29.9983 759.13 30.695C758.837 31.355 758.415 31.685 757.865 31.685C757.169 31.685 756.6 31.3367 756.16 30.64C755.757 29.9067 755.482 29.21 755.335 28.55C754.712 25.9467 754.199 23.38 753.795 20.85C753.392 18.2833 753.044 15.735 752.75 13.205C752.75 12.6917 752.897 12.3617 753.19 12.215C753.52 12.0683 753.887 12.0133 754.29 12.05C754.73 12.0867 755.152 12.1967 755.555 12.38C755.959 12.5633 756.197 12.8567 756.27 13.26C756.417 14.6167 756.6 16.0467 756.82 17.55C757.04 19.0167 757.26 20.2817 757.48 21.345C757.627 20.0983 758.03 18.8883 758.69 17.715C759.35 16.5417 760.157 15.4783 761.11 14.525C762.1 13.5717 763.2 12.765 764.41 12.105C765.657 11.445 766.922 11.005 768.205 10.785C768.755 10.7117 769.214 10.7117 769.58 10.785C769.947 10.8583 770.204 10.9867 770.35 11.17C770.497 11.3533 770.515 11.6467 770.405 12.05C770.332 12.4533 770.057 12.82 769.58 13.15ZM789.951 14.8C790.061 16.78 790.171 18.7783 790.281 20.795C790.428 22.8117 790.464 24.81 790.391 26.79C790.318 28.7333 790.116 30.64 789.786 32.51C789.493 34.38 788.979 36.1767 788.246 37.9C787.513 39.5867 786.523 41.1633 785.276 42.63C784.066 44.0967 782.526 45.4167 780.656 46.59C780.363 46.7733 780.033 46.8833 779.666 46.92C779.336 46.9567 779.006 46.9383 778.676 46.865C778.346 46.8283 778.053 46.7367 777.796 46.59C777.539 46.48 777.374 46.315 777.301 46.095C777.191 45.765 777.246 45.3983 777.466 44.995C777.686 44.5917 778.053 44.17 778.566 43.73C780.179 42.52 781.536 41.2367 782.636 39.88C783.736 38.5233 784.616 37.0567 785.276 35.48C785.936 33.9033 786.358 32.1983 786.541 30.365C786.761 28.495 786.761 26.46 786.541 24.26C786.101 24.81 785.588 25.3783 785.001 25.965C784.414 26.5517 783.791 27.0833 783.131 27.56C782.471 28 781.793 28.385 781.096 28.715C780.399 29.0083 779.739 29.155 779.116 29.155C778.603 29.155 778.089 29.045 777.576 28.825C777.063 28.605 776.549 28.1833 776.036 27.56C775.449 26.79 774.918 25.9283 774.441 24.975C774.001 23.985 773.616 23.0317 773.286 22.115C772.956 21.1983 772.681 20.3733 772.461 19.64C772.278 18.9067 772.168 18.3933 772.131 18.1C772.058 17.7333 772.058 17.385 772.131 17.055C772.204 16.725 772.443 16.5233 772.846 16.45C773.396 16.34 773.909 16.3767 774.386 16.56C774.863 16.7433 775.193 17.0367 775.376 17.44C775.523 17.8433 775.724 18.4667 775.981 19.31C776.238 20.1533 776.549 20.9967 776.916 21.84C777.283 22.6467 777.668 23.3617 778.071 23.985C778.511 24.6083 778.969 24.92 779.446 24.92C779.996 24.92 780.638 24.645 781.371 24.095C782.141 23.545 782.874 22.83 783.571 21.95C784.268 21.07 784.854 20.0983 785.331 19.035C785.844 17.935 786.101 16.8717 786.101 15.845C786.101 15.625 786.138 15.3683 786.211 15.075C786.284 14.7817 786.394 14.5067 786.541 14.25C786.688 13.9567 786.853 13.7183 787.036 13.535C787.256 13.315 787.476 13.1867 787.696 13.15C788.283 13.0767 788.796 13.2417 789.236 13.645C789.713 14.0117 789.951 14.3967 789.951 14.8ZM804.595 38.12C804.558 38.5233 804.375 38.89 804.045 39.22C803.715 39.5867 803.348 39.7517 802.945 39.715C802.321 39.6783 801.845 39.44 801.515 39C801.185 38.56 801.02 38.1933 801.02 37.9C801.02 36.5067 800.983 35.0583 800.91 33.555C800.836 32.015 800.745 30.4383 800.635 28.825C800.158 28.8983 799.718 28.8617 799.315 28.715C798.948 28.5317 798.691 28.2567 798.545 27.89C798.288 27.2667 798.325 26.7167 798.655 26.24C798.985 25.7633 799.516 25.305 800.25 24.865C800.066 23.5083 799.883 22.17 799.7 20.85C799.553 19.53 799.388 18.2467 799.205 17C799.168 16.78 799.186 16.5783 799.26 16.395C799.333 16.2117 799.425 16.0467 799.535 15.9C799.645 15.7167 799.846 15.5517 800.14 15.405C800.616 15.2217 801.148 15.3683 801.735 15.845C802.358 16.3217 802.78 16.9267 803 17.66C803.11 18.3567 803.22 19.1633 803.33 20.08C803.476 20.96 803.605 21.9317 803.715 22.995C804.485 22.5183 805.2 22.005 805.86 21.455C806.556 20.905 807.143 20.3183 807.62 19.695C808.133 19.0717 808.518 18.43 808.775 17.77C809.031 17.0733 809.105 16.3583 808.995 15.625C808.921 15.0017 808.646 14.4517 808.17 13.975C807.693 13.4617 806.941 13.1867 805.915 13.15C804.998 13.1133 804.081 13.1867 803.165 13.37C802.285 13.5533 801.405 13.7917 800.525 14.085C799.681 14.3783 798.838 14.7267 797.995 15.13C797.188 15.5333 796.4 15.9367 795.63 16.34C795.116 16.6333 794.603 16.7617 794.09 16.725C793.613 16.6517 793.301 16.4683 793.155 16.175C792.825 15.4417 792.843 14.7817 793.21 14.195C793.613 13.6083 794.218 13.0583 795.025 12.545C795.721 12.1417 796.546 11.7383 797.5 11.335C798.49 10.895 799.516 10.5283 800.58 10.235C801.68 9.905 802.78 9.685 803.88 9.575C805.016 9.42833 806.098 9.44666 807.125 9.63C808.151 9.77666 809.068 10.125 809.875 10.675C810.718 11.1883 811.396 11.9583 811.91 12.985C812.533 14.6717 812.698 16.23 812.405 17.66C812.148 19.0533 811.598 20.3367 810.755 21.51C809.948 22.6467 808.94 23.6917 807.73 24.645C806.556 25.5617 805.365 26.3867 804.155 27.12C804.338 29.1 804.466 31.0617 804.54 33.005C804.613 34.9483 804.631 36.6533 804.595 38.12ZM828.731 17.385C829.427 17.3483 830.124 17.5133 830.821 17.88C831.517 18.2467 831.866 18.815 831.866 19.585C831.792 20.2083 831.444 20.6117 830.821 20.795C830.234 20.9417 829.757 21.015 829.391 21.015C828.657 21.015 827.869 21.0333 827.026 21.07C826.182 21.1067 825.321 21.1617 824.441 21.235C824.367 22.445 824.294 23.5817 824.221 24.645C824.184 25.7083 824.147 26.6617 824.111 27.505C824.074 28.3117 824.056 28.9717 824.056 29.485C824.056 29.9983 824.074 30.2733 824.111 30.31C824.917 30.1633 825.779 29.925 826.696 29.595C827.649 29.2283 828.584 28.8433 829.501 28.44C830.454 28 831.371 27.56 832.251 27.12C833.167 26.6433 834.029 26.2033 834.836 25.8C835.202 25.6167 835.532 25.5617 835.826 25.635C836.156 25.7083 836.357 25.8733 836.431 26.13C836.504 26.5333 836.449 27.0283 836.266 27.615C836.082 28.2017 835.752 28.7333 835.276 29.21C834.726 29.65 833.992 30.1633 833.076 30.75C832.196 31.3 831.242 31.8317 830.216 32.345C829.189 32.8583 828.144 33.3167 827.081 33.72C826.054 34.0867 825.137 34.3067 824.331 34.38C823.121 34.49 822.204 34.16 821.581 33.39C820.957 32.62 820.609 31.6483 820.536 30.475C820.462 29.3017 820.444 27.945 820.481 26.405C820.554 24.865 820.627 23.2333 820.701 21.51C820.004 21.5833 819.326 21.6567 818.666 21.73C818.042 21.7667 817.437 21.8217 816.851 21.895C816.374 21.895 815.842 21.785 815.256 21.565C814.706 21.345 814.431 20.9233 814.431 20.3C814.431 20.08 814.522 19.7867 814.706 19.42C814.889 19.0533 815.292 18.7783 815.916 18.595C817.419 18.3383 819.087 18.1183 820.921 17.935C821.031 16.2117 821.159 14.5433 821.306 12.93C821.452 11.3167 821.581 9.85 821.691 8.53C821.727 8.09 821.856 7.705 822.076 7.375C822.296 7.045 822.534 6.88 822.791 6.88C823.414 6.84333 824.001 7.00833 824.551 7.375C825.137 7.705 825.431 8.09 825.431 8.53C825.284 9.77666 825.137 11.1883 824.991 12.765C824.881 14.3417 824.771 15.955 824.661 17.605C825.394 17.5317 826.091 17.495 826.751 17.495C827.447 17.4583 828.107 17.4217 828.731 17.385ZM851.347 12.93C852.447 13.3333 853.364 13.9383 854.097 14.745C854.867 15.5517 855.454 16.4683 855.857 17.495C856.26 18.485 856.48 19.5117 856.517 20.575C856.59 21.6383 856.48 22.6283 856.187 23.545C855.784 24.5717 855.27 25.58 854.647 26.57C854.024 27.56 853.309 28.44 852.502 29.21C851.695 29.98 850.779 30.6033 849.752 31.08C848.725 31.5567 847.589 31.795 846.342 31.795C844.839 31.795 843.574 31.4467 842.547 30.75C841.52 30.0533 840.714 29.155 840.127 28.055C839.54 26.955 839.155 25.7083 838.972 24.315C838.825 22.9217 838.862 21.5283 839.082 20.135C839.229 19.1083 839.467 18.1183 839.797 17.165C840.164 16.175 840.622 15.3133 841.172 14.58C841.722 13.81 842.345 13.1867 843.042 12.71C843.775 12.2333 844.6 11.995 845.517 11.995C846.03 11.995 846.672 12.105 847.442 12.325C848.212 12.5083 848.927 12.7833 849.587 13.15C850.064 12.71 850.65 12.6367 851.347 12.93ZM849.257 16.945C848.854 16.6883 848.377 16.3583 847.827 15.955C847.314 15.515 846.855 15.295 846.452 15.295C846.012 15.295 845.572 15.4967 845.132 15.9C844.729 16.3033 844.362 16.78 844.032 17.33C843.739 17.8433 843.482 18.375 843.262 18.925C843.042 19.475 842.895 19.915 842.822 20.245C842.712 20.795 842.639 21.455 842.602 22.225C842.565 22.995 842.62 23.765 842.767 24.535C842.914 25.2683 843.189 25.9467 843.592 26.57C844.032 27.1567 844.674 27.5783 845.517 27.835C846.03 27.9817 846.635 27.9817 847.332 27.835C848.029 27.6517 848.707 27.34 849.367 26.9C850.064 26.46 850.705 25.8733 851.292 25.14C851.915 24.4067 852.392 23.5633 852.722 22.61C853.089 21.5467 853.089 20.4467 852.722 19.31C852.392 18.1367 851.695 17.2933 850.632 16.78C850.375 16.9633 850.119 17.055 849.862 17.055C849.605 17.055 849.404 17.0183 849.257 16.945ZM869.623 3.305C869.293 4.91833 868.945 6.51333 868.578 8.09C868.248 9.66666 867.937 11.2433 867.643 12.82C867.35 14.3967 867.13 15.9733 866.983 17.55C866.837 19.1267 866.818 20.7033 866.928 22.28C867.002 22.6833 866.928 23.0683 866.708 23.435C866.525 23.8017 866.305 24.04 866.048 24.15C865.242 24.4433 864.655 24.2417 864.288 23.545C863.848 21.675 863.61 19.8233 863.573 17.99C863.573 16.1567 863.702 14.3417 863.958 12.545C864.252 10.7483 864.618 8.97 865.058 7.21C865.535 5.41333 866.012 3.635 866.488 1.875C866.672 1.14166 866.965 0.738331 867.368 0.664999C867.772 0.591664 868.157 0.62833 868.523 0.774997C869.073 0.95833 869.422 1.325 869.568 1.875C869.715 2.425 869.733 2.90166 869.623 3.305ZM867.423 32.895C867.423 33.2983 867.368 33.8483 867.258 34.545C867.185 35.205 867.038 35.8283 866.818 36.415C866.635 37.0017 866.36 37.4783 865.993 37.845C865.663 38.2117 865.242 38.285 864.728 38.065C864.435 37.8817 864.142 37.5333 863.848 37.02C863.555 36.5067 863.427 36.03 863.463 35.59C863.537 34.71 863.72 33.8483 864.013 33.005C864.307 32.1617 864.692 31.6483 865.168 31.465C865.388 31.3917 865.627 31.3917 865.883 31.465C866.177 31.5383 866.433 31.6667 866.653 31.85C866.873 31.9967 867.057 32.18 867.203 32.4C867.35 32.5833 867.423 32.7483 867.423 32.895Z" fill="white"/>
</svg>
