<svg className="start-page-text" viewBox="0 0 947 48" fill="none" xmlns="http://www.w3.org/2000/svg">
<path d="M11.912 11.995C12.0586 12.1783 12.132 12.4167 12.132 12.71C12.1686 12.9667 12.132 13.1867 12.022 13.37C11.8386 13.7733 11.527 13.92 11.087 13.81C10.317 13.6267 9.51031 13.5533 8.66697 13.59C7.82364 13.6267 6.98031 13.9567 6.13697 14.58C5.29364 15.2033 4.63364 16.12 4.15697 17.33C3.68031 18.5033 3.44197 19.7317 3.44197 21.015C3.44197 22.2617 3.73531 23.3433 4.32197 24.26C4.94531 25.14 5.73364 25.7817 6.68697 26.185C7.27364 26.4417 7.93364 26.5883 8.66697 26.625C9.40031 26.6617 10.1336 26.6433 10.867 26.57C11.637 26.46 12.3886 26.3133 13.122 26.13C13.8553 25.91 14.552 25.6717 15.212 25.415C15.432 25.3417 15.6336 25.36 15.817 25.47C16.037 25.58 16.1836 25.7267 16.257 25.91C16.4403 26.3867 16.3486 26.8633 15.982 27.34C15.542 27.8167 14.9553 28.2383 14.222 28.605C13.4886 28.9717 12.682 29.265 11.802 29.485C10.922 29.705 10.0236 29.8333 9.10697 29.87C8.19031 29.87 7.32864 29.76 6.52197 29.54C5.38531 29.2467 4.41364 28.825 3.60697 28.275C2.83697 27.6883 2.19531 27.0283 1.68197 26.295C1.16864 25.525 0.783639 24.7183 0.526973 23.875C0.270306 22.995 0.123639 22.0967 0.0869726 21.18C0.0136394 18.98 0.435306 17 1.35197 15.24C2.30531 13.48 3.62531 12.1783 5.31197 11.335C6.55864 10.7117 7.80531 10.4733 9.05197 10.62C10.3353 10.73 11.2886 11.1883 11.912 11.995ZM32.0832 12.93C33.1832 13.3333 34.0999 13.9383 34.8332 14.745C35.6032 15.5517 36.1899 16.4683 36.5932 17.495C36.9966 18.485 37.2166 19.5117 37.2532 20.575C37.3266 21.6383 37.2166 22.6283 36.9232 23.545C36.5199 24.5717 36.0066 25.58 35.3832 26.57C34.7599 27.56 34.0449 28.44 33.2382 29.21C32.4316 29.98 31.5149 30.6033 30.4882 31.08C29.4616 31.5567 28.3249 31.795 27.0782 31.795C25.5749 31.795 24.3099 31.4467 23.2832 30.75C22.2566 30.0533 21.4499 29.155 20.8632 28.055C20.2766 26.955 19.8916 25.7083 19.7082 24.315C19.5616 22.9217 19.5982 21.5283 19.8182 20.135C19.9649 19.1083 20.2032 18.1183 20.5332 17.165C20.8999 16.175 21.3582 15.3133 21.9082 14.58C22.4582 13.81 23.0816 13.1867 23.7782 12.71C24.5116 12.2333 25.3366 11.995 26.2532 11.995C26.7666 11.995 27.4082 12.105 28.1782 12.325C28.9482 12.5083 29.6632 12.7833 30.3232 13.15C30.7999 12.71 31.3866 12.6367 32.0832 12.93ZM29.9932 16.945C29.5899 16.6883 29.1132 16.3583 28.5632 15.955C28.0499 15.515 27.5916 15.295 27.1882 15.295C26.7482 15.295 26.3082 15.4967 25.8682 15.9C25.4649 16.3033 25.0982 16.78 24.7682 17.33C24.4749 17.8433 24.2182 18.375 23.9982 18.925C23.7782 19.475 23.6316 19.915 23.5582 20.245C23.4482 20.795 23.3749 21.455 23.3382 22.225C23.3016 22.995 23.3566 23.765 23.5032 24.535C23.6499 25.2683 23.9249 25.9467 24.3282 26.57C24.7682 27.1567 25.4099 27.5783 26.2532 27.835C26.7666 27.9817 27.3716 27.9817 28.0682 27.835C28.7649 27.6517 29.4432 27.34 30.1032 26.9C30.7999 26.46 31.4416 25.8733 32.0282 25.14C32.6516 24.4067 33.1282 23.5633 33.4582 22.61C33.8249 21.5467 33.8249 20.4467 33.4582 19.31C33.1282 18.1367 32.4316 17.2933 31.3682 16.78C31.1116 16.9633 30.8549 17.055 30.5982 17.055C30.3416 17.055 30.1399 17.0183 29.9932 16.945ZM45.1896 13.975C45.2996 14.525 45.4096 15.1483 45.5196 15.845C45.6662 16.505 45.8129 17.2017 45.9596 17.935C46.1062 18.6317 46.2346 19.3467 46.3446 20.08C46.4546 20.8133 46.5462 21.51 46.6196 22.17C47.0596 21.2167 47.5362 20.2083 48.0496 19.145C48.5629 18.0817 49.1129 17.11 49.6996 16.23C50.3229 15.3133 50.9646 14.5617 51.6246 13.975C52.3212 13.3883 53.0729 13.095 53.8796 13.095C55.0896 13.095 56.0979 13.535 56.9046 14.415C57.7479 15.295 58.4446 16.395 58.9946 17.715C59.5812 18.9983 60.0396 20.355 60.3696 21.785C60.6996 23.215 60.9746 24.48 61.1946 25.58C61.4146 26.57 60.9746 27.3033 59.8746 27.78C59.3612 28.0367 58.9762 28.0733 58.7196 27.89C58.4629 27.7067 58.3162 27.5233 58.2796 27.34C58.0962 26.9 57.8579 26.13 57.5646 25.03C57.3079 23.93 56.9962 22.8117 56.6296 21.675C56.2996 20.5383 55.9146 19.5483 55.4746 18.705C55.0346 17.8617 54.5396 17.4767 53.9896 17.55C53.3296 17.5867 52.7429 18.0817 52.2296 19.035C51.7896 19.805 51.3312 20.6667 50.8546 21.62C50.4146 22.5367 49.9746 23.49 49.5346 24.48C49.0946 25.4333 48.6546 26.405 48.2146 27.395C47.8112 28.3483 47.4262 29.2283 47.0596 30.035C46.8029 30.2917 46.4729 30.475 46.0696 30.585C45.7029 30.6583 45.3179 30.6217 44.9146 30.475C44.5479 30.365 44.2546 30.1817 44.0346 29.925C43.8146 29.6683 43.7046 29.4117 43.7046 29.155C43.3746 26.295 43.0262 23.6917 42.6596 21.345C42.3296 18.9983 41.8896 16.5967 41.3396 14.14C41.0829 13.2967 41.0279 12.6367 41.1746 12.16C41.3579 11.6467 41.9079 11.445 42.8246 11.555C44.1079 11.775 44.8962 12.5817 45.1896 13.975ZM74.9901 16.945C75.2834 17.3483 75.5584 17.8617 75.8151 18.485C76.1084 19.0717 76.3284 19.6767 76.4751 20.3C76.6951 21.29 76.9334 22.3717 77.1901 23.545C77.4834 24.6817 77.7584 25.8733 78.0151 27.12C78.3084 28.3667 78.5651 29.6317 78.7851 30.915C79.0418 32.1983 79.2618 33.4267 79.4451 34.6C79.6651 36.2133 79.5368 37.7533 79.0601 39.22C78.6201 40.7233 77.8684 42.0617 76.8051 43.235C75.7418 44.4083 74.4218 45.3433 72.8451 46.04C71.2684 46.7367 69.4901 47.1217 67.5101 47.195C67.0701 47.1583 66.6118 46.9383 66.1351 46.535C65.6584 46.1683 65.4201 45.7833 65.4201 45.38C65.3834 44.9767 65.5668 44.6467 65.9701 44.39C66.4101 44.17 66.8501 44.0233 67.2901 43.95C68.0601 43.8767 68.8484 43.7117 69.6551 43.455C70.4984 43.235 71.2868 42.905 72.0201 42.465C72.7534 42.025 73.4134 41.4933 74.0001 40.87C74.6234 40.2467 75.1001 39.5133 75.4301 38.67C75.6868 38.01 75.8151 37.2033 75.8151 36.25C75.8151 35.26 75.7418 34.2883 75.5951 33.335C75.4851 32.3817 75.3201 31.4833 75.1001 30.64C74.9168 29.76 74.7518 29.1 74.6051 28.66C74.3484 28.9167 74.0184 29.1917 73.6151 29.485C73.2484 29.7783 72.8268 30.0533 72.3501 30.31C71.8734 30.5667 71.3418 30.7683 70.7551 30.915C70.2051 31.0617 69.6368 31.1167 69.0501 31.08C68.4268 31.0433 67.8401 30.8233 67.2901 30.42C66.7768 30.0167 66.3184 29.5033 65.9151 28.88C65.5118 28.22 65.1818 27.4683 64.9251 26.625C64.7051 25.7817 64.5951 24.9017 64.5951 23.985C64.6684 21.785 65.2184 19.8417 66.2451 18.155C67.3084 16.4317 68.9951 15.0933 71.3051 14.14C71.4884 14.1033 71.7268 14.0667 72.0201 14.03C72.3501 13.9933 72.6801 13.9933 73.0101 14.03C73.3401 14.03 73.6518 14.0667 73.9451 14.14C74.2751 14.2133 74.5501 14.3233 74.7701 14.47C75.1734 14.7633 75.3751 15.185 75.3751 15.735C75.3751 16.285 75.2468 16.6883 74.9901 16.945ZM68.0601 24.48C68.0601 24.8833 68.0968 25.3417 68.1701 25.855C68.2434 26.3317 68.4818 26.68 68.8851 26.9C69.3251 27.1567 69.8568 27.1933 70.4801 27.01C71.1401 26.8267 71.7451 26.515 72.2951 26.075C72.8084 25.6717 73.1384 25.2317 73.2851 24.755C73.4684 24.2417 73.4684 23.5633 73.2851 22.72C73.1018 21.8767 72.9001 20.9967 72.6801 20.08C72.4601 19.1633 72.3134 18.3383 72.2401 17.605C71.8001 17.825 71.3234 18.1367 70.8101 18.54C70.3334 18.9433 69.8934 19.4567 69.4901 20.08C69.0868 20.6667 68.7384 21.3267 68.4451 22.06C68.1884 22.7933 68.0601 23.6 68.0601 24.48ZM100.063 13.15C99.4028 13.5167 98.7061 13.9017 97.9728 14.305C97.2761 14.7083 96.5611 15.185 95.8278 15.735C95.1311 16.2483 94.4528 16.8717 93.7928 17.605C93.1695 18.3017 92.6011 19.145 92.0878 20.135C91.3545 21.5283 90.8595 22.9583 90.6028 24.425C90.3461 25.855 90.1811 27.2667 90.1078 28.66C90.1078 29.32 89.9428 29.9983 89.6128 30.695C89.3195 31.355 88.8978 31.685 88.3478 31.685C87.6511 31.685 87.0828 31.3367 86.6428 30.64C86.2395 29.9067 85.9645 29.21 85.8178 28.55C85.1945 25.9467 84.6811 23.38 84.2778 20.85C83.8745 18.2833 83.5261 15.735 83.2328 13.205C83.2328 12.6917 83.3795 12.3617 83.6728 12.215C84.0028 12.0683 84.3695 12.0133 84.7728 12.05C85.2128 12.0867 85.6345 12.1967 86.0378 12.38C86.4411 12.5633 86.6795 12.8567 86.7528 13.26C86.8995 14.6167 87.0828 16.0467 87.3028 17.55C87.5228 19.0167 87.7428 20.2817 87.9628 21.345C88.1095 20.0983 88.5128 18.8883 89.1728 17.715C89.8328 16.5417 90.6395 15.4783 91.5928 14.525C92.5828 13.5717 93.6828 12.765 94.8928 12.105C96.1395 11.445 97.4045 11.005 98.6878 10.785C99.2378 10.7117 99.6961 10.7117 100.063 10.785C100.429 10.8583 100.686 10.9867 100.833 11.17C100.979 11.3533 100.998 11.6467 100.888 12.05C100.814 12.4533 100.539 12.82 100.063 13.15ZM117.133 11.775C117.28 12.8017 117.39 13.9017 117.463 15.075C117.573 16.2117 117.647 17.3667 117.683 18.54C117.757 19.7133 117.793 20.85 117.793 21.95C117.793 23.05 117.775 24.04 117.738 24.92C118.912 25.7267 119.608 26.4417 119.828 27.065C120.085 27.6883 120.122 28.2383 119.938 28.715C119.718 29.375 119.315 29.7233 118.728 29.76C118.178 29.76 117.537 29.5583 116.803 29.155C116.29 29.5217 115.703 29.925 115.043 30.365C114.383 30.7683 113.687 31.1717 112.953 31.575C112.22 31.9417 111.487 32.2717 110.753 32.565C110.02 32.8583 109.342 33.06 108.718 33.17C107.545 33.3533 106.482 33.1333 105.528 32.51C104.612 31.8867 103.988 30.9517 103.658 29.705C103.438 28.8617 103.383 28 103.493 27.12C103.603 26.2033 103.878 25.3417 104.318 24.535C104.758 23.6917 105.345 22.94 106.078 22.28C106.848 21.62 107.747 21.1067 108.773 20.74C109.03 20.63 109.378 20.5383 109.818 20.465C110.295 20.3917 110.772 20.3733 111.248 20.41C111.762 20.41 112.275 20.5017 112.788 20.685C113.302 20.8683 113.778 21.18 114.218 21.62C114.218 20.9967 114.2 20.3183 114.163 19.585C114.163 18.815 114.145 18.045 114.108 17.275C114.072 16.505 114.017 15.79 113.943 15.13C113.907 14.4333 113.852 13.8467 113.778 13.37C113.705 12.82 113.485 12.49 113.118 12.38C112.788 12.2333 112.367 12.2517 111.853 12.435C110.973 12.7283 109.947 13.2967 108.773 14.14C107.6 14.9833 106.482 15.8817 105.418 16.835C105.088 17.165 104.703 17.3117 104.263 17.275C103.86 17.2383 103.512 17.0733 103.218 16.78C102.925 16.4867 102.76 16.1567 102.723 15.79C102.687 15.3867 102.833 14.965 103.163 14.525C103.787 13.865 104.483 13.1867 105.253 12.49C106.023 11.7933 106.83 11.17 107.673 10.62C108.517 10.0333 109.378 9.55667 110.258 9.19C111.138 8.82333 112.018 8.62166 112.898 8.585C114.182 8.54833 115.172 8.84167 115.868 9.465C116.565 10.0517 116.987 10.8217 117.133 11.775ZM110.753 23.6C110.277 23.71 109.763 23.9483 109.213 24.315C108.7 24.645 108.223 25.0667 107.783 25.58C107.38 26.0567 107.068 26.6067 106.848 27.23C106.665 27.8167 106.665 28.4033 106.848 28.99C106.922 29.21 107.068 29.375 107.288 29.485C107.545 29.595 107.82 29.6133 108.113 29.54C108.993 29.3567 109.983 29.0083 111.083 28.495C112.22 27.945 113.118 27.3583 113.778 26.735C113.778 26.515 113.668 26.24 113.448 25.91C113.228 25.5433 112.972 25.195 112.678 24.865C112.385 24.4983 112.055 24.1867 111.688 23.93C111.358 23.6733 111.047 23.5633 110.753 23.6ZM135.634 17.385C136.331 17.3483 137.027 17.5133 137.724 17.88C138.421 18.2467 138.769 18.815 138.769 19.585C138.696 20.2083 138.347 20.6117 137.724 20.795C137.137 20.9417 136.661 21.015 136.294 21.015C135.561 21.015 134.772 21.0333 133.929 21.07C133.086 21.1067 132.224 21.1617 131.344 21.235C131.271 22.445 131.197 23.5817 131.124 24.645C131.087 25.7083 131.051 26.6617 131.014 27.505C130.977 28.3117 130.959 28.9717 130.959 29.485C130.959 29.9983 130.977 30.2733 131.014 30.31C131.821 30.1633 132.682 29.925 133.599 29.595C134.552 29.2283 135.487 28.8433 136.404 28.44C137.357 28 138.274 27.56 139.154 27.12C140.071 26.6433 140.932 26.2033 141.739 25.8C142.106 25.6167 142.436 25.5617 142.729 25.635C143.059 25.7083 143.261 25.8733 143.334 26.13C143.407 26.5333 143.352 27.0283 143.169 27.615C142.986 28.2017 142.656 28.7333 142.179 29.21C141.629 29.65 140.896 30.1633 139.979 30.75C139.099 31.3 138.146 31.8317 137.119 32.345C136.092 32.8583 135.047 33.3167 133.984 33.72C132.957 34.0867 132.041 34.3067 131.234 34.38C130.024 34.49 129.107 34.16 128.484 33.39C127.861 32.62 127.512 31.6483 127.439 30.475C127.366 29.3017 127.347 27.945 127.384 26.405C127.457 24.865 127.531 23.2333 127.604 21.51C126.907 21.5833 126.229 21.6567 125.569 21.73C124.946 21.7667 124.341 21.8217 123.754 21.895C123.277 21.895 122.746 21.785 122.159 21.565C121.609 21.345 121.334 20.9233 121.334 20.3C121.334 20.08 121.426 19.7867 121.609 19.42C121.792 19.0533 122.196 18.7783 122.819 18.595C124.322 18.3383 125.991 18.1183 127.824 17.935C127.934 16.2117 128.062 14.5433 128.209 12.93C128.356 11.3167 128.484 9.85 128.594 8.53C128.631 8.09 128.759 7.705 128.979 7.375C129.199 7.045 129.437 6.88 129.694 6.88C130.317 6.84333 130.904 7.00833 131.454 7.375C132.041 7.705 132.334 8.09 132.334 8.53C132.187 9.77666 132.041 11.1883 131.894 12.765C131.784 14.3417 131.674 15.955 131.564 17.605C132.297 17.5317 132.994 17.495 133.654 17.495C134.351 17.4583 135.011 17.4217 135.634 17.385ZM150.33 15.845C150.11 16.835 149.89 17.935 149.67 19.145C149.45 20.3183 149.285 21.455 149.175 22.555C149.102 23.655 149.102 24.645 149.175 25.525C149.285 26.405 149.524 27.0283 149.89 27.395C150.514 27.505 151.229 27.2483 152.035 26.625C152.842 25.965 153.63 25.14 154.4 24.15C155.17 23.16 155.867 22.0967 156.49 20.96C157.114 19.7867 157.554 18.76 157.81 17.88C157.957 17.44 158.085 16.9817 158.195 16.505C158.305 16.0283 158.36 15.5333 158.36 15.02C158.36 14.7267 158.544 14.4517 158.91 14.195C159.314 13.9017 159.644 13.7367 159.9 13.7C160.084 13.6633 160.285 13.7 160.505 13.81C160.762 13.92 160.982 14.085 161.165 14.305C161.385 14.4883 161.569 14.7267 161.715 15.02C161.899 15.2767 161.99 15.5517 161.99 15.845C162.064 16.945 162.174 18.155 162.32 19.475C162.467 20.795 162.632 22.115 162.815 23.435C163.035 24.755 163.255 26.0383 163.475 27.285C163.695 28.5317 163.915 29.65 164.135 30.64C164.245 31.0433 164.135 31.5017 163.805 32.015C163.475 32.5283 163.109 32.84 162.705 32.95C162.375 33.0233 162.027 32.9867 161.66 32.84C161.33 32.6933 161.074 32.4 160.89 31.96C160.707 31.4467 160.524 30.8233 160.34 30.09C160.194 29.32 160.047 28.5317 159.9 27.725C159.79 26.8817 159.68 26.0933 159.57 25.36C159.46 24.59 159.387 23.9483 159.35 23.435C158.8 24.425 158.14 25.4333 157.37 26.46C156.637 27.45 155.83 28.3667 154.95 29.21C154.107 30.0167 153.209 30.6583 152.255 31.135C151.339 31.575 150.385 31.74 149.395 31.63C147.929 31.4467 146.81 30.0717 146.04 27.505C145.747 26.4783 145.6 25.3417 145.6 24.095C145.637 22.8483 145.729 21.62 145.875 20.41C146.059 19.1633 146.26 17.99 146.48 16.89C146.737 15.79 146.957 14.8917 147.14 14.195C147.214 13.9017 147.36 13.645 147.58 13.425C147.8 13.1683 148.057 13.0767 148.35 13.15C148.9 13.26 149.395 13.59 149.835 14.14C150.312 14.69 150.477 15.2583 150.33 15.845ZM172.779 6.385C172.962 10.3817 173.274 14.525 173.714 18.815C174.154 23.0683 174.63 27.1383 175.144 31.025C175.254 32.6383 174.814 33.4633 173.824 33.5C173.604 33.5 173.384 33.4267 173.164 33.28C172.944 33.0967 172.742 32.8767 172.559 32.62C172.375 32.3633 172.192 32.0883 172.009 31.795C171.862 31.5017 171.77 31.245 171.734 31.025C171.44 29.155 171.165 27.175 170.909 25.085C170.652 22.995 170.414 20.905 170.194 18.815C170.01 16.6883 169.845 14.6167 169.699 12.6C169.552 10.5833 169.46 8.73167 169.424 7.045C169.497 6.165 169.625 5.43167 169.809 4.845C169.992 4.22167 170.377 3.92833 170.964 3.965C171.587 4.00166 172.027 4.25833 172.284 4.735C172.577 5.175 172.742 5.725 172.779 6.385ZM193.403 11.775C193.55 12.8017 193.66 13.9017 193.733 15.075C193.843 16.2117 193.916 17.3667 193.953 18.54C194.026 19.7133 194.063 20.85 194.063 21.95C194.063 23.05 194.045 24.04 194.008 24.92C195.181 25.7267 195.878 26.4417 196.098 27.065C196.355 27.6883 196.391 28.2383 196.208 28.715C195.988 29.375 195.585 29.7233 194.998 29.76C194.448 29.76 193.806 29.5583 193.073 29.155C192.56 29.5217 191.973 29.925 191.313 30.365C190.653 30.7683 189.956 31.1717 189.223 31.575C188.49 31.9417 187.756 32.2717 187.023 32.565C186.29 32.8583 185.611 33.06 184.988 33.17C183.815 33.3533 182.751 33.1333 181.798 32.51C180.881 31.8867 180.258 30.9517 179.928 29.705C179.708 28.8617 179.653 28 179.763 27.12C179.873 26.2033 180.148 25.3417 180.588 24.535C181.028 23.6917 181.615 22.94 182.348 22.28C183.118 21.62 184.016 21.1067 185.043 20.74C185.3 20.63 185.648 20.5383 186.088 20.465C186.565 20.3917 187.041 20.3733 187.518 20.41C188.031 20.41 188.545 20.5017 189.058 20.685C189.571 20.8683 190.048 21.18 190.488 21.62C190.488 20.9967 190.47 20.3183 190.433 19.585C190.433 18.815 190.415 18.045 190.378 17.275C190.341 16.505 190.286 15.79 190.213 15.13C190.176 14.4333 190.121 13.8467 190.048 13.37C189.975 12.82 189.755 12.49 189.388 12.38C189.058 12.2333 188.636 12.2517 188.123 12.435C187.243 12.7283 186.216 13.2967 185.043 14.14C183.87 14.9833 182.751 15.8817 181.688 16.835C181.358 17.165 180.973 17.3117 180.533 17.275C180.13 17.2383 179.781 17.0733 179.488 16.78C179.195 16.4867 179.03 16.1567 178.993 15.79C178.956 15.3867 179.103 14.965 179.433 14.525C180.056 13.865 180.753 13.1867 181.523 12.49C182.293 11.7933 183.1 11.17 183.943 10.62C184.786 10.0333 185.648 9.55667 186.528 9.19C187.408 8.82333 188.288 8.62166 189.168 8.585C190.451 8.54833 191.441 8.84167 192.138 9.465C192.835 10.0517 193.256 10.8217 193.403 11.775ZM187.023 23.6C186.546 23.71 186.033 23.9483 185.483 24.315C184.97 24.645 184.493 25.0667 184.053 25.58C183.65 26.0567 183.338 26.6067 183.118 27.23C182.935 27.8167 182.935 28.4033 183.118 28.99C183.191 29.21 183.338 29.375 183.558 29.485C183.815 29.595 184.09 29.6133 184.383 29.54C185.263 29.3567 186.253 29.0083 187.353 28.495C188.49 27.945 189.388 27.3583 190.048 26.735C190.048 26.515 189.938 26.24 189.718 25.91C189.498 25.5433 189.241 25.195 188.948 24.865C188.655 24.4983 188.325 24.1867 187.958 23.93C187.628 23.6733 187.316 23.5633 187.023 23.6ZM211.904 17.385C212.6 17.3483 213.297 17.5133 213.994 17.88C214.69 18.2467 215.039 18.815 215.039 19.585C214.965 20.2083 214.617 20.6117 213.994 20.795C213.407 20.9417 212.93 21.015 212.564 21.015C211.83 21.015 211.042 21.0333 210.199 21.07C209.355 21.1067 208.494 21.1617 207.614 21.235C207.54 22.445 207.467 23.5817 207.394 24.645C207.357 25.7083 207.32 26.6617 207.284 27.505C207.247 28.3117 207.229 28.9717 207.229 29.485C207.229 29.9983 207.247 30.2733 207.284 30.31C208.09 30.1633 208.952 29.925 209.869 29.595C210.822 29.2283 211.757 28.8433 212.674 28.44C213.627 28 214.544 27.56 215.424 27.12C216.34 26.6433 217.202 26.2033 218.009 25.8C218.375 25.6167 218.705 25.5617 218.999 25.635C219.329 25.7083 219.53 25.8733 219.604 26.13C219.677 26.5333 219.622 27.0283 219.439 27.615C219.255 28.2017 218.925 28.7333 218.449 29.21C217.899 29.65 217.165 30.1633 216.249 30.75C215.369 31.3 214.415 31.8317 213.389 32.345C212.362 32.8583 211.317 33.3167 210.254 33.72C209.227 34.0867 208.31 34.3067 207.504 34.38C206.294 34.49 205.377 34.16 204.754 33.39C204.13 32.62 203.782 31.6483 203.709 30.475C203.635 29.3017 203.617 27.945 203.654 26.405C203.727 24.865 203.8 23.2333 203.874 21.51C203.177 21.5833 202.499 21.6567 201.839 21.73C201.215 21.7667 200.61 21.8217 200.024 21.895C199.547 21.895 199.015 21.785 198.429 21.565C197.879 21.345 197.604 20.9233 197.604 20.3C197.604 20.08 197.695 19.7867 197.879 19.42C198.062 19.0533 198.465 18.7783 199.089 18.595C200.592 18.3383 202.26 18.1183 204.094 17.935C204.204 16.2117 204.332 14.5433 204.479 12.93C204.625 11.3167 204.754 9.85 204.864 8.53C204.9 8.09 205.029 7.705 205.249 7.375C205.469 7.045 205.707 6.88 205.964 6.88C206.587 6.84333 207.174 7.00833 207.724 7.375C208.31 7.705 208.604 8.09 208.604 8.53C208.457 9.77666 208.31 11.1883 208.164 12.765C208.054 14.3417 207.944 15.955 207.834 17.605C208.567 17.5317 209.264 17.495 209.924 17.495C210.62 17.4583 211.28 17.4217 211.904 17.385ZM231.11 9.685C231.036 10.0517 230.78 10.2533 230.34 10.29C229.9 10.3267 229.533 10.345 229.24 10.345C228.323 10.3817 227.37 10.4733 226.38 10.62C225.426 10.7667 224.418 10.9867 223.355 11.28C222.915 11.4267 222.438 11.3717 221.925 11.115C221.411 10.8583 221.1 10.345 220.99 9.575C220.99 9.28166 221.1 9.04333 221.32 8.86C221.54 8.67666 221.796 8.51166 222.09 8.365C222.566 8.145 223.135 7.96167 223.795 7.815C224.455 7.63167 225.115 7.50333 225.775 7.43C226.471 7.35667 227.131 7.33833 227.755 7.375C228.378 7.375 228.891 7.43 229.295 7.54C229.881 7.72333 230.34 7.99833 230.67 8.365C231.036 8.73166 231.183 9.17166 231.11 9.685ZM229.845 28C230.101 28.5867 230.23 29.2283 230.23 29.925C230.266 30.585 230.083 31.0433 229.68 31.3C229.166 31.63 228.616 31.6117 228.03 31.245C227.443 30.8783 227.003 30.3833 226.71 29.76C226.306 28.99 225.995 28.055 225.775 26.955C225.555 25.8183 225.39 24.7 225.28 23.6C225.17 22.5 225.096 21.4733 225.06 20.52C225.06 19.5667 225.06 18.8517 225.06 18.375C225.096 17.8617 225.243 17.385 225.5 16.945C225.756 16.505 226.086 16.2483 226.49 16.175C227.15 16.2117 227.681 16.5233 228.085 17.11C228.488 17.66 228.671 18.3567 228.635 19.2C228.635 19.86 228.653 20.5933 228.69 21.4C228.726 22.2067 228.8 23.0133 228.91 23.82C229.02 24.6267 229.148 25.415 229.295 26.185C229.441 26.9183 229.625 27.5233 229.845 28ZM247.84 12.93C248.94 13.3333 249.857 13.9383 250.59 14.745C251.36 15.5517 251.947 16.4683 252.35 17.495C252.753 18.485 252.973 19.5117 253.01 20.575C253.083 21.6383 252.973 22.6283 252.68 23.545C252.277 24.5717 251.763 25.58 251.14 26.57C250.517 27.56 249.802 28.44 248.995 29.21C248.188 29.98 247.272 30.6033 246.245 31.08C245.218 31.5567 244.082 31.795 242.835 31.795C241.332 31.795 240.067 31.4467 239.04 30.75C238.013 30.0533 237.207 29.155 236.62 28.055C236.033 26.955 235.648 25.7083 235.465 24.315C235.318 22.9217 235.355 21.5283 235.575 20.135C235.722 19.1083 235.96 18.1183 236.29 17.165C236.657 16.175 237.115 15.3133 237.665 14.58C238.215 13.81 238.838 13.1867 239.535 12.71C240.268 12.2333 241.093 11.995 242.01 11.995C242.523 11.995 243.165 12.105 243.935 12.325C244.705 12.5083 245.42 12.7833 246.08 13.15C246.557 12.71 247.143 12.6367 247.84 12.93ZM245.75 16.945C245.347 16.6883 244.87 16.3583 244.32 15.955C243.807 15.515 243.348 15.295 242.945 15.295C242.505 15.295 242.065 15.4967 241.625 15.9C241.222 16.3033 240.855 16.78 240.525 17.33C240.232 17.8433 239.975 18.375 239.755 18.925C239.535 19.475 239.388 19.915 239.315 20.245C239.205 20.795 239.132 21.455 239.095 22.225C239.058 22.995 239.113 23.765 239.26 24.535C239.407 25.2683 239.682 25.9467 240.085 26.57C240.525 27.1567 241.167 27.5783 242.01 27.835C242.523 27.9817 243.128 27.9817 243.825 27.835C244.522 27.6517 245.2 27.34 245.86 26.9C246.557 26.46 247.198 25.8733 247.785 25.14C248.408 24.4067 248.885 23.5633 249.215 22.61C249.582 21.5467 249.582 20.4467 249.215 19.31C248.885 18.1367 248.188 17.2933 247.125 16.78C246.868 16.9633 246.612 17.055 246.355 17.055C246.098 17.055 245.897 17.0183 245.75 16.945ZM260.946 13.975C261.056 14.525 261.166 15.1483 261.276 15.845C261.423 16.505 261.57 17.2017 261.716 17.935C261.863 18.6317 261.991 19.3467 262.101 20.08C262.211 20.8133 262.303 21.51 262.376 22.17C262.816 21.2167 263.293 20.2083 263.806 19.145C264.32 18.0817 264.87 17.11 265.456 16.23C266.08 15.3133 266.721 14.5617 267.381 13.975C268.078 13.3883 268.83 13.095 269.636 13.095C270.846 13.095 271.855 13.535 272.661 14.415C273.505 15.295 274.201 16.395 274.751 17.715C275.338 18.9983 275.796 20.355 276.126 21.785C276.456 23.215 276.731 24.48 276.951 25.58C277.171 26.57 276.731 27.3033 275.631 27.78C275.118 28.0367 274.733 28.0733 274.476 27.89C274.22 27.7067 274.073 27.5233 274.036 27.34C273.853 26.9 273.615 26.13 273.321 25.03C273.065 23.93 272.753 22.8117 272.386 21.675C272.056 20.5383 271.671 19.5483 271.231 18.705C270.791 17.8617 270.296 17.4767 269.746 17.55C269.086 17.5867 268.5 18.0817 267.986 19.035C267.546 19.805 267.088 20.6667 266.611 21.62C266.171 22.5367 265.731 23.49 265.291 24.48C264.851 25.4333 264.411 26.405 263.971 27.395C263.568 28.3483 263.183 29.2283 262.816 30.035C262.56 30.2917 262.23 30.475 261.826 30.585C261.46 30.6583 261.075 30.6217 260.671 30.475C260.305 30.365 260.011 30.1817 259.791 29.925C259.571 29.6683 259.461 29.4117 259.461 29.155C259.131 26.295 258.783 23.6917 258.416 21.345C258.086 18.9983 257.646 16.5967 257.096 14.14C256.84 13.2967 256.785 12.6367 256.931 12.16C257.115 11.6467 257.665 11.445 258.581 11.555C259.865 11.775 260.653 12.5817 260.946 13.975ZM291.022 15.68C290.949 15.2767 290.875 14.8917 290.802 14.525C290.729 14.1583 290.545 13.92 290.252 13.81C289.629 13.6267 288.969 13.6083 288.272 13.755C287.575 13.9017 286.934 14.14 286.347 14.47C285.76 14.7633 285.265 15.1117 284.862 15.515C284.459 15.8817 284.239 16.2117 284.202 16.505C284.092 17.055 284.239 17.5867 284.642 18.1C285.045 18.6133 285.632 19.1267 286.402 19.64C287.685 20.41 289.024 21.1983 290.417 22.005C291.81 22.8117 292.984 23.6367 293.937 24.48C294.89 25.3233 295.532 26.2583 295.862 27.285C296.229 28.275 296.155 29.4117 295.642 30.695C295.239 31.685 294.487 32.4917 293.387 33.115C292.287 33.7383 291.077 34.2333 289.757 34.6C288.437 34.93 287.117 35.1683 285.797 35.315C284.477 35.425 283.359 35.48 282.442 35.48C282.222 35.48 281.947 35.4067 281.617 35.26C281.324 35.0767 281.03 34.875 280.737 34.655C280.48 34.435 280.242 34.215 280.022 33.995C279.839 33.7383 279.747 33.5183 279.747 33.335C279.747 32.675 280.04 32.2167 280.627 31.96C281.214 31.7033 281.819 31.575 282.442 31.575C283.322 31.575 284.257 31.5383 285.247 31.465C286.274 31.355 287.245 31.2083 288.162 31.025C289.079 30.805 289.904 30.53 290.637 30.2C291.37 29.87 291.884 29.4483 292.177 28.935C292.434 28.495 292.269 27.9817 291.682 27.395C291.132 26.7717 290.38 26.13 289.427 25.47C288.51 24.81 287.502 24.1683 286.402 23.545C285.339 22.9217 284.422 22.3533 283.652 21.84C282.882 21.3267 282.222 20.7217 281.672 20.025C281.122 19.2917 280.774 18.3933 280.627 17.33C280.59 16.3767 280.792 15.46 281.232 14.58C281.672 13.7 282.24 12.93 282.937 12.27C283.67 11.5733 284.495 11.0233 285.412 10.62C286.329 10.2167 287.245 10.015 288.162 10.015C289.739 10.0883 291.04 10.5283 292.067 11.335C293.094 12.105 293.699 13.26 293.882 14.8C293.882 15.3133 293.79 15.735 293.607 16.065C293.46 16.395 293.185 16.5967 292.782 16.67C292.269 16.7433 291.847 16.6883 291.517 16.505C291.224 16.285 291.059 16.01 291.022 15.68ZM300.64 43.29C300.346 43.0333 300.273 42.7033 300.42 42.3C300.566 41.8967 300.713 41.5483 300.86 41.255C301.226 40.4117 301.556 39.5317 301.85 38.615C302.143 37.6617 302.381 36.6533 302.565 35.59C302.638 35.1133 302.895 34.71 303.335 34.38C303.775 34.0133 304.361 33.94 305.095 34.16C305.388 34.3067 305.553 34.5267 305.59 34.82C305.663 35.0767 305.7 35.37 305.7 35.7C305.7 36.2133 305.626 36.8183 305.48 37.515C305.37 38.175 305.205 38.8167 304.985 39.44C304.765 40.1 304.508 40.705 304.215 41.255C303.921 41.805 303.646 42.2267 303.39 42.52C302.95 42.9967 302.473 43.3083 301.96 43.455C301.483 43.6383 301.043 43.5833 300.64 43.29ZM344.784 14.8C344.894 16.78 345.004 18.7783 345.114 20.795C345.261 22.8117 345.297 24.81 345.224 26.79C345.151 28.7333 344.949 30.64 344.619 32.51C344.326 34.38 343.812 36.1767 343.079 37.9C342.346 39.5867 341.356 41.1633 340.109 42.63C338.899 44.0967 337.359 45.4167 335.489 46.59C335.196 46.7733 334.866 46.8833 334.499 46.92C334.169 46.9567 333.839 46.9383 333.509 46.865C333.179 46.8283 332.886 46.7367 332.629 46.59C332.372 46.48 332.207 46.315 332.134 46.095C332.024 45.765 332.079 45.3983 332.299 44.995C332.519 44.5917 332.886 44.17 333.399 43.73C335.012 42.52 336.369 41.2367 337.469 39.88C338.569 38.5233 339.449 37.0567 340.109 35.48C340.769 33.9033 341.191 32.1983 341.374 30.365C341.594 28.495 341.594 26.46 341.374 24.26C340.934 24.81 340.421 25.3783 339.834 25.965C339.247 26.5517 338.624 27.0833 337.964 27.56C337.304 28 336.626 28.385 335.929 28.715C335.232 29.0083 334.572 29.155 333.949 29.155C333.436 29.155 332.922 29.045 332.409 28.825C331.896 28.605 331.382 28.1833 330.869 27.56C330.282 26.79 329.751 25.9283 329.274 24.975C328.834 23.985 328.449 23.0317 328.119 22.115C327.789 21.1983 327.514 20.3733 327.294 19.64C327.111 18.9067 327.001 18.3933 326.964 18.1C326.891 17.7333 326.891 17.385 326.964 17.055C327.037 16.725 327.276 16.5233 327.679 16.45C328.229 16.34 328.742 16.3767 329.219 16.56C329.696 16.7433 330.026 17.0367 330.209 17.44C330.356 17.8433 330.557 18.4667 330.814 19.31C331.071 20.1533 331.382 20.9967 331.749 21.84C332.116 22.6467 332.501 23.3617 332.904 23.985C333.344 24.6083 333.802 24.92 334.279 24.92C334.829 24.92 335.471 24.645 336.204 24.095C336.974 23.545 337.707 22.83 338.404 21.95C339.101 21.07 339.687 20.0983 340.164 19.035C340.677 17.935 340.934 16.8717 340.934 15.845C340.934 15.625 340.971 15.3683 341.044 15.075C341.117 14.7817 341.227 14.5067 341.374 14.25C341.521 13.9567 341.686 13.7183 341.869 13.535C342.089 13.315 342.309 13.1867 342.529 13.15C343.116 13.0767 343.629 13.2417 344.069 13.645C344.546 14.0117 344.784 14.3967 344.784 14.8ZM362.728 12.93C363.828 13.3333 364.744 13.9383 365.478 14.745C366.248 15.5517 366.834 16.4683 367.238 17.495C367.641 18.485 367.861 19.5117 367.898 20.575C367.971 21.6383 367.861 22.6283 367.568 23.545C367.164 24.5717 366.651 25.58 366.028 26.57C365.404 27.56 364.689 28.44 363.883 29.21C363.076 29.98 362.159 30.6033 361.133 31.08C360.106 31.5567 358.969 31.795 357.723 31.795C356.219 31.795 354.954 31.4467 353.928 30.75C352.901 30.0533 352.094 29.155 351.508 28.055C350.921 26.955 350.536 25.7083 350.353 24.315C350.206 22.9217 350.243 21.5283 350.463 20.135C350.609 19.1083 350.848 18.1183 351.178 17.165C351.544 16.175 352.003 15.3133 352.553 14.58C353.103 13.81 353.726 13.1867 354.423 12.71C355.156 12.2333 355.981 11.995 356.898 11.995C357.411 11.995 358.053 12.105 358.823 12.325C359.593 12.5083 360.308 12.7833 360.968 13.15C361.444 12.71 362.031 12.6367 362.728 12.93ZM360.638 16.945C360.234 16.6883 359.758 16.3583 359.208 15.955C358.694 15.515 358.236 15.295 357.833 15.295C357.393 15.295 356.953 15.4967 356.513 15.9C356.109 16.3033 355.743 16.78 355.413 17.33C355.119 17.8433 354.863 18.375 354.643 18.925C354.423 19.475 354.276 19.915 354.203 20.245C354.093 20.795 354.019 21.455 353.983 22.225C353.946 22.995 354.001 23.765 354.148 24.535C354.294 25.2683 354.569 25.9467 354.973 26.57C355.413 27.1567 356.054 27.5783 356.898 27.835C357.411 27.9817 358.016 27.9817 358.713 27.835C359.409 27.6517 360.088 27.34 360.748 26.9C361.444 26.46 362.086 25.8733 362.673 25.14C363.296 24.4067 363.773 23.5633 364.103 22.61C364.469 21.5467 364.469 20.4467 364.103 19.31C363.773 18.1367 363.076 17.2933 362.013 16.78C361.756 16.9633 361.499 17.055 361.243 17.055C360.986 17.055 360.784 17.0183 360.638 16.945ZM377.044 15.845C376.824 16.835 376.604 17.935 376.384 19.145C376.164 20.3183 375.999 21.455 375.889 22.555C375.816 23.655 375.816 24.645 375.889 25.525C375.999 26.405 376.237 27.0283 376.604 27.395C377.227 27.505 377.942 27.2483 378.749 26.625C379.556 25.965 380.344 25.14 381.114 24.15C381.884 23.16 382.581 22.0967 383.204 20.96C383.827 19.7867 384.267 18.76 384.524 17.88C384.671 17.44 384.799 16.9817 384.909 16.505C385.019 16.0283 385.074 15.5333 385.074 15.02C385.074 14.7267 385.257 14.4517 385.624 14.195C386.027 13.9017 386.357 13.7367 386.614 13.7C386.797 13.6633 386.999 13.7 387.219 13.81C387.476 13.92 387.696 14.085 387.879 14.305C388.099 14.4883 388.282 14.7267 388.429 15.02C388.612 15.2767 388.704 15.5517 388.704 15.845C388.777 16.945 388.887 18.155 389.034 19.475C389.181 20.795 389.346 22.115 389.529 23.435C389.749 24.755 389.969 26.0383 390.189 27.285C390.409 28.5317 390.629 29.65 390.849 30.64C390.959 31.0433 390.849 31.5017 390.519 32.015C390.189 32.5283 389.822 32.84 389.419 32.95C389.089 33.0233 388.741 32.9867 388.374 32.84C388.044 32.6933 387.787 32.4 387.604 31.96C387.421 31.4467 387.237 30.8233 387.054 30.09C386.907 29.32 386.761 28.5317 386.614 27.725C386.504 26.8817 386.394 26.0933 386.284 25.36C386.174 24.59 386.101 23.9483 386.064 23.435C385.514 24.425 384.854 25.4333 384.084 26.46C383.351 27.45 382.544 28.3667 381.664 29.21C380.821 30.0167 379.922 30.6583 378.969 31.135C378.052 31.575 377.099 31.74 376.109 31.63C374.642 31.4467 373.524 30.0717 372.754 27.505C372.461 26.4783 372.314 25.3417 372.314 24.095C372.351 22.8483 372.442 21.62 372.589 20.41C372.772 19.1633 372.974 17.99 373.194 16.89C373.451 15.79 373.671 14.8917 373.854 14.195C373.927 13.9017 374.074 13.645 374.294 13.425C374.514 13.1683 374.771 13.0767 375.064 13.15C375.614 13.26 376.109 13.59 376.549 14.14C377.026 14.69 377.191 15.2583 377.044 15.845ZM424.038 11.775C424.184 12.8017 424.294 13.9017 424.368 15.075C424.478 16.2117 424.551 17.3667 424.588 18.54C424.661 19.7133 424.698 20.85 424.698 21.95C424.698 23.05 424.679 24.04 424.643 24.92C425.816 25.7267 426.513 26.4417 426.733 27.065C426.989 27.6883 427.026 28.2383 426.843 28.715C426.623 29.375 426.219 29.7233 425.633 29.76C425.083 29.76 424.441 29.5583 423.708 29.155C423.194 29.5217 422.608 29.925 421.948 30.365C421.288 30.7683 420.591 31.1717 419.858 31.575C419.124 31.9417 418.391 32.2717 417.658 32.565C416.924 32.8583 416.246 33.06 415.623 33.17C414.449 33.3533 413.386 33.1333 412.433 32.51C411.516 31.8867 410.893 30.9517 410.563 29.705C410.343 28.8617 410.288 28 410.398 27.12C410.508 26.2033 410.783 25.3417 411.223 24.535C411.663 23.6917 412.249 22.94 412.983 22.28C413.753 21.62 414.651 21.1067 415.678 20.74C415.934 20.63 416.283 20.5383 416.723 20.465C417.199 20.3917 417.676 20.3733 418.153 20.41C418.666 20.41 419.179 20.5017 419.693 20.685C420.206 20.8683 420.683 21.18 421.123 21.62C421.123 20.9967 421.104 20.3183 421.068 19.585C421.068 18.815 421.049 18.045 421.013 17.275C420.976 16.505 420.921 15.79 420.848 15.13C420.811 14.4333 420.756 13.8467 420.683 13.37C420.609 12.82 420.389 12.49 420.023 12.38C419.693 12.2333 419.271 12.2517 418.758 12.435C417.878 12.7283 416.851 13.2967 415.678 14.14C414.504 14.9833 413.386 15.8817 412.323 16.835C411.993 17.165 411.608 17.3117 411.168 17.275C410.764 17.2383 410.416 17.0733 410.123 16.78C409.829 16.4867 409.664 16.1567 409.628 15.79C409.591 15.3867 409.738 14.965 410.068 14.525C410.691 13.865 411.388 13.1867 412.158 12.49C412.928 11.7933 413.734 11.17 414.578 10.62C415.421 10.0333 416.283 9.55667 417.163 9.19C418.043 8.82333 418.923 8.62166 419.803 8.585C421.086 8.54833 422.076 8.84167 422.773 9.465C423.469 10.0517 423.891 10.8217 424.038 11.775ZM417.658 23.6C417.181 23.71 416.668 23.9483 416.118 24.315C415.604 24.645 415.128 25.0667 414.688 25.58C414.284 26.0567 413.973 26.6067 413.753 27.23C413.569 27.8167 413.569 28.4033 413.753 28.99C413.826 29.21 413.973 29.375 414.193 29.485C414.449 29.595 414.724 29.6133 415.018 29.54C415.898 29.3567 416.888 29.0083 417.988 28.495C419.124 27.945 420.023 27.3583 420.683 26.735C420.683 26.515 420.573 26.24 420.353 25.91C420.133 25.5433 419.876 25.195 419.583 24.865C419.289 24.4983 418.959 24.1867 418.593 23.93C418.263 23.6733 417.951 23.5633 417.658 23.6ZM446.498 13.15C445.838 13.5167 445.142 13.9017 444.408 14.305C443.712 14.7083 442.997 15.185 442.263 15.735C441.567 16.2483 440.888 16.8717 440.228 17.605C439.605 18.3017 439.037 19.145 438.523 20.135C437.79 21.5283 437.295 22.9583 437.038 24.425C436.782 25.855 436.617 27.2667 436.543 28.66C436.543 29.32 436.378 29.9983 436.048 30.695C435.755 31.355 435.333 31.685 434.783 31.685C434.087 31.685 433.518 31.3367 433.078 30.64C432.675 29.9067 432.4 29.21 432.253 28.55C431.63 25.9467 431.117 23.38 430.713 20.85C430.31 18.2833 429.962 15.735 429.668 13.205C429.668 12.6917 429.815 12.3617 430.108 12.215C430.438 12.0683 430.805 12.0133 431.208 12.05C431.648 12.0867 432.07 12.1967 432.473 12.38C432.877 12.5633 433.115 12.8567 433.188 13.26C433.335 14.6167 433.518 16.0467 433.738 17.55C433.958 19.0167 434.178 20.2817 434.398 21.345C434.545 20.0983 434.948 18.8883 435.608 17.715C436.268 16.5417 437.075 15.4783 438.028 14.525C439.018 13.5717 440.118 12.765 441.328 12.105C442.575 11.445 443.84 11.005 445.123 10.785C445.673 10.7117 446.132 10.7117 446.498 10.785C446.865 10.8583 447.122 10.9867 447.268 11.17C447.415 11.3533 447.433 11.6467 447.323 12.05C447.25 12.4533 446.975 12.82 446.498 13.15ZM463.129 19.2C461.699 20.0433 460.159 20.7033 458.509 21.18C456.859 21.62 455.081 21.84 453.174 21.84C453.247 23.1233 453.614 24.15 454.274 24.92C454.934 25.6533 455.759 26.0933 456.749 26.24C457.336 26.3133 457.922 26.295 458.509 26.185C459.132 26.075 459.701 25.91 460.214 25.69C460.764 25.4333 461.259 25.1583 461.699 24.865C462.139 24.5717 462.524 24.2783 462.854 23.985C463.184 23.6917 463.532 23.5083 463.899 23.435C464.266 23.325 464.541 23.3067 464.724 23.38C465.237 23.5633 465.421 24.1133 465.274 25.03C464.687 26.2033 463.844 27.2117 462.744 28.055C461.644 28.8617 460.416 29.375 459.059 29.595C457.886 29.815 456.676 29.76 455.429 29.43C454.182 29.1 453.064 28.4583 452.074 27.505C451.231 26.6617 450.589 25.6717 450.149 24.535C449.709 23.3983 449.434 22.225 449.324 21.015C449.214 19.8783 449.306 18.7967 449.599 17.77C449.929 16.7433 450.424 15.845 451.084 15.075C451.744 14.2683 452.569 13.6083 453.559 13.095C454.549 12.5817 455.704 12.2883 457.024 12.215C458.601 12.105 460.031 12.3983 461.314 13.095C462.597 13.7917 463.496 14.7633 464.009 16.01C464.302 16.7067 464.376 17.3117 464.229 17.825C464.119 18.3383 463.752 18.7967 463.129 19.2ZM456.804 15.46C456.437 15.5333 456.034 15.6617 455.594 15.845C455.191 16.0283 454.806 16.2667 454.439 16.56C454.109 16.8167 453.797 17.1283 453.504 17.495C453.247 17.825 453.101 18.21 453.064 18.65C453.687 18.65 454.366 18.595 455.099 18.485C455.869 18.375 456.602 18.2467 457.299 18.1C458.032 17.9167 458.692 17.715 459.279 17.495C459.902 17.275 460.416 17.0367 460.819 16.78C460.526 16.0833 459.976 15.6617 459.169 15.515C458.399 15.3317 457.611 15.3133 456.804 15.46ZM498.266 11.775C498.413 12.8017 498.523 13.9017 498.596 15.075C498.706 16.2117 498.78 17.3667 498.816 18.54C498.89 19.7133 498.926 20.85 498.926 21.95C498.926 23.05 498.908 24.04 498.871 24.92C500.045 25.7267 500.741 26.4417 500.961 27.065C501.218 27.6883 501.255 28.2383 501.071 28.715C500.851 29.375 500.448 29.7233 499.861 29.76C499.311 29.76 498.67 29.5583 497.936 29.155C497.423 29.5217 496.836 29.925 496.176 30.365C495.516 30.7683 494.82 31.1717 494.086 31.575C493.353 31.9417 492.62 32.2717 491.886 32.565C491.153 32.8583 490.475 33.06 489.851 33.17C488.678 33.3533 487.615 33.1333 486.661 32.51C485.745 31.8867 485.121 30.9517 484.791 29.705C484.571 28.8617 484.516 28 484.626 27.12C484.736 26.2033 485.011 25.3417 485.451 24.535C485.891 23.6917 486.478 22.94 487.211 22.28C487.981 21.62 488.88 21.1067 489.906 20.74C490.163 20.63 490.511 20.5383 490.951 20.465C491.428 20.3917 491.905 20.3733 492.381 20.41C492.895 20.41 493.408 20.5017 493.921 20.685C494.435 20.8683 494.911 21.18 495.351 21.62C495.351 20.9967 495.333 20.3183 495.296 19.585C495.296 18.815 495.278 18.045 495.241 17.275C495.205 16.505 495.15 15.79 495.076 15.13C495.04 14.4333 494.985 13.8467 494.911 13.37C494.838 12.82 494.618 12.49 494.251 12.38C493.921 12.2333 493.5 12.2517 492.986 12.435C492.106 12.7283 491.08 13.2967 489.906 14.14C488.733 14.9833 487.615 15.8817 486.551 16.835C486.221 17.165 485.836 17.3117 485.396 17.275C484.993 17.2383 484.645 17.0733 484.351 16.78C484.058 16.4867 483.893 16.1567 483.856 15.79C483.82 15.3867 483.966 14.965 484.296 14.525C484.92 13.865 485.616 13.1867 486.386 12.49C487.156 11.7933 487.963 11.17 488.806 10.62C489.65 10.0333 490.511 9.55667 491.391 9.19C492.271 8.82333 493.151 8.62166 494.031 8.585C495.315 8.54833 496.305 8.84167 497.001 9.465C497.698 10.0517 498.12 10.8217 498.266 11.775ZM491.886 23.6C491.41 23.71 490.896 23.9483 490.346 24.315C489.833 24.645 489.356 25.0667 488.916 25.58C488.513 26.0567 488.201 26.6067 487.981 27.23C487.798 27.8167 487.798 28.4033 487.981 28.99C488.055 29.21 488.201 29.375 488.421 29.485C488.678 29.595 488.953 29.6133 489.246 29.54C490.126 29.3567 491.116 29.0083 492.216 28.495C493.353 27.945 494.251 27.3583 494.911 26.735C494.911 26.515 494.801 26.24 494.581 25.91C494.361 25.5433 494.105 25.195 493.811 24.865C493.518 24.4983 493.188 24.1867 492.821 23.93C492.491 23.6733 492.18 23.5633 491.886 23.6ZM507.802 13.975C507.912 14.525 508.022 15.1483 508.132 15.845C508.279 16.505 508.425 17.2017 508.572 17.935C508.719 18.6317 508.847 19.3467 508.957 20.08C509.067 20.8133 509.159 21.51 509.232 22.17C509.672 21.2167 510.149 20.2083 510.662 19.145C511.175 18.0817 511.725 17.11 512.312 16.23C512.935 15.3133 513.577 14.5617 514.237 13.975C514.934 13.3883 515.685 13.095 516.492 13.095C517.702 13.095 518.71 13.535 519.517 14.415C520.36 15.295 521.057 16.395 521.607 17.715C522.194 18.9983 522.652 20.355 522.982 21.785C523.312 23.215 523.587 24.48 523.807 25.58C524.027 26.57 523.587 27.3033 522.487 27.78C521.974 28.0367 521.589 28.0733 521.332 27.89C521.075 27.7067 520.929 27.5233 520.892 27.34C520.709 26.9 520.47 26.13 520.177 25.03C519.92 23.93 519.609 22.8117 519.242 21.675C518.912 20.5383 518.527 19.5483 518.087 18.705C517.647 17.8617 517.152 17.4767 516.602 17.55C515.942 17.5867 515.355 18.0817 514.842 19.035C514.402 19.805 513.944 20.6667 513.467 21.62C513.027 22.5367 512.587 23.49 512.147 24.48C511.707 25.4333 511.267 26.405 510.827 27.395C510.424 28.3483 510.039 29.2283 509.672 30.035C509.415 30.2917 509.085 30.475 508.682 30.585C508.315 30.6583 507.93 30.6217 507.527 30.475C507.16 30.365 506.867 30.1817 506.647 29.925C506.427 29.6683 506.317 29.4117 506.317 29.155C505.987 26.295 505.639 23.6917 505.272 21.345C504.942 18.9983 504.502 16.5967 503.952 14.14C503.695 13.2967 503.64 12.6367 503.787 12.16C503.97 11.6467 504.52 11.445 505.437 11.555C506.72 11.775 507.509 12.5817 507.802 13.975ZM556.317 19.2C554.887 20.0433 553.347 20.7033 551.697 21.18C550.047 21.62 548.269 21.84 546.362 21.84C546.436 23.1233 546.802 24.15 547.462 24.92C548.122 25.6533 548.947 26.0933 549.937 26.24C550.524 26.3133 551.111 26.295 551.697 26.185C552.321 26.075 552.889 25.91 553.402 25.69C553.952 25.4333 554.447 25.1583 554.887 24.865C555.327 24.5717 555.712 24.2783 556.042 23.985C556.372 23.6917 556.721 23.5083 557.087 23.435C557.454 23.325 557.729 23.3067 557.912 23.38C558.426 23.5633 558.609 24.1133 558.462 25.03C557.876 26.2033 557.032 27.2117 555.932 28.055C554.832 28.8617 553.604 29.375 552.247 29.595C551.074 29.815 549.864 29.76 548.617 29.43C547.371 29.1 546.252 28.4583 545.262 27.505C544.419 26.6617 543.777 25.6717 543.337 24.535C542.897 23.3983 542.622 22.225 542.512 21.015C542.402 19.8783 542.494 18.7967 542.787 17.77C543.117 16.7433 543.612 15.845 544.272 15.075C544.932 14.2683 545.757 13.6083 546.747 13.095C547.737 12.5817 548.892 12.2883 550.212 12.215C551.789 12.105 553.219 12.3983 554.502 13.095C555.786 13.7917 556.684 14.7633 557.197 16.01C557.491 16.7067 557.564 17.3117 557.417 17.825C557.307 18.3383 556.941 18.7967 556.317 19.2ZM549.992 15.46C549.626 15.5333 549.222 15.6617 548.782 15.845C548.379 16.0283 547.994 16.2667 547.627 16.56C547.297 16.8167 546.986 17.1283 546.692 17.495C546.436 17.825 546.289 18.21 546.252 18.65C546.876 18.65 547.554 18.595 548.287 18.485C549.057 18.375 549.791 18.2467 550.487 18.1C551.221 17.9167 551.881 17.715 552.467 17.495C553.091 17.275 553.604 17.0367 554.007 16.78C553.714 16.0833 553.164 15.6617 552.357 15.515C551.587 15.3317 550.799 15.3133 549.992 15.46ZM578.46 26.955C579.156 27.7983 579.56 28.5683 579.67 29.265C579.78 29.925 579.505 30.4017 578.845 30.695C578.698 30.7683 578.478 30.7867 578.185 30.75C577.928 30.6767 577.635 30.585 577.305 30.475C577.011 30.3283 576.718 30.1633 576.425 29.98C576.131 29.7967 575.893 29.6133 575.71 29.43C574.903 28.5133 574.096 27.5967 573.29 26.68C572.52 25.7633 571.713 24.8467 570.87 23.93L564.875 30.035C564.251 30.5483 563.683 30.7683 563.17 30.695C562.656 30.585 562.4 30.31 562.4 29.87C562.4 29.1733 562.51 28.5317 562.73 27.945C562.986 27.3217 563.316 26.735 563.72 26.185C564.453 25.305 565.205 24.4433 565.975 23.6C566.745 22.7567 567.515 21.9133 568.285 21.07C567.331 20.08 566.36 19.1083 565.37 18.155C564.416 17.165 563.426 16.1933 562.4 15.24C561.96 15.24 561.666 15.1667 561.52 15.02C561.373 14.8733 561.281 14.7083 561.245 14.525C561.245 14.305 561.281 14.1033 561.355 13.92C561.428 13.7367 561.501 13.6083 561.575 13.535C562.235 12.875 562.895 12.5633 563.555 12.6C564.215 12.6 564.875 12.8017 565.535 13.205C567.478 14.745 569.293 16.4133 570.98 18.21C572.446 16.67 573.95 15.1667 575.49 13.7C575.966 13.4067 576.48 13.2233 577.03 13.15C577.58 13.0767 578.185 13.205 578.845 13.535C579.175 13.9383 579.266 14.415 579.12 14.965C579.01 15.4783 578.716 15.9917 578.24 16.505L573.675 21.125C574.518 22.0783 575.343 23.05 576.15 24.04C576.956 25.03 577.726 26.0017 578.46 26.955ZM592.641 38.12C592.604 38.5233 592.421 38.89 592.091 39.22C591.761 39.5867 591.394 39.7517 590.991 39.715C590.367 39.6783 589.891 39.44 589.561 39C589.231 38.56 589.066 38.1933 589.066 37.9C589.066 36.5067 589.029 35.0583 588.956 33.555C588.882 32.015 588.791 30.4383 588.681 28.825C588.204 28.8983 587.764 28.8617 587.361 28.715C586.994 28.5317 586.737 28.2567 586.591 27.89C586.334 27.2667 586.371 26.7167 586.701 26.24C587.031 25.7633 587.562 25.305 588.296 24.865C588.112 23.5083 587.929 22.17 587.746 20.85C587.599 19.53 587.434 18.2467 587.251 17C587.214 16.78 587.232 16.5783 587.306 16.395C587.379 16.2117 587.471 16.0467 587.581 15.9C587.691 15.7167 587.892 15.5517 588.186 15.405C588.662 15.2217 589.194 15.3683 589.781 15.845C590.404 16.3217 590.826 16.9267 591.046 17.66C591.156 18.3567 591.266 19.1633 591.376 20.08C591.522 20.96 591.651 21.9317 591.761 22.995C592.531 22.5183 593.246 22.005 593.906 21.455C594.602 20.905 595.189 20.3183 595.666 19.695C596.179 19.0717 596.564 18.43 596.821 17.77C597.077 17.0733 597.151 16.3583 597.041 15.625C596.967 15.0017 596.692 14.4517 596.216 13.975C595.739 13.4617 594.987 13.1867 593.961 13.15C593.044 13.1133 592.127 13.1867 591.211 13.37C590.331 13.5533 589.451 13.7917 588.571 14.085C587.727 14.3783 586.884 14.7267 586.041 15.13C585.234 15.5333 584.446 15.9367 583.676 16.34C583.162 16.6333 582.649 16.7617 582.136 16.725C581.659 16.6517 581.347 16.4683 581.201 16.175C580.871 15.4417 580.889 14.7817 581.256 14.195C581.659 13.6083 582.264 13.0583 583.071 12.545C583.767 12.1417 584.592 11.7383 585.546 11.335C586.536 10.895 587.562 10.5283 588.626 10.235C589.726 9.905 590.826 9.685 591.926 9.575C593.062 9.42833 594.144 9.44666 595.171 9.63C596.197 9.77666 597.114 10.125 597.921 10.675C598.764 11.1883 599.442 11.9583 599.956 12.985C600.579 14.6717 600.744 16.23 600.451 17.66C600.194 19.0533 599.644 20.3367 598.801 21.51C597.994 22.6467 596.986 23.6917 595.776 24.645C594.602 25.5617 593.411 26.3867 592.201 27.12C592.384 29.1 592.512 31.0617 592.586 33.005C592.659 34.9483 592.677 36.6533 592.641 38.12ZM617.602 19.2C616.172 20.0433 614.632 20.7033 612.982 21.18C611.332 21.62 609.553 21.84 607.647 21.84C607.72 23.1233 608.087 24.15 608.747 24.92C609.407 25.6533 610.232 26.0933 611.222 26.24C611.808 26.3133 612.395 26.295 612.982 26.185C613.605 26.075 614.173 25.91 614.687 25.69C615.237 25.4333 615.732 25.1583 616.172 24.865C616.612 24.5717 616.997 24.2783 617.327 23.985C617.657 23.6917 618.005 23.5083 618.372 23.435C618.738 23.325 619.013 23.3067 619.197 23.38C619.71 23.5633 619.893 24.1133 619.747 25.03C619.16 26.2033 618.317 27.2117 617.217 28.055C616.117 28.8617 614.888 29.375 613.532 29.595C612.358 29.815 611.148 29.76 609.902 29.43C608.655 29.1 607.537 28.4583 606.547 27.505C605.703 26.6617 605.062 25.6717 604.622 24.535C604.182 23.3983 603.907 22.225 603.797 21.015C603.687 19.8783 603.778 18.7967 604.072 17.77C604.402 16.7433 604.897 15.845 605.557 15.075C606.217 14.2683 607.042 13.6083 608.032 13.095C609.022 12.5817 610.177 12.2883 611.497 12.215C613.073 12.105 614.503 12.3983 615.787 13.095C617.07 13.7917 617.968 14.7633 618.482 16.01C618.775 16.7067 618.848 17.3117 618.702 17.825C618.592 18.3383 618.225 18.7967 617.602 19.2ZM611.277 15.46C610.91 15.5333 610.507 15.6617 610.067 15.845C609.663 16.0283 609.278 16.2667 608.912 16.56C608.582 16.8167 608.27 17.1283 607.977 17.495C607.72 17.825 607.573 18.21 607.537 18.65C608.16 18.65 608.838 18.595 609.572 18.485C610.342 18.375 611.075 18.2467 611.772 18.1C612.505 17.9167 613.165 17.715 613.752 17.495C614.375 17.275 614.888 17.0367 615.292 16.78C614.998 16.0833 614.448 15.6617 613.642 15.515C612.872 15.3317 612.083 15.3133 611.277 15.46ZM640.019 13.15C639.359 13.5167 638.662 13.9017 637.929 14.305C637.232 14.7083 636.517 15.185 635.784 15.735C635.087 16.2483 634.409 16.8717 633.749 17.605C633.126 18.3017 632.557 19.145 632.044 20.135C631.311 21.5283 630.816 22.9583 630.559 24.425C630.302 25.855 630.137 27.2667 630.064 28.66C630.064 29.32 629.899 29.9983 629.569 30.695C629.276 31.355 628.854 31.685 628.304 31.685C627.607 31.685 627.039 31.3367 626.599 30.64C626.196 29.9067 625.921 29.21 625.774 28.55C625.151 25.9467 624.637 23.38 624.234 20.85C623.831 18.2833 623.482 15.735 623.189 13.205C623.189 12.6917 623.336 12.3617 623.629 12.215C623.959 12.0683 624.326 12.0133 624.729 12.05C625.169 12.0867 625.591 12.1967 625.994 12.38C626.397 12.5633 626.636 12.8567 626.709 13.26C626.856 14.6167 627.039 16.0467 627.259 17.55C627.479 19.0167 627.699 20.2817 627.919 21.345C628.066 20.0983 628.469 18.8883 629.129 17.715C629.789 16.5417 630.596 15.4783 631.549 14.525C632.539 13.5717 633.639 12.765 634.849 12.105C636.096 11.445 637.361 11.005 638.644 10.785C639.194 10.7117 639.652 10.7117 640.019 10.785C640.386 10.8583 640.642 10.9867 640.789 11.17C640.936 11.3533 640.954 11.6467 640.844 12.05C640.771 12.4533 640.496 12.82 640.019 13.15ZM655.824 17.385C656.521 17.3483 657.218 17.5133 657.914 17.88C658.611 18.2467 658.959 18.815 658.959 19.585C658.886 20.2083 658.538 20.6117 657.914 20.795C657.328 20.9417 656.851 21.015 656.484 21.015C655.751 21.015 654.963 21.0333 654.119 21.07C653.276 21.1067 652.414 21.1617 651.534 21.235C651.461 22.445 651.388 23.5817 651.314 24.645C651.278 25.7083 651.241 26.6617 651.204 27.505C651.168 28.3117 651.149 28.9717 651.149 29.485C651.149 29.9983 651.168 30.2733 651.204 30.31C652.011 30.1633 652.873 29.925 653.789 29.595C654.743 29.2283 655.678 28.8433 656.594 28.44C657.548 28 658.464 27.56 659.344 27.12C660.261 26.6433 661.123 26.2033 661.929 25.8C662.296 25.6167 662.626 25.5617 662.919 25.635C663.249 25.7083 663.451 25.8733 663.524 26.13C663.598 26.5333 663.543 27.0283 663.359 27.615C663.176 28.2017 662.846 28.7333 662.369 29.21C661.819 29.65 661.086 30.1633 660.169 30.75C659.289 31.3 658.336 31.8317 657.309 32.345C656.283 32.8583 655.238 33.3167 654.174 33.72C653.148 34.0867 652.231 34.3067 651.424 34.38C650.214 34.49 649.298 34.16 648.674 33.39C648.051 32.62 647.703 31.6483 647.629 30.475C647.556 29.3017 647.538 27.945 647.574 26.405C647.648 24.865 647.721 23.2333 647.794 21.51C647.098 21.5833 646.419 21.6567 645.759 21.73C645.136 21.7667 644.531 21.8217 643.944 21.895C643.468 21.895 642.936 21.785 642.349 21.565C641.799 21.345 641.524 20.9233 641.524 20.3C641.524 20.08 641.616 19.7867 641.799 19.42C641.983 19.0533 642.386 18.7783 643.009 18.595C644.513 18.3383 646.181 18.1183 648.014 17.935C648.124 16.2117 648.253 14.5433 648.399 12.93C648.546 11.3167 648.674 9.85 648.784 8.53C648.821 8.09 648.949 7.705 649.169 7.375C649.389 7.045 649.628 6.88 649.884 6.88C650.508 6.84333 651.094 7.00833 651.644 7.375C652.231 7.705 652.524 8.09 652.524 8.53C652.378 9.77666 652.231 11.1883 652.084 12.765C651.974 14.3417 651.864 15.955 651.754 17.605C652.488 17.5317 653.184 17.495 653.844 17.495C654.541 17.4583 655.201 17.4217 655.824 17.385ZM690.446 9.685C690.372 10.0517 690.116 10.2533 689.676 10.29C689.236 10.3267 688.869 10.345 688.576 10.345C687.659 10.3817 686.706 10.4733 685.716 10.62C684.762 10.7667 683.754 10.9867 682.691 11.28C682.251 11.4267 681.774 11.3717 681.261 11.115C680.747 10.8583 680.436 10.345 680.326 9.575C680.326 9.28166 680.436 9.04333 680.656 8.86C680.876 8.67666 681.132 8.51166 681.426 8.365C681.902 8.145 682.471 7.96167 683.131 7.815C683.791 7.63167 684.451 7.50333 685.111 7.43C685.807 7.35667 686.467 7.33833 687.091 7.375C687.714 7.375 688.227 7.43 688.631 7.54C689.217 7.72333 689.676 7.99833 690.006 8.365C690.372 8.73166 690.519 9.17166 690.446 9.685ZM689.181 28C689.437 28.5867 689.566 29.2283 689.566 29.925C689.602 30.585 689.419 31.0433 689.016 31.3C688.502 31.63 687.952 31.6117 687.366 31.245C686.779 30.8783 686.339 30.3833 686.046 29.76C685.642 28.99 685.331 28.055 685.111 26.955C684.891 25.8183 684.726 24.7 684.616 23.6C684.506 22.5 684.432 21.4733 684.396 20.52C684.396 19.5667 684.396 18.8517 684.396 18.375C684.432 17.8617 684.579 17.385 684.836 16.945C685.092 16.505 685.422 16.2483 685.826 16.175C686.486 16.2117 687.017 16.5233 687.421 17.11C687.824 17.66 688.007 18.3567 687.971 19.2C687.971 19.86 687.989 20.5933 688.026 21.4C688.062 22.2067 688.136 23.0133 688.246 23.82C688.356 24.6267 688.484 25.415 688.631 26.185C688.777 26.9183 688.961 27.5233 689.181 28ZM698.046 13.975C698.156 14.525 698.266 15.1483 698.376 15.845C698.523 16.505 698.669 17.2017 698.816 17.935C698.963 18.6317 699.091 19.3467 699.201 20.08C699.311 20.8133 699.403 21.51 699.476 22.17C699.916 21.2167 700.393 20.2083 700.906 19.145C701.419 18.0817 701.969 17.11 702.556 16.23C703.179 15.3133 703.821 14.5617 704.481 13.975C705.178 13.3883 705.929 13.095 706.736 13.095C707.946 13.095 708.954 13.535 709.761 14.415C710.604 15.295 711.301 16.395 711.851 17.715C712.438 18.9983 712.896 20.355 713.226 21.785C713.556 23.215 713.831 24.48 714.051 25.58C714.271 26.57 713.831 27.3033 712.731 27.78C712.218 28.0367 711.833 28.0733 711.576 27.89C711.319 27.7067 711.173 27.5233 711.136 27.34C710.953 26.9 710.714 26.13 710.421 25.03C710.164 23.93 709.853 22.8117 709.486 21.675C709.156 20.5383 708.771 19.5483 708.331 18.705C707.891 17.8617 707.396 17.4767 706.846 17.55C706.186 17.5867 705.599 18.0817 705.086 19.035C704.646 19.805 704.188 20.6667 703.711 21.62C703.271 22.5367 702.831 23.49 702.391 24.48C701.951 25.4333 701.511 26.405 701.071 27.395C700.668 28.3483 700.283 29.2283 699.916 30.035C699.659 30.2917 699.329 30.475 698.926 30.585C698.559 30.6583 698.174 30.6217 697.771 30.475C697.404 30.365 697.111 30.1817 696.891 29.925C696.671 29.6683 696.561 29.4117 696.561 29.155C696.231 26.295 695.883 23.6917 695.516 21.345C695.186 18.9983 694.746 16.5967 694.196 14.14C693.939 13.2967 693.884 12.6367 694.031 12.16C694.214 11.6467 694.764 11.445 695.681 11.555C696.964 11.775 697.753 12.5817 698.046 13.975ZM745.737 17.385C746.433 17.3483 747.13 17.5133 747.827 17.88C748.523 18.2467 748.872 18.815 748.872 19.585C748.798 20.2083 748.45 20.6117 747.827 20.795C747.24 20.9417 746.763 21.015 746.397 21.015C745.663 21.015 744.875 21.0333 744.032 21.07C743.188 21.1067 742.327 21.1617 741.447 21.235C741.373 22.445 741.3 23.5817 741.227 24.645C741.19 25.7083 741.153 26.6617 741.117 27.505C741.08 28.3117 741.062 28.9717 741.062 29.485C741.062 29.9983 741.08 30.2733 741.117 30.31C741.923 30.1633 742.785 29.925 743.702 29.595C744.655 29.2283 745.59 28.8433 746.507 28.44C747.46 28 748.377 27.56 749.257 27.12C750.173 26.6433 751.035 26.2033 751.842 25.8C752.208 25.6167 752.538 25.5617 752.832 25.635C753.162 25.7083 753.363 25.8733 753.437 26.13C753.51 26.5333 753.455 27.0283 753.272 27.615C753.088 28.2017 752.758 28.7333 752.282 29.21C751.732 29.65 750.998 30.1633 750.082 30.75C749.202 31.3 748.248 31.8317 747.222 32.345C746.195 32.8583 745.15 33.3167 744.087 33.72C743.06 34.0867 742.143 34.3067 741.337 34.38C740.127 34.49 739.21 34.16 738.587 33.39C737.963 32.62 737.615 31.6483 737.542 30.475C737.468 29.3017 737.45 27.945 737.487 26.405C737.56 24.865 737.633 23.2333 737.707 21.51C737.01 21.5833 736.332 21.6567 735.672 21.73C735.048 21.7667 734.443 21.8217 733.857 21.895C733.38 21.895 732.848 21.785 732.262 21.565C731.712 21.345 731.437 20.9233 731.437 20.3C731.437 20.08 731.528 19.7867 731.712 19.42C731.895 19.0533 732.298 18.7783 732.922 18.595C734.425 18.3383 736.093 18.1183 737.927 17.935C738.037 16.2117 738.165 14.5433 738.312 12.93C738.458 11.3167 738.587 9.85 738.697 8.53C738.733 8.09 738.862 7.705 739.082 7.375C739.302 7.045 739.54 6.88 739.797 6.88C740.42 6.84333 741.007 7.00833 741.557 7.375C742.143 7.705 742.437 8.09 742.437 8.53C742.29 9.77666 742.143 11.1883 741.997 12.765C741.887 14.3417 741.777 15.955 741.667 17.605C742.4 17.5317 743.097 17.495 743.757 17.495C744.453 17.4583 745.113 17.4217 745.737 17.385ZM769.013 19.2C767.583 20.0433 766.043 20.7033 764.393 21.18C762.743 21.62 760.964 21.84 759.058 21.84C759.131 23.1233 759.498 24.15 760.158 24.92C760.818 25.6533 761.643 26.0933 762.633 26.24C763.219 26.3133 763.806 26.295 764.393 26.185C765.016 26.075 765.584 25.91 766.098 25.69C766.648 25.4333 767.143 25.1583 767.583 24.865C768.023 24.5717 768.408 24.2783 768.738 23.985C769.068 23.6917 769.416 23.5083 769.783 23.435C770.149 23.325 770.424 23.3067 770.608 23.38C771.121 23.5633 771.304 24.1133 771.158 25.03C770.571 26.2033 769.728 27.2117 768.628 28.055C767.528 28.8617 766.299 29.375 764.943 29.595C763.769 29.815 762.559 29.76 761.313 29.43C760.066 29.1 758.948 28.4583 757.958 27.505C757.114 26.6617 756.473 25.6717 756.033 24.535C755.593 23.3983 755.318 22.225 755.208 21.015C755.098 19.8783 755.189 18.7967 755.483 17.77C755.813 16.7433 756.308 15.845 756.968 15.075C757.628 14.2683 758.453 13.6083 759.443 13.095C760.433 12.5817 761.588 12.2883 762.908 12.215C764.484 12.105 765.914 12.3983 767.198 13.095C768.481 13.7917 769.379 14.7633 769.893 16.01C770.186 16.7067 770.259 17.3117 770.113 17.825C770.003 18.3383 769.636 18.7967 769.013 19.2ZM762.688 15.46C762.321 15.5333 761.918 15.6617 761.478 15.845C761.074 16.0283 760.689 16.2667 760.323 16.56C759.993 16.8167 759.681 17.1283 759.388 17.495C759.131 17.825 758.984 18.21 758.948 18.65C759.571 18.65 760.249 18.595 760.983 18.485C761.753 18.375 762.486 18.2467 763.183 18.1C763.916 17.9167 764.576 17.715 765.163 17.495C765.786 17.275 766.299 17.0367 766.703 16.78C766.409 16.0833 765.859 15.6617 765.053 15.515C764.283 15.3317 763.494 15.3133 762.688 15.46ZM787.635 17.99C787.378 18.1367 787.067 18.1917 786.7 18.155C786.333 18.0817 786.022 17.8433 785.765 17.44C785.178 16.67 784.463 16.285 783.62 16.285C782.85 16.285 782.153 16.4683 781.53 16.835C780.943 17.165 780.412 17.6233 779.935 18.21C779.495 18.76 779.128 19.3833 778.835 20.08C778.542 20.7767 778.34 21.4733 778.23 22.17C778.047 23.4533 778.267 24.535 778.89 25.415C779.513 26.295 780.485 26.735 781.805 26.735C782.868 26.7717 784.06 26.57 785.38 26.13C786.737 25.6533 788.002 25.0483 789.175 24.315C789.688 24.095 790.165 23.9667 790.605 23.93C791.045 23.8933 791.412 24.1133 791.705 24.59C792.072 25.1767 791.98 25.7817 791.43 26.405C790.88 26.9917 790.147 27.5233 789.23 28C788.313 28.5133 787.342 28.9717 786.315 29.375C785.325 29.7417 784.317 30.0167 783.29 30.2C782.263 30.3467 781.237 30.3467 780.21 30.2C779.22 30.0533 778.285 29.705 777.405 29.155C776.012 28.2017 775.168 26.845 774.875 25.085C774.582 23.325 774.71 21.51 775.26 19.64C775.48 18.9433 775.792 18.2467 776.195 17.55C776.598 16.8167 777.075 16.1567 777.625 15.57C778.212 14.9833 778.853 14.4883 779.55 14.085C780.247 13.645 781.017 13.3517 781.86 13.205C783.217 12.985 784.518 13.1317 785.765 13.645C787.012 14.1217 787.837 15.02 788.24 16.34C788.313 16.6333 788.313 16.945 788.24 17.275C788.167 17.5683 787.965 17.8067 787.635 17.99ZM798.762 7.76C798.762 8.64 798.743 9.63 798.707 10.73C798.707 11.83 798.707 12.9667 798.707 14.14C798.743 15.3133 798.762 16.5233 798.762 17.77C798.798 19.0167 798.835 20.2083 798.872 21.345C799.238 20.6117 799.678 19.8967 800.192 19.2C800.705 18.4667 801.273 17.825 801.897 17.275C802.557 16.725 803.235 16.285 803.932 15.955C804.665 15.625 805.453 15.46 806.297 15.46C807.213 15.46 808.02 15.7533 808.717 16.34C809.45 16.9267 810.073 17.715 810.587 18.705C811.137 19.6583 811.595 20.74 811.962 21.95C812.328 23.1233 812.622 24.3333 812.842 25.58C813.098 26.79 813.282 27.9633 813.392 29.1C813.502 30.2 813.593 31.1533 813.667 31.96C813.667 32.5467 813.52 33.0233 813.227 33.39C812.933 33.7567 812.585 33.94 812.182 33.94C811.888 33.94 811.522 33.7567 811.082 33.39C810.678 32.9867 810.385 32.51 810.202 31.96C810.092 31.52 809.982 30.8783 809.872 30.035C809.762 29.1917 809.633 28.2933 809.487 27.34C809.34 26.35 809.157 25.36 808.937 24.37C808.717 23.38 808.442 22.5 808.112 21.73C807.818 20.9233 807.452 20.3 807.012 19.86C806.572 19.42 806.058 19.255 805.472 19.365C804.555 19.5483 803.748 20.19 803.052 21.29C802.392 22.39 801.805 23.6367 801.292 25.03C800.815 26.4233 800.412 27.835 800.082 29.265C799.788 30.695 799.568 31.85 799.422 32.73C799.275 33.39 799.073 33.8483 798.817 34.105C798.597 34.325 798.34 34.435 798.047 34.435C797.753 34.435 797.478 34.2883 797.222 33.995C797.002 33.7017 796.782 33.3533 796.562 32.95C796.378 32.51 796.213 32.07 796.067 31.63C795.92 31.1533 795.828 30.75 795.792 30.42C795.608 28.44 795.462 26.5517 795.352 24.755C795.242 22.9217 795.15 21.0883 795.077 19.255C795.04 17.4217 795.022 15.5517 795.022 13.645C795.022 11.7017 795.058 9.63 795.132 7.43C795.132 5.59667 795.792 4.77167 797.112 4.955C797.552 5.02833 797.937 5.35833 798.267 5.945C798.597 6.495 798.762 7.1 798.762 7.76ZM821.151 13.975C821.261 14.525 821.371 15.1483 821.481 15.845C821.628 16.505 821.775 17.2017 821.921 17.935C822.068 18.6317 822.196 19.3467 822.306 20.08C822.416 20.8133 822.508 21.51 822.581 22.17C823.021 21.2167 823.498 20.2083 824.011 19.145C824.525 18.0817 825.075 17.11 825.661 16.23C826.285 15.3133 826.926 14.5617 827.586 13.975C828.283 13.3883 829.035 13.095 829.841 13.095C831.051 13.095 832.06 13.535 832.866 14.415C833.71 15.295 834.406 16.395 834.956 17.715C835.543 18.9983 836.001 20.355 836.331 21.785C836.661 23.215 836.936 24.48 837.156 25.58C837.376 26.57 836.936 27.3033 835.836 27.78C835.323 28.0367 834.938 28.0733 834.681 27.89C834.425 27.7067 834.278 27.5233 834.241 27.34C834.058 26.9 833.82 26.13 833.526 25.03C833.27 23.93 832.958 22.8117 832.591 21.675C832.261 20.5383 831.876 19.5483 831.436 18.705C830.996 17.8617 830.501 17.4767 829.951 17.55C829.291 17.5867 828.705 18.0817 828.191 19.035C827.751 19.805 827.293 20.6667 826.816 21.62C826.376 22.5367 825.936 23.49 825.496 24.48C825.056 25.4333 824.616 26.405 824.176 27.395C823.773 28.3483 823.388 29.2283 823.021 30.035C822.765 30.2917 822.435 30.475 822.031 30.585C821.665 30.6583 821.28 30.6217 820.876 30.475C820.51 30.365 820.216 30.1817 819.996 29.925C819.776 29.6683 819.666 29.4117 819.666 29.155C819.336 26.295 818.988 23.6917 818.621 21.345C818.291 18.9983 817.851 16.5967 817.301 14.14C817.045 13.2967 816.99 12.6367 817.136 12.16C817.32 11.6467 817.87 11.445 818.786 11.555C820.07 11.775 820.858 12.5817 821.151 13.975ZM853.592 12.93C854.692 13.3333 855.609 13.9383 856.342 14.745C857.112 15.5517 857.699 16.4683 858.102 17.495C858.505 18.485 858.725 19.5117 858.762 20.575C858.835 21.6383 858.725 22.6283 858.432 23.545C858.029 24.5717 857.515 25.58 856.892 26.57C856.269 27.56 855.554 28.44 854.747 29.21C853.94 29.98 853.024 30.6033 851.997 31.08C850.97 31.5567 849.834 31.795 848.587 31.795C847.084 31.795 845.819 31.4467 844.792 30.75C843.765 30.0533 842.959 29.155 842.372 28.055C841.785 26.955 841.4 25.7083 841.217 24.315C841.07 22.9217 841.107 21.5283 841.327 20.135C841.474 19.1083 841.712 18.1183 842.042 17.165C842.409 16.175 842.867 15.3133 843.417 14.58C843.967 13.81 844.59 13.1867 845.287 12.71C846.02 12.2333 846.845 11.995 847.762 11.995C848.275 11.995 848.917 12.105 849.687 12.325C850.457 12.5083 851.172 12.7833 851.832 13.15C852.309 12.71 852.895 12.6367 853.592 12.93ZM851.502 16.945C851.099 16.6883 850.622 16.3583 850.072 15.955C849.559 15.515 849.1 15.295 848.697 15.295C848.257 15.295 847.817 15.4967 847.377 15.9C846.974 16.3033 846.607 16.78 846.277 17.33C845.984 17.8433 845.727 18.375 845.507 18.925C845.287 19.475 845.14 19.915 845.067 20.245C844.957 20.795 844.884 21.455 844.847 22.225C844.81 22.995 844.865 23.765 845.012 24.535C845.159 25.2683 845.434 25.9467 845.837 26.57C846.277 27.1567 846.919 27.5783 847.762 27.835C848.275 27.9817 848.88 27.9817 849.577 27.835C850.274 27.6517 850.952 27.34 851.612 26.9C852.309 26.46 852.95 25.8733 853.537 25.14C854.16 24.4067 854.637 23.5633 854.967 22.61C855.334 21.5467 855.334 20.4467 854.967 19.31C854.637 18.1367 853.94 17.2933 852.877 16.78C852.62 16.9633 852.364 17.055 852.107 17.055C851.85 17.055 851.649 17.0183 851.502 16.945ZM867.798 6.385C867.982 10.3817 868.293 14.525 868.733 18.815C869.173 23.0683 869.65 27.1383 870.163 31.025C870.273 32.6383 869.833 33.4633 868.843 33.5C868.623 33.5 868.403 33.4267 868.183 33.28C867.963 33.0967 867.762 32.8767 867.578 32.62C867.395 32.3633 867.212 32.0883 867.028 31.795C866.882 31.5017 866.79 31.245 866.753 31.025C866.46 29.155 866.185 27.175 865.928 25.085C865.672 22.995 865.433 20.905 865.213 18.815C865.03 16.6883 864.865 14.6167 864.718 12.6C864.572 10.5833 864.48 8.73167 864.443 7.045C864.517 6.165 864.645 5.43167 864.828 4.845C865.012 4.22167 865.397 3.92833 865.983 3.965C866.607 4.00166 867.047 4.25833 867.303 4.735C867.597 5.175 867.762 5.725 867.798 6.385ZM887.322 12.93C888.422 13.3333 889.339 13.9383 890.072 14.745C890.842 15.5517 891.429 16.4683 891.832 17.495C892.236 18.485 892.456 19.5117 892.492 20.575C892.566 21.6383 892.456 22.6283 892.162 23.545C891.759 24.5717 891.246 25.58 890.622 26.57C889.999 27.56 889.284 28.44 888.477 29.21C887.671 29.98 886.754 30.6033 885.727 31.08C884.701 31.5567 883.564 31.795 882.317 31.795C880.814 31.795 879.549 31.4467 878.522 30.75C877.496 30.0533 876.689 29.155 876.102 28.055C875.516 26.955 875.131 25.7083 874.947 24.315C874.801 22.9217 874.837 21.5283 875.057 20.135C875.204 19.1083 875.442 18.1183 875.772 17.165C876.139 16.175 876.597 15.3133 877.147 14.58C877.697 13.81 878.321 13.1867 879.017 12.71C879.751 12.2333 880.576 11.995 881.492 11.995C882.006 11.995 882.647 12.105 883.417 12.325C884.187 12.5083 884.902 12.7833 885.562 13.15C886.039 12.71 886.626 12.6367 887.322 12.93ZM885.232 16.945C884.829 16.6883 884.352 16.3583 883.802 15.955C883.289 15.515 882.831 15.295 882.427 15.295C881.987 15.295 881.547 15.4967 881.107 15.9C880.704 16.3033 880.337 16.78 880.007 17.33C879.714 17.8433 879.457 18.375 879.237 18.925C879.017 19.475 878.871 19.915 878.797 20.245C878.687 20.795 878.614 21.455 878.577 22.225C878.541 22.995 878.596 23.765 878.742 24.535C878.889 25.2683 879.164 25.9467 879.567 26.57C880.007 27.1567 880.649 27.5783 881.492 27.835C882.006 27.9817 882.611 27.9817 883.307 27.835C884.004 27.6517 884.682 27.34 885.342 26.9C886.039 26.46 886.681 25.8733 887.267 25.14C887.891 24.4067 888.367 23.5633 888.697 22.61C889.064 21.5467 889.064 20.4467 888.697 19.31C888.367 18.1367 887.671 17.2933 886.607 16.78C886.351 16.9633 886.094 17.055 885.837 17.055C885.581 17.055 885.379 17.0183 885.232 16.945ZM906.919 16.945C907.212 17.3483 907.487 17.8617 907.744 18.485C908.037 19.0717 908.257 19.6767 908.404 20.3C908.624 21.29 908.862 22.3717 909.119 23.545C909.412 24.6817 909.687 25.8733 909.944 27.12C910.237 28.3667 910.494 29.6317 910.714 30.915C910.97 32.1983 911.19 33.4267 911.374 34.6C911.594 36.2133 911.465 37.7533 910.989 39.22C910.549 40.7233 909.797 42.0617 908.734 43.235C907.67 44.4083 906.35 45.3433 904.774 46.04C903.197 46.7367 901.419 47.1217 899.439 47.195C898.999 47.1583 898.54 46.9383 898.064 46.535C897.587 46.1683 897.349 45.7833 897.349 45.38C897.312 44.9767 897.495 44.6467 897.899 44.39C898.339 44.17 898.779 44.0233 899.219 43.95C899.989 43.8767 900.777 43.7117 901.584 43.455C902.427 43.235 903.215 42.905 903.949 42.465C904.682 42.025 905.342 41.4933 905.929 40.87C906.552 40.2467 907.029 39.5133 907.359 38.67C907.615 38.01 907.744 37.2033 907.744 36.25C907.744 35.26 907.67 34.2883 907.524 33.335C907.414 32.3817 907.249 31.4833 907.029 30.64C906.845 29.76 906.68 29.1 906.534 28.66C906.277 28.9167 905.947 29.1917 905.544 29.485C905.177 29.7783 904.755 30.0533 904.279 30.31C903.802 30.5667 903.27 30.7683 902.684 30.915C902.134 31.0617 901.565 31.1167 900.979 31.08C900.355 31.0433 899.769 30.8233 899.219 30.42C898.705 30.0167 898.247 29.5033 897.844 28.88C897.44 28.22 897.11 27.4683 896.854 26.625C896.634 25.7817 896.524 24.9017 896.524 23.985C896.597 21.785 897.147 19.8417 898.174 18.155C899.237 16.4317 900.924 15.0933 903.234 14.14C903.417 14.1033 903.655 14.0667 903.949 14.03C904.279 13.9933 904.609 13.9933 904.939 14.03C905.269 14.03 905.58 14.0667 905.874 14.14C906.204 14.2133 906.479 14.3233 906.699 14.47C907.102 14.7633 907.304 15.185 907.304 15.735C907.304 16.285 907.175 16.6883 906.919 16.945ZM899.989 24.48C899.989 24.8833 900.025 25.3417 900.099 25.855C900.172 26.3317 900.41 26.68 900.814 26.9C901.254 27.1567 901.785 27.1933 902.409 27.01C903.069 26.8267 903.674 26.515 904.224 26.075C904.737 25.6717 905.067 25.2317 905.214 24.755C905.397 24.2417 905.397 23.5633 905.214 22.72C905.03 21.8767 904.829 20.9967 904.609 20.08C904.389 19.1633 904.242 18.3383 904.169 17.605C903.729 17.825 903.252 18.1367 902.739 18.54C902.262 18.9433 901.822 19.4567 901.419 20.08C901.015 20.6667 900.667 21.3267 900.374 22.06C900.117 22.7933 899.989 23.6 899.989 24.48ZM932.597 14.8C932.707 16.78 932.817 18.7783 932.927 20.795C933.073 22.8117 933.11 24.81 933.037 26.79C932.963 28.7333 932.762 30.64 932.432 32.51C932.138 34.38 931.625 36.1767 930.892 37.9C930.158 39.5867 929.168 41.1633 927.922 42.63C926.712 44.0967 925.172 45.4167 923.302 46.59C923.008 46.7733 922.678 46.8833 922.312 46.92C921.982 46.9567 921.652 46.9383 921.322 46.865C920.992 46.8283 920.698 46.7367 920.442 46.59C920.185 46.48 920.02 46.315 919.947 46.095C919.837 45.765 919.892 45.3983 920.112 44.995C920.332 44.5917 920.698 44.17 921.212 43.73C922.825 42.52 924.182 41.2367 925.282 39.88C926.382 38.5233 927.262 37.0567 927.922 35.48C928.582 33.9033 929.003 32.1983 929.187 30.365C929.407 28.495 929.407 26.46 929.187 24.26C928.747 24.81 928.233 25.3783 927.647 25.965C927.06 26.5517 926.437 27.0833 925.777 27.56C925.117 28 924.438 28.385 923.742 28.715C923.045 29.0083 922.385 29.155 921.762 29.155C921.248 29.155 920.735 29.045 920.222 28.825C919.708 28.605 919.195 28.1833 918.682 27.56C918.095 26.79 917.563 25.9283 917.087 24.975C916.647 23.985 916.262 23.0317 915.932 22.115C915.602 21.1983 915.327 20.3733 915.107 19.64C914.923 18.9067 914.813 18.3933 914.777 18.1C914.703 17.7333 914.703 17.385 914.777 17.055C914.85 16.725 915.088 16.5233 915.492 16.45C916.042 16.34 916.555 16.3767 917.032 16.56C917.508 16.7433 917.838 17.0367 918.022 17.44C918.168 17.8433 918.37 18.4667 918.627 19.31C918.883 20.1533 919.195 20.9967 919.562 21.84C919.928 22.6467 920.313 23.3617 920.717 23.985C921.157 24.6083 921.615 24.92 922.092 24.92C922.642 24.92 923.283 24.645 924.017 24.095C924.787 23.545 925.52 22.83 926.217 21.95C926.913 21.07 927.5 20.0983 927.977 19.035C928.49 17.935 928.747 16.8717 928.747 15.845C928.747 15.625 928.783 15.3683 928.857 15.075C928.93 14.7817 929.04 14.5067 929.187 14.25C929.333 13.9567 929.498 13.7183 929.682 13.535C929.902 13.315 930.122 13.1867 930.342 13.15C930.928 13.0767 931.442 13.2417 931.882 13.645C932.358 14.0117 932.597 14.3967 932.597 14.8ZM946.58 3.305C946.25 4.91833 945.902 6.51333 945.535 8.09C945.205 9.66666 944.894 11.2433 944.6 12.82C944.307 14.3967 944.087 15.9733 943.94 17.55C943.794 19.1267 943.775 20.7033 943.885 22.28C943.959 22.6833 943.885 23.0683 943.665 23.435C943.482 23.8017 943.262 24.04 943.005 24.15C942.199 24.4433 941.612 24.2417 941.245 23.545C940.805 21.675 940.567 19.8233 940.53 17.99C940.53 16.1567 940.659 14.3417 940.915 12.545C941.209 10.7483 941.575 8.97 942.015 7.21C942.492 5.41333 942.969 3.635 943.445 1.875C943.629 1.14166 943.922 0.738331 944.325 0.664999C944.729 0.591664 945.114 0.62833 945.48 0.774997C946.03 0.95833 946.379 1.325 946.525 1.875C946.672 2.425 946.69 2.90166 946.58 3.305ZM944.38 32.895C944.38 33.2983 944.325 33.8483 944.215 34.545C944.142 35.205 943.995 35.8283 943.775 36.415C943.592 37.0017 943.317 37.4783 942.95 37.845C942.62 38.2117 942.199 38.285 941.685 38.065C941.392 37.8817 941.099 37.5333 940.805 37.02C940.512 36.5067 940.384 36.03 940.42 35.59C940.494 34.71 940.677 33.8483 940.97 33.005C941.264 32.1617 941.649 31.6483 942.125 31.465C942.345 31.3917 942.584 31.3917 942.84 31.465C943.134 31.5383 943.39 31.6667 943.61 31.85C943.83 31.9967 944.014 32.18 944.16 32.4C944.307 32.5833 944.38 32.7483 944.38 32.895Z" fill="white"/>
</svg>
