<svg className="start-page-text" viewBox="0 0 959 48" fill="none" xmlns="http://www.w3.org/2000/svg">
<path d="M12.138 11.9945C12.2847 12.1778 12.358 12.4162 12.358 12.7095C12.3947 12.9662 12.358 13.1862 12.248 13.3695C12.0647 13.7728 11.753 13.9195 11.313 13.8095C10.543 13.6262 9.73638 13.5528 8.89305 13.5895C8.04971 13.6262 7.20638 13.9562 6.36305 14.5795C5.51971 15.2028 4.85971 16.1195 4.38305 17.3295C3.90638 18.5028 3.66805 19.7312 3.66805 21.0145C3.66805 22.2612 3.96138 23.3428 4.54805 24.2595C5.17138 25.1395 5.95971 25.7812 6.91305 26.1845C7.49971 26.4412 8.15971 26.5878 8.89305 26.6245C9.62638 26.6612 10.3597 26.6428 11.093 26.5695C11.863 26.4595 12.6147 26.3128 13.348 26.1295C14.0814 25.9095 14.778 25.6712 15.438 25.4145C15.658 25.3412 15.8597 25.3595 16.043 25.4695C16.263 25.5795 16.4097 25.7262 16.483 25.9095C16.6664 26.3862 16.5747 26.8628 16.208 27.3395C15.768 27.8162 15.1814 28.2378 14.448 28.6045C13.7147 28.9712 12.908 29.2645 12.028 29.4845C11.148 29.7045 10.2497 29.8328 9.33305 29.8695C8.41638 29.8695 7.55471 29.7595 6.74805 29.5395C5.61138 29.2462 4.63971 28.8245 3.83305 28.2745C3.06305 27.6878 2.42138 27.0278 1.90805 26.2945C1.39471 25.5245 1.00971 24.7178 0.753047 23.8745C0.49638 22.9945 0.349714 22.0962 0.313047 21.1795C0.239714 18.9795 0.66138 16.9995 1.57805 15.2395C2.53138 13.4795 3.85138 12.1778 5.53805 11.3345C6.78471 10.7112 8.03138 10.4728 9.27805 10.6195C10.5614 10.7295 11.5147 11.1878 12.138 11.9945ZM32.3093 12.9295C33.4093 13.3328 34.326 13.9378 35.0593 14.7445C35.8293 15.5512 36.416 16.4678 36.8193 17.4945C37.2226 18.4845 37.4426 19.5112 37.4793 20.5745C37.5526 21.6378 37.4426 22.6278 37.1493 23.5445C36.746 24.5712 36.2326 25.5795 35.6093 26.5695C34.986 27.5595 34.271 28.4395 33.4643 29.2095C32.6576 29.9795 31.741 30.6028 30.7143 31.0795C29.6876 31.5562 28.551 31.7945 27.3043 31.7945C25.801 31.7945 24.536 31.4462 23.5093 30.7495C22.4826 30.0528 21.676 29.1545 21.0893 28.0545C20.5026 26.9545 20.1176 25.7078 19.9343 24.3145C19.7876 22.9212 19.8243 21.5278 20.0443 20.1345C20.191 19.1078 20.4293 18.1178 20.7593 17.1645C21.126 16.1745 21.5843 15.3128 22.1343 14.5795C22.6843 13.8095 23.3076 13.1862 24.0043 12.7095C24.7376 12.2328 25.5626 11.9945 26.4793 11.9945C26.9926 11.9945 27.6343 12.1045 28.4043 12.3245C29.1743 12.5078 29.8893 12.7828 30.5493 13.1495C31.026 12.7095 31.6126 12.6362 32.3093 12.9295ZM30.2193 16.9445C29.816 16.6878 29.3393 16.3578 28.7893 15.9545C28.276 15.5145 27.8176 15.2945 27.4143 15.2945C26.9743 15.2945 26.5343 15.4962 26.0943 15.8995C25.691 16.3028 25.3243 16.7795 24.9943 17.3295C24.701 17.8428 24.4443 18.3745 24.2243 18.9245C24.0043 19.4745 23.8576 19.9145 23.7843 20.2445C23.6743 20.7945 23.601 21.4545 23.5643 22.2245C23.5276 22.9945 23.5826 23.7645 23.7293 24.5345C23.876 25.2678 24.151 25.9462 24.5543 26.5695C24.9943 27.1562 25.636 27.5778 26.4793 27.8345C26.9926 27.9812 27.5976 27.9812 28.2943 27.8345C28.991 27.6512 29.6693 27.3395 30.3293 26.8995C31.026 26.4595 31.6676 25.8728 32.2543 25.1395C32.8776 24.4062 33.3543 23.5628 33.6843 22.6095C34.051 21.5462 34.051 20.4462 33.6843 19.3095C33.3543 18.1362 32.6576 17.2928 31.5943 16.7795C31.3376 16.9628 31.081 17.0545 30.8243 17.0545C30.5676 17.0545 30.366 17.0178 30.2193 16.9445ZM45.4156 13.9745C45.5256 14.5245 45.6356 15.1478 45.7456 15.8445C45.8923 16.5045 46.039 17.2012 46.1856 17.9345C46.3323 18.6312 46.4606 19.3462 46.5706 20.0795C46.6806 20.8128 46.7723 21.5095 46.8456 22.1695C47.2856 21.2162 47.7623 20.2078 48.2756 19.1445C48.789 18.0812 49.339 17.1095 49.9256 16.2295C50.549 15.3128 51.1906 14.5612 51.8506 13.9745C52.5473 13.3878 53.299 13.0945 54.1056 13.0945C55.3156 13.0945 56.324 13.5345 57.1306 14.4145C57.974 15.2945 58.6706 16.3945 59.2206 17.7145C59.8073 18.9978 60.2656 20.3545 60.5956 21.7845C60.9256 23.2145 61.2006 24.4795 61.4206 25.5795C61.6406 26.5695 61.2006 27.3028 60.1006 27.7795C59.5873 28.0362 59.2023 28.0728 58.9456 27.8895C58.689 27.7062 58.5423 27.5228 58.5056 27.3395C58.3223 26.8995 58.084 26.1295 57.7906 25.0295C57.534 23.9295 57.2223 22.8112 56.8556 21.6745C56.5256 20.5378 56.1406 19.5478 55.7006 18.7045C55.2606 17.8612 54.7656 17.4762 54.2156 17.5495C53.5556 17.5862 52.969 18.0812 52.4556 19.0345C52.0156 19.8045 51.5573 20.6662 51.0806 21.6195C50.6406 22.5362 50.2006 23.4895 49.7606 24.4795C49.3206 25.4328 48.8806 26.4045 48.4406 27.3945C48.0373 28.3478 47.6523 29.2278 47.2856 30.0345C47.029 30.2912 46.699 30.4745 46.2956 30.5845C45.929 30.6578 45.544 30.6212 45.1406 30.4745C44.774 30.3645 44.4806 30.1812 44.2606 29.9245C44.0406 29.6678 43.9306 29.4112 43.9306 29.1545C43.6006 26.2945 43.2523 23.6912 42.8856 21.3445C42.5556 18.9978 42.1156 16.5962 41.5656 14.1395C41.309 13.2962 41.254 12.6362 41.4006 12.1595C41.584 11.6462 42.134 11.4445 43.0506 11.5545C44.334 11.7745 45.1223 12.5812 45.4156 13.9745ZM75.2162 16.9445C75.5095 17.3478 75.7845 17.8612 76.0412 18.4845C76.3345 19.0712 76.5545 19.6762 76.7012 20.2995C76.9212 21.2895 77.1595 22.3712 77.4162 23.5445C77.7095 24.6812 77.9845 25.8728 78.2412 27.1195C78.5345 28.3662 78.7912 29.6312 79.0112 30.9145C79.2678 32.1978 79.4878 33.4262 79.6712 34.5995C79.8912 36.2128 79.7628 37.7528 79.2862 39.2195C78.8462 40.7228 78.0945 42.0612 77.0312 43.2345C75.9678 44.4078 74.6478 45.3428 73.0712 46.0395C71.4945 46.7362 69.7162 47.1212 67.7362 47.1945C67.2962 47.1578 66.8378 46.9378 66.3612 46.5345C65.8845 46.1678 65.6462 45.7828 65.6462 45.3795C65.6095 44.9762 65.7928 44.6462 66.1962 44.3895C66.6362 44.1695 67.0762 44.0228 67.5162 43.9495C68.2862 43.8762 69.0745 43.7112 69.8812 43.4545C70.7245 43.2345 71.5128 42.9045 72.2462 42.4645C72.9795 42.0245 73.6395 41.4928 74.2262 40.8695C74.8495 40.2462 75.3262 39.5128 75.6562 38.6695C75.9128 38.0095 76.0412 37.2028 76.0412 36.2495C76.0412 35.2595 75.9678 34.2878 75.8212 33.3345C75.7112 32.3812 75.5462 31.4828 75.3262 30.6395C75.1428 29.7595 74.9778 29.0995 74.8312 28.6595C74.5745 28.9162 74.2445 29.1912 73.8412 29.4845C73.4745 29.7778 73.0528 30.0528 72.5762 30.3095C72.0995 30.5662 71.5678 30.7678 70.9812 30.9145C70.4312 31.0612 69.8628 31.1162 69.2762 31.0795C68.6528 31.0428 68.0662 30.8228 67.5162 30.4195C67.0028 30.0162 66.5445 29.5028 66.1412 28.8795C65.7378 28.2195 65.4078 27.4678 65.1512 26.6245C64.9312 25.7812 64.8212 24.9012 64.8212 23.9845C64.8945 21.7845 65.4445 19.8412 66.4712 18.1545C67.5345 16.4312 69.2212 15.0928 71.5312 14.1395C71.7145 14.1028 71.9528 14.0662 72.2462 14.0295C72.5762 13.9928 72.9062 13.9928 73.2362 14.0295C73.5662 14.0295 73.8778 14.0662 74.1712 14.1395C74.5012 14.2128 74.7762 14.3228 74.9962 14.4695C75.3995 14.7628 75.6012 15.1845 75.6012 15.7345C75.6012 16.2845 75.4728 16.6878 75.2162 16.9445ZM68.2862 24.4795C68.2862 24.8828 68.3228 25.3412 68.3962 25.8545C68.4695 26.3312 68.7078 26.6795 69.1112 26.8995C69.5512 27.1562 70.0828 27.1928 70.7062 27.0095C71.3662 26.8262 71.9712 26.5145 72.5212 26.0745C73.0345 25.6712 73.3645 25.2312 73.5112 24.7545C73.6945 24.2412 73.6945 23.5628 73.5112 22.7195C73.3278 21.8762 73.1262 20.9962 72.9062 20.0795C72.6862 19.1628 72.5395 18.3378 72.4662 17.6045C72.0262 17.8245 71.5495 18.1362 71.0362 18.5395C70.5595 18.9428 70.1195 19.4562 69.7162 20.0795C69.3128 20.6662 68.9645 21.3262 68.6712 22.0595C68.4145 22.7928 68.2862 23.5995 68.2862 24.4795ZM100.289 13.1495C99.6289 13.5162 98.9322 13.9012 98.1989 14.3045C97.5022 14.7078 96.7872 15.1845 96.0539 15.7345C95.3572 16.2478 94.6789 16.8712 94.0189 17.6045C93.3955 18.3012 92.8272 19.1445 92.3139 20.1345C91.5805 21.5278 91.0855 22.9578 90.8289 24.4245C90.5722 25.8545 90.4072 27.2662 90.3339 28.6595C90.3339 29.3195 90.1689 29.9978 89.8389 30.6945C89.5455 31.3545 89.1239 31.6845 88.5739 31.6845C87.8772 31.6845 87.3089 31.3362 86.8689 30.6395C86.4655 29.9062 86.1905 29.2095 86.0439 28.5495C85.4205 25.9462 84.9072 23.3795 84.5039 20.8495C84.1005 18.2828 83.7522 15.7345 83.4589 13.2045C83.4589 12.6912 83.6055 12.3612 83.8989 12.2145C84.2289 12.0678 84.5955 12.0128 84.9989 12.0495C85.4389 12.0862 85.8605 12.1962 86.2639 12.3795C86.6672 12.5628 86.9055 12.8562 86.9789 13.2595C87.1255 14.6162 87.3089 16.0462 87.5289 17.5495C87.7489 19.0162 87.9689 20.2812 88.1889 21.3445C88.3355 20.0978 88.7389 18.8878 89.3989 17.7145C90.0589 16.5412 90.8655 15.4778 91.8189 14.5245C92.8089 13.5712 93.9089 12.7645 95.1189 12.1045C96.3655 11.4445 97.6305 11.0045 98.9139 10.7845C99.4639 10.7112 99.9222 10.7112 100.289 10.7845C100.656 10.8578 100.912 10.9862 101.059 11.1695C101.206 11.3528 101.224 11.6462 101.114 12.0495C101.041 12.4528 100.766 12.8195 100.289 13.1495ZM117.359 11.7745C117.506 12.8012 117.616 13.9012 117.689 15.0745C117.799 16.2112 117.873 17.3662 117.909 18.5395C117.983 19.7128 118.019 20.8495 118.019 21.9495C118.019 23.0495 118.001 24.0395 117.964 24.9195C119.138 25.7262 119.834 26.4412 120.054 27.0645C120.311 27.6878 120.348 28.2378 120.164 28.7145C119.944 29.3745 119.541 29.7228 118.954 29.7595C118.404 29.7595 117.763 29.5578 117.029 29.1545C116.516 29.5212 115.929 29.9245 115.269 30.3645C114.609 30.7678 113.913 31.1712 113.179 31.5745C112.446 31.9412 111.713 32.2712 110.979 32.5645C110.246 32.8578 109.568 33.0595 108.944 33.1695C107.771 33.3528 106.708 33.1328 105.754 32.5095C104.838 31.8862 104.214 30.9512 103.884 29.7045C103.664 28.8612 103.609 27.9995 103.719 27.1195C103.829 26.2028 104.104 25.3412 104.544 24.5345C104.984 23.6912 105.571 22.9395 106.304 22.2795C107.074 21.6195 107.973 21.1062 108.999 20.7395C109.256 20.6295 109.604 20.5378 110.044 20.4645C110.521 20.3912 110.998 20.3728 111.474 20.4095C111.988 20.4095 112.501 20.5012 113.014 20.6845C113.528 20.8678 114.004 21.1795 114.444 21.6195C114.444 20.9962 114.426 20.3178 114.389 19.5845C114.389 18.8145 114.371 18.0445 114.334 17.2745C114.298 16.5045 114.243 15.7895 114.169 15.1295C114.133 14.4328 114.078 13.8462 114.004 13.3695C113.931 12.8195 113.711 12.4895 113.344 12.3795C113.014 12.2328 112.593 12.2512 112.079 12.4345C111.199 12.7278 110.173 13.2962 108.999 14.1395C107.826 14.9828 106.708 15.8812 105.644 16.8345C105.314 17.1645 104.929 17.3112 104.489 17.2745C104.086 17.2378 103.738 17.0728 103.444 16.7795C103.151 16.4862 102.986 16.1562 102.949 15.7895C102.913 15.3862 103.059 14.9645 103.389 14.5245C104.013 13.8645 104.709 13.1862 105.479 12.4895C106.249 11.7928 107.056 11.1695 107.899 10.6195C108.743 10.0328 109.604 9.55618 110.484 9.18951C111.364 8.82284 112.244 8.62118 113.124 8.58451C114.408 8.54784 115.398 8.84118 116.094 9.46451C116.791 10.0512 117.213 10.8212 117.359 11.7745ZM110.979 23.5995C110.503 23.7095 109.989 23.9478 109.439 24.3145C108.926 24.6445 108.449 25.0662 108.009 25.5795C107.606 26.0562 107.294 26.6062 107.074 27.2295C106.891 27.8162 106.891 28.4028 107.074 28.9895C107.148 29.2095 107.294 29.3745 107.514 29.4845C107.771 29.5945 108.046 29.6128 108.339 29.5395C109.219 29.3562 110.209 29.0078 111.309 28.4945C112.446 27.9445 113.344 27.3578 114.004 26.7345C114.004 26.5145 113.894 26.2395 113.674 25.9095C113.454 25.5428 113.198 25.1945 112.904 24.8645C112.611 24.4978 112.281 24.1862 111.914 23.9295C111.584 23.6728 111.273 23.5628 110.979 23.5995ZM135.86 17.3845C136.557 17.3478 137.253 17.5128 137.95 17.8795C138.647 18.2462 138.995 18.8145 138.995 19.5845C138.922 20.2078 138.573 20.6112 137.95 20.7945C137.363 20.9412 136.887 21.0145 136.52 21.0145C135.787 21.0145 134.998 21.0328 134.155 21.0695C133.312 21.1062 132.45 21.1612 131.57 21.2345C131.497 22.4445 131.423 23.5812 131.35 24.6445C131.313 25.7078 131.277 26.6612 131.24 27.5045C131.203 28.3112 131.185 28.9712 131.185 29.4845C131.185 29.9978 131.203 30.2728 131.24 30.3095C132.047 30.1628 132.908 29.9245 133.825 29.5945C134.778 29.2278 135.713 28.8428 136.63 28.4395C137.583 27.9995 138.5 27.5595 139.38 27.1195C140.297 26.6428 141.158 26.2028 141.965 25.7995C142.332 25.6162 142.662 25.5612 142.955 25.6345C143.285 25.7078 143.487 25.8728 143.56 26.1295C143.633 26.5328 143.578 27.0278 143.395 27.6145C143.212 28.2012 142.882 28.7328 142.405 29.2095C141.855 29.6495 141.122 30.1628 140.205 30.7495C139.325 31.2995 138.372 31.8312 137.345 32.3445C136.318 32.8578 135.273 33.3162 134.21 33.7195C133.183 34.0862 132.267 34.3062 131.46 34.3795C130.25 34.4895 129.333 34.1595 128.71 33.3895C128.087 32.6195 127.738 31.6478 127.665 30.4745C127.592 29.3012 127.573 27.9445 127.61 26.4045C127.683 24.8645 127.757 23.2328 127.83 21.5095C127.133 21.5828 126.455 21.6562 125.795 21.7295C125.172 21.7662 124.567 21.8212 123.98 21.8945C123.503 21.8945 122.972 21.7845 122.385 21.5645C121.835 21.3445 121.56 20.9228 121.56 20.2995C121.56 20.0795 121.652 19.7862 121.835 19.4195C122.018 19.0528 122.422 18.7778 123.045 18.5945C124.548 18.3378 126.217 18.1178 128.05 17.9345C128.16 16.2112 128.288 14.5428 128.435 12.9295C128.582 11.3162 128.71 9.84951 128.82 8.52951C128.857 8.08951 128.985 7.70451 129.205 7.37451C129.425 7.04451 129.663 6.87951 129.92 6.87951C130.543 6.84284 131.13 7.00784 131.68 7.37451C132.267 7.70451 132.56 8.08951 132.56 8.52951C132.413 9.77618 132.267 11.1878 132.12 12.7645C132.01 14.3412 131.9 15.9545 131.79 17.6045C132.523 17.5312 133.22 17.4945 133.88 17.4945C134.577 17.4578 135.237 17.4212 135.86 17.3845ZM150.556 15.8445C150.336 16.8345 150.116 17.9345 149.896 19.1445C149.676 20.3178 149.511 21.4545 149.401 22.5545C149.328 23.6545 149.328 24.6445 149.401 25.5245C149.511 26.4045 149.75 27.0278 150.116 27.3945C150.74 27.5045 151.455 27.2478 152.261 26.6245C153.068 25.9645 153.856 25.1395 154.626 24.1495C155.396 23.1595 156.093 22.0962 156.716 20.9595C157.34 19.7862 157.78 18.7595 158.036 17.8795C158.183 17.4395 158.311 16.9812 158.421 16.5045C158.531 16.0278 158.586 15.5328 158.586 15.0195C158.586 14.7262 158.77 14.4512 159.136 14.1945C159.54 13.9012 159.87 13.7362 160.126 13.6995C160.31 13.6628 160.511 13.6995 160.731 13.8095C160.988 13.9195 161.208 14.0845 161.391 14.3045C161.611 14.4878 161.795 14.7262 161.941 15.0195C162.125 15.2762 162.216 15.5512 162.216 15.8445C162.29 16.9445 162.4 18.1545 162.546 19.4745C162.693 20.7945 162.858 22.1145 163.041 23.4345C163.261 24.7545 163.481 26.0378 163.701 27.2845C163.921 28.5312 164.141 29.6495 164.361 30.6395C164.471 31.0428 164.361 31.5012 164.031 32.0145C163.701 32.5278 163.335 32.8395 162.931 32.9495C162.601 33.0228 162.253 32.9862 161.886 32.8395C161.556 32.6928 161.3 32.3995 161.116 31.9595C160.933 31.4462 160.75 30.8228 160.566 30.0895C160.42 29.3195 160.273 28.5312 160.126 27.7245C160.016 26.8812 159.906 26.0928 159.796 25.3595C159.686 24.5895 159.613 23.9478 159.576 23.4345C159.026 24.4245 158.366 25.4328 157.596 26.4595C156.863 27.4495 156.056 28.3662 155.176 29.2095C154.333 30.0162 153.435 30.6578 152.481 31.1345C151.565 31.5745 150.611 31.7395 149.621 31.6295C148.155 31.4462 147.036 30.0712 146.266 27.5045C145.973 26.4778 145.826 25.3412 145.826 24.0945C145.863 22.8478 145.955 21.6195 146.101 20.4095C146.285 19.1628 146.486 17.9895 146.706 16.8895C146.963 15.7895 147.183 14.8912 147.366 14.1945C147.44 13.9012 147.586 13.6445 147.806 13.4245C148.026 13.1678 148.283 13.0762 148.576 13.1495C149.126 13.2595 149.621 13.5895 150.061 14.1395C150.538 14.6895 150.703 15.2578 150.556 15.8445ZM173.005 6.38451C173.188 10.3812 173.5 14.5245 173.94 18.8145C174.38 23.0678 174.857 27.1378 175.37 31.0245C175.48 32.6378 175.04 33.4628 174.05 33.4995C173.83 33.4995 173.61 33.4262 173.39 33.2795C173.17 33.0962 172.968 32.8762 172.785 32.6195C172.602 32.3628 172.418 32.0878 172.235 31.7945C172.088 31.5012 171.997 31.2445 171.96 31.0245C171.667 29.1545 171.392 27.1745 171.135 25.0845C170.878 22.9945 170.64 20.9045 170.42 18.8145C170.237 16.6878 170.072 14.6162 169.925 12.5995C169.778 10.5828 169.687 8.73118 169.65 7.04451C169.723 6.16451 169.852 5.43118 170.035 4.84451C170.218 4.22118 170.603 3.92784 171.19 3.96451C171.813 4.00118 172.253 4.25784 172.51 4.73451C172.803 5.17451 172.968 5.72451 173.005 6.38451ZM193.629 11.7745C193.776 12.8012 193.886 13.9012 193.959 15.0745C194.069 16.2112 194.142 17.3662 194.179 18.5395C194.252 19.7128 194.289 20.8495 194.289 21.9495C194.289 23.0495 194.271 24.0395 194.234 24.9195C195.407 25.7262 196.104 26.4412 196.324 27.0645C196.581 27.6878 196.617 28.2378 196.434 28.7145C196.214 29.3745 195.811 29.7228 195.224 29.7595C194.674 29.7595 194.032 29.5578 193.299 29.1545C192.786 29.5212 192.199 29.9245 191.539 30.3645C190.879 30.7678 190.182 31.1712 189.449 31.5745C188.716 31.9412 187.982 32.2712 187.249 32.5645C186.516 32.8578 185.837 33.0595 185.214 33.1695C184.041 33.3528 182.977 33.1328 182.024 32.5095C181.107 31.8862 180.484 30.9512 180.154 29.7045C179.934 28.8612 179.879 27.9995 179.989 27.1195C180.099 26.2028 180.374 25.3412 180.814 24.5345C181.254 23.6912 181.841 22.9395 182.574 22.2795C183.344 21.6195 184.242 21.1062 185.269 20.7395C185.526 20.6295 185.874 20.5378 186.314 20.4645C186.791 20.3912 187.267 20.3728 187.744 20.4095C188.257 20.4095 188.771 20.5012 189.284 20.6845C189.797 20.8678 190.274 21.1795 190.714 21.6195C190.714 20.9962 190.696 20.3178 190.659 19.5845C190.659 18.8145 190.641 18.0445 190.604 17.2745C190.567 16.5045 190.512 15.7895 190.439 15.1295C190.402 14.4328 190.347 13.8462 190.274 13.3695C190.201 12.8195 189.981 12.4895 189.614 12.3795C189.284 12.2328 188.862 12.2512 188.349 12.4345C187.469 12.7278 186.442 13.2962 185.269 14.1395C184.096 14.9828 182.977 15.8812 181.914 16.8345C181.584 17.1645 181.199 17.3112 180.759 17.2745C180.356 17.2378 180.007 17.0728 179.714 16.7795C179.421 16.4862 179.256 16.1562 179.219 15.7895C179.182 15.3862 179.329 14.9645 179.659 14.5245C180.282 13.8645 180.979 13.1862 181.749 12.4895C182.519 11.7928 183.326 11.1695 184.169 10.6195C185.012 10.0328 185.874 9.55618 186.754 9.18951C187.634 8.82284 188.514 8.62118 189.394 8.58451C190.677 8.54784 191.667 8.84118 192.364 9.46451C193.061 10.0512 193.482 10.8212 193.629 11.7745ZM187.249 23.5995C186.772 23.7095 186.259 23.9478 185.709 24.3145C185.196 24.6445 184.719 25.0662 184.279 25.5795C183.876 26.0562 183.564 26.6062 183.344 27.2295C183.161 27.8162 183.161 28.4028 183.344 28.9895C183.417 29.2095 183.564 29.3745 183.784 29.4845C184.041 29.5945 184.316 29.6128 184.609 29.5395C185.489 29.3562 186.479 29.0078 187.579 28.4945C188.716 27.9445 189.614 27.3578 190.274 26.7345C190.274 26.5145 190.164 26.2395 189.944 25.9095C189.724 25.5428 189.467 25.1945 189.174 24.8645C188.881 24.4978 188.551 24.1862 188.184 23.9295C187.854 23.6728 187.542 23.5628 187.249 23.5995ZM212.13 17.3845C212.826 17.3478 213.523 17.5128 214.22 17.8795C214.916 18.2462 215.265 18.8145 215.265 19.5845C215.191 20.2078 214.843 20.6112 214.22 20.7945C213.633 20.9412 213.156 21.0145 212.79 21.0145C212.056 21.0145 211.268 21.0328 210.425 21.0695C209.581 21.1062 208.72 21.1612 207.84 21.2345C207.766 22.4445 207.693 23.5812 207.62 24.6445C207.583 25.7078 207.546 26.6612 207.51 27.5045C207.473 28.3112 207.455 28.9712 207.455 29.4845C207.455 29.9978 207.473 30.2728 207.51 30.3095C208.316 30.1628 209.178 29.9245 210.095 29.5945C211.048 29.2278 211.983 28.8428 212.9 28.4395C213.853 27.9995 214.77 27.5595 215.65 27.1195C216.566 26.6428 217.428 26.2028 218.235 25.7995C218.601 25.6162 218.931 25.5612 219.225 25.6345C219.555 25.7078 219.756 25.8728 219.83 26.1295C219.903 26.5328 219.848 27.0278 219.665 27.6145C219.481 28.2012 219.151 28.7328 218.675 29.2095C218.125 29.6495 217.391 30.1628 216.475 30.7495C215.595 31.2995 214.641 31.8312 213.615 32.3445C212.588 32.8578 211.543 33.3162 210.48 33.7195C209.453 34.0862 208.536 34.3062 207.73 34.3795C206.52 34.4895 205.603 34.1595 204.98 33.3895C204.356 32.6195 204.008 31.6478 203.935 30.4745C203.861 29.3012 203.843 27.9445 203.88 26.4045C203.953 24.8645 204.026 23.2328 204.1 21.5095C203.403 21.5828 202.725 21.6562 202.065 21.7295C201.441 21.7662 200.836 21.8212 200.25 21.8945C199.773 21.8945 199.241 21.7845 198.655 21.5645C198.105 21.3445 197.83 20.9228 197.83 20.2995C197.83 20.0795 197.921 19.7862 198.105 19.4195C198.288 19.0528 198.691 18.7778 199.315 18.5945C200.818 18.3378 202.486 18.1178 204.32 17.9345C204.43 16.2112 204.558 14.5428 204.705 12.9295C204.851 11.3162 204.98 9.84951 205.09 8.52951C205.126 8.08951 205.255 7.70451 205.475 7.37451C205.695 7.04451 205.933 6.87951 206.19 6.87951C206.813 6.84284 207.4 7.00784 207.95 7.37451C208.536 7.70451 208.83 8.08951 208.83 8.52951C208.683 9.77618 208.536 11.1878 208.39 12.7645C208.28 14.3412 208.17 15.9545 208.06 17.6045C208.793 17.5312 209.49 17.4945 210.15 17.4945C210.846 17.4578 211.506 17.4212 212.13 17.3845ZM231.336 9.68451C231.262 10.0512 231.006 10.2528 230.566 10.2895C230.126 10.3262 229.759 10.3445 229.466 10.3445C228.549 10.3812 227.596 10.4728 226.606 10.6195C225.652 10.7662 224.644 10.9862 223.581 11.2795C223.141 11.4262 222.664 11.3712 222.151 11.1145C221.637 10.8578 221.326 10.3445 221.216 9.57451C221.216 9.28118 221.326 9.04284 221.546 8.85951C221.766 8.67618 222.022 8.51118 222.316 8.36451C222.792 8.14451 223.361 7.96118 224.021 7.81451C224.681 7.63118 225.341 7.50284 226.001 7.42951C226.697 7.35618 227.357 7.33784 227.981 7.37451C228.604 7.37451 229.117 7.42951 229.521 7.53951C230.107 7.72284 230.566 7.99784 230.896 8.36451C231.262 8.73118 231.409 9.17118 231.336 9.68451ZM230.071 27.9995C230.327 28.5862 230.456 29.2278 230.456 29.9245C230.492 30.5845 230.309 31.0428 229.906 31.2995C229.392 31.6295 228.842 31.6112 228.256 31.2445C227.669 30.8778 227.229 30.3828 226.936 29.7595C226.532 28.9895 226.221 28.0545 226.001 26.9545C225.781 25.8178 225.616 24.6995 225.506 23.5995C225.396 22.4995 225.322 21.4728 225.286 20.5195C225.286 19.5662 225.286 18.8512 225.286 18.3745C225.322 17.8612 225.469 17.3845 225.726 16.9445C225.982 16.5045 226.312 16.2478 226.716 16.1745C227.376 16.2112 227.907 16.5228 228.311 17.1095C228.714 17.6595 228.897 18.3562 228.861 19.1995C228.861 19.8595 228.879 20.5928 228.916 21.3995C228.952 22.2062 229.026 23.0128 229.136 23.8195C229.246 24.6262 229.374 25.4145 229.521 26.1845C229.667 26.9178 229.851 27.5228 230.071 27.9995ZM248.066 12.9295C249.166 13.3328 250.083 13.9378 250.816 14.7445C251.586 15.5512 252.173 16.4678 252.576 17.4945C252.979 18.4845 253.199 19.5112 253.236 20.5745C253.309 21.6378 253.199 22.6278 252.906 23.5445C252.503 24.5712 251.989 25.5795 251.366 26.5695C250.743 27.5595 250.028 28.4395 249.221 29.2095C248.414 29.9795 247.498 30.6028 246.471 31.0795C245.444 31.5562 244.308 31.7945 243.061 31.7945C241.558 31.7945 240.293 31.4462 239.266 30.7495C238.239 30.0528 237.433 29.1545 236.846 28.0545C236.259 26.9545 235.874 25.7078 235.691 24.3145C235.544 22.9212 235.581 21.5278 235.801 20.1345C235.948 19.1078 236.186 18.1178 236.516 17.1645C236.883 16.1745 237.341 15.3128 237.891 14.5795C238.441 13.8095 239.064 13.1862 239.761 12.7095C240.494 12.2328 241.319 11.9945 242.236 11.9945C242.749 11.9945 243.391 12.1045 244.161 12.3245C244.931 12.5078 245.646 12.7828 246.306 13.1495C246.783 12.7095 247.369 12.6362 248.066 12.9295ZM245.976 16.9445C245.573 16.6878 245.096 16.3578 244.546 15.9545C244.033 15.5145 243.574 15.2945 243.171 15.2945C242.731 15.2945 242.291 15.4962 241.851 15.8995C241.448 16.3028 241.081 16.7795 240.751 17.3295C240.458 17.8428 240.201 18.3745 239.981 18.9245C239.761 19.4745 239.614 19.9145 239.541 20.2445C239.431 20.7945 239.358 21.4545 239.321 22.2245C239.284 22.9945 239.339 23.7645 239.486 24.5345C239.633 25.2678 239.908 25.9462 240.311 26.5695C240.751 27.1562 241.393 27.5778 242.236 27.8345C242.749 27.9812 243.354 27.9812 244.051 27.8345C244.748 27.6512 245.426 27.3395 246.086 26.8995C246.783 26.4595 247.424 25.8728 248.011 25.1395C248.634 24.4062 249.111 23.5628 249.441 22.6095C249.808 21.5462 249.808 20.4462 249.441 19.3095C249.111 18.1362 248.414 17.2928 247.351 16.7795C247.094 16.9628 246.838 17.0545 246.581 17.0545C246.324 17.0545 246.123 17.0178 245.976 16.9445ZM261.172 13.9745C261.282 14.5245 261.392 15.1478 261.502 15.8445C261.649 16.5045 261.796 17.2012 261.942 17.9345C262.089 18.6312 262.217 19.3462 262.327 20.0795C262.437 20.8128 262.529 21.5095 262.602 22.1695C263.042 21.2162 263.519 20.2078 264.032 19.1445C264.546 18.0812 265.096 17.1095 265.682 16.2295C266.306 15.3128 266.947 14.5612 267.607 13.9745C268.304 13.3878 269.056 13.0945 269.862 13.0945C271.072 13.0945 272.081 13.5345 272.887 14.4145C273.731 15.2945 274.427 16.3945 274.977 17.7145C275.564 18.9978 276.022 20.3545 276.352 21.7845C276.682 23.2145 276.957 24.4795 277.177 25.5795C277.397 26.5695 276.957 27.3028 275.857 27.7795C275.344 28.0362 274.959 28.0728 274.702 27.8895C274.446 27.7062 274.299 27.5228 274.262 27.3395C274.079 26.8995 273.841 26.1295 273.547 25.0295C273.291 23.9295 272.979 22.8112 272.612 21.6745C272.282 20.5378 271.897 19.5478 271.457 18.7045C271.017 17.8612 270.522 17.4762 269.972 17.5495C269.312 17.5862 268.726 18.0812 268.212 19.0345C267.772 19.8045 267.314 20.6662 266.837 21.6195C266.397 22.5362 265.957 23.4895 265.517 24.4795C265.077 25.4328 264.637 26.4045 264.197 27.3945C263.794 28.3478 263.409 29.2278 263.042 30.0345C262.786 30.2912 262.456 30.4745 262.052 30.5845C261.686 30.6578 261.301 30.6212 260.897 30.4745C260.531 30.3645 260.237 30.1812 260.017 29.9245C259.797 29.6678 259.687 29.4112 259.687 29.1545C259.357 26.2945 259.009 23.6912 258.642 21.3445C258.312 18.9978 257.872 16.5962 257.322 14.1395C257.066 13.2962 257.011 12.6362 257.157 12.1595C257.341 11.6462 257.891 11.4445 258.807 11.5545C260.091 11.7745 260.879 12.5812 261.172 13.9745ZM291.248 15.6795C291.175 15.2762 291.101 14.8912 291.028 14.5245C290.955 14.1578 290.771 13.9195 290.478 13.8095C289.855 13.6262 289.195 13.6078 288.498 13.7545C287.801 13.9012 287.16 14.1395 286.573 14.4695C285.986 14.7628 285.491 15.1112 285.088 15.5145C284.685 15.8812 284.465 16.2112 284.428 16.5045C284.318 17.0545 284.465 17.5862 284.868 18.0995C285.271 18.6128 285.858 19.1262 286.628 19.6395C287.911 20.4095 289.25 21.1978 290.643 22.0045C292.036 22.8112 293.21 23.6362 294.163 24.4795C295.116 25.3228 295.758 26.2578 296.088 27.2845C296.455 28.2745 296.381 29.4112 295.868 30.6945C295.465 31.6845 294.713 32.4912 293.613 33.1145C292.513 33.7378 291.303 34.2328 289.983 34.5995C288.663 34.9295 287.343 35.1678 286.023 35.3145C284.703 35.4245 283.585 35.4795 282.668 35.4795C282.448 35.4795 282.173 35.4062 281.843 35.2595C281.55 35.0762 281.256 34.8745 280.963 34.6545C280.706 34.4345 280.468 34.2145 280.248 33.9945C280.065 33.7378 279.973 33.5178 279.973 33.3345C279.973 32.6745 280.266 32.2162 280.853 31.9595C281.44 31.7028 282.045 31.5745 282.668 31.5745C283.548 31.5745 284.483 31.5378 285.473 31.4645C286.5 31.3545 287.471 31.2078 288.388 31.0245C289.305 30.8045 290.13 30.5295 290.863 30.1995C291.596 29.8695 292.11 29.4478 292.403 28.9345C292.66 28.4945 292.495 27.9812 291.908 27.3945C291.358 26.7712 290.606 26.1295 289.653 25.4695C288.736 24.8095 287.728 24.1678 286.628 23.5445C285.565 22.9212 284.648 22.3528 283.878 21.8395C283.108 21.3262 282.448 20.7212 281.898 20.0245C281.348 19.2912 281 18.3928 280.853 17.3295C280.816 16.3762 281.018 15.4595 281.458 14.5795C281.898 13.6995 282.466 12.9295 283.163 12.2695C283.896 11.5728 284.721 11.0228 285.638 10.6195C286.555 10.2162 287.471 10.0145 288.388 10.0145C289.965 10.0878 291.266 10.5278 292.293 11.3345C293.32 12.1045 293.925 13.2595 294.108 14.7995C294.108 15.3128 294.016 15.7345 293.833 16.0645C293.686 16.3945 293.411 16.5962 293.008 16.6695C292.495 16.7428 292.073 16.6878 291.743 16.5045C291.45 16.2845 291.285 16.0095 291.248 15.6795ZM300.866 43.2895C300.572 43.0328 300.499 42.7028 300.646 42.2995C300.792 41.8962 300.939 41.5478 301.086 41.2545C301.452 40.4112 301.782 39.5312 302.076 38.6145C302.369 37.6612 302.607 36.6528 302.791 35.5895C302.864 35.1128 303.121 34.7095 303.561 34.3795C304.001 34.0128 304.587 33.9395 305.321 34.1595C305.614 34.3062 305.779 34.5262 305.816 34.8195C305.889 35.0762 305.926 35.3695 305.926 35.6995C305.926 36.2128 305.852 36.8178 305.706 37.5145C305.596 38.1745 305.431 38.8162 305.211 39.4395C304.991 40.0995 304.734 40.7045 304.441 41.2545C304.147 41.8045 303.872 42.2262 303.616 42.5195C303.176 42.9962 302.699 43.3078 302.186 43.4545C301.709 43.6378 301.269 43.5828 300.866 43.2895ZM345.01 14.7995C345.12 16.7795 345.23 18.7778 345.34 20.7945C345.487 22.8112 345.523 24.8095 345.45 26.7895C345.377 28.7328 345.175 30.6395 344.845 32.5095C344.552 34.3795 344.038 36.1762 343.305 37.8995C342.572 39.5862 341.582 41.1628 340.335 42.6295C339.125 44.0962 337.585 45.4162 335.715 46.5895C335.422 46.7728 335.092 46.8828 334.725 46.9195C334.395 46.9562 334.065 46.9378 333.735 46.8645C333.405 46.8278 333.112 46.7362 332.855 46.5895C332.598 46.4795 332.433 46.3145 332.36 46.0945C332.25 45.7645 332.305 45.3978 332.525 44.9945C332.745 44.5912 333.112 44.1695 333.625 43.7295C335.238 42.5195 336.595 41.2362 337.695 39.8795C338.795 38.5228 339.675 37.0562 340.335 35.4795C340.995 33.9028 341.417 32.1978 341.6 30.3645C341.82 28.4945 341.82 26.4595 341.6 24.2595C341.16 24.8095 340.647 25.3778 340.06 25.9645C339.473 26.5512 338.85 27.0828 338.19 27.5595C337.53 27.9995 336.852 28.3845 336.155 28.7145C335.458 29.0078 334.798 29.1545 334.175 29.1545C333.662 29.1545 333.148 29.0445 332.635 28.8245C332.122 28.6045 331.608 28.1828 331.095 27.5595C330.508 26.7895 329.977 25.9278 329.5 24.9745C329.06 23.9845 328.675 23.0312 328.345 22.1145C328.015 21.1978 327.74 20.3728 327.52 19.6395C327.337 18.9062 327.227 18.3928 327.19 18.0995C327.117 17.7328 327.117 17.3845 327.19 17.0545C327.263 16.7245 327.502 16.5228 327.905 16.4495C328.455 16.3395 328.968 16.3762 329.445 16.5595C329.922 16.7428 330.252 17.0362 330.435 17.4395C330.582 17.8428 330.783 18.4662 331.04 19.3095C331.297 20.1528 331.608 20.9962 331.975 21.8395C332.342 22.6462 332.727 23.3612 333.13 23.9845C333.57 24.6078 334.028 24.9195 334.505 24.9195C335.055 24.9195 335.697 24.6445 336.43 24.0945C337.2 23.5445 337.933 22.8295 338.63 21.9495C339.327 21.0695 339.913 20.0978 340.39 19.0345C340.903 17.9345 341.16 16.8712 341.16 15.8445C341.16 15.6245 341.197 15.3678 341.27 15.0745C341.343 14.7812 341.453 14.5062 341.6 14.2495C341.747 13.9562 341.912 13.7178 342.095 13.5345C342.315 13.3145 342.535 13.1862 342.755 13.1495C343.342 13.0762 343.855 13.2412 344.295 13.6445C344.772 14.0112 345.01 14.3962 345.01 14.7995ZM362.954 12.9295C364.054 13.3328 364.97 13.9378 365.704 14.7445C366.474 15.5512 367.06 16.4678 367.464 17.4945C367.867 18.4845 368.087 19.5112 368.124 20.5745C368.197 21.6378 368.087 22.6278 367.794 23.5445C367.39 24.5712 366.877 25.5795 366.254 26.5695C365.63 27.5595 364.915 28.4395 364.109 29.2095C363.302 29.9795 362.385 30.6028 361.359 31.0795C360.332 31.5562 359.195 31.7945 357.949 31.7945C356.445 31.7945 355.18 31.4462 354.154 30.7495C353.127 30.0528 352.32 29.1545 351.734 28.0545C351.147 26.9545 350.762 25.7078 350.579 24.3145C350.432 22.9212 350.469 21.5278 350.689 20.1345C350.835 19.1078 351.074 18.1178 351.404 17.1645C351.77 16.1745 352.229 15.3128 352.779 14.5795C353.329 13.8095 353.952 13.1862 354.649 12.7095C355.382 12.2328 356.207 11.9945 357.124 11.9945C357.637 11.9945 358.279 12.1045 359.049 12.3245C359.819 12.5078 360.534 12.7828 361.194 13.1495C361.67 12.7095 362.257 12.6362 362.954 12.9295ZM360.864 16.9445C360.46 16.6878 359.984 16.3578 359.434 15.9545C358.92 15.5145 358.462 15.2945 358.059 15.2945C357.619 15.2945 357.179 15.4962 356.739 15.8995C356.335 16.3028 355.969 16.7795 355.639 17.3295C355.345 17.8428 355.089 18.3745 354.869 18.9245C354.649 19.4745 354.502 19.9145 354.429 20.2445C354.319 20.7945 354.245 21.4545 354.209 22.2245C354.172 22.9945 354.227 23.7645 354.374 24.5345C354.52 25.2678 354.795 25.9462 355.199 26.5695C355.639 27.1562 356.28 27.5778 357.124 27.8345C357.637 27.9812 358.242 27.9812 358.939 27.8345C359.635 27.6512 360.314 27.3395 360.974 26.8995C361.67 26.4595 362.312 25.8728 362.899 25.1395C363.522 24.4062 363.999 23.5628 364.329 22.6095C364.695 21.5462 364.695 20.4462 364.329 19.3095C363.999 18.1362 363.302 17.2928 362.239 16.7795C361.982 16.9628 361.725 17.0545 361.469 17.0545C361.212 17.0545 361.01 17.0178 360.864 16.9445ZM377.27 15.8445C377.05 16.8345 376.83 17.9345 376.61 19.1445C376.39 20.3178 376.225 21.4545 376.115 22.5545C376.042 23.6545 376.042 24.6445 376.115 25.5245C376.225 26.4045 376.463 27.0278 376.83 27.3945C377.453 27.5045 378.168 27.2478 378.975 26.6245C379.782 25.9645 380.57 25.1395 381.34 24.1495C382.11 23.1595 382.807 22.0962 383.43 20.9595C384.053 19.7862 384.493 18.7595 384.75 17.8795C384.897 17.4395 385.025 16.9812 385.135 16.5045C385.245 16.0278 385.3 15.5328 385.3 15.0195C385.3 14.7262 385.483 14.4512 385.85 14.1945C386.253 13.9012 386.583 13.7362 386.84 13.6995C387.023 13.6628 387.225 13.6995 387.445 13.8095C387.702 13.9195 387.922 14.0845 388.105 14.3045C388.325 14.4878 388.508 14.7262 388.655 15.0195C388.838 15.2762 388.93 15.5512 388.93 15.8445C389.003 16.9445 389.113 18.1545 389.26 19.4745C389.407 20.7945 389.572 22.1145 389.755 23.4345C389.975 24.7545 390.195 26.0378 390.415 27.2845C390.635 28.5312 390.855 29.6495 391.075 30.6395C391.185 31.0428 391.075 31.5012 390.745 32.0145C390.415 32.5278 390.048 32.8395 389.645 32.9495C389.315 33.0228 388.967 32.9862 388.6 32.8395C388.27 32.6928 388.013 32.3995 387.83 31.9595C387.647 31.4462 387.463 30.8228 387.28 30.0895C387.133 29.3195 386.987 28.5312 386.84 27.7245C386.73 26.8812 386.62 26.0928 386.51 25.3595C386.4 24.5895 386.327 23.9478 386.29 23.4345C385.74 24.4245 385.08 25.4328 384.31 26.4595C383.577 27.4495 382.77 28.3662 381.89 29.2095C381.047 30.0162 380.148 30.6578 379.195 31.1345C378.278 31.5745 377.325 31.7395 376.335 31.6295C374.868 31.4462 373.75 30.0712 372.98 27.5045C372.687 26.4778 372.54 25.3412 372.54 24.0945C372.577 22.8478 372.668 21.6195 372.815 20.4095C372.998 19.1628 373.2 17.9895 373.42 16.8895C373.677 15.7895 373.897 14.8912 374.08 14.1945C374.153 13.9012 374.3 13.6445 374.52 13.4245C374.74 13.1678 374.997 13.0762 375.29 13.1495C375.84 13.2595 376.335 13.5895 376.775 14.1395C377.252 14.6895 377.417 15.2578 377.27 15.8445ZM424.264 11.7745C424.41 12.8012 424.52 13.9012 424.594 15.0745C424.704 16.2112 424.777 17.3662 424.814 18.5395C424.887 19.7128 424.924 20.8495 424.924 21.9495C424.924 23.0495 424.905 24.0395 424.869 24.9195C426.042 25.7262 426.739 26.4412 426.959 27.0645C427.215 27.6878 427.252 28.2378 427.069 28.7145C426.849 29.3745 426.445 29.7228 425.859 29.7595C425.309 29.7595 424.667 29.5578 423.934 29.1545C423.42 29.5212 422.834 29.9245 422.174 30.3645C421.514 30.7678 420.817 31.1712 420.084 31.5745C419.35 31.9412 418.617 32.2712 417.884 32.5645C417.15 32.8578 416.472 33.0595 415.849 33.1695C414.675 33.3528 413.612 33.1328 412.659 32.5095C411.742 31.8862 411.119 30.9512 410.789 29.7045C410.569 28.8612 410.514 27.9995 410.624 27.1195C410.734 26.2028 411.009 25.3412 411.449 24.5345C411.889 23.6912 412.475 22.9395 413.209 22.2795C413.979 21.6195 414.877 21.1062 415.904 20.7395C416.16 20.6295 416.509 20.5378 416.949 20.4645C417.425 20.3912 417.902 20.3728 418.379 20.4095C418.892 20.4095 419.405 20.5012 419.919 20.6845C420.432 20.8678 420.909 21.1795 421.349 21.6195C421.349 20.9962 421.33 20.3178 421.294 19.5845C421.294 18.8145 421.275 18.0445 421.239 17.2745C421.202 16.5045 421.147 15.7895 421.074 15.1295C421.037 14.4328 420.982 13.8462 420.909 13.3695C420.835 12.8195 420.615 12.4895 420.249 12.3795C419.919 12.2328 419.497 12.2512 418.984 12.4345C418.104 12.7278 417.077 13.2962 415.904 14.1395C414.73 14.9828 413.612 15.8812 412.549 16.8345C412.219 17.1645 411.834 17.3112 411.394 17.2745C410.99 17.2378 410.642 17.0728 410.349 16.7795C410.055 16.4862 409.89 16.1562 409.854 15.7895C409.817 15.3862 409.964 14.9645 410.294 14.5245C410.917 13.8645 411.614 13.1862 412.384 12.4895C413.154 11.7928 413.96 11.1695 414.804 10.6195C415.647 10.0328 416.509 9.55618 417.389 9.18951C418.269 8.82284 419.149 8.62118 420.029 8.58451C421.312 8.54784 422.302 8.84118 422.999 9.46451C423.695 10.0512 424.117 10.8212 424.264 11.7745ZM417.884 23.5995C417.407 23.7095 416.894 23.9478 416.344 24.3145C415.83 24.6445 415.354 25.0662 414.914 25.5795C414.51 26.0562 414.199 26.6062 413.979 27.2295C413.795 27.8162 413.795 28.4028 413.979 28.9895C414.052 29.2095 414.199 29.3745 414.419 29.4845C414.675 29.5945 414.95 29.6128 415.244 29.5395C416.124 29.3562 417.114 29.0078 418.214 28.4945C419.35 27.9445 420.249 27.3578 420.909 26.7345C420.909 26.5145 420.799 26.2395 420.579 25.9095C420.359 25.5428 420.102 25.1945 419.809 24.8645C419.515 24.4978 419.185 24.1862 418.819 23.9295C418.489 23.6728 418.177 23.5628 417.884 23.5995ZM446.724 13.1495C446.064 13.5162 445.368 13.9012 444.634 14.3045C443.938 14.7078 443.223 15.1845 442.489 15.7345C441.793 16.2478 441.114 16.8712 440.454 17.6045C439.831 18.3012 439.263 19.1445 438.749 20.1345C438.016 21.5278 437.521 22.9578 437.264 24.4245C437.008 25.8545 436.843 27.2662 436.769 28.6595C436.769 29.3195 436.604 29.9978 436.274 30.6945C435.981 31.3545 435.559 31.6845 435.009 31.6845C434.313 31.6845 433.744 31.3362 433.304 30.6395C432.901 29.9062 432.626 29.2095 432.479 28.5495C431.856 25.9462 431.343 23.3795 430.939 20.8495C430.536 18.2828 430.188 15.7345 429.894 13.2045C429.894 12.6912 430.041 12.3612 430.334 12.2145C430.664 12.0678 431.031 12.0128 431.434 12.0495C431.874 12.0862 432.296 12.1962 432.699 12.3795C433.103 12.5628 433.341 12.8562 433.414 13.2595C433.561 14.6162 433.744 16.0462 433.964 17.5495C434.184 19.0162 434.404 20.2812 434.624 21.3445C434.771 20.0978 435.174 18.8878 435.834 17.7145C436.494 16.5412 437.301 15.4778 438.254 14.5245C439.244 13.5712 440.344 12.7645 441.554 12.1045C442.801 11.4445 444.066 11.0045 445.349 10.7845C445.899 10.7112 446.358 10.7112 446.724 10.7845C447.091 10.8578 447.348 10.9862 447.494 11.1695C447.641 11.3528 447.659 11.6462 447.549 12.0495C447.476 12.4528 447.201 12.8195 446.724 13.1495ZM463.355 19.1995C461.925 20.0428 460.385 20.7028 458.735 21.1795C457.085 21.6195 455.307 21.8395 453.4 21.8395C453.473 23.1228 453.84 24.1495 454.5 24.9195C455.16 25.6528 455.985 26.0928 456.975 26.2395C457.562 26.3128 458.148 26.2945 458.735 26.1845C459.358 26.0745 459.927 25.9095 460.44 25.6895C460.99 25.4328 461.485 25.1578 461.925 24.8645C462.365 24.5712 462.75 24.2778 463.08 23.9845C463.41 23.6912 463.758 23.5078 464.125 23.4345C464.492 23.3245 464.767 23.3062 464.95 23.3795C465.463 23.5628 465.647 24.1128 465.5 25.0295C464.913 26.2028 464.07 27.2112 462.97 28.0545C461.87 28.8612 460.642 29.3745 459.285 29.5945C458.112 29.8145 456.902 29.7595 455.655 29.4295C454.408 29.0995 453.29 28.4578 452.3 27.5045C451.457 26.6612 450.815 25.6712 450.375 24.5345C449.935 23.3978 449.66 22.2245 449.55 21.0145C449.44 19.8778 449.532 18.7962 449.825 17.7695C450.155 16.7428 450.65 15.8445 451.31 15.0745C451.97 14.2678 452.795 13.6078 453.785 13.0945C454.775 12.5812 455.93 12.2878 457.25 12.2145C458.827 12.1045 460.257 12.3978 461.54 13.0945C462.823 13.7912 463.722 14.7628 464.235 16.0095C464.528 16.7062 464.602 17.3112 464.455 17.8245C464.345 18.3378 463.978 18.7962 463.355 19.1995ZM457.03 15.4595C456.663 15.5328 456.26 15.6612 455.82 15.8445C455.417 16.0278 455.032 16.2662 454.665 16.5595C454.335 16.8162 454.023 17.1278 453.73 17.4945C453.473 17.8245 453.327 18.2095 453.29 18.6495C453.913 18.6495 454.592 18.5945 455.325 18.4845C456.095 18.3745 456.828 18.2462 457.525 18.0995C458.258 17.9162 458.918 17.7145 459.505 17.4945C460.128 17.2745 460.642 17.0362 461.045 16.7795C460.752 16.0828 460.202 15.6612 459.395 15.5145C458.625 15.3312 457.837 15.3128 457.03 15.4595ZM498.492 11.7745C498.639 12.8012 498.749 13.9012 498.822 15.0745C498.932 16.2112 499.006 17.3662 499.042 18.5395C499.116 19.7128 499.152 20.8495 499.152 21.9495C499.152 23.0495 499.134 24.0395 499.097 24.9195C500.271 25.7262 500.967 26.4412 501.187 27.0645C501.444 27.6878 501.481 28.2378 501.297 28.7145C501.077 29.3745 500.674 29.7228 500.087 29.7595C499.537 29.7595 498.896 29.5578 498.162 29.1545C497.649 29.5212 497.062 29.9245 496.402 30.3645C495.742 30.7678 495.046 31.1712 494.312 31.5745C493.579 31.9412 492.846 32.2712 492.112 32.5645C491.379 32.8578 490.701 33.0595 490.077 33.1695C488.904 33.3528 487.841 33.1328 486.887 32.5095C485.971 31.8862 485.347 30.9512 485.017 29.7045C484.797 28.8612 484.742 27.9995 484.852 27.1195C484.962 26.2028 485.237 25.3412 485.677 24.5345C486.117 23.6912 486.704 22.9395 487.437 22.2795C488.207 21.6195 489.106 21.1062 490.132 20.7395C490.389 20.6295 490.737 20.5378 491.177 20.4645C491.654 20.3912 492.131 20.3728 492.607 20.4095C493.121 20.4095 493.634 20.5012 494.147 20.6845C494.661 20.8678 495.137 21.1795 495.577 21.6195C495.577 20.9962 495.559 20.3178 495.522 19.5845C495.522 18.8145 495.504 18.0445 495.467 17.2745C495.431 16.5045 495.376 15.7895 495.302 15.1295C495.266 14.4328 495.211 13.8462 495.137 13.3695C495.064 12.8195 494.844 12.4895 494.477 12.3795C494.147 12.2328 493.726 12.2512 493.212 12.4345C492.332 12.7278 491.306 13.2962 490.132 14.1395C488.959 14.9828 487.841 15.8812 486.777 16.8345C486.447 17.1645 486.062 17.3112 485.622 17.2745C485.219 17.2378 484.871 17.0728 484.577 16.7795C484.284 16.4862 484.119 16.1562 484.082 15.7895C484.046 15.3862 484.192 14.9645 484.522 14.5245C485.146 13.8645 485.842 13.1862 486.612 12.4895C487.382 11.7928 488.189 11.1695 489.032 10.6195C489.876 10.0328 490.737 9.55618 491.617 9.18951C492.497 8.82284 493.377 8.62118 494.257 8.58451C495.541 8.54784 496.531 8.84118 497.227 9.46451C497.924 10.0512 498.346 10.8212 498.492 11.7745ZM492.112 23.5995C491.636 23.7095 491.122 23.9478 490.572 24.3145C490.059 24.6445 489.582 25.0662 489.142 25.5795C488.739 26.0562 488.427 26.6062 488.207 27.2295C488.024 27.8162 488.024 28.4028 488.207 28.9895C488.281 29.2095 488.427 29.3745 488.647 29.4845C488.904 29.5945 489.179 29.6128 489.472 29.5395C490.352 29.3562 491.342 29.0078 492.442 28.4945C493.579 27.9445 494.477 27.3578 495.137 26.7345C495.137 26.5145 495.027 26.2395 494.807 25.9095C494.587 25.5428 494.331 25.1945 494.037 24.8645C493.744 24.4978 493.414 24.1862 493.047 23.9295C492.717 23.6728 492.406 23.5628 492.112 23.5995ZM508.028 13.9745C508.138 14.5245 508.248 15.1478 508.358 15.8445C508.505 16.5045 508.651 17.2012 508.798 17.9345C508.945 18.6312 509.073 19.3462 509.183 20.0795C509.293 20.8128 509.385 21.5095 509.458 22.1695C509.898 21.2162 510.375 20.2078 510.888 19.1445C511.401 18.0812 511.951 17.1095 512.538 16.2295C513.161 15.3128 513.803 14.5612 514.463 13.9745C515.16 13.3878 515.911 13.0945 516.718 13.0945C517.928 13.0945 518.936 13.5345 519.743 14.4145C520.586 15.2945 521.283 16.3945 521.833 17.7145C522.42 18.9978 522.878 20.3545 523.208 21.7845C523.538 23.2145 523.813 24.4795 524.033 25.5795C524.253 26.5695 523.813 27.3028 522.713 27.7795C522.2 28.0362 521.815 28.0728 521.558 27.8895C521.301 27.7062 521.155 27.5228 521.118 27.3395C520.935 26.8995 520.696 26.1295 520.403 25.0295C520.146 23.9295 519.835 22.8112 519.468 21.6745C519.138 20.5378 518.753 19.5478 518.313 18.7045C517.873 17.8612 517.378 17.4762 516.828 17.5495C516.168 17.5862 515.581 18.0812 515.068 19.0345C514.628 19.8045 514.17 20.6662 513.693 21.6195C513.253 22.5362 512.813 23.4895 512.373 24.4795C511.933 25.4328 511.493 26.4045 511.053 27.3945C510.65 28.3478 510.265 29.2278 509.898 30.0345C509.641 30.2912 509.311 30.4745 508.908 30.5845C508.541 30.6578 508.156 30.6212 507.753 30.4745C507.386 30.3645 507.093 30.1812 506.873 29.9245C506.653 29.6678 506.543 29.4112 506.543 29.1545C506.213 26.2945 505.865 23.6912 505.498 21.3445C505.168 18.9978 504.728 16.5962 504.178 14.1395C503.921 13.2962 503.866 12.6362 504.013 12.1595C504.196 11.6462 504.746 11.4445 505.663 11.5545C506.946 11.7745 507.735 12.5812 508.028 13.9745ZM556.544 19.1995C555.114 20.0428 553.574 20.7028 551.924 21.1795C550.274 21.6195 548.495 21.8395 546.589 21.8395C546.662 23.1228 547.029 24.1495 547.689 24.9195C548.349 25.6528 549.174 26.0928 550.164 26.2395C550.75 26.3128 551.337 26.2945 551.924 26.1845C552.547 26.0745 553.115 25.9095 553.629 25.6895C554.179 25.4328 554.674 25.1578 555.114 24.8645C555.554 24.5712 555.939 24.2778 556.269 23.9845C556.599 23.6912 556.947 23.5078 557.314 23.4345C557.68 23.3245 557.955 23.3062 558.139 23.3795C558.652 23.5628 558.835 24.1128 558.689 25.0295C558.102 26.2028 557.259 27.2112 556.159 28.0545C555.059 28.8612 553.83 29.3745 552.474 29.5945C551.3 29.8145 550.09 29.7595 548.844 29.4295C547.597 29.0995 546.479 28.4578 545.489 27.5045C544.645 26.6612 544.004 25.6712 543.564 24.5345C543.124 23.3978 542.849 22.2245 542.739 21.0145C542.629 19.8778 542.72 18.7962 543.014 17.7695C543.344 16.7428 543.839 15.8445 544.499 15.0745C545.159 14.2678 545.984 13.6078 546.974 13.0945C547.964 12.5812 549.119 12.2878 550.439 12.2145C552.015 12.1045 553.445 12.3978 554.729 13.0945C556.012 13.7912 556.91 14.7628 557.424 16.0095C557.717 16.7062 557.79 17.3112 557.644 17.8245C557.534 18.3378 557.167 18.7962 556.544 19.1995ZM550.219 15.4595C549.852 15.5328 549.449 15.6612 549.009 15.8445C548.605 16.0278 548.22 16.2662 547.854 16.5595C547.524 16.8162 547.212 17.1278 546.919 17.4945C546.662 17.8245 546.515 18.2095 546.479 18.6495C547.102 18.6495 547.78 18.5945 548.514 18.4845C549.284 18.3745 550.017 18.2462 550.714 18.0995C551.447 17.9162 552.107 17.7145 552.694 17.4945C553.317 17.2745 553.83 17.0362 554.234 16.7795C553.94 16.0828 553.39 15.6612 552.584 15.5145C551.814 15.3312 551.025 15.3128 550.219 15.4595ZM578.686 26.9545C579.382 27.7978 579.786 28.5678 579.896 29.2645C580.006 29.9245 579.731 30.4012 579.071 30.6945C578.924 30.7678 578.704 30.7862 578.411 30.7495C578.154 30.6762 577.861 30.5845 577.531 30.4745C577.237 30.3278 576.944 30.1628 576.651 29.9795C576.357 29.7962 576.119 29.6128 575.936 29.4295C575.129 28.5128 574.322 27.5962 573.516 26.6795C572.746 25.7628 571.939 24.8462 571.096 23.9295L565.101 30.0345C564.477 30.5478 563.909 30.7678 563.396 30.6945C562.882 30.5845 562.626 30.3095 562.626 29.8695C562.626 29.1728 562.736 28.5312 562.956 27.9445C563.212 27.3212 563.542 26.7345 563.946 26.1845C564.679 25.3045 565.431 24.4428 566.201 23.5995C566.971 22.7562 567.741 21.9128 568.511 21.0695C567.557 20.0795 566.586 19.1078 565.596 18.1545C564.642 17.1645 563.652 16.1928 562.626 15.2395C562.186 15.2395 561.892 15.1662 561.746 15.0195C561.599 14.8728 561.507 14.7078 561.471 14.5245C561.471 14.3045 561.507 14.1028 561.581 13.9195C561.654 13.7362 561.727 13.6078 561.801 13.5345C562.461 12.8745 563.121 12.5628 563.781 12.5995C564.441 12.5995 565.101 12.8012 565.761 13.2045C567.704 14.7445 569.519 16.4128 571.206 18.2095C572.672 16.6695 574.176 15.1662 575.716 13.6995C576.192 13.4062 576.706 13.2228 577.256 13.1495C577.806 13.0762 578.411 13.2045 579.071 13.5345C579.401 13.9378 579.492 14.4145 579.346 14.9645C579.236 15.4778 578.942 15.9912 578.466 16.5045L573.901 21.1245C574.744 22.0778 575.569 23.0495 576.376 24.0395C577.182 25.0295 577.952 26.0012 578.686 26.9545ZM592.867 38.1195C592.83 38.5228 592.647 38.8895 592.317 39.2195C591.987 39.5862 591.62 39.7512 591.217 39.7145C590.593 39.6778 590.117 39.4395 589.787 38.9995C589.457 38.5595 589.292 38.1928 589.292 37.8995C589.292 36.5062 589.255 35.0578 589.182 33.5545C589.108 32.0145 589.017 30.4378 588.907 28.8245C588.43 28.8978 587.99 28.8612 587.587 28.7145C587.22 28.5312 586.963 28.2562 586.817 27.8895C586.56 27.2662 586.597 26.7162 586.927 26.2395C587.257 25.7628 587.788 25.3045 588.522 24.8645C588.338 23.5078 588.155 22.1695 587.972 20.8495C587.825 19.5295 587.66 18.2462 587.477 16.9995C587.44 16.7795 587.458 16.5778 587.532 16.3945C587.605 16.2112 587.697 16.0462 587.807 15.8995C587.917 15.7162 588.118 15.5512 588.412 15.4045C588.888 15.2212 589.42 15.3678 590.007 15.8445C590.63 16.3212 591.052 16.9262 591.272 17.6595C591.382 18.3562 591.492 19.1628 591.602 20.0795C591.748 20.9595 591.877 21.9312 591.987 22.9945C592.757 22.5178 593.472 22.0045 594.132 21.4545C594.828 20.9045 595.415 20.3178 595.892 19.6945C596.405 19.0712 596.79 18.4295 597.047 17.7695C597.303 17.0728 597.377 16.3578 597.267 15.6245C597.193 15.0012 596.918 14.4512 596.442 13.9745C595.965 13.4612 595.213 13.1862 594.187 13.1495C593.27 13.1128 592.353 13.1862 591.437 13.3695C590.557 13.5528 589.677 13.7912 588.797 14.0845C587.953 14.3778 587.11 14.7262 586.267 15.1295C585.46 15.5328 584.672 15.9362 583.902 16.3395C583.388 16.6328 582.875 16.7612 582.362 16.7245C581.885 16.6512 581.573 16.4678 581.427 16.1745C581.097 15.4412 581.115 14.7812 581.482 14.1945C581.885 13.6078 582.49 13.0578 583.297 12.5445C583.993 12.1412 584.818 11.7378 585.772 11.3345C586.762 10.8945 587.788 10.5278 588.852 10.2345C589.952 9.90451 591.052 9.68451 592.152 9.57451C593.288 9.42784 594.37 9.44618 595.397 9.62951C596.423 9.77618 597.34 10.1245 598.147 10.6745C598.99 11.1878 599.668 11.9578 600.182 12.9845C600.805 14.6712 600.97 16.2295 600.677 17.6595C600.42 19.0528 599.87 20.3362 599.027 21.5095C598.22 22.6462 597.212 23.6912 596.002 24.6445C594.828 25.5612 593.637 26.3862 592.427 27.1195C592.61 29.0995 592.738 31.0612 592.812 33.0045C592.885 34.9478 592.903 36.6528 592.867 38.1195ZM617.828 19.1995C616.398 20.0428 614.858 20.7028 613.208 21.1795C611.558 21.6195 609.779 21.8395 607.873 21.8395C607.946 23.1228 608.313 24.1495 608.973 24.9195C609.633 25.6528 610.458 26.0928 611.448 26.2395C612.034 26.3128 612.621 26.2945 613.208 26.1845C613.831 26.0745 614.399 25.9095 614.913 25.6895C615.463 25.4328 615.958 25.1578 616.398 24.8645C616.838 24.5712 617.223 24.2778 617.553 23.9845C617.883 23.6912 618.231 23.5078 618.598 23.4345C618.964 23.3245 619.239 23.3062 619.423 23.3795C619.936 23.5628 620.119 24.1128 619.973 25.0295C619.386 26.2028 618.543 27.2112 617.443 28.0545C616.343 28.8612 615.114 29.3745 613.758 29.5945C612.584 29.8145 611.374 29.7595 610.128 29.4295C608.881 29.0995 607.763 28.4578 606.773 27.5045C605.929 26.6612 605.288 25.6712 604.848 24.5345C604.408 23.3978 604.133 22.2245 604.023 21.0145C603.913 19.8778 604.004 18.7962 604.298 17.7695C604.628 16.7428 605.123 15.8445 605.783 15.0745C606.443 14.2678 607.268 13.6078 608.258 13.0945C609.248 12.5812 610.403 12.2878 611.723 12.2145C613.299 12.1045 614.729 12.3978 616.013 13.0945C617.296 13.7912 618.194 14.7628 618.708 16.0095C619.001 16.7062 619.074 17.3112 618.928 17.8245C618.818 18.3378 618.451 18.7962 617.828 19.1995ZM611.503 15.4595C611.136 15.5328 610.733 15.6612 610.293 15.8445C609.889 16.0278 609.504 16.2662 609.138 16.5595C608.808 16.8162 608.496 17.1278 608.203 17.4945C607.946 17.8245 607.799 18.2095 607.763 18.6495C608.386 18.6495 609.064 18.5945 609.798 18.4845C610.568 18.3745 611.301 18.2462 611.998 18.0995C612.731 17.9162 613.391 17.7145 613.978 17.4945C614.601 17.2745 615.114 17.0362 615.518 16.7795C615.224 16.0828 614.674 15.6612 613.868 15.5145C613.098 15.3312 612.309 15.3128 611.503 15.4595ZM640.245 13.1495C639.585 13.5162 638.888 13.9012 638.155 14.3045C637.458 14.7078 636.743 15.1845 636.01 15.7345C635.313 16.2478 634.635 16.8712 633.975 17.6045C633.352 18.3012 632.783 19.1445 632.27 20.1345C631.537 21.5278 631.042 22.9578 630.785 24.4245C630.528 25.8545 630.363 27.2662 630.29 28.6595C630.29 29.3195 630.125 29.9978 629.795 30.6945C629.502 31.3545 629.08 31.6845 628.53 31.6845C627.833 31.6845 627.265 31.3362 626.825 30.6395C626.422 29.9062 626.147 29.2095 626 28.5495C625.377 25.9462 624.863 23.3795 624.46 20.8495C624.057 18.2828 623.708 15.7345 623.415 13.2045C623.415 12.6912 623.562 12.3612 623.855 12.2145C624.185 12.0678 624.552 12.0128 624.955 12.0495C625.395 12.0862 625.817 12.1962 626.22 12.3795C626.623 12.5628 626.862 12.8562 626.935 13.2595C627.082 14.6162 627.265 16.0462 627.485 17.5495C627.705 19.0162 627.925 20.2812 628.145 21.3445C628.292 20.0978 628.695 18.8878 629.355 17.7145C630.015 16.5412 630.822 15.4778 631.775 14.5245C632.765 13.5712 633.865 12.7645 635.075 12.1045C636.322 11.4445 637.587 11.0045 638.87 10.7845C639.42 10.7112 639.878 10.7112 640.245 10.7845C640.612 10.8578 640.868 10.9862 641.015 11.1695C641.162 11.3528 641.18 11.6462 641.07 12.0495C640.997 12.4528 640.722 12.8195 640.245 13.1495ZM656.051 17.3845C656.747 17.3478 657.444 17.5128 658.141 17.8795C658.837 18.2462 659.186 18.8145 659.186 19.5845C659.112 20.2078 658.764 20.6112 658.141 20.7945C657.554 20.9412 657.077 21.0145 656.711 21.0145C655.977 21.0145 655.189 21.0328 654.346 21.0695C653.502 21.1062 652.641 21.1612 651.761 21.2345C651.687 22.4445 651.614 23.5812 651.541 24.6445C651.504 25.7078 651.467 26.6612 651.431 27.5045C651.394 28.3112 651.376 28.9712 651.376 29.4845C651.376 29.9978 651.394 30.2728 651.431 30.3095C652.237 30.1628 653.099 29.9245 654.016 29.5945C654.969 29.2278 655.904 28.8428 656.821 28.4395C657.774 27.9995 658.691 27.5595 659.571 27.1195C660.487 26.6428 661.349 26.2028 662.156 25.7995C662.522 25.6162 662.852 25.5612 663.146 25.6345C663.476 25.7078 663.677 25.8728 663.751 26.1295C663.824 26.5328 663.769 27.0278 663.586 27.6145C663.402 28.2012 663.072 28.7328 662.596 29.2095C662.046 29.6495 661.312 30.1628 660.396 30.7495C659.516 31.2995 658.562 31.8312 657.536 32.3445C656.509 32.8578 655.464 33.3162 654.401 33.7195C653.374 34.0862 652.457 34.3062 651.651 34.3795C650.441 34.4895 649.524 34.1595 648.901 33.3895C648.277 32.6195 647.929 31.6478 647.856 30.4745C647.782 29.3012 647.764 27.9445 647.801 26.4045C647.874 24.8645 647.947 23.2328 648.021 21.5095C647.324 21.5828 646.646 21.6562 645.986 21.7295C645.362 21.7662 644.757 21.8212 644.171 21.8945C643.694 21.8945 643.162 21.7845 642.576 21.5645C642.026 21.3445 641.751 20.9228 641.751 20.2995C641.751 20.0795 641.842 19.7862 642.026 19.4195C642.209 19.0528 642.612 18.7778 643.236 18.5945C644.739 18.3378 646.407 18.1178 648.241 17.9345C648.351 16.2112 648.479 14.5428 648.626 12.9295C648.772 11.3162 648.901 9.84951 649.011 8.52951C649.047 8.08951 649.176 7.70451 649.396 7.37451C649.616 7.04451 649.854 6.87951 650.111 6.87951C650.734 6.84284 651.321 7.00784 651.871 7.37451C652.457 7.70451 652.751 8.08951 652.751 8.52951C652.604 9.77618 652.457 11.1878 652.311 12.7645C652.201 14.3412 652.091 15.9545 651.981 17.6045C652.714 17.5312 653.411 17.4945 654.071 17.4945C654.767 17.4578 655.427 17.4212 656.051 17.3845ZM690.672 9.68451C690.598 10.0512 690.342 10.2528 689.902 10.2895C689.462 10.3262 689.095 10.3445 688.802 10.3445C687.885 10.3812 686.932 10.4728 685.942 10.6195C684.988 10.7662 683.98 10.9862 682.917 11.2795C682.477 11.4262 682 11.3712 681.487 11.1145C680.973 10.8578 680.662 10.3445 680.552 9.57451C680.552 9.28118 680.662 9.04284 680.882 8.85951C681.102 8.67618 681.358 8.51118 681.652 8.36451C682.128 8.14451 682.697 7.96118 683.357 7.81451C684.017 7.63118 684.677 7.50284 685.337 7.42951C686.033 7.35618 686.693 7.33784 687.317 7.37451C687.94 7.37451 688.453 7.42951 688.857 7.53951C689.443 7.72284 689.902 7.99784 690.232 8.36451C690.598 8.73118 690.745 9.17118 690.672 9.68451ZM689.407 27.9995C689.663 28.5862 689.792 29.2278 689.792 29.9245C689.828 30.5845 689.645 31.0428 689.242 31.2995C688.728 31.6295 688.178 31.6112 687.592 31.2445C687.005 30.8778 686.565 30.3828 686.272 29.7595C685.868 28.9895 685.557 28.0545 685.337 26.9545C685.117 25.8178 684.952 24.6995 684.842 23.5995C684.732 22.4995 684.658 21.4728 684.622 20.5195C684.622 19.5662 684.622 18.8512 684.622 18.3745C684.658 17.8612 684.805 17.3845 685.062 16.9445C685.318 16.5045 685.648 16.2478 686.052 16.1745C686.712 16.2112 687.243 16.5228 687.647 17.1095C688.05 17.6595 688.233 18.3562 688.197 19.1995C688.197 19.8595 688.215 20.5928 688.252 21.3995C688.288 22.2062 688.362 23.0128 688.472 23.8195C688.582 24.6262 688.71 25.4145 688.857 26.1845C689.003 26.9178 689.187 27.5228 689.407 27.9995ZM698.272 13.9745C698.382 14.5245 698.492 15.1478 698.602 15.8445C698.749 16.5045 698.895 17.2012 699.042 17.9345C699.189 18.6312 699.317 19.3462 699.427 20.0795C699.537 20.8128 699.629 21.5095 699.702 22.1695C700.142 21.2162 700.619 20.2078 701.132 19.1445C701.645 18.0812 702.195 17.1095 702.782 16.2295C703.405 15.3128 704.047 14.5612 704.707 13.9745C705.404 13.3878 706.155 13.0945 706.962 13.0945C708.172 13.0945 709.18 13.5345 709.987 14.4145C710.83 15.2945 711.527 16.3945 712.077 17.7145C712.664 18.9978 713.122 20.3545 713.452 21.7845C713.782 23.2145 714.057 24.4795 714.277 25.5795C714.497 26.5695 714.057 27.3028 712.957 27.7795C712.444 28.0362 712.059 28.0728 711.802 27.8895C711.545 27.7062 711.399 27.5228 711.362 27.3395C711.179 26.8995 710.94 26.1295 710.647 25.0295C710.39 23.9295 710.079 22.8112 709.712 21.6745C709.382 20.5378 708.997 19.5478 708.557 18.7045C708.117 17.8612 707.622 17.4762 707.072 17.5495C706.412 17.5862 705.825 18.0812 705.312 19.0345C704.872 19.8045 704.414 20.6662 703.937 21.6195C703.497 22.5362 703.057 23.4895 702.617 24.4795C702.177 25.4328 701.737 26.4045 701.297 27.3945C700.894 28.3478 700.509 29.2278 700.142 30.0345C699.885 30.2912 699.555 30.4745 699.152 30.5845C698.785 30.6578 698.4 30.6212 697.997 30.4745C697.63 30.3645 697.337 30.1812 697.117 29.9245C696.897 29.6678 696.787 29.4112 696.787 29.1545C696.457 26.2945 696.109 23.6912 695.742 21.3445C695.412 18.9978 694.972 16.5962 694.422 14.1395C694.165 13.2962 694.11 12.6362 694.257 12.1595C694.44 11.6462 694.99 11.4445 695.907 11.5545C697.19 11.7745 697.979 12.5812 698.272 13.9745ZM746.128 12.9295C747.228 13.3328 748.144 13.9378 748.878 14.7445C749.648 15.5512 750.234 16.4678 750.638 17.4945C751.041 18.4845 751.261 19.5112 751.298 20.5745C751.371 21.6378 751.261 22.6278 750.968 23.5445C750.564 24.5712 750.051 25.5795 749.428 26.5695C748.804 27.5595 748.089 28.4395 747.283 29.2095C746.476 29.9795 745.559 30.6028 744.533 31.0795C743.506 31.5562 742.369 31.7945 741.123 31.7945C739.619 31.7945 738.354 31.4462 737.328 30.7495C736.301 30.0528 735.494 29.1545 734.908 28.0545C734.321 26.9545 733.936 25.7078 733.753 24.3145C733.606 22.9212 733.643 21.5278 733.863 20.1345C734.009 19.1078 734.248 18.1178 734.578 17.1645C734.944 16.1745 735.403 15.3128 735.953 14.5795C736.503 13.8095 737.126 13.1862 737.823 12.7095C738.556 12.2328 739.381 11.9945 740.298 11.9945C740.811 11.9945 741.453 12.1045 742.223 12.3245C742.993 12.5078 743.708 12.7828 744.368 13.1495C744.844 12.7095 745.431 12.6362 746.128 12.9295ZM744.038 16.9445C743.634 16.6878 743.158 16.3578 742.608 15.9545C742.094 15.5145 741.636 15.2945 741.233 15.2945C740.793 15.2945 740.353 15.4962 739.913 15.8995C739.509 16.3028 739.143 16.7795 738.813 17.3295C738.519 17.8428 738.263 18.3745 738.043 18.9245C737.823 19.4745 737.676 19.9145 737.603 20.2445C737.493 20.7945 737.419 21.4545 737.383 22.2245C737.346 22.9945 737.401 23.7645 737.548 24.5345C737.694 25.2678 737.969 25.9462 738.373 26.5695C738.813 27.1562 739.454 27.5778 740.298 27.8345C740.811 27.9812 741.416 27.9812 742.113 27.8345C742.809 27.6512 743.488 27.3395 744.148 26.8995C744.844 26.4595 745.486 25.8728 746.073 25.1395C746.696 24.4062 747.173 23.5628 747.503 22.6095C747.869 21.5462 747.869 20.4462 747.503 19.3095C747.173 18.1362 746.476 17.2928 745.413 16.7795C745.156 16.9628 744.899 17.0545 744.643 17.0545C744.386 17.0545 744.184 17.0178 744.038 16.9445ZM759.234 13.9745C759.344 14.5245 759.454 15.1478 759.564 15.8445C759.711 16.5045 759.857 17.2012 760.004 17.9345C760.151 18.6312 760.279 19.3462 760.389 20.0795C760.499 20.8128 760.591 21.5095 760.664 22.1695C761.104 21.2162 761.581 20.2078 762.094 19.1445C762.607 18.0812 763.157 17.1095 763.744 16.2295C764.367 15.3128 765.009 14.5612 765.669 13.9745C766.366 13.3878 767.117 13.0945 767.924 13.0945C769.134 13.0945 770.142 13.5345 770.949 14.4145C771.792 15.2945 772.489 16.3945 773.039 17.7145C773.626 18.9978 774.084 20.3545 774.414 21.7845C774.744 23.2145 775.019 24.4795 775.239 25.5795C775.459 26.5695 775.019 27.3028 773.919 27.7795C773.406 28.0362 773.021 28.0728 772.764 27.8895C772.507 27.7062 772.361 27.5228 772.324 27.3395C772.141 26.8995 771.902 26.1295 771.609 25.0295C771.352 23.9295 771.041 22.8112 770.674 21.6745C770.344 20.5378 769.959 19.5478 769.519 18.7045C769.079 17.8612 768.584 17.4762 768.034 17.5495C767.374 17.5862 766.787 18.0812 766.274 19.0345C765.834 19.8045 765.376 20.6662 764.899 21.6195C764.459 22.5362 764.019 23.4895 763.579 24.4795C763.139 25.4328 762.699 26.4045 762.259 27.3945C761.856 28.3478 761.471 29.2278 761.104 30.0345C760.847 30.2912 760.517 30.4745 760.114 30.5845C759.747 30.6578 759.362 30.6212 758.959 30.4745C758.592 30.3645 758.299 30.1812 758.079 29.9245C757.859 29.6678 757.749 29.4112 757.749 29.1545C757.419 26.2945 757.071 23.6912 756.704 21.3445C756.374 18.9978 755.934 16.5962 755.384 14.1395C755.127 13.2962 755.072 12.6362 755.219 12.1595C755.402 11.6462 755.952 11.4445 756.869 11.5545C758.152 11.7745 758.941 12.5812 759.234 13.9745ZM783.645 6.38451C783.828 10.3812 784.14 14.5245 784.58 18.8145C785.02 23.0678 785.496 27.1378 786.01 31.0245C786.12 32.6378 785.68 33.4628 784.69 33.4995C784.47 33.4995 784.25 33.4262 784.03 33.2795C783.81 33.0962 783.608 32.8762 783.425 32.6195C783.241 32.3628 783.058 32.0878 782.875 31.7945C782.728 31.5012 782.636 31.2445 782.6 31.0245C782.306 29.1545 782.031 27.1745 781.775 25.0845C781.518 22.9945 781.28 20.9045 781.06 18.8145C780.876 16.6878 780.711 14.6162 780.565 12.5995C780.418 10.5828 780.326 8.73118 780.29 7.04451C780.363 6.16451 780.491 5.43118 780.675 4.84451C780.858 4.22118 781.243 3.92784 781.83 3.96451C782.453 4.00118 782.893 4.25784 783.15 4.73451C783.443 5.17451 783.608 5.72451 783.645 6.38451ZM799.759 9.68451C799.685 10.0512 799.429 10.2528 798.989 10.2895C798.549 10.3262 798.182 10.3445 797.889 10.3445C796.972 10.3812 796.019 10.4728 795.029 10.6195C794.075 10.7662 793.067 10.9862 792.004 11.2795C791.564 11.4262 791.087 11.3712 790.574 11.1145C790.06 10.8578 789.749 10.3445 789.639 9.57451C789.639 9.28118 789.749 9.04284 789.969 8.85951C790.189 8.67618 790.445 8.51118 790.739 8.36451C791.215 8.14451 791.784 7.96118 792.444 7.81451C793.104 7.63118 793.764 7.50284 794.424 7.42951C795.12 7.35618 795.78 7.33784 796.404 7.37451C797.027 7.37451 797.54 7.42951 797.944 7.53951C798.53 7.72284 798.989 7.99784 799.319 8.36451C799.685 8.73118 799.832 9.17118 799.759 9.68451ZM798.494 27.9995C798.75 28.5862 798.879 29.2278 798.879 29.9245C798.915 30.5845 798.732 31.0428 798.329 31.2995C797.815 31.6295 797.265 31.6112 796.679 31.2445C796.092 30.8778 795.652 30.3828 795.359 29.7595C794.955 28.9895 794.644 28.0545 794.424 26.9545C794.204 25.8178 794.039 24.6995 793.929 23.5995C793.819 22.4995 793.745 21.4728 793.709 20.5195C793.709 19.5662 793.709 18.8512 793.709 18.3745C793.745 17.8612 793.892 17.3845 794.149 16.9445C794.405 16.5045 794.735 16.2478 795.139 16.1745C795.799 16.2112 796.33 16.5228 796.734 17.1095C797.137 17.6595 797.32 18.3562 797.284 19.1995C797.284 19.8595 797.302 20.5928 797.339 21.3995C797.375 22.2062 797.449 23.0128 797.559 23.8195C797.669 24.6262 797.797 25.4145 797.944 26.1845C798.09 26.9178 798.274 27.5228 798.494 27.9995ZM807.359 13.9745C807.469 14.5245 807.579 15.1478 807.689 15.8445C807.836 16.5045 807.982 17.2012 808.129 17.9345C808.276 18.6312 808.404 19.3462 808.514 20.0795C808.624 20.8128 808.716 21.5095 808.789 22.1695C809.229 21.2162 809.706 20.2078 810.219 19.1445C810.732 18.0812 811.282 17.1095 811.869 16.2295C812.492 15.3128 813.134 14.5612 813.794 13.9745C814.491 13.3878 815.242 13.0945 816.049 13.0945C817.259 13.0945 818.267 13.5345 819.074 14.4145C819.917 15.2945 820.614 16.3945 821.164 17.7145C821.751 18.9978 822.209 20.3545 822.539 21.7845C822.869 23.2145 823.144 24.4795 823.364 25.5795C823.584 26.5695 823.144 27.3028 822.044 27.7795C821.531 28.0362 821.146 28.0728 820.889 27.8895C820.632 27.7062 820.486 27.5228 820.449 27.3395C820.266 26.8995 820.027 26.1295 819.734 25.0295C819.477 23.9295 819.166 22.8112 818.799 21.6745C818.469 20.5378 818.084 19.5478 817.644 18.7045C817.204 17.8612 816.709 17.4762 816.159 17.5495C815.499 17.5862 814.912 18.0812 814.399 19.0345C813.959 19.8045 813.501 20.6662 813.024 21.6195C812.584 22.5362 812.144 23.4895 811.704 24.4795C811.264 25.4328 810.824 26.4045 810.384 27.3945C809.981 28.3478 809.596 29.2278 809.229 30.0345C808.972 30.2912 808.642 30.4745 808.239 30.5845C807.872 30.6578 807.487 30.6212 807.084 30.4745C806.717 30.3645 806.424 30.1812 806.204 29.9245C805.984 29.6678 805.874 29.4112 805.874 29.1545C805.544 26.2945 805.196 23.6912 804.829 21.3445C804.499 18.9978 804.059 16.5962 803.509 14.1395C803.252 13.2962 803.197 12.6362 803.344 12.1595C803.527 11.6462 804.077 11.4445 804.994 11.5545C806.277 11.7745 807.066 12.5812 807.359 13.9745ZM840.46 19.1995C839.03 20.0428 837.49 20.7028 835.84 21.1795C834.19 21.6195 832.411 21.8395 830.505 21.8395C830.578 23.1228 830.945 24.1495 831.605 24.9195C832.265 25.6528 833.09 26.0928 834.08 26.2395C834.666 26.3128 835.253 26.2945 835.84 26.1845C836.463 26.0745 837.031 25.9095 837.545 25.6895C838.095 25.4328 838.59 25.1578 839.03 24.8645C839.47 24.5712 839.855 24.2778 840.185 23.9845C840.515 23.6912 840.863 23.5078 841.23 23.4345C841.596 23.3245 841.871 23.3062 842.055 23.3795C842.568 23.5628 842.751 24.1128 842.605 25.0295C842.018 26.2028 841.175 27.2112 840.075 28.0545C838.975 28.8612 837.746 29.3745 836.39 29.5945C835.216 29.8145 834.006 29.7595 832.76 29.4295C831.513 29.0995 830.395 28.4578 829.405 27.5045C828.561 26.6612 827.92 25.6712 827.48 24.5345C827.04 23.3978 826.765 22.2245 826.655 21.0145C826.545 19.8778 826.636 18.7962 826.93 17.7695C827.26 16.7428 827.755 15.8445 828.415 15.0745C829.075 14.2678 829.9 13.6078 830.89 13.0945C831.88 12.5812 833.035 12.2878 834.355 12.2145C835.931 12.1045 837.361 12.3978 838.645 13.0945C839.928 13.7912 840.826 14.7628 841.34 16.0095C841.633 16.7062 841.706 17.3112 841.56 17.8245C841.45 18.3378 841.083 18.7962 840.46 19.1995ZM834.135 15.4595C833.768 15.5328 833.365 15.6612 832.925 15.8445C832.521 16.0278 832.136 16.2662 831.77 16.5595C831.44 16.8162 831.128 17.1278 830.835 17.4945C830.578 17.8245 830.431 18.2095 830.395 18.6495C831.018 18.6495 831.696 18.5945 832.43 18.4845C833.2 18.3745 833.933 18.2462 834.63 18.0995C835.363 17.9162 836.023 17.7145 836.61 17.4945C837.233 17.2745 837.746 17.0362 838.15 16.7795C837.856 16.0828 837.306 15.6612 836.5 15.5145C835.73 15.3312 834.941 15.3128 834.135 15.4595ZM872.132 15.6795C872.058 15.2762 871.985 14.8912 871.912 14.5245C871.838 14.1578 871.655 13.9195 871.362 13.8095C870.738 13.6262 870.078 13.6078 869.382 13.7545C868.685 13.9012 868.043 14.1395 867.457 14.4695C866.87 14.7628 866.375 15.1112 865.972 15.5145C865.568 15.8812 865.348 16.2112 865.312 16.5045C865.202 17.0545 865.348 17.5862 865.752 18.0995C866.155 18.6128 866.742 19.1262 867.512 19.6395C868.795 20.4095 870.133 21.1978 871.527 22.0045C872.92 22.8112 874.093 23.6362 875.047 24.4795C876 25.3228 876.642 26.2578 876.972 27.2845C877.338 28.2745 877.265 29.4112 876.752 30.6945C876.348 31.6845 875.597 32.4912 874.497 33.1145C873.397 33.7378 872.187 34.2328 870.867 34.5995C869.547 34.9295 868.227 35.1678 866.907 35.3145C865.587 35.4245 864.468 35.4795 863.552 35.4795C863.332 35.4795 863.057 35.4062 862.727 35.2595C862.433 35.0762 862.14 34.8745 861.847 34.6545C861.59 34.4345 861.352 34.2145 861.132 33.9945C860.948 33.7378 860.857 33.5178 860.857 33.3345C860.857 32.6745 861.15 32.2162 861.737 31.9595C862.323 31.7028 862.928 31.5745 863.552 31.5745C864.432 31.5745 865.367 31.5378 866.357 31.4645C867.383 31.3545 868.355 31.2078 869.272 31.0245C870.188 30.8045 871.013 30.5295 871.747 30.1995C872.48 29.8695 872.993 29.4478 873.287 28.9345C873.543 28.4945 873.378 27.9812 872.792 27.3945C872.242 26.7712 871.49 26.1295 870.537 25.4695C869.62 24.8095 868.612 24.1678 867.512 23.5445C866.448 22.9212 865.532 22.3528 864.762 21.8395C863.992 21.3262 863.332 20.7212 862.782 20.0245C862.232 19.2912 861.883 18.3928 861.737 17.3295C861.7 16.3762 861.902 15.4595 862.342 14.5795C862.782 13.6995 863.35 12.9295 864.047 12.2695C864.78 11.5728 865.605 11.0228 866.522 10.6195C867.438 10.2162 868.355 10.0145 869.272 10.0145C870.848 10.0878 872.15 10.5278 873.177 11.3345C874.203 12.1045 874.808 13.2595 874.992 14.7995C874.992 15.3128 874.9 15.7345 874.717 16.0645C874.57 16.3945 874.295 16.5962 873.892 16.6695C873.378 16.7428 872.957 16.6878 872.627 16.5045C872.333 16.2845 872.168 16.0095 872.132 15.6795ZM894.234 11.7745C894.381 12.8012 894.491 13.9012 894.564 15.0745C894.674 16.2112 894.748 17.3662 894.784 18.5395C894.858 19.7128 894.894 20.8495 894.894 21.9495C894.894 23.0495 894.876 24.0395 894.839 24.9195C896.013 25.7262 896.709 26.4412 896.929 27.0645C897.186 27.6878 897.223 28.2378 897.039 28.7145C896.819 29.3745 896.416 29.7228 895.829 29.7595C895.279 29.7595 894.638 29.5578 893.904 29.1545C893.391 29.5212 892.804 29.9245 892.144 30.3645C891.484 30.7678 890.788 31.1712 890.054 31.5745C889.321 31.9412 888.588 32.2712 887.854 32.5645C887.121 32.8578 886.443 33.0595 885.819 33.1695C884.646 33.3528 883.583 33.1328 882.629 32.5095C881.713 31.8862 881.089 30.9512 880.759 29.7045C880.539 28.8612 880.484 27.9995 880.594 27.1195C880.704 26.2028 880.979 25.3412 881.419 24.5345C881.859 23.6912 882.446 22.9395 883.179 22.2795C883.949 21.6195 884.848 21.1062 885.874 20.7395C886.131 20.6295 886.479 20.5378 886.919 20.4645C887.396 20.3912 887.873 20.3728 888.349 20.4095C888.863 20.4095 889.376 20.5012 889.889 20.6845C890.403 20.8678 890.879 21.1795 891.319 21.6195C891.319 20.9962 891.301 20.3178 891.264 19.5845C891.264 18.8145 891.246 18.0445 891.209 17.2745C891.173 16.5045 891.118 15.7895 891.044 15.1295C891.008 14.4328 890.953 13.8462 890.879 13.3695C890.806 12.8195 890.586 12.4895 890.219 12.3795C889.889 12.2328 889.468 12.2512 888.954 12.4345C888.074 12.7278 887.048 13.2962 885.874 14.1395C884.701 14.9828 883.583 15.8812 882.519 16.8345C882.189 17.1645 881.804 17.3112 881.364 17.2745C880.961 17.2378 880.613 17.0728 880.319 16.7795C880.026 16.4862 879.861 16.1562 879.824 15.7895C879.788 15.3862 879.934 14.9645 880.264 14.5245C880.888 13.8645 881.584 13.1862 882.354 12.4895C883.124 11.7928 883.931 11.1695 884.774 10.6195C885.618 10.0328 886.479 9.55618 887.359 9.18951C888.239 8.82284 889.119 8.62118 889.999 8.58451C891.283 8.54784 892.273 8.84118 892.969 9.46451C893.666 10.0512 894.088 10.8212 894.234 11.7745ZM887.854 23.5995C887.378 23.7095 886.864 23.9478 886.314 24.3145C885.801 24.6445 885.324 25.0662 884.884 25.5795C884.481 26.0562 884.169 26.6062 883.949 27.2295C883.766 27.8162 883.766 28.4028 883.949 28.9895C884.023 29.2095 884.169 29.3745 884.389 29.4845C884.646 29.5945 884.921 29.6128 885.214 29.5395C886.094 29.3562 887.084 29.0078 888.184 28.4945C889.321 27.9445 890.219 27.3578 890.879 26.7345C890.879 26.5145 890.769 26.2395 890.549 25.9095C890.329 25.5428 890.073 25.1945 889.779 24.8645C889.486 24.4978 889.156 24.1862 888.789 23.9295C888.459 23.6728 888.148 23.5628 887.854 23.5995ZM904.87 6.38451C905.053 10.3812 905.365 14.5245 905.805 18.8145C906.245 23.0678 906.722 27.1378 907.235 31.0245C907.345 32.6378 906.905 33.4628 905.915 33.4995C905.695 33.4995 905.475 33.4262 905.255 33.2795C905.035 33.0962 904.833 32.8762 904.65 32.6195C904.467 32.3628 904.283 32.0878 904.1 31.7945C903.953 31.5012 903.862 31.2445 903.825 31.0245C903.532 29.1545 903.257 27.1745 903 25.0845C902.743 22.9945 902.505 20.9045 902.285 18.8145C902.102 16.6878 901.937 14.6162 901.79 12.5995C901.643 10.5828 901.552 8.73118 901.515 7.04451C901.588 6.16451 901.717 5.43118 901.9 4.84451C902.083 4.22118 902.468 3.92784 903.055 3.96451C903.678 4.00118 904.118 4.25784 904.375 4.73451C904.668 5.17451 904.833 5.72451 904.87 6.38451ZM925.054 19.1995C923.624 20.0428 922.084 20.7028 920.434 21.1795C918.784 21.6195 917.006 21.8395 915.099 21.8395C915.173 23.1228 915.539 24.1495 916.199 24.9195C916.859 25.6528 917.684 26.0928 918.674 26.2395C919.261 26.3128 919.848 26.2945 920.434 26.1845C921.058 26.0745 921.626 25.9095 922.139 25.6895C922.689 25.4328 923.184 25.1578 923.624 24.8645C924.064 24.5712 924.449 24.2778 924.779 23.9845C925.109 23.6912 925.458 23.5078 925.824 23.4345C926.191 23.3245 926.466 23.3062 926.649 23.3795C927.163 23.5628 927.346 24.1128 927.199 25.0295C926.613 26.2028 925.769 27.2112 924.669 28.0545C923.569 28.8612 922.341 29.3745 920.984 29.5945C919.811 29.8145 918.601 29.7595 917.354 29.4295C916.108 29.0995 914.989 28.4578 913.999 27.5045C913.156 26.6612 912.514 25.6712 912.074 24.5345C911.634 23.3978 911.359 22.2245 911.249 21.0145C911.139 19.8778 911.231 18.7962 911.524 17.7695C911.854 16.7428 912.349 15.8445 913.009 15.0745C913.669 14.2678 914.494 13.6078 915.484 13.0945C916.474 12.5812 917.629 12.2878 918.949 12.2145C920.526 12.1045 921.956 12.3978 923.239 13.0945C924.523 13.7912 925.421 14.7628 925.934 16.0095C926.228 16.7062 926.301 17.3112 926.154 17.8245C926.044 18.3378 925.678 18.7962 925.054 19.1995ZM918.729 15.4595C918.363 15.5328 917.959 15.6612 917.519 15.8445C917.116 16.0278 916.731 16.2662 916.364 16.5595C916.034 16.8162 915.723 17.1278 915.429 17.4945C915.173 17.8245 915.026 18.2095 914.989 18.6495C915.613 18.6495 916.291 18.5945 917.024 18.4845C917.794 18.3745 918.528 18.2462 919.224 18.0995C919.958 17.9162 920.618 17.7145 921.204 17.4945C921.828 17.2745 922.341 17.0362 922.744 16.7795C922.451 16.0828 921.901 15.6612 921.094 15.5145C920.324 15.3312 919.536 15.3128 918.729 15.4595ZM941.311 15.6795C941.238 15.2762 941.165 14.8912 941.091 14.5245C941.018 14.1578 940.835 13.9195 940.541 13.8095C939.918 13.6262 939.258 13.6078 938.561 13.7545C937.865 13.9012 937.223 14.1395 936.636 14.4695C936.05 14.7628 935.555 15.1112 935.151 15.5145C934.748 15.8812 934.528 16.2112 934.491 16.5045C934.381 17.0545 934.528 17.5862 934.931 18.0995C935.335 18.6128 935.921 19.1262 936.691 19.6395C937.975 20.4095 939.313 21.1978 940.706 22.0045C942.1 22.8112 943.273 23.6362 944.226 24.4795C945.18 25.3228 945.821 26.2578 946.151 27.2845C946.518 28.2745 946.445 29.4112 945.931 30.6945C945.528 31.6845 944.776 32.4912 943.676 33.1145C942.576 33.7378 941.366 34.2328 940.046 34.5995C938.726 34.9295 937.406 35.1678 936.086 35.3145C934.766 35.4245 933.648 35.4795 932.731 35.4795C932.511 35.4795 932.236 35.4062 931.906 35.2595C931.613 35.0762 931.32 34.8745 931.026 34.6545C930.77 34.4345 930.531 34.2145 930.311 33.9945C930.128 33.7378 930.036 33.5178 930.036 33.3345C930.036 32.6745 930.33 32.2162 930.916 31.9595C931.503 31.7028 932.108 31.5745 932.731 31.5745C933.611 31.5745 934.546 31.5378 935.536 31.4645C936.563 31.3545 937.535 31.2078 938.451 31.0245C939.368 30.8045 940.193 30.5295 940.926 30.1995C941.66 29.8695 942.173 29.4478 942.466 28.9345C942.723 28.4945 942.558 27.9812 941.971 27.3945C941.421 26.7712 940.67 26.1295 939.716 25.4695C938.8 24.8095 937.791 24.1678 936.691 23.5445C935.628 22.9212 934.711 22.3528 933.941 21.8395C933.171 21.3262 932.511 20.7212 931.961 20.0245C931.411 19.2912 931.063 18.3928 930.916 17.3295C930.88 16.3762 931.081 15.4595 931.521 14.5795C931.961 13.6995 932.53 12.9295 933.226 12.2695C933.96 11.5728 934.785 11.0228 935.701 10.6195C936.618 10.2162 937.535 10.0145 938.451 10.0145C940.028 10.0878 941.33 10.5278 942.356 11.3345C943.383 12.1045 943.988 13.2595 944.171 14.7995C944.171 15.3128 944.08 15.7345 943.896 16.0645C943.75 16.3945 943.475 16.5962 943.071 16.6695C942.558 16.7428 942.136 16.6878 941.806 16.5045C941.513 16.2845 941.348 16.0095 941.311 15.6795ZM958.354 3.30451C958.024 4.91784 957.676 6.51284 957.309 8.08951C956.979 9.66618 956.668 11.2428 956.374 12.8195C956.081 14.3962 955.861 15.9728 955.714 17.5495C955.568 19.1262 955.549 20.7028 955.659 22.2795C955.733 22.6828 955.659 23.0678 955.439 23.4345C955.256 23.8012 955.036 24.0395 954.779 24.1495C953.973 24.4428 953.386 24.2412 953.019 23.5445C952.579 21.6745 952.341 19.8228 952.304 17.9895C952.304 16.1562 952.433 14.3412 952.689 12.5445C952.983 10.7478 953.349 8.96951 953.789 7.20951C954.266 5.41284 954.743 3.63451 955.219 1.87451C955.403 1.14118 955.696 0.737843 956.099 0.66451C956.503 0.591176 956.888 0.627842 957.254 0.774509C957.804 0.957842 958.153 1.32451 958.299 1.87451C958.446 2.42451 958.464 2.90118 958.354 3.30451ZM956.154 32.8945C956.154 33.2978 956.099 33.8478 955.989 34.5445C955.916 35.2045 955.769 35.8278 955.549 36.4145C955.366 37.0012 955.091 37.4778 954.724 37.8445C954.394 38.2112 953.973 38.2845 953.459 38.0645C953.166 37.8812 952.873 37.5328 952.579 37.0195C952.286 36.5062 952.158 36.0295 952.194 35.5895C952.268 34.7095 952.451 33.8478 952.744 33.0045C953.038 32.1612 953.423 31.6478 953.899 31.4645C954.119 31.3912 954.358 31.3912 954.614 31.4645C954.908 31.5378 955.164 31.6662 955.384 31.8495C955.604 31.9962 955.788 32.1795 955.934 32.3995C956.081 32.5828 956.154 32.7478 956.154 32.8945Z" fill="#1B1B1B"/>
</svg>
