<svg className="start-page-text" viewBox="0 0 781 48" fill="none" xmlns="http://www.w3.org/2000/svg">
<path d="M11.8954 11.995C12.042 12.1783 12.1154 12.4166 12.1154 12.71C12.152 12.9666 12.1154 13.1866 12.0054 13.37C11.822 13.7733 11.5104 13.92 11.0704 13.81C10.3004 13.6266 9.49371 13.5533 8.65037 13.59C7.80704 13.6266 6.9637 13.9566 6.12037 14.58C5.27704 15.2033 4.61704 16.12 4.14037 17.33C3.6637 18.5033 3.42537 19.7316 3.42537 21.015C3.42537 22.2616 3.7187 23.3433 4.30537 24.26C4.9287 25.14 5.71704 25.7816 6.67037 26.185C7.25704 26.4416 7.91704 26.5883 8.65037 26.625C9.3837 26.6616 10.117 26.6433 10.8504 26.57C11.6204 26.46 12.372 26.3133 13.1054 26.13C13.8387 25.91 14.5354 25.6716 15.1954 25.415C15.4154 25.3416 15.617 25.36 15.8004 25.47C16.0204 25.58 16.167 25.7266 16.2404 25.91C16.4237 26.3866 16.332 26.8633 15.9654 27.34C15.5254 27.8166 14.9387 28.2383 14.2054 28.605C13.472 28.9716 12.6654 29.265 11.7854 29.485C10.9054 29.705 10.007 29.8333 9.09037 29.87C8.1737 29.87 7.31204 29.76 6.50537 29.54C5.3687 29.2466 4.39704 28.825 3.59037 28.275C2.82037 27.6883 2.1787 27.0283 1.66537 26.295C1.15204 25.525 0.767038 24.7183 0.510371 23.875C0.253705 22.995 0.107038 22.0966 0.0703711 21.18C-0.00296219 18.98 0.418705 17 1.33537 15.24C2.2887 13.48 3.6087 12.1783 5.29537 11.335C6.54204 10.7116 7.7887 10.4733 9.03537 10.62C10.3187 10.73 11.272 11.1883 11.8954 11.995ZM32.0666 12.93C33.1666 13.3333 34.0833 13.9383 34.8166 14.745C35.5866 15.5516 36.1733 16.4683 36.5766 17.495C36.98 18.485 37.2 19.5116 37.2366 20.575C37.31 21.6383 37.2 22.6283 36.9066 23.545C36.5033 24.5716 35.99 25.58 35.3666 26.57C34.7433 27.56 34.0283 28.44 33.2216 29.21C32.415 29.98 31.4983 30.6033 30.4716 31.08C29.445 31.5566 28.3083 31.795 27.0616 31.795C25.5583 31.795 24.2933 31.4466 23.2666 30.75C22.24 30.0533 21.4333 29.155 20.8466 28.055C20.26 26.955 19.875 25.7083 19.6916 24.315C19.545 22.9216 19.5816 21.5283 19.8016 20.135C19.9483 19.1083 20.1866 18.1183 20.5166 17.165C20.8833 16.175 21.3416 15.3133 21.8916 14.58C22.4416 13.81 23.065 13.1866 23.7616 12.71C24.495 12.2333 25.32 11.995 26.2366 11.995C26.75 11.995 27.3916 12.105 28.1616 12.325C28.9316 12.5083 29.6466 12.7833 30.3066 13.15C30.7833 12.71 31.37 12.6366 32.0666 12.93ZM29.9766 16.945C29.5733 16.6883 29.0966 16.3583 28.5466 15.955C28.0333 15.515 27.575 15.295 27.1716 15.295C26.7316 15.295 26.2916 15.4966 25.8516 15.9C25.4483 16.3033 25.0816 16.78 24.7516 17.33C24.4583 17.8433 24.2016 18.375 23.9816 18.925C23.7616 19.475 23.615 19.915 23.5416 20.245C23.4316 20.795 23.3583 21.455 23.3216 22.225C23.285 22.995 23.34 23.765 23.4866 24.535C23.6333 25.2683 23.9083 25.9466 24.3116 26.57C24.7516 27.1566 25.3933 27.5783 26.2366 27.835C26.75 27.9816 27.355 27.9816 28.0516 27.835C28.7483 27.6516 29.4266 27.34 30.0866 26.9C30.7833 26.46 31.425 25.8733 32.0116 25.14C32.635 24.4066 33.1116 23.5633 33.4416 22.61C33.8083 21.5466 33.8083 20.4466 33.4416 19.31C33.1116 18.1366 32.415 17.2933 31.3516 16.78C31.095 16.9633 30.8383 17.055 30.5816 17.055C30.325 17.055 30.1233 17.0183 29.9766 16.945ZM45.1729 13.975C45.2829 14.525 45.3929 15.1483 45.5029 15.845C45.6496 16.505 45.7963 17.2016 45.9429 17.935C46.0896 18.6316 46.2179 19.3466 46.3279 20.08C46.4379 20.8133 46.5296 21.51 46.6029 22.17C47.0429 21.2166 47.5196 20.2083 48.0329 19.145C48.5463 18.0816 49.0963 17.11 49.6829 16.23C50.3063 15.3133 50.9479 14.5616 51.608 13.975C52.3046 13.3883 53.0563 13.095 53.8629 13.095C55.0729 13.095 56.0813 13.535 56.888 14.415C57.7313 15.295 58.428 16.395 58.9779 17.715C59.5646 18.9983 60.0229 20.355 60.3529 21.785C60.683 23.215 60.958 24.48 61.178 25.58C61.398 26.57 60.9579 27.3033 59.8579 27.78C59.3446 28.0366 58.9596 28.0733 58.7029 27.89C58.4463 27.7066 58.2996 27.5233 58.263 27.34C58.0796 26.9 57.8413 26.13 57.5479 25.03C57.2913 23.93 56.9796 22.8116 56.613 21.675C56.283 20.5383 55.898 19.5483 55.458 18.705C55.0179 17.8616 54.5229 17.4766 53.973 17.55C53.3129 17.5866 52.7263 18.0816 52.2129 19.035C51.7729 19.805 51.3146 20.6666 50.8379 21.62C50.3979 22.5366 49.9579 23.49 49.518 24.48C49.0779 25.4333 48.6379 26.405 48.1979 27.395C47.7946 28.3483 47.4096 29.2283 47.0429 30.035C46.7863 30.2916 46.4563 30.475 46.0529 30.585C45.6863 30.6583 45.3013 30.6216 44.8979 30.475C44.5313 30.365 44.2379 30.1816 44.0179 29.925C43.7979 29.6683 43.6879 29.4116 43.6879 29.155C43.3579 26.295 43.0096 23.6916 42.6429 21.345C42.3129 18.9983 41.8729 16.5966 41.3229 14.14C41.0663 13.2966 41.0113 12.6366 41.1579 12.16C41.3413 11.6466 41.8913 11.445 42.8079 11.555C44.0913 11.775 44.8796 12.5816 45.1729 13.975ZM74.9735 16.945C75.2668 17.3483 75.5418 17.8616 75.7985 18.485C76.0918 19.0716 76.3118 19.6766 76.4585 20.3C76.6785 21.29 76.9168 22.3716 77.1735 23.545C77.4668 24.6816 77.7418 25.8733 77.9985 27.12C78.2918 28.3666 78.5485 29.6316 78.7685 30.915C79.0252 32.1983 79.2452 33.4266 79.4285 34.6C79.6485 36.2133 79.5202 37.7533 79.0435 39.22C78.6035 40.7233 77.8518 42.0616 76.7885 43.235C75.7252 44.4083 74.4052 45.3433 72.8285 46.04C71.2518 46.7366 69.4735 47.1216 67.4935 47.195C67.0535 47.1583 66.5952 46.9383 66.1185 46.535C65.6418 46.1683 65.4035 45.7833 65.4035 45.38C65.3668 44.9766 65.5502 44.6466 65.9535 44.39C66.3935 44.17 66.8335 44.0233 67.2735 43.95C68.0435 43.8766 68.8318 43.7116 69.6385 43.455C70.4818 43.235 71.2702 42.905 72.0035 42.465C72.7368 42.025 73.3968 41.4933 73.9835 40.87C74.6068 40.2466 75.0835 39.5133 75.4135 38.67C75.6702 38.01 75.7985 37.2033 75.7985 36.25C75.7985 35.26 75.7252 34.2883 75.5785 33.335C75.4685 32.3816 75.3035 31.4833 75.0835 30.64C74.9002 29.76 74.7352 29.1 74.5885 28.66C74.3318 28.9166 74.0018 29.1916 73.5985 29.485C73.2318 29.7783 72.8102 30.0533 72.3335 30.31C71.8568 30.5666 71.3252 30.7683 70.7385 30.915C70.1885 31.0616 69.6202 31.1166 69.0335 31.08C68.4102 31.0433 67.8235 30.8233 67.2735 30.42C66.7602 30.0166 66.3018 29.5033 65.8985 28.88C65.4952 28.22 65.1652 27.4683 64.9085 26.625C64.6885 25.7816 64.5785 24.9016 64.5785 23.985C64.6518 21.785 65.2018 19.8416 66.2285 18.155C67.2918 16.4316 68.9785 15.0933 71.2885 14.14C71.4718 14.1033 71.7102 14.0666 72.0035 14.03C72.3335 13.9933 72.6635 13.9933 72.9935 14.03C73.3235 14.03 73.6352 14.0666 73.9285 14.14C74.2585 14.2133 74.5335 14.3233 74.7535 14.47C75.1568 14.7633 75.3585 15.185 75.3585 15.735C75.3585 16.285 75.2302 16.6883 74.9735 16.945ZM68.0435 24.48C68.0435 24.8833 68.0802 25.3416 68.1535 25.855C68.2268 26.3316 68.4652 26.68 68.8685 26.9C69.3085 27.1566 69.8402 27.1933 70.4635 27.01C71.1235 26.8266 71.7285 26.515 72.2785 26.075C72.7918 25.6716 73.1218 25.2316 73.2685 24.755C73.4518 24.2416 73.4518 23.5633 73.2685 22.72C73.0852 21.8766 72.8835 20.9966 72.6635 20.08C72.4435 19.1633 72.2968 18.3383 72.2235 17.605C71.7835 17.825 71.3068 18.1366 70.7935 18.54C70.3168 18.9433 69.8768 19.4566 69.4735 20.08C69.0702 20.6666 68.7218 21.3266 68.4285 22.06C68.1718 22.7933 68.0435 23.6 68.0435 24.48ZM100.046 13.15C99.3862 13.5166 98.6895 13.9016 97.9562 14.305C97.2595 14.7083 96.5445 15.185 95.8112 15.735C95.1145 16.2483 94.4362 16.8716 93.7762 17.605C93.1529 18.3016 92.5845 19.145 92.0712 20.135C91.3379 21.5283 90.8429 22.9583 90.5862 24.425C90.3295 25.855 90.1645 27.2666 90.0912 28.66C90.0912 29.32 89.9262 29.9983 89.5962 30.695C89.3029 31.355 88.8812 31.685 88.3312 31.685C87.6345 31.685 87.0662 31.3366 86.6262 30.64C86.2229 29.9066 85.9479 29.21 85.8012 28.55C85.1779 25.9466 84.6645 23.38 84.2612 20.85C83.8579 18.2833 83.5095 15.735 83.2162 13.205C83.2162 12.6916 83.3629 12.3616 83.6562 12.215C83.9862 12.0683 84.3529 12.0133 84.7562 12.05C85.1962 12.0866 85.6179 12.1966 86.0212 12.38C86.4245 12.5633 86.6629 12.8566 86.7362 13.26C86.8829 14.6166 87.0662 16.0466 87.2862 17.55C87.5062 19.0166 87.7262 20.2816 87.9462 21.345C88.0929 20.0983 88.4962 18.8883 89.1562 17.715C89.8162 16.5416 90.6229 15.4783 91.5762 14.525C92.5662 13.5716 93.6662 12.765 94.8762 12.105C96.1229 11.445 97.3879 11.005 98.6712 10.785C99.2212 10.7116 99.6795 10.7116 100.046 10.785C100.413 10.8583 100.67 10.9866 100.816 11.17C100.963 11.3533 100.981 11.6466 100.871 12.05C100.798 12.4533 100.523 12.82 100.046 13.15ZM117.117 11.775C117.263 12.8016 117.373 13.9016 117.447 15.075C117.557 16.2116 117.63 17.3666 117.667 18.54C117.74 19.7133 117.777 20.85 117.777 21.95C117.777 23.05 117.758 24.04 117.722 24.92C118.895 25.7266 119.592 26.4416 119.812 27.065C120.068 27.6883 120.105 28.2383 119.922 28.715C119.702 29.375 119.298 29.7233 118.712 29.76C118.162 29.76 117.52 29.5583 116.787 29.155C116.273 29.5216 115.687 29.925 115.027 30.365C114.367 30.7683 113.67 31.1716 112.937 31.575C112.203 31.9416 111.47 32.2716 110.737 32.565C110.003 32.8583 109.325 33.06 108.702 33.17C107.528 33.3533 106.465 33.1333 105.512 32.51C104.595 31.8866 103.972 30.9516 103.642 29.705C103.422 28.8616 103.367 28 103.477 27.12C103.587 26.2033 103.862 25.3416 104.302 24.535C104.742 23.6916 105.328 22.94 106.062 22.28C106.832 21.62 107.73 21.1066 108.757 20.74C109.013 20.63 109.362 20.5383 109.802 20.465C110.278 20.3916 110.755 20.3733 111.232 20.41C111.745 20.41 112.258 20.5016 112.772 20.685C113.285 20.8683 113.762 21.18 114.202 21.62C114.202 20.9966 114.183 20.3183 114.147 19.585C114.147 18.815 114.128 18.045 114.092 17.275C114.055 16.505 114 15.79 113.927 15.13C113.89 14.4333 113.835 13.8466 113.762 13.37C113.688 12.82 113.468 12.49 113.102 12.38C112.772 12.2333 112.35 12.2516 111.837 12.435C110.957 12.7283 109.93 13.2966 108.757 14.14C107.583 14.9833 106.465 15.8816 105.402 16.835C105.072 17.165 104.687 17.3116 104.247 17.275C103.843 17.2383 103.495 17.0733 103.202 16.78C102.908 16.4866 102.743 16.1566 102.707 15.79C102.67 15.3866 102.817 14.965 103.147 14.525C103.77 13.865 104.467 13.1866 105.237 12.49C106.007 11.7933 106.813 11.17 107.657 10.62C108.5 10.0333 109.362 9.55663 110.242 9.18997C111.122 8.8233 112.002 8.62163 112.882 8.58497C114.165 8.5483 115.155 8.84164 115.852 9.46497C116.548 10.0516 116.97 10.8216 117.117 11.775ZM110.737 23.6C110.26 23.71 109.747 23.9483 109.197 24.315C108.683 24.645 108.207 25.0666 107.767 25.58C107.363 26.0566 107.052 26.6066 106.832 27.23C106.648 27.8166 106.648 28.4033 106.832 28.99C106.905 29.21 107.052 29.375 107.272 29.485C107.528 29.595 107.803 29.6133 108.097 29.54C108.977 29.3566 109.967 29.0083 111.067 28.495C112.203 27.945 113.102 27.3583 113.762 26.735C113.762 26.515 113.652 26.24 113.432 25.91C113.212 25.5433 112.955 25.195 112.662 24.865C112.368 24.4983 112.038 24.1866 111.672 23.93C111.342 23.6733 111.03 23.5633 110.737 23.6ZM135.617 17.385C136.314 17.3483 137.011 17.5133 137.707 17.88C138.404 18.2466 138.752 18.815 138.752 19.585C138.679 20.2083 138.331 20.6116 137.707 20.795C137.121 20.9416 136.644 21.015 136.277 21.015C135.544 21.015 134.756 21.0333 133.912 21.07C133.069 21.1066 132.207 21.1616 131.327 21.235C131.254 22.445 131.181 23.5816 131.107 24.645C131.071 25.7083 131.034 26.6616 130.997 27.505C130.961 28.3116 130.942 28.9716 130.942 29.485C130.942 29.9983 130.961 30.2733 130.997 30.31C131.804 30.1633 132.666 29.925 133.582 29.595C134.536 29.2283 135.471 28.8433 136.387 28.44C137.341 28 138.257 27.56 139.137 27.12C140.054 26.6433 140.916 26.2033 141.722 25.8C142.089 25.6166 142.419 25.5616 142.712 25.635C143.042 25.7083 143.244 25.8733 143.317 26.13C143.391 26.5333 143.336 27.0283 143.152 27.615C142.969 28.2016 142.639 28.7333 142.162 29.21C141.612 29.65 140.879 30.1633 139.962 30.75C139.082 31.3 138.129 31.8316 137.102 32.345C136.076 32.8583 135.031 33.3166 133.967 33.72C132.941 34.0866 132.024 34.3066 131.217 34.38C130.007 34.49 129.091 34.16 128.467 33.39C127.844 32.62 127.496 31.6483 127.422 30.475C127.349 29.3016 127.331 27.945 127.367 26.405C127.441 24.865 127.514 23.2333 127.587 21.51C126.891 21.5833 126.212 21.6566 125.552 21.73C124.929 21.7666 124.324 21.8216 123.737 21.895C123.261 21.895 122.729 21.785 122.142 21.565C121.592 21.345 121.317 20.9233 121.317 20.3C121.317 20.08 121.409 19.7866 121.592 19.42C121.776 19.0533 122.179 18.7783 122.802 18.595C124.306 18.3383 125.974 18.1183 127.807 17.935C127.917 16.2116 128.046 14.5433 128.192 12.93C128.339 11.3166 128.467 9.84997 128.577 8.52997C128.614 8.08997 128.742 7.70497 128.962 7.37497C129.182 7.04497 129.421 6.87997 129.677 6.87997C130.301 6.8433 130.887 7.0083 131.437 7.37497C132.024 7.70497 132.317 8.08997 132.317 8.52997C132.171 9.77663 132.024 11.1883 131.877 12.765C131.767 14.3416 131.657 15.955 131.547 17.605C132.281 17.5316 132.977 17.495 133.637 17.495C134.334 17.4583 134.994 17.4216 135.617 17.385ZM150.314 15.845C150.094 16.835 149.874 17.935 149.654 19.145C149.434 20.3183 149.269 21.455 149.159 22.555C149.085 23.655 149.085 24.645 149.159 25.525C149.269 26.405 149.507 27.0283 149.874 27.395C150.497 27.505 151.212 27.2483 152.019 26.625C152.825 25.965 153.614 25.14 154.384 24.15C155.154 23.16 155.85 22.0966 156.474 20.96C157.097 19.7866 157.537 18.76 157.794 17.88C157.94 17.44 158.069 16.9816 158.179 16.505C158.289 16.0283 158.344 15.5333 158.344 15.02C158.344 14.7266 158.527 14.4516 158.894 14.195C159.297 13.9016 159.627 13.7366 159.884 13.7C160.067 13.6633 160.269 13.7 160.489 13.81C160.745 13.92 160.965 14.085 161.149 14.305C161.369 14.4883 161.552 14.7266 161.699 15.02C161.882 15.2766 161.974 15.5516 161.974 15.845C162.047 16.945 162.157 18.155 162.304 19.475C162.45 20.795 162.615 22.115 162.799 23.435C163.019 24.755 163.239 26.0383 163.459 27.285C163.679 28.5316 163.899 29.65 164.119 30.64C164.229 31.0433 164.119 31.5016 163.789 32.015C163.459 32.5283 163.092 32.84 162.689 32.95C162.359 33.0233 162.01 32.9866 161.644 32.84C161.314 32.6933 161.057 32.4 160.874 31.96C160.69 31.4466 160.507 30.8233 160.324 30.09C160.177 29.32 160.03 28.5316 159.884 27.725C159.774 26.8816 159.664 26.0933 159.554 25.36C159.444 24.59 159.37 23.9483 159.334 23.435C158.784 24.425 158.124 25.4333 157.354 26.46C156.62 27.45 155.814 28.3666 154.934 29.21C154.09 30.0166 153.192 30.6583 152.239 31.135C151.322 31.575 150.369 31.74 149.379 31.63C147.912 31.4466 146.794 30.0716 146.024 27.505C145.73 26.4783 145.584 25.3416 145.584 24.095C145.62 22.8483 145.712 21.62 145.859 20.41C146.042 19.1633 146.244 17.99 146.464 16.89C146.72 15.79 146.94 14.8916 147.124 14.195C147.197 13.9016 147.344 13.645 147.564 13.425C147.784 13.1683 148.04 13.0766 148.334 13.15C148.884 13.26 149.379 13.59 149.819 14.14C150.295 14.69 150.46 15.2583 150.314 15.845ZM172.762 6.38497C172.946 10.3816 173.257 14.525 173.697 18.815C174.137 23.0683 174.614 27.1383 175.127 31.025C175.237 32.6383 174.797 33.4633 173.807 33.5C173.587 33.5 173.367 33.4266 173.147 33.28C172.927 33.0966 172.726 32.8766 172.542 32.62C172.359 32.3633 172.176 32.0883 171.992 31.795C171.846 31.5016 171.754 31.245 171.717 31.025C171.424 29.155 171.149 27.175 170.892 25.085C170.636 22.995 170.397 20.905 170.177 18.815C169.994 16.6883 169.829 14.6166 169.682 12.6C169.536 10.5833 169.444 8.73163 169.407 7.04497C169.481 6.16497 169.609 5.43163 169.792 4.84497C169.976 4.22163 170.361 3.9283 170.947 3.96497C171.571 4.00163 172.011 4.2583 172.267 4.73497C172.561 5.17497 172.726 5.72497 172.762 6.38497ZM193.386 11.775C193.533 12.8016 193.643 13.9016 193.716 15.075C193.826 16.2116 193.9 17.3666 193.936 18.54C194.01 19.7133 194.046 20.85 194.046 21.95C194.046 23.05 194.028 24.04 193.991 24.92C195.165 25.7266 195.861 26.4416 196.081 27.065C196.338 27.6883 196.375 28.2383 196.191 28.715C195.971 29.375 195.568 29.7233 194.981 29.76C194.431 29.76 193.79 29.5583 193.056 29.155C192.543 29.5216 191.956 29.925 191.296 30.365C190.636 30.7683 189.94 31.1716 189.206 31.575C188.473 31.9416 187.74 32.2716 187.006 32.565C186.273 32.8583 185.595 33.06 184.971 33.17C183.798 33.3533 182.735 33.1333 181.781 32.51C180.865 31.8866 180.241 30.9516 179.911 29.705C179.691 28.8616 179.636 28 179.746 27.12C179.856 26.2033 180.131 25.3416 180.571 24.535C181.011 23.6916 181.598 22.94 182.331 22.28C183.101 21.62 184 21.1066 185.026 20.74C185.283 20.63 185.631 20.5383 186.071 20.465C186.548 20.3916 187.025 20.3733 187.501 20.41C188.015 20.41 188.528 20.5016 189.041 20.685C189.555 20.8683 190.031 21.18 190.471 21.62C190.471 20.9966 190.453 20.3183 190.416 19.585C190.416 18.815 190.398 18.045 190.361 17.275C190.325 16.505 190.27 15.79 190.196 15.13C190.16 14.4333 190.105 13.8466 190.031 13.37C189.958 12.82 189.738 12.49 189.371 12.38C189.041 12.2333 188.62 12.2516 188.106 12.435C187.226 12.7283 186.2 13.2966 185.026 14.14C183.853 14.9833 182.735 15.8816 181.671 16.835C181.341 17.165 180.956 17.3116 180.516 17.275C180.113 17.2383 179.765 17.0733 179.471 16.78C179.178 16.4866 179.013 16.1566 178.976 15.79C178.94 15.3866 179.086 14.965 179.416 14.525C180.04 13.865 180.736 13.1866 181.506 12.49C182.276 11.7933 183.083 11.17 183.926 10.62C184.77 10.0333 185.631 9.55663 186.511 9.18997C187.391 8.8233 188.271 8.62163 189.151 8.58497C190.435 8.5483 191.425 8.84164 192.121 9.46497C192.818 10.0516 193.24 10.8216 193.386 11.775ZM187.006 23.6C186.53 23.71 186.016 23.9483 185.466 24.315C184.953 24.645 184.476 25.0666 184.036 25.58C183.633 26.0566 183.321 26.6066 183.101 27.23C182.918 27.8166 182.918 28.4033 183.101 28.99C183.175 29.21 183.321 29.375 183.541 29.485C183.798 29.595 184.073 29.6133 184.366 29.54C185.246 29.3566 186.236 29.0083 187.336 28.495C188.473 27.945 189.371 27.3583 190.031 26.735C190.031 26.515 189.921 26.24 189.701 25.91C189.481 25.5433 189.225 25.195 188.931 24.865C188.638 24.4983 188.308 24.1866 187.941 23.93C187.611 23.6733 187.3 23.5633 187.006 23.6ZM211.887 17.385C212.584 17.3483 213.28 17.5133 213.977 17.88C214.674 18.2466 215.022 18.815 215.022 19.585C214.949 20.2083 214.6 20.6116 213.977 20.795C213.39 20.9416 212.914 21.015 212.547 21.015C211.814 21.015 211.025 21.0333 210.182 21.07C209.339 21.1066 208.477 21.1616 207.597 21.235C207.524 22.445 207.45 23.5816 207.377 24.645C207.34 25.7083 207.304 26.6616 207.267 27.505C207.23 28.3116 207.212 28.9716 207.212 29.485C207.212 29.9983 207.23 30.2733 207.267 30.31C208.074 30.1633 208.935 29.925 209.852 29.595C210.805 29.2283 211.74 28.8433 212.657 28.44C213.61 28 214.527 27.56 215.407 27.12C216.324 26.6433 217.185 26.2033 217.992 25.8C218.359 25.6166 218.689 25.5616 218.982 25.635C219.312 25.7083 219.514 25.8733 219.587 26.13C219.66 26.5333 219.605 27.0283 219.422 27.615C219.239 28.2016 218.909 28.7333 218.432 29.21C217.882 29.65 217.149 30.1633 216.232 30.75C215.352 31.3 214.399 31.8316 213.372 32.345C212.345 32.8583 211.3 33.3166 210.237 33.72C209.21 34.0866 208.294 34.3066 207.487 34.38C206.277 34.49 205.36 34.16 204.737 33.39C204.114 32.62 203.765 31.6483 203.692 30.475C203.619 29.3016 203.6 27.945 203.637 26.405C203.71 24.865 203.784 23.2333 203.857 21.51C203.16 21.5833 202.482 21.6566 201.822 21.73C201.199 21.7666 200.594 21.8216 200.007 21.895C199.53 21.895 198.999 21.785 198.412 21.565C197.862 21.345 197.587 20.9233 197.587 20.3C197.587 20.08 197.679 19.7866 197.862 19.42C198.045 19.0533 198.449 18.7783 199.072 18.595C200.575 18.3383 202.244 18.1183 204.077 17.935C204.187 16.2116 204.315 14.5433 204.462 12.93C204.609 11.3166 204.737 9.84997 204.847 8.52997C204.884 8.08997 205.012 7.70497 205.232 7.37497C205.452 7.04497 205.69 6.87997 205.947 6.87997C206.57 6.8433 207.157 7.0083 207.707 7.37497C208.294 7.70497 208.587 8.08997 208.587 8.52997C208.44 9.77663 208.294 11.1883 208.147 12.765C208.037 14.3416 207.927 15.955 207.817 17.605C208.55 17.5316 209.247 17.495 209.907 17.495C210.604 17.4583 211.264 17.4216 211.887 17.385ZM231.093 9.68497C231.02 10.0516 230.763 10.2533 230.323 10.29C229.883 10.3266 229.516 10.345 229.223 10.345C228.306 10.3816 227.353 10.4733 226.363 10.62C225.41 10.7666 224.401 10.9866 223.338 11.28C222.898 11.4266 222.421 11.3716 221.908 11.115C221.395 10.8583 221.083 10.345 220.973 9.57497C220.973 9.28163 221.083 9.0433 221.303 8.85997C221.523 8.67663 221.78 8.51163 222.073 8.36497C222.55 8.14497 223.118 7.96163 223.778 7.81497C224.438 7.63163 225.098 7.5033 225.758 7.42997C226.455 7.35663 227.115 7.3383 227.738 7.37497C228.361 7.37497 228.875 7.42997 229.278 7.53997C229.865 7.7233 230.323 7.9983 230.653 8.36497C231.02 8.73163 231.166 9.17163 231.093 9.68497ZM229.828 28C230.085 28.5866 230.213 29.2283 230.213 29.925C230.25 30.585 230.066 31.0433 229.663 31.3C229.15 31.63 228.6 31.6116 228.013 31.245C227.426 30.8783 226.986 30.3833 226.693 29.76C226.29 28.99 225.978 28.055 225.758 26.955C225.538 25.8183 225.373 24.7 225.263 23.6C225.153 22.5 225.08 21.4733 225.043 20.52C225.043 19.5666 225.043 18.8516 225.043 18.375C225.08 17.8616 225.226 17.385 225.483 16.945C225.74 16.505 226.07 16.2483 226.473 16.175C227.133 16.2116 227.665 16.5233 228.068 17.11C228.471 17.66 228.655 18.3566 228.618 19.2C228.618 19.86 228.636 20.5933 228.673 21.4C228.71 22.2066 228.783 23.0133 228.893 23.82C229.003 24.6266 229.131 25.415 229.278 26.185C229.425 26.9183 229.608 27.5233 229.828 28ZM247.823 12.93C248.923 13.3333 249.84 13.9383 250.573 14.745C251.343 15.5516 251.93 16.4683 252.333 17.495C252.737 18.485 252.957 19.5116 252.993 20.575C253.067 21.6383 252.957 22.6283 252.663 23.545C252.26 24.5716 251.747 25.58 251.123 26.57C250.5 27.56 249.785 28.44 248.978 29.21C248.172 29.98 247.255 30.6033 246.228 31.08C245.202 31.5566 244.065 31.795 242.818 31.795C241.315 31.795 240.05 31.4466 239.023 30.75C237.997 30.0533 237.19 29.155 236.603 28.055C236.017 26.955 235.632 25.7083 235.448 24.315C235.302 22.9216 235.338 21.5283 235.558 20.135C235.705 19.1083 235.943 18.1183 236.273 17.165C236.64 16.175 237.098 15.3133 237.648 14.58C238.198 13.81 238.822 13.1866 239.518 12.71C240.252 12.2333 241.077 11.995 241.993 11.995C242.507 11.995 243.148 12.105 243.918 12.325C244.688 12.5083 245.403 12.7833 246.063 13.15C246.54 12.71 247.127 12.6366 247.823 12.93ZM245.733 16.945C245.33 16.6883 244.853 16.3583 244.303 15.955C243.79 15.515 243.332 15.295 242.928 15.295C242.488 15.295 242.048 15.4966 241.608 15.9C241.205 16.3033 240.838 16.78 240.508 17.33C240.215 17.8433 239.958 18.375 239.738 18.925C239.518 19.475 239.372 19.915 239.298 20.245C239.188 20.795 239.115 21.455 239.078 22.225C239.042 22.995 239.097 23.765 239.243 24.535C239.39 25.2683 239.665 25.9466 240.068 26.57C240.508 27.1566 241.15 27.5783 241.993 27.835C242.507 27.9816 243.112 27.9816 243.808 27.835C244.505 27.6516 245.183 27.34 245.843 26.9C246.54 26.46 247.182 25.8733 247.768 25.14C248.392 24.4066 248.868 23.5633 249.198 22.61C249.565 21.5466 249.565 20.4466 249.198 19.31C248.868 18.1366 248.172 17.2933 247.108 16.78C246.852 16.9633 246.595 17.055 246.338 17.055C246.082 17.055 245.88 17.0183 245.733 16.945ZM260.93 13.975C261.04 14.525 261.15 15.1483 261.26 15.845C261.406 16.505 261.553 17.2016 261.7 17.935C261.846 18.6316 261.975 19.3466 262.085 20.08C262.195 20.8133 262.286 21.51 262.36 22.17C262.8 21.2166 263.276 20.2083 263.79 19.145C264.303 18.0816 264.853 17.11 265.44 16.23C266.063 15.3133 266.705 14.5616 267.365 13.975C268.061 13.3883 268.813 13.095 269.62 13.095C270.83 13.095 271.838 13.535 272.645 14.415C273.488 15.295 274.185 16.395 274.735 17.715C275.321 18.9983 275.78 20.355 276.11 21.785C276.44 23.215 276.715 24.48 276.935 25.58C277.155 26.57 276.715 27.3033 275.615 27.78C275.101 28.0366 274.716 28.0733 274.46 27.89C274.203 27.7066 274.056 27.5233 274.02 27.34C273.836 26.9 273.598 26.13 273.305 25.03C273.048 23.93 272.736 22.8116 272.37 21.675C272.04 20.5383 271.655 19.5483 271.215 18.705C270.775 17.8616 270.28 17.4766 269.73 17.55C269.07 17.5866 268.483 18.0816 267.97 19.035C267.53 19.805 267.071 20.6666 266.595 21.62C266.155 22.5366 265.715 23.49 265.275 24.48C264.835 25.4333 264.395 26.405 263.955 27.395C263.551 28.3483 263.166 29.2283 262.8 30.035C262.543 30.2916 262.213 30.475 261.81 30.585C261.443 30.6583 261.058 30.6216 260.655 30.475C260.288 30.365 259.995 30.1816 259.775 29.925C259.555 29.6683 259.445 29.4116 259.445 29.155C259.115 26.295 258.766 23.6916 258.4 21.345C258.07 18.9983 257.63 16.5966 257.08 14.14C256.823 13.2966 256.768 12.6366 256.915 12.16C257.098 11.6466 257.648 11.445 258.565 11.555C259.848 11.775 260.636 12.5816 260.93 13.975ZM291.005 15.68C290.932 15.2766 290.859 14.8916 290.785 14.525C290.712 14.1583 290.529 13.92 290.235 13.81C289.612 13.6266 288.952 13.6083 288.255 13.755C287.559 13.9016 286.917 14.14 286.33 14.47C285.744 14.7633 285.249 15.1116 284.845 15.515C284.442 15.8816 284.222 16.2116 284.185 16.505C284.075 17.055 284.222 17.5866 284.625 18.1C285.029 18.6133 285.615 19.1266 286.385 19.64C287.669 20.41 289.007 21.1983 290.4 22.005C291.794 22.8116 292.967 23.6366 293.92 24.48C294.874 25.3233 295.515 26.2583 295.845 27.285C296.212 28.275 296.139 29.4116 295.625 30.695C295.222 31.685 294.47 32.4916 293.37 33.115C292.27 33.7383 291.06 34.2333 289.74 34.6C288.42 34.93 287.1 35.1683 285.78 35.315C284.46 35.425 283.342 35.48 282.425 35.48C282.205 35.48 281.93 35.4066 281.6 35.26C281.307 35.0766 281.014 34.875 280.72 34.655C280.464 34.435 280.225 34.215 280.005 33.995C279.822 33.7383 279.73 33.5183 279.73 33.335C279.73 32.675 280.024 32.2166 280.61 31.96C281.197 31.7033 281.802 31.575 282.425 31.575C283.305 31.575 284.24 31.5383 285.23 31.465C286.257 31.355 287.229 31.2083 288.145 31.025C289.062 30.805 289.887 30.53 290.62 30.2C291.354 29.87 291.867 29.4483 292.16 28.935C292.417 28.495 292.252 27.9816 291.665 27.395C291.115 26.7716 290.364 26.13 289.41 25.47C288.494 24.81 287.485 24.1683 286.385 23.545C285.322 22.9216 284.405 22.3533 283.635 21.84C282.865 21.3266 282.205 20.7216 281.655 20.025C281.105 19.2916 280.757 18.3933 280.61 17.33C280.574 16.3766 280.775 15.46 281.215 14.58C281.655 13.7 282.224 12.93 282.92 12.27C283.654 11.5733 284.479 11.0233 285.395 10.62C286.312 10.2166 287.229 10.015 288.145 10.015C289.722 10.0883 291.024 10.5283 292.05 11.335C293.077 12.105 293.682 13.26 293.865 14.8C293.865 15.3133 293.774 15.735 293.59 16.065C293.444 16.395 293.169 16.5966 292.765 16.67C292.252 16.7433 291.83 16.6883 291.5 16.505C291.207 16.285 291.042 16.01 291.005 15.68ZM300.623 43.29C300.33 43.0333 300.256 42.7033 300.403 42.3C300.55 41.8966 300.696 41.5483 300.843 41.255C301.21 40.4116 301.54 39.5316 301.833 38.615C302.126 37.6616 302.365 36.6533 302.548 35.59C302.621 35.1133 302.878 34.71 303.318 34.38C303.758 34.0133 304.345 33.94 305.078 34.16C305.371 34.3066 305.536 34.5266 305.573 34.82C305.646 35.0766 305.683 35.37 305.683 35.7C305.683 36.2133 305.61 36.8183 305.463 37.515C305.353 38.175 305.188 38.8166 304.968 39.44C304.748 40.1 304.491 40.705 304.198 41.255C303.905 41.805 303.63 42.2266 303.373 42.52C302.933 42.9966 302.456 43.3083 301.943 43.455C301.466 43.6383 301.026 43.5833 300.623 43.29ZM344.767 14.8C344.877 16.78 344.987 18.7783 345.097 20.795C345.244 22.8116 345.281 24.81 345.207 26.79C345.134 28.7333 344.932 30.64 344.602 32.51C344.309 34.38 343.796 36.1766 343.062 37.9C342.329 39.5866 341.339 41.1633 340.092 42.63C338.882 44.0966 337.342 45.4166 335.472 46.59C335.179 46.7733 334.849 46.8833 334.482 46.92C334.152 46.9566 333.822 46.9383 333.492 46.865C333.162 46.8283 332.869 46.7366 332.612 46.59C332.356 46.48 332.191 46.315 332.117 46.095C332.007 45.765 332.062 45.3983 332.282 44.995C332.502 44.5916 332.869 44.17 333.382 43.73C334.996 42.52 336.352 41.2366 337.452 39.88C338.552 38.5233 339.432 37.0566 340.092 35.48C340.752 33.9033 341.174 32.1983 341.357 30.365C341.577 28.495 341.577 26.46 341.357 24.26C340.917 24.81 340.404 25.3783 339.817 25.965C339.231 26.5516 338.607 27.0833 337.947 27.56C337.287 28 336.609 28.385 335.912 28.715C335.216 29.0083 334.556 29.155 333.932 29.155C333.419 29.155 332.906 29.045 332.392 28.825C331.879 28.605 331.366 28.1833 330.852 27.56C330.266 26.79 329.734 25.9283 329.257 24.975C328.817 23.985 328.432 23.0316 328.102 22.115C327.772 21.1983 327.497 20.3733 327.277 19.64C327.094 18.9066 326.984 18.3933 326.947 18.1C326.874 17.7333 326.874 17.385 326.947 17.055C327.021 16.725 327.259 16.5233 327.662 16.45C328.212 16.34 328.726 16.3766 329.202 16.56C329.679 16.7433 330.009 17.0366 330.192 17.44C330.339 17.8433 330.541 18.4666 330.797 19.31C331.054 20.1533 331.366 20.9966 331.732 21.84C332.099 22.6466 332.484 23.3616 332.887 23.985C333.327 24.6083 333.786 24.92 334.262 24.92C334.812 24.92 335.454 24.645 336.187 24.095C336.957 23.545 337.691 22.83 338.387 21.95C339.084 21.07 339.671 20.0983 340.147 19.035C340.661 17.935 340.917 16.8716 340.917 15.845C340.917 15.625 340.954 15.3683 341.027 15.075C341.101 14.7816 341.211 14.5066 341.357 14.25C341.504 13.9566 341.669 13.7183 341.852 13.535C342.072 13.315 342.292 13.1866 342.512 13.15C343.099 13.0766 343.612 13.2416 344.052 13.645C344.529 14.0116 344.767 14.3966 344.767 14.8ZM362.711 12.93C363.811 13.3333 364.728 13.9383 365.461 14.745C366.231 15.5516 366.818 16.4683 367.221 17.495C367.624 18.485 367.844 19.5116 367.881 20.575C367.954 21.6383 367.844 22.6283 367.551 23.545C367.148 24.5716 366.634 25.58 366.011 26.57C365.388 27.56 364.673 28.44 363.866 29.21C363.059 29.98 362.143 30.6033 361.116 31.08C360.089 31.5566 358.953 31.795 357.706 31.795C356.203 31.795 354.938 31.4466 353.911 30.75C352.884 30.0533 352.078 29.155 351.491 28.055C350.904 26.955 350.519 25.7083 350.336 24.315C350.189 22.9216 350.226 21.5283 350.446 20.135C350.593 19.1083 350.831 18.1183 351.161 17.165C351.528 16.175 351.986 15.3133 352.536 14.58C353.086 13.81 353.709 13.1866 354.406 12.71C355.139 12.2333 355.964 11.995 356.881 11.995C357.394 11.995 358.036 12.105 358.806 12.325C359.576 12.5083 360.291 12.7833 360.951 13.15C361.428 12.71 362.014 12.6366 362.711 12.93ZM360.621 16.945C360.218 16.6883 359.741 16.3583 359.191 15.955C358.678 15.515 358.219 15.295 357.816 15.295C357.376 15.295 356.936 15.4966 356.496 15.9C356.093 16.3033 355.726 16.78 355.396 17.33C355.103 17.8433 354.846 18.375 354.626 18.925C354.406 19.475 354.259 19.915 354.186 20.245C354.076 20.795 354.003 21.455 353.966 22.225C353.929 22.995 353.984 23.765 354.131 24.535C354.278 25.2683 354.553 25.9466 354.956 26.57C355.396 27.1566 356.038 27.5783 356.881 27.835C357.394 27.9816 357.999 27.9816 358.696 27.835C359.393 27.6516 360.071 27.34 360.731 26.9C361.428 26.46 362.069 25.8733 362.656 25.14C363.279 24.4066 363.756 23.5633 364.086 22.61C364.453 21.5466 364.453 20.4466 364.086 19.31C363.756 18.1366 363.059 17.2933 361.996 16.78C361.739 16.9633 361.483 17.055 361.226 17.055C360.969 17.055 360.768 17.0183 360.621 16.945ZM377.027 15.845C376.807 16.835 376.587 17.935 376.367 19.145C376.147 20.3183 375.982 21.455 375.872 22.555C375.799 23.655 375.799 24.645 375.872 25.525C375.982 26.405 376.221 27.0283 376.587 27.395C377.211 27.505 377.926 27.2483 378.732 26.625C379.539 25.965 380.327 25.14 381.097 24.15C381.867 23.16 382.564 22.0966 383.187 20.96C383.811 19.7866 384.251 18.76 384.507 17.88C384.654 17.44 384.782 16.9816 384.892 16.505C385.002 16.0283 385.057 15.5333 385.057 15.02C385.057 14.7266 385.241 14.4516 385.607 14.195C386.011 13.9016 386.341 13.7366 386.597 13.7C386.781 13.6633 386.982 13.7 387.202 13.81C387.459 13.92 387.679 14.085 387.862 14.305C388.082 14.4883 388.266 14.7266 388.412 15.02C388.596 15.2766 388.687 15.5516 388.687 15.845C388.761 16.945 388.871 18.155 389.017 19.475C389.164 20.795 389.329 22.115 389.512 23.435C389.732 24.755 389.952 26.0383 390.172 27.285C390.392 28.5316 390.612 29.65 390.832 30.64C390.942 31.0433 390.832 31.5016 390.502 32.015C390.172 32.5283 389.806 32.84 389.402 32.95C389.072 33.0233 388.724 32.9866 388.357 32.84C388.027 32.6933 387.771 32.4 387.587 31.96C387.404 31.4466 387.221 30.8233 387.037 30.09C386.891 29.32 386.744 28.5316 386.597 27.725C386.487 26.8816 386.377 26.0933 386.267 25.36C386.157 24.59 386.084 23.9483 386.047 23.435C385.497 24.425 384.837 25.4333 384.067 26.46C383.334 27.45 382.527 28.3666 381.647 29.21C380.804 30.0166 379.906 30.6583 378.952 31.135C378.036 31.575 377.082 31.74 376.092 31.63C374.626 31.4466 373.507 30.0716 372.737 27.505C372.444 26.4783 372.297 25.3416 372.297 24.095C372.334 22.8483 372.426 21.62 372.572 20.41C372.756 19.1633 372.957 17.99 373.177 16.89C373.434 15.79 373.654 14.8916 373.837 14.195C373.911 13.9016 374.057 13.645 374.277 13.425C374.497 13.1683 374.754 13.0766 375.047 13.15C375.597 13.26 376.092 13.59 376.532 14.14C377.009 14.69 377.174 15.2583 377.027 15.845ZM424.021 11.775C424.168 12.8016 424.278 13.9016 424.351 15.075C424.461 16.2116 424.534 17.3666 424.571 18.54C424.644 19.7133 424.681 20.85 424.681 21.95C424.681 23.05 424.663 24.04 424.626 24.92C425.799 25.7266 426.496 26.4416 426.716 27.065C426.973 27.6883 427.009 28.2383 426.826 28.715C426.606 29.375 426.203 29.7233 425.616 29.76C425.066 29.76 424.424 29.5583 423.691 29.155C423.178 29.5216 422.591 29.925 421.931 30.365C421.271 30.7683 420.574 31.1716 419.841 31.575C419.108 31.9416 418.374 32.2716 417.641 32.565C416.908 32.8583 416.229 33.06 415.606 33.17C414.433 33.3533 413.369 33.1333 412.416 32.51C411.499 31.8866 410.876 30.9516 410.546 29.705C410.326 28.8616 410.271 28 410.381 27.12C410.491 26.2033 410.766 25.3416 411.206 24.535C411.646 23.6916 412.233 22.94 412.966 22.28C413.736 21.62 414.634 21.1066 415.661 20.74C415.918 20.63 416.266 20.5383 416.706 20.465C417.183 20.3916 417.659 20.3733 418.136 20.41C418.649 20.41 419.163 20.5016 419.676 20.685C420.189 20.8683 420.666 21.18 421.106 21.62C421.106 20.9966 421.088 20.3183 421.051 19.585C421.051 18.815 421.033 18.045 420.996 17.275C420.959 16.505 420.904 15.79 420.831 15.13C420.794 14.4333 420.739 13.8466 420.666 13.37C420.593 12.82 420.373 12.49 420.006 12.38C419.676 12.2333 419.254 12.2516 418.741 12.435C417.861 12.7283 416.834 13.2966 415.661 14.14C414.488 14.9833 413.369 15.8816 412.306 16.835C411.976 17.165 411.591 17.3116 411.151 17.275C410.748 17.2383 410.399 17.0733 410.106 16.78C409.813 16.4866 409.648 16.1566 409.611 15.79C409.574 15.3866 409.721 14.965 410.051 14.525C410.674 13.865 411.371 13.1866 412.141 12.49C412.911 11.7933 413.718 11.17 414.561 10.62C415.404 10.0333 416.266 9.55663 417.146 9.18997C418.026 8.8233 418.906 8.62163 419.786 8.58497C421.069 8.5483 422.059 8.84164 422.756 9.46497C423.453 10.0516 423.874 10.8216 424.021 11.775ZM417.641 23.6C417.164 23.71 416.651 23.9483 416.101 24.315C415.588 24.645 415.111 25.0666 414.671 25.58C414.268 26.0566 413.956 26.6066 413.736 27.23C413.553 27.8166 413.553 28.4033 413.736 28.99C413.809 29.21 413.956 29.375 414.176 29.485C414.433 29.595 414.708 29.6133 415.001 29.54C415.881 29.3566 416.871 29.0083 417.971 28.495C419.108 27.945 420.006 27.3583 420.666 26.735C420.666 26.515 420.556 26.24 420.336 25.91C420.116 25.5433 419.859 25.195 419.566 24.865C419.273 24.4983 418.943 24.1866 418.576 23.93C418.246 23.6733 417.934 23.5633 417.641 23.6ZM446.482 13.15C445.822 13.5166 445.125 13.9016 444.392 14.305C443.695 14.7083 442.98 15.185 442.247 15.735C441.55 16.2483 440.872 16.8716 440.212 17.605C439.588 18.3016 439.02 19.145 438.507 20.135C437.773 21.5283 437.278 22.9583 437.022 24.425C436.765 25.855 436.6 27.2666 436.527 28.66C436.527 29.32 436.362 29.9983 436.032 30.695C435.738 31.355 435.317 31.685 434.767 31.685C434.07 31.685 433.502 31.3366 433.062 30.64C432.658 29.9066 432.383 29.21 432.237 28.55C431.613 25.9466 431.1 23.38 430.697 20.85C430.293 18.2833 429.945 15.735 429.652 13.205C429.652 12.6916 429.798 12.3616 430.092 12.215C430.422 12.0683 430.788 12.0133 431.192 12.05C431.632 12.0866 432.053 12.1966 432.457 12.38C432.86 12.5633 433.098 12.8566 433.172 13.26C433.318 14.6166 433.502 16.0466 433.722 17.55C433.942 19.0166 434.162 20.2816 434.382 21.345C434.528 20.0983 434.932 18.8883 435.592 17.715C436.252 16.5416 437.058 15.4783 438.012 14.525C439.002 13.5716 440.102 12.765 441.312 12.105C442.558 11.445 443.823 11.005 445.107 10.785C445.657 10.7116 446.115 10.7116 446.482 10.785C446.848 10.8583 447.105 10.9866 447.252 11.17C447.398 11.3533 447.417 11.6466 447.307 12.05C447.233 12.4533 446.958 12.82 446.482 13.15ZM463.112 19.2C461.682 20.0433 460.142 20.7033 458.492 21.18C456.842 21.62 455.064 21.84 453.157 21.84C453.231 23.1233 453.597 24.15 454.257 24.92C454.917 25.6533 455.742 26.0933 456.732 26.24C457.319 26.3133 457.906 26.295 458.492 26.185C459.116 26.075 459.684 25.91 460.197 25.69C460.747 25.4333 461.242 25.1583 461.682 24.865C462.122 24.5716 462.507 24.2783 462.837 23.985C463.167 23.6916 463.516 23.5083 463.882 23.435C464.249 23.325 464.524 23.3066 464.707 23.38C465.221 23.5633 465.404 24.1133 465.257 25.03C464.671 26.2033 463.827 27.2116 462.727 28.055C461.627 28.8616 460.399 29.375 459.042 29.595C457.869 29.815 456.659 29.76 455.412 29.43C454.166 29.1 453.047 28.4583 452.057 27.505C451.214 26.6616 450.572 25.6716 450.132 24.535C449.692 23.3983 449.417 22.225 449.307 21.015C449.197 19.8783 449.289 18.7966 449.582 17.77C449.912 16.7433 450.407 15.845 451.067 15.075C451.727 14.2683 452.552 13.6083 453.542 13.095C454.532 12.5816 455.687 12.2883 457.007 12.215C458.584 12.105 460.014 12.3983 461.297 13.095C462.581 13.7916 463.479 14.7633 463.992 16.01C464.286 16.7066 464.359 17.3116 464.212 17.825C464.102 18.3383 463.736 18.7966 463.112 19.2ZM456.787 15.46C456.421 15.5333 456.017 15.6616 455.577 15.845C455.174 16.0283 454.789 16.2666 454.422 16.56C454.092 16.8166 453.781 17.1283 453.487 17.495C453.231 17.825 453.084 18.21 453.047 18.65C453.671 18.65 454.349 18.595 455.082 18.485C455.852 18.375 456.586 18.2466 457.282 18.1C458.016 17.9166 458.676 17.715 459.262 17.495C459.886 17.275 460.399 17.0366 460.802 16.78C460.509 16.0833 459.959 15.6616 459.152 15.515C458.382 15.3316 457.594 15.3133 456.787 15.46ZM498.25 11.775C498.396 12.8016 498.506 13.9016 498.58 15.075C498.69 16.2116 498.763 17.3666 498.8 18.54C498.873 19.7133 498.91 20.85 498.91 21.95C498.91 23.05 498.891 24.04 498.855 24.92C500.028 25.7266 500.725 26.4416 500.945 27.065C501.201 27.6883 501.238 28.2383 501.055 28.715C500.835 29.375 500.431 29.7233 499.845 29.76C499.295 29.76 498.653 29.5583 497.92 29.155C497.406 29.5216 496.82 29.925 496.16 30.365C495.5 30.7683 494.803 31.1716 494.07 31.575C493.336 31.9416 492.603 32.2716 491.87 32.565C491.136 32.8583 490.458 33.06 489.835 33.17C488.661 33.3533 487.598 33.1333 486.645 32.51C485.728 31.8866 485.105 30.9516 484.775 29.705C484.555 28.8616 484.5 28 484.61 27.12C484.72 26.2033 484.995 25.3416 485.435 24.535C485.875 23.6916 486.461 22.94 487.195 22.28C487.965 21.62 488.863 21.1066 489.89 20.74C490.146 20.63 490.495 20.5383 490.935 20.465C491.411 20.3916 491.888 20.3733 492.365 20.41C492.878 20.41 493.391 20.5016 493.905 20.685C494.418 20.8683 494.895 21.18 495.335 21.62C495.335 20.9966 495.316 20.3183 495.28 19.585C495.28 18.815 495.261 18.045 495.225 17.275C495.188 16.505 495.133 15.79 495.06 15.13C495.023 14.4333 494.968 13.8466 494.895 13.37C494.821 12.82 494.601 12.49 494.235 12.38C493.905 12.2333 493.483 12.2516 492.97 12.435C492.09 12.7283 491.063 13.2966 489.89 14.14C488.716 14.9833 487.598 15.8816 486.535 16.835C486.205 17.165 485.82 17.3116 485.38 17.275C484.976 17.2383 484.628 17.0733 484.335 16.78C484.041 16.4866 483.876 16.1566 483.84 15.79C483.803 15.3866 483.95 14.965 484.28 14.525C484.903 13.865 485.6 13.1866 486.37 12.49C487.14 11.7933 487.946 11.17 488.79 10.62C489.633 10.0333 490.495 9.55663 491.375 9.18997C492.255 8.8233 493.135 8.62163 494.015 8.58497C495.298 8.5483 496.288 8.84164 496.985 9.46497C497.681 10.0516 498.103 10.8216 498.25 11.775ZM491.87 23.6C491.393 23.71 490.88 23.9483 490.33 24.315C489.816 24.645 489.34 25.0666 488.9 25.58C488.496 26.0566 488.185 26.6066 487.965 27.23C487.781 27.8166 487.781 28.4033 487.965 28.99C488.038 29.21 488.185 29.375 488.405 29.485C488.661 29.595 488.936 29.6133 489.23 29.54C490.11 29.3566 491.1 29.0083 492.2 28.495C493.336 27.945 494.235 27.3583 494.895 26.735C494.895 26.515 494.785 26.24 494.565 25.91C494.345 25.5433 494.088 25.195 493.795 24.865C493.501 24.4983 493.171 24.1866 492.805 23.93C492.475 23.6733 492.163 23.5633 491.87 23.6ZM507.785 13.975C507.895 14.525 508.005 15.1483 508.115 15.845C508.262 16.505 508.409 17.2016 508.555 17.935C508.702 18.6316 508.83 19.3466 508.94 20.08C509.05 20.8133 509.142 21.51 509.215 22.17C509.655 21.2166 510.132 20.2083 510.645 19.145C511.159 18.0816 511.709 17.11 512.295 16.23C512.919 15.3133 513.56 14.5616 514.22 13.975C514.917 13.3883 515.669 13.095 516.475 13.095C517.685 13.095 518.694 13.535 519.5 14.415C520.344 15.295 521.04 16.395 521.59 17.715C522.177 18.9983 522.635 20.355 522.965 21.785C523.295 23.215 523.57 24.48 523.79 25.58C524.01 26.57 523.57 27.3033 522.47 27.78C521.957 28.0366 521.572 28.0733 521.315 27.89C521.059 27.7066 520.912 27.5233 520.875 27.34C520.692 26.9 520.454 26.13 520.16 25.03C519.904 23.93 519.592 22.8116 519.225 21.675C518.895 20.5383 518.51 19.5483 518.07 18.705C517.63 17.8616 517.135 17.4766 516.585 17.55C515.925 17.5866 515.339 18.0816 514.825 19.035C514.385 19.805 513.927 20.6666 513.45 21.62C513.01 22.5366 512.57 23.49 512.13 24.48C511.69 25.4333 511.25 26.405 510.81 27.395C510.407 28.3483 510.022 29.2283 509.655 30.035C509.399 30.2916 509.069 30.475 508.665 30.585C508.299 30.6583 507.914 30.6216 507.51 30.475C507.144 30.365 506.85 30.1816 506.63 29.925C506.41 29.6683 506.3 29.4116 506.3 29.155C505.97 26.295 505.622 23.6916 505.255 21.345C504.925 18.9983 504.485 16.5966 503.935 14.14C503.679 13.2966 503.624 12.6366 503.77 12.16C503.954 11.6466 504.504 11.445 505.42 11.555C506.704 11.775 507.492 12.5816 507.785 13.975ZM556.301 19.2C554.871 20.0433 553.331 20.7033 551.681 21.18C550.031 21.62 548.253 21.84 546.346 21.84C546.419 23.1233 546.786 24.15 547.446 24.92C548.106 25.6533 548.931 26.0933 549.921 26.24C550.508 26.3133 551.094 26.295 551.681 26.185C552.304 26.075 552.873 25.91 553.386 25.69C553.936 25.4333 554.431 25.1583 554.871 24.865C555.311 24.5716 555.696 24.2783 556.026 23.985C556.356 23.6916 556.704 23.5083 557.071 23.435C557.438 23.325 557.713 23.3066 557.896 23.38C558.409 23.5633 558.593 24.1133 558.446 25.03C557.859 26.2033 557.016 27.2116 555.916 28.055C554.816 28.8616 553.588 29.375 552.231 29.595C551.058 29.815 549.848 29.76 548.601 29.43C547.354 29.1 546.236 28.4583 545.246 27.505C544.403 26.6616 543.761 25.6716 543.321 24.535C542.881 23.3983 542.606 22.225 542.496 21.015C542.386 19.8783 542.478 18.7966 542.771 17.77C543.101 16.7433 543.596 15.845 544.256 15.075C544.916 14.2683 545.741 13.6083 546.731 13.095C547.721 12.5816 548.876 12.2883 550.196 12.215C551.773 12.105 553.203 12.3983 554.486 13.095C555.769 13.7916 556.668 14.7633 557.181 16.01C557.474 16.7066 557.548 17.3116 557.401 17.825C557.291 18.3383 556.924 18.7966 556.301 19.2ZM549.976 15.46C549.609 15.5333 549.206 15.6616 548.766 15.845C548.363 16.0283 547.978 16.2666 547.611 16.56C547.281 16.8166 546.969 17.1283 546.676 17.495C546.419 17.825 546.273 18.21 546.236 18.65C546.859 18.65 547.538 18.595 548.271 18.485C549.041 18.375 549.774 18.2466 550.471 18.1C551.204 17.9166 551.864 17.715 552.451 17.495C553.074 17.275 553.588 17.0366 553.991 16.78C553.698 16.0833 553.148 15.6616 552.341 15.515C551.571 15.3316 550.783 15.3133 549.976 15.46ZM578.443 26.955C579.14 27.7983 579.543 28.5683 579.653 29.265C579.763 29.925 579.488 30.4016 578.828 30.695C578.681 30.7683 578.461 30.7866 578.168 30.75C577.911 30.6766 577.618 30.585 577.288 30.475C576.995 30.3283 576.701 30.1633 576.408 29.98C576.115 29.7966 575.876 29.6133 575.693 29.43C574.886 28.5133 574.08 27.5966 573.273 26.68C572.503 25.7633 571.696 24.8466 570.853 23.93L564.858 30.035C564.235 30.5483 563.666 30.7683 563.153 30.695C562.64 30.585 562.383 30.31 562.383 29.87C562.383 29.1733 562.493 28.5316 562.713 27.945C562.97 27.3216 563.3 26.735 563.703 26.185C564.436 25.305 565.188 24.4433 565.958 23.6C566.728 22.7566 567.498 21.9133 568.268 21.07C567.315 20.08 566.343 19.1083 565.353 18.155C564.4 17.165 563.41 16.1933 562.383 15.24C561.943 15.24 561.65 15.1666 561.503 15.02C561.356 14.8733 561.265 14.7083 561.228 14.525C561.228 14.305 561.265 14.1033 561.338 13.92C561.411 13.7366 561.485 13.6083 561.558 13.535C562.218 12.875 562.878 12.5633 563.538 12.6C564.198 12.6 564.858 12.8016 565.518 13.205C567.461 14.745 569.276 16.4133 570.963 18.21C572.43 16.67 573.933 15.1666 575.473 13.7C575.95 13.4066 576.463 13.2233 577.013 13.15C577.563 13.0766 578.168 13.205 578.828 13.535C579.158 13.9383 579.25 14.415 579.103 14.965C578.993 15.4783 578.7 15.9916 578.223 16.505L573.658 21.125C574.501 22.0783 575.326 23.05 576.133 24.04C576.94 25.03 577.71 26.0016 578.443 26.955ZM592.624 38.12C592.587 38.5233 592.404 38.89 592.074 39.22C591.744 39.5866 591.377 39.7516 590.974 39.715C590.351 39.6783 589.874 39.44 589.544 39C589.214 38.56 589.049 38.1933 589.049 37.9C589.049 36.5066 589.012 35.0583 588.939 33.555C588.866 32.015 588.774 30.4383 588.664 28.825C588.187 28.8983 587.747 28.8616 587.344 28.715C586.977 28.5316 586.721 28.2566 586.574 27.89C586.317 27.2666 586.354 26.7166 586.684 26.24C587.014 25.7633 587.546 25.305 588.279 24.865C588.096 23.5083 587.912 22.17 587.729 20.85C587.582 19.53 587.417 18.2466 587.234 17C587.197 16.78 587.216 16.5783 587.289 16.395C587.362 16.2116 587.454 16.0466 587.564 15.9C587.674 15.7166 587.876 15.5516 588.169 15.405C588.646 15.2216 589.177 15.3683 589.764 15.845C590.387 16.3216 590.809 16.9266 591.029 17.66C591.139 18.3566 591.249 19.1633 591.359 20.08C591.506 20.96 591.634 21.9316 591.744 22.995C592.514 22.5183 593.229 22.005 593.889 21.455C594.586 20.905 595.172 20.3183 595.649 19.695C596.162 19.0716 596.547 18.43 596.804 17.77C597.061 17.0733 597.134 16.3583 597.024 15.625C596.951 15.0016 596.676 14.4516 596.199 13.975C595.722 13.4616 594.971 13.1866 593.944 13.15C593.027 13.1133 592.111 13.1866 591.194 13.37C590.314 13.5533 589.434 13.7916 588.554 14.085C587.711 14.3783 586.867 14.7266 586.024 15.13C585.217 15.5333 584.429 15.9366 583.659 16.34C583.146 16.6333 582.632 16.7616 582.119 16.725C581.642 16.6516 581.331 16.4683 581.184 16.175C580.854 15.4416 580.872 14.7816 581.239 14.195C581.642 13.6083 582.247 13.0583 583.054 12.545C583.751 12.1416 584.576 11.7383 585.529 11.335C586.519 10.895 587.546 10.5283 588.609 10.235C589.709 9.90497 590.809 9.68497 591.909 9.57497C593.046 9.4283 594.127 9.44663 595.154 9.62997C596.181 9.77663 597.097 10.125 597.904 10.675C598.747 11.1883 599.426 11.9583 599.939 12.985C600.562 14.6716 600.727 16.23 600.434 17.66C600.177 19.0533 599.627 20.3366 598.784 21.51C597.977 22.6466 596.969 23.6916 595.759 24.645C594.586 25.5616 593.394 26.3866 592.184 27.12C592.367 29.1 592.496 31.0616 592.569 33.005C592.642 34.9483 592.661 36.6533 592.624 38.12ZM617.585 19.2C616.155 20.0433 614.615 20.7033 612.965 21.18C611.315 21.62 609.537 21.84 607.63 21.84C607.703 23.1233 608.07 24.15 608.73 24.92C609.39 25.6533 610.215 26.0933 611.205 26.24C611.792 26.3133 612.378 26.295 612.965 26.185C613.588 26.075 614.157 25.91 614.67 25.69C615.22 25.4333 615.715 25.1583 616.155 24.865C616.595 24.5716 616.98 24.2783 617.31 23.985C617.64 23.6916 617.988 23.5083 618.355 23.435C618.722 23.325 618.997 23.3066 619.18 23.38C619.693 23.5633 619.877 24.1133 619.73 25.03C619.143 26.2033 618.3 27.2116 617.2 28.055C616.1 28.8616 614.872 29.375 613.515 29.595C612.342 29.815 611.132 29.76 609.885 29.43C608.638 29.1 607.52 28.4583 606.53 27.505C605.687 26.6616 605.045 25.6716 604.605 24.535C604.165 23.3983 603.89 22.225 603.78 21.015C603.67 19.8783 603.762 18.7966 604.055 17.77C604.385 16.7433 604.88 15.845 605.54 15.075C606.2 14.2683 607.025 13.6083 608.015 13.095C609.005 12.5816 610.16 12.2883 611.48 12.215C613.057 12.105 614.487 12.3983 615.77 13.095C617.053 13.7916 617.952 14.7633 618.465 16.01C618.758 16.7066 618.832 17.3116 618.685 17.825C618.575 18.3383 618.208 18.7966 617.585 19.2ZM611.26 15.46C610.893 15.5333 610.49 15.6616 610.05 15.845C609.647 16.0283 609.262 16.2666 608.895 16.56C608.565 16.8166 608.253 17.1283 607.96 17.495C607.703 17.825 607.557 18.21 607.52 18.65C608.143 18.65 608.822 18.595 609.555 18.485C610.325 18.375 611.058 18.2466 611.755 18.1C612.488 17.9166 613.148 17.715 613.735 17.495C614.358 17.275 614.872 17.0366 615.275 16.78C614.982 16.0833 614.432 15.6616 613.625 15.515C612.855 15.3316 612.067 15.3133 611.26 15.46ZM640.002 13.15C639.342 13.5166 638.646 13.9016 637.912 14.305C637.216 14.7083 636.501 15.185 635.767 15.735C635.071 16.2483 634.392 16.8716 633.732 17.605C633.109 18.3016 632.541 19.145 632.027 20.135C631.294 21.5283 630.799 22.9583 630.542 24.425C630.286 25.855 630.121 27.2666 630.047 28.66C630.047 29.32 629.882 29.9983 629.552 30.695C629.259 31.355 628.837 31.685 628.287 31.685C627.591 31.685 627.022 31.3366 626.582 30.64C626.179 29.9066 625.904 29.21 625.757 28.55C625.134 25.9466 624.621 23.38 624.217 20.85C623.814 18.2833 623.466 15.735 623.172 13.205C623.172 12.6916 623.319 12.3616 623.612 12.215C623.942 12.0683 624.309 12.0133 624.712 12.05C625.152 12.0866 625.574 12.1966 625.977 12.38C626.381 12.5633 626.619 12.8566 626.692 13.26C626.839 14.6166 627.022 16.0466 627.242 17.55C627.462 19.0166 627.682 20.2816 627.902 21.345C628.049 20.0983 628.452 18.8883 629.112 17.715C629.772 16.5416 630.579 15.4783 631.532 14.525C632.522 13.5716 633.622 12.765 634.832 12.105C636.079 11.445 637.344 11.005 638.627 10.785C639.177 10.7116 639.636 10.7116 640.002 10.785C640.369 10.8583 640.626 10.9866 640.772 11.17C640.919 11.3533 640.937 11.6466 640.827 12.05C640.754 12.4533 640.479 12.82 640.002 13.15ZM655.808 17.385C656.505 17.3483 657.201 17.5133 657.898 17.88C658.595 18.2466 658.943 18.815 658.943 19.585C658.87 20.2083 658.521 20.6116 657.898 20.795C657.311 20.9416 656.835 21.015 656.468 21.015C655.735 21.015 654.946 21.0333 654.103 21.07C653.26 21.1066 652.398 21.1616 651.518 21.235C651.445 22.445 651.371 23.5816 651.298 24.645C651.261 25.7083 651.225 26.6616 651.188 27.505C651.151 28.3116 651.133 28.9716 651.133 29.485C651.133 29.9983 651.151 30.2733 651.188 30.31C651.995 30.1633 652.856 29.925 653.773 29.595C654.726 29.2283 655.661 28.8433 656.578 28.44C657.531 28 658.448 27.56 659.328 27.12C660.245 26.6433 661.106 26.2033 661.913 25.8C662.28 25.6166 662.61 25.5616 662.903 25.635C663.233 25.7083 663.435 25.8733 663.508 26.13C663.581 26.5333 663.526 27.0283 663.343 27.615C663.16 28.2016 662.83 28.7333 662.353 29.21C661.803 29.65 661.07 30.1633 660.153 30.75C659.273 31.3 658.32 31.8316 657.293 32.345C656.266 32.8583 655.221 33.3166 654.158 33.72C653.131 34.0866 652.215 34.3066 651.408 34.38C650.198 34.49 649.281 34.16 648.658 33.39C648.035 32.62 647.686 31.6483 647.613 30.475C647.54 29.3016 647.521 27.945 647.558 26.405C647.631 24.865 647.705 23.2333 647.778 21.51C647.081 21.5833 646.403 21.6566 645.743 21.73C645.12 21.7666 644.515 21.8216 643.928 21.895C643.451 21.895 642.92 21.785 642.333 21.565C641.783 21.345 641.508 20.9233 641.508 20.3C641.508 20.08 641.6 19.7866 641.783 19.42C641.966 19.0533 642.37 18.7783 642.993 18.595C644.496 18.3383 646.165 18.1183 647.998 17.935C648.108 16.2116 648.236 14.5433 648.383 12.93C648.53 11.3166 648.658 9.84997 648.768 8.52997C648.805 8.08997 648.933 7.70497 649.153 7.37497C649.373 7.04497 649.611 6.87997 649.868 6.87997C650.491 6.8433 651.078 7.0083 651.628 7.37497C652.215 7.70497 652.508 8.08997 652.508 8.52997C652.361 9.77663 652.215 11.1883 652.068 12.765C651.958 14.3416 651.848 15.955 651.738 17.605C652.471 17.5316 653.168 17.495 653.828 17.495C654.525 17.4583 655.185 17.4216 655.808 17.385ZM690.429 9.68497C690.356 10.0516 690.099 10.2533 689.659 10.29C689.219 10.3266 688.852 10.345 688.559 10.345C687.642 10.3816 686.689 10.4733 685.699 10.62C684.746 10.7666 683.737 10.9866 682.674 11.28C682.234 11.4266 681.757 11.3716 681.244 11.115C680.731 10.8583 680.419 10.345 680.309 9.57497C680.309 9.28163 680.419 9.0433 680.639 8.85997C680.859 8.67663 681.116 8.51163 681.409 8.36497C681.886 8.14497 682.454 7.96163 683.114 7.81497C683.774 7.63163 684.434 7.5033 685.094 7.42997C685.791 7.35663 686.451 7.3383 687.074 7.37497C687.697 7.37497 688.211 7.42997 688.614 7.53997C689.201 7.7233 689.659 7.9983 689.989 8.36497C690.356 8.73163 690.502 9.17163 690.429 9.68497ZM689.164 28C689.421 28.5866 689.549 29.2283 689.549 29.925C689.586 30.585 689.402 31.0433 688.999 31.3C688.486 31.63 687.936 31.6116 687.349 31.245C686.762 30.8783 686.322 30.3833 686.029 29.76C685.626 28.99 685.314 28.055 685.094 26.955C684.874 25.8183 684.709 24.7 684.599 23.6C684.489 22.5 684.416 21.4733 684.379 20.52C684.379 19.5666 684.379 18.8516 684.379 18.375C684.416 17.8616 684.562 17.385 684.819 16.945C685.076 16.505 685.406 16.2483 685.809 16.175C686.469 16.2116 687.001 16.5233 687.404 17.11C687.807 17.66 687.991 18.3566 687.954 19.2C687.954 19.86 687.972 20.5933 688.009 21.4C688.046 22.2066 688.119 23.0133 688.229 23.82C688.339 24.6266 688.467 25.415 688.614 26.185C688.761 26.9183 688.944 27.5233 689.164 28ZM698.029 13.975C698.139 14.525 698.249 15.1483 698.359 15.845C698.506 16.505 698.653 17.2016 698.799 17.935C698.946 18.6316 699.074 19.3466 699.184 20.08C699.294 20.8133 699.386 21.51 699.459 22.17C699.899 21.2166 700.376 20.2083 700.889 19.145C701.403 18.0816 701.953 17.11 702.539 16.23C703.163 15.3133 703.804 14.5616 704.464 13.975C705.161 13.3883 705.913 13.095 706.719 13.095C707.929 13.095 708.938 13.535 709.744 14.415C710.588 15.295 711.284 16.395 711.834 17.715C712.421 18.9983 712.879 20.355 713.209 21.785C713.539 23.215 713.814 24.48 714.034 25.58C714.254 26.57 713.814 27.3033 712.714 27.78C712.201 28.0366 711.816 28.0733 711.559 27.89C711.303 27.7066 711.156 27.5233 711.119 27.34C710.936 26.9 710.698 26.13 710.404 25.03C710.148 23.93 709.836 22.8116 709.469 21.675C709.139 20.5383 708.754 19.5483 708.314 18.705C707.874 17.8616 707.379 17.4766 706.829 17.55C706.169 17.5866 705.583 18.0816 705.069 19.035C704.629 19.805 704.171 20.6666 703.694 21.62C703.254 22.5366 702.814 23.49 702.374 24.48C701.934 25.4333 701.494 26.405 701.054 27.395C700.651 28.3483 700.266 29.2283 699.899 30.035C699.643 30.2916 699.313 30.475 698.909 30.585C698.543 30.6583 698.158 30.6216 697.754 30.475C697.388 30.365 697.094 30.1816 696.874 29.925C696.654 29.6683 696.544 29.4116 696.544 29.155C696.214 26.295 695.866 23.6916 695.499 21.345C695.169 18.9983 694.729 16.5966 694.179 14.14C693.923 13.2966 693.868 12.6366 694.014 12.16C694.198 11.6466 694.748 11.445 695.664 11.555C696.948 11.775 697.736 12.5816 698.029 13.975ZM739.56 27.45C739.597 27.5966 739.615 27.8166 739.615 28.11C739.615 28.3666 739.56 28.6416 739.45 28.935C739.34 29.1916 739.175 29.43 738.955 29.65C738.772 29.8333 738.497 29.925 738.13 29.925C737.323 29.4116 736.645 28.7333 736.095 27.89C735.802 26.79 735.527 25.525 735.27 24.095C735.05 22.665 734.867 21.18 734.72 19.64C734.573 18.0633 734.463 16.4683 734.39 14.855C734.353 13.2416 734.353 11.6833 734.39 10.18C734.39 9.9233 734.408 9.5933 734.445 9.18997C734.518 8.78663 734.628 8.40163 734.775 8.03497C734.922 7.63164 735.105 7.30164 735.325 7.04497C735.545 6.75163 735.857 6.60497 736.26 6.60497C736.737 6.60497 737.122 6.75163 737.415 7.04497C737.708 7.3383 737.855 7.81497 737.855 8.47497C737.818 9.94163 737.818 11.5183 737.855 13.205C737.928 14.855 738.038 16.5233 738.185 18.21C738.332 19.8966 738.515 21.5466 738.735 23.16C738.992 24.7366 739.267 26.1666 739.56 27.45ZM767.388 10.235C763.611 10.0516 759.981 10.345 756.498 11.115C753.014 11.885 749.568 12.93 746.158 14.25C745.278 14.58 744.599 14.5433 744.123 14.14C743.683 13.7366 743.463 13.3333 743.463 12.93C743.719 12.2333 744.178 11.665 744.838 11.225C752.354 7.5583 759.871 6.20163 767.388 7.15497C767.754 7.26497 768.048 7.53997 768.268 7.97997C768.525 8.3833 768.616 8.73163 768.543 9.02497C768.469 9.39163 768.359 9.7033 768.213 9.95997C768.066 10.18 767.791 10.2716 767.388 10.235ZM759.578 29.43C759.578 29.8333 759.431 30.2 759.138 30.53C758.881 30.8233 758.551 31.0066 758.148 31.08C757.414 31.19 756.938 31.0616 756.718 30.695C756.498 30.3283 756.369 29.9066 756.333 29.43C756.296 26.8633 756.241 24.315 756.168 21.785C756.131 19.2183 756.021 16.6516 755.838 14.085C755.838 13.9383 755.819 13.7733 755.783 13.59C755.746 13.37 755.746 13.1683 755.783 12.985C755.819 12.765 755.893 12.5816 756.003 12.435C756.149 12.2883 756.369 12.1783 756.663 12.105C757.506 11.9583 758.111 12.105 758.478 12.545C758.844 12.9483 759.028 13.3516 759.028 13.755C759.321 16.395 759.504 19.0166 759.578 21.62C759.651 24.2233 759.651 26.8266 759.578 29.43ZM780.597 3.30497C780.267 4.9183 779.919 6.5133 779.552 8.08997C779.222 9.66663 778.91 11.2433 778.617 12.82C778.324 14.3966 778.104 15.9733 777.957 17.55C777.81 19.1266 777.792 20.7033 777.902 22.28C777.975 22.6833 777.902 23.0683 777.682 23.435C777.499 23.8016 777.279 24.04 777.022 24.15C776.215 24.4433 775.629 24.2416 775.262 23.545C774.822 21.675 774.584 19.8233 774.547 17.99C774.547 16.1566 774.675 14.3416 774.932 12.545C775.225 10.7483 775.592 8.96997 776.032 7.20997C776.509 5.4133 776.985 3.63497 777.462 1.87497C777.645 1.14163 777.939 0.7383 778.342 0.664968C778.745 0.591633 779.13 0.6283 779.497 0.774967C780.047 0.9583 780.395 1.32497 780.542 1.87497C780.689 2.42497 780.707 2.90163 780.597 3.30497ZM778.397 32.895C778.397 33.2983 778.342 33.8483 778.232 34.545C778.159 35.205 778.012 35.8283 777.792 36.415C777.609 37.0016 777.334 37.4783 776.967 37.845C776.637 38.2116 776.215 38.285 775.702 38.065C775.409 37.8816 775.115 37.5333 774.822 37.02C774.529 36.5066 774.4 36.03 774.437 35.59C774.51 34.71 774.694 33.8483 774.987 33.005C775.28 32.1616 775.665 31.6483 776.142 31.465C776.362 31.3916 776.6 31.3916 776.857 31.465C777.15 31.5383 777.407 31.6666 777.627 31.85C777.847 31.9966 778.03 32.18 778.177 32.4C778.324 32.5833 778.397 32.7483 778.397 32.895Z" fill="white"/>
</svg>
