<svg width="536" height="150" viewBox="0 0 536 150" fill="none" xmlns="http://www.w3.org/2000/svg">
<path d="M177.484 0H73.9516C33.1093 0 0 33.5786 0 75C0 116.421 33.1093 150 73.9516 150H177.484C218.326 150 251.435 116.421 251.435 75C251.435 33.5786 218.326 0 177.484 0Z" fill="#9FA1A4"/>
<path d="M322.886 109.83C326.259 109.83 329.564 109.2 332.803 107.94C336.042 106.68 338.904 105.06 341.389 103.08L338.194 98.4904C336.153 100.2 333.824 101.595 331.206 102.675C328.588 103.755 325.859 104.295 323.02 104.295C318.76 104.295 314.988 103.26 311.705 101.19C308.422 99.1204 305.87 96.3754 304.051 92.9554C303.869 92.6134 303.696 92.2687 303.533 91.9213L303.374 91.5754L347.779 74.1904C346.048 68.6747 343.304 64.129 339.546 60.5534L338.66 59.7454C334.445 56.0554 329.231 54.2104 323.02 54.2104C317.873 54.2104 313.191 55.4704 308.976 57.9904C304.761 60.5104 301.411 63.8854 298.926 68.1154C296.441 72.3454 295.199 77.0254 295.199 82.1554C295.199 87.3755 296.375 92.0779 298.726 96.2629C301.078 100.448 304.339 103.755 308.51 106.185C312.681 108.615 317.473 109.83 322.886 109.83ZM301.832 86.8504L301.759 86.5078C301.468 85.0102 301.322 83.4694 301.322 81.8854C301.322 77.6554 302.276 73.8754 304.184 70.5454C306.092 67.2154 308.643 64.5604 311.838 62.5804C315.033 60.6004 318.627 59.6104 322.62 59.6104C327.057 59.6104 330.807 60.9154 333.868 63.5254C336.93 66.1354 339.215 69.2404 340.724 72.8404L340.202 71.6817L301.832 86.8504ZM386.647 109.83C389.576 109.83 392.349 109.403 394.967 108.548C397.585 107.693 399.981 106.523 402.155 105.038C404.329 103.553 406.171 101.933 407.679 100.178C408.326 99.4258 408.891 98.6695 409.374 97.9091L409.543 97.6242V108.75H415.799V55.9654H410.208L409.595 67.4779L409.356 67.0054C407.731 64.0129 405.445 61.4254 402.497 59.2429L401.49 58.5304C397.363 55.7404 392.993 54.3454 388.378 54.3454C382.965 54.3454 378.128 55.4479 373.869 57.6529C369.609 59.8579 366.237 63.0529 363.752 67.2379C361.267 71.4229 360.025 76.4404 360.025 82.2904C360.025 87.7804 361.201 92.5954 363.552 96.7354C365.904 100.875 369.099 104.093 373.137 106.388C377.174 108.683 381.678 109.83 386.647 109.83ZM387.979 104.43C384.074 104.43 380.458 103.418 377.13 101.393C373.802 99.3679 371.162 96.6679 369.21 93.2929C367.257 89.9179 366.281 86.1604 366.281 82.0204C366.281 77.5204 367.257 73.6054 369.21 70.2754C371.162 66.9454 373.78 64.3579 377.063 62.5129C380.347 60.6679 383.941 59.7454 387.845 59.7454C391.395 59.7454 394.679 60.5104 397.696 62.0405C400.713 63.5704 403.264 65.6405 405.35 68.2505C407.435 70.8604 408.833 73.8304 409.543 77.1604V84.7204C409.277 88.5904 408.167 92.0104 406.215 94.9804C404.263 97.9504 401.711 100.268 398.561 101.933C395.411 103.598 391.883 104.43 387.979 104.43ZM451.74 109.83C455.733 109.83 459.039 109.133 461.657 107.738C464.274 106.343 466.249 104.408 467.58 101.933C468.911 99.4579 469.577 96.6904 469.577 93.6304C469.577 90.5704 468.845 88.1179 467.38 86.2729C465.916 84.4279 464.053 82.9429 461.79 81.8179C459.527 80.6929 457.109 79.7254 454.535 78.9154C452.583 78.1954 450.697 77.4304 448.878 76.6204C447.059 75.8104 445.572 74.7529 444.418 73.4479C443.265 72.1429 442.688 70.4554 442.688 68.3854C442.688 66.4054 443.243 64.8079 444.352 63.5929C445.461 62.3779 446.837 61.4554 448.478 60.8254C450.12 60.1954 451.695 59.8804 453.204 59.8804C454.979 59.9704 457.042 60.3754 459.394 61.0954C461.745 61.8154 463.631 63.1654 465.051 65.1454L467.846 60.6904C465.628 58.5304 463.165 57.0004 460.459 56.1004C457.752 55.2004 455.023 54.7504 452.272 54.7504C449.255 54.7504 446.548 55.3579 444.152 56.5729C441.756 57.7879 439.87 59.4755 438.495 61.6355C437.119 63.7955 436.432 66.3154 436.432 69.1954C436.432 73.1554 437.652 76.2154 440.092 78.3754C442.533 80.5354 445.661 82.2454 449.477 83.5054C451.784 84.2254 453.98 85.0129 456.066 85.8679C458.151 86.7229 459.882 87.8254 461.257 89.1754C462.633 90.5254 463.32 92.4604 463.32 94.9804C463.32 97.4104 462.744 99.3454 461.59 100.785C460.436 102.225 458.95 103.238 457.131 103.823C455.312 104.408 453.381 104.7 451.34 104.7C448.589 104.7 445.994 104.138 443.553 103.013C441.113 101.888 439.005 100.38 437.23 98.4904L434.302 102.675C436.343 105.195 439.005 107.018 442.289 108.143C445.572 109.268 448.722 109.83 451.74 109.83ZM511.108 109.83C514.48 109.83 517.786 109.2 521.025 107.94C524.264 106.68 527.126 105.06 529.611 103.08L526.416 98.4904C524.375 100.2 522.045 101.595 519.428 102.675C516.81 103.755 514.081 104.295 511.241 104.295C506.982 104.295 503.21 103.26 499.926 101.19C496.643 99.1204 494.092 96.3754 492.273 92.9554C492.091 92.6134 491.918 92.2687 491.754 91.9213L491.596 91.5754L536 74.1904C534.27 68.6747 531.525 64.129 527.767 60.5534L526.882 59.7454C522.667 56.0554 517.453 54.2104 511.241 54.2104C506.094 54.2104 501.413 55.4704 497.198 57.9904C492.982 60.5104 489.632 63.8854 487.148 68.1154C484.663 72.3454 483.421 77.0254 483.421 82.1554C483.421 87.3755 484.596 92.0779 486.948 96.2629C489.3 100.448 492.561 103.755 496.732 106.185C500.903 108.615 505.695 109.83 511.108 109.83ZM490.054 86.8542L489.98 86.5078C489.689 85.0102 489.544 83.4694 489.544 81.8854C489.544 77.6554 490.498 73.8754 492.406 70.5454C494.314 67.2154 496.865 64.5604 500.06 62.5804C503.254 60.6004 506.848 59.6104 510.842 59.6104C515.279 59.6104 519.028 60.9154 522.09 63.5254C525.151 66.1354 527.436 69.2404 528.945 72.8404L528.424 71.6817L490.054 86.8542Z" fill="white"/>
<g filter="url(#filter0_d)">
<path d="M177.488 142.5C214.246 142.5 244.044 112.279 244.044 75C244.044 37.7208 214.246 7.5 177.488 7.5C140.729 7.5 110.931 37.7208 110.931 75C110.931 112.279 140.729 142.5 177.488 142.5Z" fill="black"/>
</g>
<path d="M177.488 142.5C214.246 142.5 244.044 112.279 244.044 75C244.044 37.7208 214.246 7.5 177.488 7.5C140.729 7.5 110.931 37.7208 110.931 75C110.931 112.279 140.729 142.5 177.488 142.5Z" fill="white"/>
<path d="M177.482 123.75C204.03 123.75 225.551 101.924 225.551 75.0005C225.551 48.0766 204.03 26.2505 177.482 26.2505C150.935 26.2505 129.414 48.0766 129.414 75.0005C129.414 101.924 150.935 123.75 177.482 123.75Z" fill="url(#paint0_linear)"/>
<defs>
<filter id="filter0_d" x="105.81" y="2.37837" width="143.356" height="145.243" filterUnits="userSpaceOnUse" color-interpolation-filters="sRGB">
<feFlood flood-opacity="0" result="BackgroundImageFix"/>
<feColorMatrix in="SourceAlpha" type="matrix" values="0 0 0 0 0 0 0 0 0 0 0 0 0 0 0 0 0 0 127 0" result="hardAlpha"/>
<feOffset/>
<feGaussianBlur stdDeviation="2.56081"/>
<feColorMatrix type="matrix" values="0 0 0 0 0 0 0 0 0 0 0 0 0 0 0 0 0 0 1 0"/>
<feBlend mode="normal" in2="BackgroundImageFix" result="effect1_dropShadow"/>
<feBlend mode="normal" in="SourceGraphic" in2="effect1_dropShadow" result="shape"/>
</filter>
<linearGradient id="paint0_linear" x1="129.414" y1="75.0005" x2="225.551" y2="75.0005" gradientUnits="userSpaceOnUse">
<stop stop-color="#012E65"/>
<stop offset="1" stop-color="#0060AD"/>
</linearGradient>
</defs>
</svg>
