<svg width="700" height="110" viewBox="0 0 700 110" fill="none" xmlns="http://www.w3.org/2000/svg">
<g filter="url(#filter0_b)">
<path fill-rule="evenodd" clip-rule="evenodd" d="M22.68 6.63802e-06C10.1542 7.18554e-06 -7.93518e-08 10.1542 -6.93974e-08 22.68L-9.91376e-07 87.32C-4.43855e-07 99.8458 10.1542 110 22.68 110L677.32 110C689.846 110 700 99.8458 700 87.32L700 22.68C700 10.1542 689.846 7.99285e-06 677.32 8.54037e-06L22.68 6.63802e-06ZM101.487 47.4516C101.487 47.0661 101.391 46.7529 101.198 46.512C100.379 45.4519 99.1258 44.8496 97.4394 44.7051C95.8011 44.5123 94.1628 44.8255 92.5245 45.6447C90.3081 46.7529 88.5734 48.4635 87.3206 50.7763C86.116 53.0892 85.5619 55.6912 85.6582 58.5822C85.7064 59.7869 85.8992 60.9674 86.2365 62.1238C86.5738 63.2321 87.0797 64.2921 87.7543 65.304C88.4289 66.2677 89.2721 67.135 90.284 67.906C91.344 68.6287 92.6209 69.1829 94.1146 69.5683C95.1747 69.8574 96.307 70.002 97.5117 70.002C98.7163 69.9538 99.8968 69.7852 101.053 69.4961C102.21 69.207 103.27 68.8215 104.233 68.3396C105.197 67.8578 105.968 67.3037 106.546 66.6773C107.028 66.0509 107.149 65.4245 106.908 64.7981C106.811 64.5571 106.619 64.3644 106.329 64.2198C106.089 64.0753 105.823 64.0512 105.534 64.1476C104.667 64.4849 103.752 64.7981 102.788 65.0872C101.824 65.3281 100.836 65.5208 99.8245 65.6654C98.8608 65.7618 97.8971 65.7858 96.9334 65.7377C95.9697 65.6895 95.1024 65.4967 94.3315 65.1594C93.0787 64.6294 92.0427 63.7862 91.2236 62.6298C90.4526 61.4251 90.0671 60.0037 90.0671 58.3654C90.0671 56.679 90.3803 55.0648 91.0067 53.5229C91.6331 51.9328 92.5005 50.7282 93.6087 49.909C94.7169 49.0899 95.8252 48.6562 96.9334 48.608C98.0417 48.5599 99.1018 48.6562 100.114 48.8971C100.692 49.0417 101.101 48.849 101.342 48.3189C101.487 48.078 101.535 47.7889 101.487 47.4516ZM113.322 75.2782C113.708 74.6036 114.021 73.8568 114.262 73.0376C114.695 71.2548 115.153 69.4961 115.635 67.7614C116.165 65.9786 116.695 64.1717 117.225 62.3406C119.538 62.2443 121.875 62.0515 124.236 61.7624C126.645 61.4733 128.862 61.136 130.886 60.7506C131.56 62.3888 132.259 64.0271 132.982 65.6654C133.753 67.2555 134.548 68.8456 135.367 70.4357C135.511 70.7248 135.704 71.0621 135.945 71.4475C136.234 71.7848 136.547 72.1221 136.885 72.4594C137.222 72.7485 137.559 72.9894 137.896 73.1822C138.282 73.3749 138.643 73.399 138.981 73.2545C139.27 73.1099 139.462 72.8208 139.559 72.3871C139.655 71.9535 139.679 71.4957 139.631 71.0139C139.631 70.4838 139.583 69.9779 139.486 69.4961C139.39 68.966 139.318 68.5806 139.27 68.3396C138.595 66.9423 137.945 65.5208 137.318 64.0753C136.692 62.5816 136.065 61.0638 135.439 59.5218C136.451 58.9918 137.15 58.4618 137.535 57.9318C137.92 57.4017 137.969 56.7753 137.68 56.0526C137.439 55.4743 136.981 55.137 136.306 55.0407C135.632 54.9443 135.029 54.9202 134.499 54.9684L134.066 55.113C133.969 55.113 133.849 55.137 133.704 55.1852C132.741 52.5833 131.801 49.9813 130.886 47.3793C130.018 44.7774 129.247 42.2477 128.573 39.7903C128.187 38.9229 127.85 38.2724 127.561 37.8388C127.32 37.3569 127.103 36.9955 126.91 36.7546C126.718 36.5137 126.525 36.3691 126.332 36.321C126.188 36.2728 126.043 36.2487 125.898 36.2487C125.561 36.2487 125.224 36.321 124.887 36.4655C124.549 36.6101 124.26 36.7787 124.019 36.9715C123.778 36.8751 123.489 36.8751 123.152 36.9715C122.863 37.0196 122.598 37.2365 122.357 37.622C120.911 40.0794 119.49 42.8259 118.093 45.8615C116.743 48.849 115.491 51.9569 114.334 55.1852C113.178 58.3654 112.166 61.5697 111.298 64.7981C110.431 67.9782 109.805 71.0139 109.419 73.905C109.323 74.7241 109.516 75.3987 109.997 75.9287C110.479 76.4587 111.178 76.6033 112.094 76.3624C112.527 76.266 112.937 75.9046 113.322 75.2782ZM118.743 57.5704C120.381 52.6074 122.309 47.6443 124.525 42.6813C125.826 47.4034 127.344 51.9569 129.079 56.3417C125.417 57.0644 121.971 57.474 118.743 57.5704ZM159.721 45.3556C164.299 44.3437 169.069 43.9582 174.032 44.1992C174.562 44.2473 174.923 44.1269 175.116 43.8378C175.309 43.5005 175.453 43.0909 175.55 42.6091C175.646 42.2236 175.526 41.7658 175.188 41.2358C174.899 40.6576 174.514 40.2962 174.032 40.1516C164.154 38.8988 154.276 40.6817 144.398 45.5001C143.531 46.0783 142.929 46.8252 142.592 47.7407C142.592 48.2707 142.881 48.8008 143.459 49.3308C144.085 49.8608 144.977 49.909 146.133 49.4754C150.614 47.7407 155.144 46.3675 159.721 45.3556ZM163.19 70.8693C163.576 70.4357 163.769 69.9538 163.769 69.4238C163.865 66.0027 163.865 62.5816 163.769 59.1605C163.672 55.7394 163.431 52.2942 163.046 48.8249C163.046 48.2948 162.805 47.7648 162.323 47.2348C161.841 46.6566 161.046 46.4638 159.938 46.6566C159.553 46.7529 159.263 46.8975 159.071 47.0902C158.926 47.283 158.83 47.5239 158.782 47.813C158.733 48.0539 158.733 48.3189 158.782 48.608C158.83 48.849 158.854 49.0658 158.854 49.2585C159.095 52.6315 159.239 56.0044 159.288 59.3773C159.384 62.702 159.456 66.0509 159.504 69.4238C159.553 70.0502 159.721 70.6043 160.01 71.0862C160.299 71.568 160.926 71.7366 161.889 71.5921C162.42 71.4957 162.853 71.2548 163.19 70.8693ZM195.221 47.4516C195.221 47.0661 195.125 46.7529 194.932 46.512C194.113 45.4519 192.86 44.8496 191.173 44.7051C189.535 44.5123 187.897 44.8255 186.259 45.6447C184.042 46.7529 182.308 48.4635 181.055 50.7763C179.85 53.0892 179.296 55.6912 179.392 58.5822C179.441 59.7869 179.633 60.9674 179.971 62.1238C180.308 63.2321 180.814 64.2921 181.488 65.304C182.163 66.2677 183.006 67.135 184.018 67.906C185.078 68.6287 186.355 69.1829 187.849 69.5683C188.909 69.8574 190.041 70.002 191.246 70.002C192.45 69.9538 193.631 69.7852 194.787 69.4961C195.944 69.207 197.004 68.8215 197.968 68.3396C198.931 67.8578 199.702 67.3037 200.28 66.6773C200.762 66.0509 200.883 65.4245 200.642 64.7981C200.545 64.5571 200.353 64.3644 200.064 64.2198C199.823 64.0753 199.558 64.0512 199.269 64.1476C198.401 64.4849 197.486 64.7981 196.522 65.0872C195.558 65.3281 194.57 65.5208 193.559 65.6654C192.595 65.7618 191.631 65.7858 190.668 65.7377C189.704 65.6895 188.837 65.4967 188.066 65.1594C186.813 64.6294 185.777 63.7862 184.958 62.6298C184.187 61.4251 183.801 60.0037 183.801 58.3654C183.801 56.679 184.114 55.0648 184.741 53.5229C185.367 51.9328 186.235 50.7282 187.343 49.909C188.451 49.0899 189.559 48.6562 190.668 48.608C191.776 48.5599 192.836 48.6562 193.848 48.8971C194.426 49.0417 194.836 48.849 195.076 48.3189C195.221 48.078 195.269 47.7889 195.221 47.4516ZM231.341 55.908C231.004 52.005 230.498 48.1021 229.824 44.1991C229.679 43.38 229.39 42.7777 228.956 42.3922C228.571 42.0067 228.185 41.814 227.8 41.814C227.27 41.814 226.74 42.1272 226.21 42.7536C225.728 43.38 225.487 44.1028 225.487 44.9219C225.631 46.0302 225.776 47.1625 225.921 48.3189C226.065 49.4272 226.186 50.5354 226.282 51.6437C223.728 52.4146 221.006 53.1133 218.115 53.7397C215.224 54.3179 212.549 54.7757 210.092 55.113C209.851 53.6192 209.682 52.1255 209.586 50.6318C209.49 49.1381 209.417 47.6203 209.369 46.0783C209.369 45.7892 209.321 45.4279 209.225 44.9942C209.128 44.5605 208.984 44.1269 208.791 43.6932C208.598 43.2595 208.333 42.8982 207.996 42.6091C207.707 42.3199 207.345 42.1754 206.912 42.1754C206.526 42.1754 206.093 42.344 205.611 42.6813C205.177 42.9704 204.912 43.4764 204.816 44.1991C204.719 46.3675 204.743 48.6321 204.888 50.9932C205.033 53.3542 205.274 55.6912 205.611 58.004C205.996 60.2687 206.43 62.437 206.912 64.509C207.442 66.5809 207.996 68.3637 208.574 69.8574C208.719 70.1466 209.008 70.4357 209.441 70.7248C209.875 71.0139 210.285 71.1343 210.67 71.0862C211.104 70.8934 211.417 70.6043 211.61 70.2188C211.851 69.7852 211.995 69.3274 212.043 68.8456C212.14 68.3637 212.164 67.906 212.116 67.4723C212.116 67.0386 212.092 66.7254 212.043 66.5327C211.803 65.4726 211.586 64.4126 211.393 63.3525L210.815 60.1723C216.452 59.1123 221.801 57.8836 226.86 56.4862C227.053 58.3172 227.222 60.1482 227.366 61.9793L227.8 67.4723C227.896 68.2914 228.185 68.966 228.667 69.4961C229.197 69.9779 229.727 70.2188 230.257 70.2188C230.402 70.2188 230.57 70.1466 230.763 70.002C231.004 69.8574 231.221 69.6647 231.414 69.4238C231.655 69.1829 231.847 68.9178 231.992 68.6287C232.136 68.2914 232.185 67.906 232.136 67.4723C231.944 63.6175 231.679 59.7628 231.341 55.908ZM292.374 74.4109C292.952 75.23 293.506 75.6396 294.036 75.6396C294.566 75.6396 295.048 75.3505 295.481 74.7723C295.915 74.1459 296.084 73.3749 295.987 72.4594C295.409 67.5928 294.807 62.7261 294.181 57.8595C293.602 52.9928 292.904 48.1262 292.084 43.2595C291.892 42.4404 291.506 41.7176 290.928 41.0912C290.35 40.4648 289.796 40.248 289.266 40.4407C288.736 40.6335 288.254 41.019 287.82 41.5972C287.386 42.1272 287.121 42.6572 287.025 43.1873C284.857 46.2229 282.905 49.3549 281.171 52.5833C279.436 55.7634 277.725 58.8714 276.039 61.907C274.015 59.305 271.919 56.7512 269.751 54.2456C267.631 51.6919 265.366 49.2103 262.957 46.8011C262.909 45.7892 262.62 45.0183 262.09 44.4882C261.56 43.91 260.909 43.6209 260.138 43.6209C258.885 43.6209 258.259 44.5846 258.259 46.512C258.211 48.2467 258.187 50.174 258.187 52.2942C258.187 54.4143 258.211 56.5585 258.259 58.7268C258.355 60.8951 258.5 63.0393 258.693 65.1594C258.885 67.2796 259.198 69.207 259.632 70.9416C259.777 71.568 260.186 72.1462 260.861 72.6762C261.535 73.2063 262.21 73.3508 262.885 73.1099C263.126 73.0135 263.342 72.7726 263.535 72.3871C263.776 71.9535 263.848 71.4716 263.752 70.9416C263.318 68.0023 263.005 64.9908 262.812 61.907C262.668 58.775 262.644 55.5948 262.74 52.3664C264.667 54.4866 266.523 56.6308 268.305 58.7991C270.136 60.9192 271.895 63.208 273.582 65.6654C274.353 67.0627 275.413 67.7614 276.762 67.7614C277.677 67.7614 278.569 66.9182 279.436 65.2317L283.628 57.1367C285.025 54.4384 286.447 51.7159 287.892 48.9694C288.808 54.077 289.531 58.51 290.061 62.2684C290.639 65.9786 291.121 69.231 291.506 72.0258C291.554 72.7967 291.844 73.5918 292.374 74.4109ZM322.394 56.4862C322.972 56.0044 323.165 55.5225 322.972 55.0407C322.201 54.2215 321.334 53.6433 320.37 53.306C319.406 52.9687 318.419 52.8483 317.407 52.9447C316.154 53.041 314.468 53.2338 312.347 53.5229C310.227 53.7638 308.155 54.0529 306.132 54.3902L306.276 50.6318C306.324 49.379 306.397 48.1262 306.493 46.8734C306.493 46.777 306.469 46.6807 306.421 46.5843L306.421 46.2229C307.384 46.0783 308.396 45.9579 309.456 45.8615C310.565 45.717 311.649 45.5724 312.709 45.4279C313.817 45.2833 314.877 45.1628 315.889 45.0665C316.901 44.9219 317.768 44.8015 318.491 44.7051C319.214 44.6087 319.792 44.3919 320.226 44.0546C320.707 43.7173 320.852 43.2114 320.659 42.5368C319.84 41.7176 318.949 41.1635 317.985 40.8744C317.069 40.5853 316.106 40.4889 315.094 40.5853C314.227 40.6335 313.167 40.7299 311.914 40.8744C310.709 41.019 309.432 41.1876 308.083 41.3803C306.782 41.5731 305.505 41.7899 304.252 42.0308C303 42.2718 301.94 42.4886 301.072 42.6813C300.542 42.8741 300.181 43.1632 299.988 43.5487C299.795 43.8859 299.699 44.2714 299.699 44.7051C299.699 45.2351 299.892 45.717 300.277 46.1506C300.711 46.5843 301.193 46.8493 301.723 46.9457C301.626 48.343 301.554 49.7645 301.506 51.21C301.458 52.6074 301.385 54.0047 301.289 55.4021C300.518 55.7394 300.084 56.3658 299.988 57.2813C299.988 58.1486 300.398 58.8232 301.217 59.305C301.12 61.7143 301.12 64.0994 301.217 66.4604C301.265 68.1469 301.699 69.4479 302.518 70.3634C303.337 71.2307 304.542 71.6403 306.132 71.5921C308.878 71.5439 311.697 71.1825 314.588 70.5079C317.479 69.7852 320.418 68.9419 323.406 67.9782C323.839 67.8337 324.321 67.641 324.851 67.4C325.43 67.1109 325.96 66.8218 326.441 66.5327C326.971 66.1954 327.405 65.8822 327.742 65.5931C328.08 65.304 328.248 65.0872 328.248 64.9426C328.248 64.4126 328.104 64.003 327.815 63.7139C327.526 63.4248 327.14 63.2562 326.658 63.208C326.225 63.1116 325.719 63.1116 325.14 63.208C324.562 63.2562 324.008 63.3525 323.478 63.4971C322.418 63.738 321.117 64.0512 319.575 64.4367C318.081 64.774 316.515 65.1113 314.877 65.4486C313.239 65.7858 311.625 66.075 310.035 66.3159C308.493 66.5086 307.168 66.605 306.059 66.605C305.963 64.1476 305.963 61.6902 306.059 59.2327C308.42 58.8954 310.733 58.5823 312.998 58.2931C315.263 57.9559 317.479 57.6426 319.647 57.3535C320.9 57.209 321.816 56.9199 322.394 56.4862ZM360.154 67.6891C360.154 67.3037 360.129 67.0146 360.081 66.8218C359.696 65.1354 359.334 63.2562 358.997 61.1842C358.708 59.0641 358.467 56.8958 358.274 54.6793C358.082 52.4628 357.937 50.2704 357.841 48.1021C357.792 45.8856 357.792 43.8137 357.841 41.8863C357.841 41.019 357.648 40.3926 357.262 40.0071C356.877 39.6216 356.371 39.4289 355.745 39.4289C355.215 39.4289 354.805 39.6216 354.516 40.0071C354.227 40.3444 353.986 40.778 353.793 41.3081C353.6 41.7899 353.456 42.2959 353.359 42.8259C353.311 43.3559 353.287 43.7896 353.287 44.1269C353.239 46.1024 353.239 48.1503 353.287 50.2704C353.384 52.3905 353.528 54.4866 353.721 56.5585C353.914 58.5822 354.155 60.5337 354.444 62.4129C354.781 64.2921 355.142 65.9545 355.528 67.4C356.251 68.5083 357.142 69.3997 358.202 70.0743C358.684 70.0743 359.045 69.9538 359.286 69.7129C359.575 69.4238 359.792 69.1106 359.937 68.7733C360.081 68.3878 360.154 68.0264 360.154 67.6891ZM388.411 42.8259C388.989 42.4404 389.326 42.1031 389.423 41.814C389.326 41.1876 388.869 40.6335 388.05 40.1516C386.749 39.718 385.183 39.3084 383.352 38.9229C381.569 38.5375 379.641 38.2483 377.569 38.0556C375.546 37.8147 373.45 37.6701 371.281 37.6219C369.161 37.5738 367.162 37.6942 365.282 37.9833C364.945 38.0797 364.68 38.2724 364.487 38.5615C364.295 38.8507 364.15 39.1639 364.054 39.5012C364.005 39.8384 363.981 40.1757 363.981 40.513C364.03 40.8503 364.102 41.0912 364.198 41.2358C364.487 41.814 364.921 42.1754 365.499 42.3199C366.077 42.4645 366.704 42.5368 367.378 42.5368L369.764 42.5368C370.438 46.6807 371.04 50.8004 371.57 54.8961C372.149 58.9918 372.679 63.1116 373.161 67.2555C373.209 67.5446 373.329 67.8819 373.522 68.2674C373.715 68.6528 373.956 69.0142 374.245 69.3515C374.582 69.6406 374.943 69.9056 375.329 70.1466C375.714 70.3875 376.124 70.5079 376.558 70.5079C377.039 70.5079 377.377 70.1466 377.569 69.4238C377.81 68.6528 377.883 67.9301 377.786 67.2555C377.642 65.6172 377.473 63.9789 377.28 62.3406C377.136 60.6542 376.943 58.9677 376.702 57.2813C378.822 57.1849 380.894 57.0644 382.918 56.9199C384.99 56.7271 387.038 56.4621 389.061 56.1248C389.688 56.0285 390.218 55.7875 390.652 55.4021C391.085 54.9684 391.302 54.4866 391.302 53.9565C391.302 53.5711 390.965 53.1615 390.29 52.7278C389.616 52.2942 388.941 52.0773 388.266 52.0773C384.267 52.3664 380.22 52.5833 376.124 52.7278C375.883 51.0414 375.618 49.3549 375.329 47.6684C375.088 45.982 374.823 44.2955 374.534 42.6091C376.654 42.6572 378.726 42.7536 380.75 42.8982C382.822 43.0427 384.893 43.2114 386.965 43.4041C387.351 43.4041 387.833 43.2114 388.411 42.8259ZM427.796 60.2446C427.989 58.7509 428.182 57.6186 428.374 56.8476C429.29 55.4984 430.302 53.9806 431.41 52.2942C432.518 50.6077 433.627 48.8971 434.735 47.1625C435.891 45.4279 436.999 43.7173 438.06 42.0308C439.168 40.2962 440.131 38.7061 440.951 37.2606C441.192 36.7305 441.264 36.1282 441.167 35.4536C441.119 34.7791 440.902 34.2972 440.517 34.0081C440.083 33.6226 439.529 33.4781 438.855 33.5744C438.18 33.6708 437.529 34.2008 436.903 35.1645C435.217 37.9111 433.386 40.8021 431.41 43.8378C429.483 46.8734 427.435 49.8367 425.267 52.7278C424.785 51.8605 424.231 50.8245 423.604 49.6199C422.978 48.3671 422.351 47.0661 421.725 45.717C421.099 44.3678 420.496 43.0427 419.918 41.7417C419.34 40.4407 418.858 39.2843 418.472 38.2724C418.087 37.7424 417.629 37.4292 417.099 37.3328C416.617 37.1883 416.111 37.1401 415.581 37.1883C415.1 37.2847 414.762 37.5015 414.57 37.8388C414.377 38.1279 414.256 38.4893 414.208 38.9229C414.208 39.3566 414.256 39.8384 414.353 40.3685C414.497 40.8503 414.666 41.3081 414.859 41.7417C415.871 44.2473 417.099 46.9939 418.545 49.9813C420.038 52.9687 421.629 56.0044 423.315 59.0882C423.074 61.5938 422.881 64.0271 422.737 66.3882C422.592 68.7492 422.52 70.9416 422.52 72.9654C422.52 73.7845 422.737 74.3386 423.17 74.6277C423.652 74.9168 424.158 75.0614 424.688 75.0614C426.23 75.0614 427.001 74.3627 427.001 72.9654C427.001 72.1462 427.025 70.9898 427.073 69.4961C427.17 68.0023 427.266 66.4604 427.363 64.8703C427.507 63.2321 427.652 61.6902 427.796 60.2446ZM469.849 61.6179C470.62 60.3651 471.15 59.0641 471.439 57.7149C471.728 56.4139 471.849 54.9684 471.8 53.3783C471.8 51.74 471.463 50.1981 470.789 48.7526C470.162 47.2589 469.174 45.9579 467.825 44.8496C466.476 43.7414 464.645 43.0427 462.332 42.7536C461.079 42.5609 459.947 42.585 458.935 42.8259C457.923 43.0668 457.176 43.4282 456.695 43.91C456.695 43.5246 456.574 43.1873 456.333 42.8982C456.092 42.609 455.779 42.5127 455.394 42.6091C453.948 42.8018 452.623 43.4041 451.418 44.416C450.214 45.4279 449.178 46.7047 448.31 48.2467C447.588 49.5476 446.985 51.0173 446.504 52.6555C446.07 54.2938 445.829 56.0044 445.781 57.7872C445.781 59.5219 445.998 61.2324 446.431 62.9189C446.913 64.6053 447.708 66.1231 448.816 67.4723C450.455 69.1106 452.31 70.0743 454.382 70.3634C456.502 70.6043 458.622 70.3393 460.742 69.5683C461.898 69.1347 463.031 68.5324 464.139 67.7614C465.295 66.9905 466.356 66.075 467.319 65.0149C468.283 63.9548 469.126 62.8225 469.849 61.6179ZM453.225 49.6922C453.9 48.8249 454.719 48.1744 455.683 47.7407C455.586 48.2226 455.707 48.5358 456.044 48.6803C456.43 48.7767 456.767 48.7285 457.056 48.5358C458.598 47.7648 460.067 47.4516 461.465 47.5962C462.862 47.7407 464.067 48.1744 465.079 48.8971C465.801 49.4272 466.331 50.0777 466.669 50.8486C467.006 51.6196 467.199 52.4387 467.247 53.306C467.295 54.1252 467.247 54.9443 467.102 55.7634C466.958 56.5344 466.765 57.1849 466.524 57.7149C466.091 58.7268 465.512 59.7146 464.79 60.6783C464.067 61.5938 463.272 62.3888 462.404 63.0634C461.537 63.738 460.573 64.2921 459.513 64.7258C458.501 65.1113 457.466 65.304 456.405 65.304C454.574 65.304 453.225 64.774 452.358 63.7139C451.491 62.6057 450.985 61.2083 450.84 59.5218C450.744 58.3654 450.744 57.1849 450.84 55.9803C450.985 54.7275 451.25 53.5711 451.635 52.511C452.069 51.4509 452.599 50.5113 453.225 49.6922ZM502.912 48.9694C502.719 47.7648 502.527 46.7288 502.334 45.8615C502.093 44.9942 501.684 44.3196 501.105 43.8378C500.575 43.3559 499.973 43.3077 499.298 43.6932C498.672 44.0787 498.286 44.6087 498.142 45.2833C497.997 45.9579 497.973 46.512 498.07 46.9457C498.359 48.5839 498.576 50.2463 498.72 51.9328C498.913 53.6192 498.937 55.2334 498.792 56.7753C498.648 58.3172 498.262 59.7387 497.636 61.0397C497.058 62.3406 496.118 63.4248 494.817 64.2921C493.998 64.8222 493.01 65.3281 491.854 65.8099C490.746 66.2436 489.589 66.5568 488.385 66.7495C487.18 66.9423 486.024 66.9182 484.915 66.6773C483.855 66.3882 483.012 65.7858 482.386 64.8703C482.096 64.2439 481.976 63.3766 482.024 62.2684C482.121 61.1119 482.313 59.811 482.602 58.3654C482.94 56.9199 483.325 55.4021 483.759 53.812C484.193 52.2219 484.626 50.6559 485.06 49.114C485.204 48.6321 485.18 48.1985 484.988 47.813C484.843 47.4275 484.65 47.0902 484.409 46.8011C484.168 46.512 483.903 46.2952 483.614 46.1506C483.373 45.9579 483.181 45.8615 483.036 45.8615C482.699 45.8133 482.41 45.8133 482.169 45.8615C481.542 45.9579 481.109 46.3193 480.868 46.9457C480.434 48.343 480.025 49.6922 479.639 50.9932C479.254 52.246 478.892 53.4988 478.555 54.7516C478.266 56.0044 478.025 57.3295 477.832 58.7268C477.639 60.076 477.495 61.5697 477.398 63.208C477.302 64.8944 477.639 66.3159 478.41 67.4723C479.181 68.6287 480.193 69.5683 481.446 70.2911C482.554 70.9175 483.807 71.3271 485.204 71.5198C486.65 71.6644 488.095 71.6162 489.541 71.3753C491.035 71.0862 492.504 70.6525 493.95 70.0743C495.444 69.4479 496.793 68.6528 497.997 67.6891C499.25 66.7254 500.31 65.6413 501.178 64.4367C502.045 63.2321 502.623 61.907 502.912 60.4614C503.153 59.2086 503.298 57.9077 503.346 56.5585C503.394 55.2093 503.37 53.9083 503.274 52.6555C503.225 51.3546 503.105 50.1259 502.912 48.9694ZM544.536 47.4516C544.536 47.0661 544.439 46.7529 544.247 46.512C543.428 45.4519 542.175 44.8496 540.488 44.7051C538.85 44.5123 537.212 44.8255 535.573 45.6447C533.357 46.7529 531.622 48.4635 530.37 50.7763C529.165 53.0892 528.611 55.6912 528.707 58.5823C528.755 59.7869 528.948 60.9674 529.285 62.1238C529.623 63.2321 530.129 64.2921 530.803 65.304C531.478 66.2677 532.321 67.135 533.333 67.906C534.393 68.6287 535.67 69.1829 537.164 69.5683C538.224 69.8574 539.356 70.002 540.561 70.002C541.765 69.9538 542.946 69.7852 544.102 69.4961C545.259 69.207 546.319 68.8215 547.282 68.3396C548.246 67.8578 549.017 67.3037 549.595 66.6773C550.077 66.0509 550.198 65.4245 549.957 64.7981C549.86 64.5571 549.667 64.3644 549.378 64.2198C549.137 64.0753 548.872 64.0512 548.583 64.1476C547.716 64.4849 546.801 64.7981 545.837 65.0872C544.873 65.3281 543.885 65.5208 542.873 65.6654C541.91 65.7618 540.946 65.7858 539.982 65.7377C539.019 65.6895 538.151 65.4967 537.38 65.1594C536.128 64.6294 535.092 63.7862 534.273 62.6298C533.502 61.4251 533.116 60.0037 533.116 58.3654C533.116 56.679 533.429 55.0648 534.056 53.5229C534.682 51.9328 535.549 50.7282 536.658 49.909C537.766 49.0899 538.874 48.6562 539.982 48.608C541.091 48.5599 542.151 48.6562 543.163 48.8971C543.741 49.0417 544.15 48.849 544.391 48.3189C544.536 48.078 544.584 47.7889 544.536 47.4516ZM556.371 75.2782C556.757 74.6036 557.07 73.8568 557.311 73.0376C557.744 71.2548 558.202 69.4961 558.684 67.7614C559.214 65.9786 559.744 64.1717 560.274 62.3406C562.587 62.2443 564.924 62.0515 567.285 61.7624C569.694 61.4733 571.911 61.136 573.934 60.7506C574.609 62.3888 575.308 64.0271 576.031 65.6654C576.801 67.2555 577.596 68.8456 578.416 70.4357C578.56 70.7248 578.753 71.0621 578.994 71.4475C579.283 71.7848 579.596 72.1221 579.933 72.4594C580.271 72.7485 580.608 72.9894 580.945 73.1822C581.331 73.3749 581.692 73.399 582.029 73.2545C582.319 73.1099 582.511 72.8208 582.608 72.3871C582.704 71.9535 582.728 71.4957 582.68 71.0139C582.68 70.4838 582.632 69.9779 582.535 69.4961C582.439 68.966 582.367 68.5806 582.319 68.3396C581.644 66.9423 580.994 65.5208 580.367 64.0753C579.741 62.5816 579.114 61.0638 578.488 59.5218C579.5 58.9918 580.198 58.4618 580.584 57.9318C580.969 57.4017 581.018 56.7753 580.729 56.0526C580.488 55.4743 580.03 55.137 579.355 55.0407C578.681 54.9443 578.078 54.9202 577.548 54.9684L577.115 55.113C577.018 55.113 576.898 55.1371 576.753 55.1852C575.79 52.5833 574.85 49.9813 573.934 47.3793C573.067 44.7774 572.296 42.2477 571.622 39.7903C571.236 38.9229 570.899 38.2724 570.61 37.8388C570.369 37.3569 570.152 36.9955 569.959 36.7546C569.766 36.5137 569.574 36.3691 569.381 36.321C569.236 36.2728 569.092 36.2487 568.947 36.2487C568.61 36.2487 568.273 36.321 567.935 36.4655C567.598 36.6101 567.309 36.7787 567.068 36.9715C566.827 36.8751 566.538 36.8751 566.201 36.9715C565.912 37.0196 565.647 37.2365 565.406 37.6219C563.96 40.0794 562.539 42.8259 561.141 45.8615C559.792 48.849 558.539 51.9569 557.383 55.1852C556.227 58.3654 555.215 61.5697 554.347 64.7981C553.48 67.9782 552.854 71.0139 552.468 73.905C552.372 74.7241 552.565 75.3987 553.046 75.9287C553.528 76.4587 554.227 76.6033 555.142 76.3624C555.576 76.266 555.986 75.9046 556.371 75.2782ZM561.792 57.5704C563.43 52.6074 565.358 47.6443 567.574 42.6813C568.875 47.4034 570.393 51.9569 572.128 56.3417C568.466 57.0644 565.02 57.474 561.792 57.5704ZM613.901 55.9803C614.383 51.6919 614.792 47.4998 615.129 43.4041C615.129 42.1513 614.455 41.4767 613.106 41.3803C612.576 41.3322 611.997 41.549 611.371 42.0308C610.745 42.4645 610.456 42.9223 610.504 43.4041C610.118 47.3071 609.733 51.0414 609.347 54.607C609.01 58.1727 608.552 61.4011 607.974 64.2921C607.059 63.0875 606.071 61.7624 605.011 60.3169C603.999 58.8232 602.866 57.3294 601.614 55.8357C600.409 54.342 599.06 52.8724 597.566 51.4268C596.121 49.9813 594.531 48.6321 592.796 47.3793C592.748 46.7047 592.555 46.1506 592.218 45.717C591.929 45.2351 591.302 44.946 590.338 44.8496C589.905 44.8014 589.447 45.0424 588.965 45.5724C588.532 46.1024 588.267 46.9457 588.17 48.1021C588.074 49.1622 587.977 50.6077 587.881 52.4387C587.785 54.2697 587.688 56.173 587.592 58.1486C587.544 60.1242 587.52 62.0274 587.52 63.8585C587.52 65.6413 587.592 67.0146 587.737 67.9782C587.833 68.9419 588.17 69.9056 588.748 70.8693C589.327 71.7848 590.073 72.2426 590.989 72.2426C591.76 72.2426 592.145 72.0258 592.145 71.5921C592.049 68.4601 592.049 65.3522 592.145 62.2684C592.242 59.1364 592.362 55.9803 592.507 52.8001C593.808 53.9565 595.036 55.2093 596.193 56.5585C597.398 57.9077 598.53 59.2809 599.59 60.6783C600.698 62.0274 601.71 63.3766 602.626 64.7258C603.589 66.0268 604.481 67.2314 605.3 68.3396C605.926 69.1588 606.697 69.7852 607.613 70.2188C608.576 70.6525 609.323 70.8211 609.853 70.7248C610.48 70.5802 610.961 70.3152 611.299 69.9297C611.636 69.5442 611.901 68.8938 612.094 67.9782C612.865 64.2198 613.467 60.2205 613.901 55.9803Z" fill="#4BE2FF"/>
</g>
<defs>
<filter id="filter0_b" x="-4.32" y="-4.32" width="708.64" height="118.64" filterUnits="userSpaceOnUse" color-interpolation-filters="sRGB">
<feFlood flood-opacity="0" result="BackgroundImageFix"/>
<feGaussianBlur in="BackgroundImage" stdDeviation="2.16"/>
<feComposite in2="SourceAlpha" operator="in" result="effect1_backgroundBlur"/>
<feBlend mode="normal" in="SourceGraphic" in2="effect1_backgroundBlur" result="shape"/>
</filter>
</defs>
</svg>
