<svg width="240" height="240" viewBox="0 0 240 240" fill="none" xmlns="http://www.w3.org/2000/svg">
<path fill-rule="evenodd" clip-rule="evenodd" d="M116.041 49.8398H211.965V195.578H116.041V49.8398Z" fill="#434343"/>
<path fill-rule="evenodd" clip-rule="evenodd" d="M116.041 49.8398H211.965V195.578H116.041V49.8398Z" stroke="#434343" stroke-width="1.26316" stroke-miterlimit="10" stroke-linejoin="round"/>
<path d="M50.9931 181.087V179.399C50.1681 180.724 48.9306 181.387 47.2806 181.387C46.2306 181.387 45.2556 181.099 44.3556 180.524C43.4806 179.924 42.7931 179.112 42.2931 178.087C41.8181 177.037 41.5806 175.837 41.5806 174.487C41.5806 173.162 41.8056 171.962 42.2556 170.887C42.7056 169.787 43.3681 168.949 44.2431 168.374C45.1181 167.799 46.1056 167.512 47.2056 167.512C48.0056 167.512 48.7181 167.687 49.3431 168.037C49.9681 168.362 50.4681 168.799 50.8431 169.349V162.787H53.0931V181.087H50.9931ZM43.9056 174.487C43.9056 176.162 44.2556 177.424 44.9556 178.274C45.6806 179.124 46.5306 179.549 47.5056 179.549C48.4806 179.549 49.3056 179.149 49.9806 178.349C50.6806 177.524 51.0306 176.299 51.0306 174.674C51.0306 172.849 50.6806 171.512 49.9806 170.662C49.2806 169.812 48.4181 169.387 47.3931 169.387C46.4181 169.387 45.5931 169.799 44.9181 170.624C44.2431 171.424 43.9056 172.712 43.9056 174.487ZM56.6292 165.374V162.787H58.8792V165.374H56.6292ZM56.6292 181.087V167.812H58.8792V181.087H56.6292ZM61.8986 182.174L64.0736 182.512C64.1736 183.187 64.4361 183.674 64.8611 183.974C65.4111 184.399 66.1611 184.612 67.1111 184.612C68.1611 184.612 68.9611 184.399 69.5111 183.974C70.0861 183.574 70.4736 182.999 70.6736 182.249C70.7986 181.774 70.8611 180.812 70.8611 179.362C69.8611 180.512 68.6361 181.087 67.1861 181.087C65.3611 181.087 63.9486 180.437 62.9486 179.137C61.9486 177.812 61.4486 176.224 61.4486 174.374C61.4486 173.124 61.6736 171.962 62.1236 170.887C62.5986 169.812 63.2611 168.987 64.1111 168.412C64.9861 167.812 66.0111 167.512 67.1861 167.512C68.7611 167.512 70.0486 168.149 71.0486 169.424V167.812H73.1486V179.287C73.1486 181.362 72.9361 182.824 72.5111 183.674C72.0861 184.549 71.4111 185.237 70.4861 185.737C69.5861 186.237 68.4736 186.487 67.1486 186.487C65.5736 186.487 64.2986 186.124 63.3236 185.399C62.3486 184.699 61.8736 183.624 61.8986 182.174ZM63.7736 174.224C63.7736 175.949 64.1111 177.212 64.7861 178.012C65.4861 178.812 66.3486 179.212 67.3736 179.212C68.4236 179.212 69.2986 178.824 69.9986 178.049C70.6986 177.249 71.0486 175.999 71.0486 174.299C71.0486 172.674 70.6861 171.449 69.9611 170.624C69.2361 169.799 68.3611 169.387 67.3361 169.387C66.3611 169.387 65.5236 169.799 64.8236 170.624C64.1236 171.424 63.7736 172.624 63.7736 174.224ZM76.5347 165.374V162.787H78.7847V165.374H76.5347ZM76.5347 181.087V167.812H78.7847V181.087H76.5347ZM87.1291 179.062L87.4291 181.049C86.8041 181.199 86.2416 181.274 85.7416 181.274C84.9416 181.274 84.3166 181.149 83.8666 180.899C83.4166 180.624 83.0916 180.274 82.8916 179.849C82.7166 179.424 82.6291 178.537 82.6291 177.187V169.574H80.9791V167.812H82.6291V164.549L84.8791 163.199V167.812H87.1291V169.574H84.8791V177.337C84.8791 177.962 84.9166 178.374 84.9916 178.574C85.0666 178.749 85.1916 178.899 85.3666 179.024C85.5416 179.124 85.8041 179.174 86.1541 179.174C86.4041 179.174 86.7291 179.137 87.1291 179.062ZM97.9847 179.437C97.1347 180.162 96.3222 180.674 95.5472 180.974C94.7972 181.249 93.9847 181.387 93.1097 181.387C91.6347 181.387 90.5097 181.037 89.7347 180.337C88.9597 179.612 88.5722 178.699 88.5722 177.599C88.5722 176.949 88.7097 176.362 88.9847 175.837C89.2847 175.287 89.6722 174.849 90.1472 174.524C90.6472 174.199 91.1972 173.949 91.7972 173.774C92.2222 173.674 92.8847 173.562 93.7847 173.437C95.5847 173.237 96.9222 172.987 97.7972 172.687C97.7972 172.362 97.7972 172.162 97.7972 172.087C97.7972 171.162 97.5847 170.512 97.1597 170.137C96.5847 169.637 95.7347 169.387 94.6097 169.387C93.5597 169.387 92.7722 169.574 92.2472 169.949C91.7472 170.324 91.3847 170.974 91.1597 171.899L88.9472 171.599C89.1472 170.674 89.4722 169.924 89.9222 169.349C90.3972 168.749 91.0597 168.299 91.9097 167.999C92.7847 167.674 93.7847 167.512 94.9097 167.512C96.0597 167.512 96.9847 167.649 97.6847 167.924C98.3847 168.199 98.8972 168.537 99.2222 168.937C99.5722 169.337 99.8097 169.849 99.9347 170.474C100.01 170.849 100.047 171.537 100.047 172.537V175.537C100.047 177.612 100.097 178.937 100.197 179.512C100.297 180.062 100.485 180.587 100.76 181.087H98.4347C98.1847 180.612 98.0347 180.062 97.9847 179.437ZM97.7972 174.449C96.9722 174.774 95.7472 175.049 94.1222 175.274C93.1972 175.399 92.5347 175.549 92.1347 175.724C91.7597 175.899 91.4722 176.149 91.2722 176.474C91.0722 176.774 90.9722 177.124 90.9722 177.524C90.9722 178.124 91.1972 178.624 91.6472 179.024C92.0972 179.424 92.7597 179.624 93.6347 179.624C94.4847 179.624 95.2472 179.437 95.9222 179.062C96.5972 178.687 97.0972 178.162 97.4222 177.487C97.6722 176.987 97.7972 176.237 97.7972 175.237V174.449ZM103.508 181.087V162.787H105.758V181.087H103.508Z" fill="#434343"/>
<path d="M132.101 179.437C131.251 180.162 130.439 180.674 129.664 180.974C128.914 181.249 128.101 181.387 127.226 181.387C125.751 181.387 124.626 181.037 123.851 180.337C123.076 179.612 122.689 178.699 122.689 177.599C122.689 176.949 122.826 176.362 123.101 175.837C123.401 175.287 123.789 174.849 124.264 174.524C124.764 174.199 125.314 173.949 125.914 173.774C126.339 173.674 127.001 173.562 127.901 173.437C129.701 173.237 131.039 172.987 131.914 172.687C131.914 172.362 131.914 172.162 131.914 172.087C131.914 171.162 131.701 170.512 131.276 170.137C130.701 169.637 129.851 169.387 128.726 169.387C127.676 169.387 126.889 169.574 126.364 169.949C125.864 170.324 125.501 170.974 125.276 171.899L123.064 171.599C123.264 170.674 123.589 169.924 124.039 169.349C124.514 168.749 125.176 168.299 126.026 167.999C126.901 167.674 127.901 167.512 129.026 167.512C130.176 167.512 131.101 167.649 131.801 167.924C132.501 168.199 133.014 168.537 133.339 168.937C133.689 169.337 133.926 169.849 134.051 170.474C134.126 170.849 134.164 171.537 134.164 172.537V175.537C134.164 177.612 134.214 178.937 134.314 179.512C134.414 180.062 134.601 180.587 134.876 181.087H132.551C132.301 180.612 132.151 180.062 132.101 179.437ZM131.914 174.449C131.089 174.774 129.864 175.049 128.239 175.274C127.314 175.399 126.651 175.549 126.251 175.724C125.876 175.899 125.589 176.149 125.389 176.474C125.189 176.774 125.089 177.124 125.089 177.524C125.089 178.124 125.314 178.624 125.764 179.024C126.214 179.424 126.876 179.624 127.751 179.624C128.601 179.624 129.364 179.437 130.039 179.062C130.714 178.687 131.214 178.162 131.539 177.487C131.789 176.987 131.914 176.237 131.914 175.237V174.449ZM137.25 182.174L139.425 182.512C139.525 183.187 139.787 183.674 140.212 183.974C140.762 184.399 141.512 184.612 142.462 184.612C143.512 184.612 144.312 184.399 144.862 183.974C145.437 183.574 145.825 182.999 146.025 182.249C146.15 181.774 146.212 180.812 146.212 179.362C145.212 180.512 143.987 181.087 142.537 181.087C140.712 181.087 139.3 180.437 138.3 179.137C137.3 177.812 136.8 176.224 136.8 174.374C136.8 173.124 137.025 171.962 137.475 170.887C137.95 169.812 138.612 168.987 139.462 168.412C140.337 167.812 141.362 167.512 142.537 167.512C144.112 167.512 145.4 168.149 146.4 169.424V167.812H148.5V179.287C148.5 181.362 148.287 182.824 147.862 183.674C147.437 184.549 146.762 185.237 145.837 185.737C144.937 186.237 143.825 186.487 142.5 186.487C140.925 186.487 139.65 186.124 138.675 185.399C137.7 184.699 137.225 183.624 137.25 182.174ZM139.125 174.224C139.125 175.949 139.462 177.212 140.137 178.012C140.837 178.812 141.7 179.212 142.725 179.212C143.775 179.212 144.65 178.824 145.35 178.049C146.05 177.249 146.4 175.999 146.4 174.299C146.4 172.674 146.037 171.449 145.312 170.624C144.587 169.799 143.712 169.387 142.687 169.387C141.712 169.387 140.875 169.799 140.175 170.624C139.475 171.424 139.125 172.624 139.125 174.224ZM160.961 176.812L163.286 177.112C162.911 178.462 162.224 179.512 161.224 180.262C160.249 181.012 158.986 181.387 157.436 181.387C155.511 181.387 153.974 180.787 152.824 179.587C151.699 178.387 151.136 176.712 151.136 174.562C151.136 172.337 151.711 170.612 152.861 169.387C154.011 168.137 155.499 167.512 157.324 167.512C159.099 167.512 160.549 168.124 161.674 169.349C162.799 170.549 163.361 172.249 163.361 174.449C163.361 174.574 163.361 174.762 163.361 175.012H153.461C153.536 176.487 153.949 177.612 154.699 178.387C155.449 179.162 156.374 179.549 157.474 179.549C158.299 179.549 158.999 179.337 159.574 178.912C160.149 178.462 160.611 177.762 160.961 176.812ZM153.574 173.174H160.999C160.899 172.074 160.611 171.237 160.136 170.662C159.411 169.812 158.486 169.387 157.361 169.387C156.336 169.387 155.461 169.737 154.736 170.437C154.036 171.112 153.649 172.024 153.574 173.174ZM166.11 181.087V167.812H168.135V169.724C169.11 168.249 170.51 167.512 172.335 167.512C173.135 167.512 173.872 167.662 174.547 167.962C175.222 168.237 175.722 168.612 176.047 169.087C176.397 169.562 176.635 170.112 176.76 170.737C176.835 171.162 176.872 171.899 176.872 172.949V181.087H174.622V173.024C174.622 172.099 174.535 171.412 174.36 170.962C174.185 170.512 173.872 170.149 173.422 169.874C172.997 169.599 172.485 169.462 171.885 169.462C170.935 169.462 170.11 169.774 169.41 170.399C168.71 170.999 168.36 172.149 168.36 173.849V181.087H166.11ZM188.996 176.212L191.208 176.512C190.958 178.037 190.333 179.237 189.333 180.112C188.333 180.962 187.108 181.387 185.658 181.387C183.858 181.387 182.408 180.799 181.308 179.624C180.208 178.424 179.658 176.724 179.658 174.524C179.658 173.074 179.896 171.812 180.371 170.737C180.846 169.662 181.558 168.862 182.508 168.337C183.483 167.787 184.546 167.512 185.696 167.512C187.121 167.512 188.296 167.887 189.221 168.637C190.146 169.362 190.733 170.387 190.983 171.712L188.808 172.049C188.583 171.174 188.208 170.512 187.683 170.062C187.158 169.612 186.521 169.387 185.771 169.387C184.646 169.387 183.721 169.799 182.996 170.624C182.296 171.424 181.946 172.699 181.946 174.449C181.946 176.224 182.283 177.524 182.958 178.349C183.658 179.149 184.558 179.549 185.658 179.549C186.533 179.549 187.258 179.274 187.833 178.724C188.433 178.174 188.821 177.337 188.996 176.212ZM193.008 186.187L192.783 184.087C193.258 184.212 193.683 184.274 194.058 184.274C194.558 184.274 194.958 184.187 195.258 184.012C195.558 183.862 195.808 183.637 196.008 183.337C196.133 183.112 196.358 182.549 196.683 181.649C196.733 181.524 196.796 181.349 196.871 181.124L191.846 167.812H194.283L197.021 175.499C197.396 176.474 197.721 177.499 197.996 178.574C198.246 177.549 198.546 176.537 198.896 175.537L201.746 167.812H203.996L198.933 181.312C198.408 182.762 197.996 183.762 197.696 184.312C197.296 185.062 196.833 185.612 196.308 185.962C195.808 186.312 195.196 186.487 194.471 186.487C194.046 186.487 193.558 186.387 193.008 186.187Z" fill="white"/>
<path d="M44.6842 154.964V72.5015H55.5967V113.376L96.5467 72.5015H111.359L76.7467 105.914L112.859 154.964H98.4592L69.0967 113.226L55.5967 126.389V154.964H44.6842Z" fill="#434343"/>
<path d="M127.146 128.451L137.458 127.551C137.933 131.676 139.058 135.064 140.833 137.714C142.633 140.364 145.408 142.501 149.158 144.126C152.908 145.751 157.121 146.564 161.796 146.564C165.971 146.564 169.646 145.951 172.821 144.726C176.021 143.476 178.396 141.776 179.946 139.626C181.496 137.476 182.271 135.126 182.271 132.576C182.271 129.976 181.521 127.714 180.021 125.789C178.521 123.864 176.046 122.239 172.596 120.914C170.396 120.064 165.508 118.726 157.933 116.901C150.358 115.076 145.046 113.364 141.996 111.764C138.071 109.689 135.133 107.126 133.183 104.076C131.258 101.026 130.296 97.6012 130.296 93.8012C130.296 89.6512 131.471 85.7637 133.821 82.1387C136.196 78.5137 139.646 75.7637 144.171 73.8887C148.721 72.0137 153.771 71.0762 159.321 71.0762C165.446 71.0762 170.833 72.0637 175.483 74.0387C180.159 76.0137 183.746 78.9137 186.246 82.7387C188.771 86.5637 190.134 90.8887 190.334 95.7137L179.871 96.5012C179.296 91.3012 177.384 87.3762 174.133 84.7262C170.908 82.0512 166.121 80.7137 159.771 80.7137C153.171 80.7137 148.358 81.9262 145.333 84.3512C142.333 86.7512 140.833 89.6637 140.833 93.0887C140.833 96.0387 141.896 98.4762 144.021 100.401C146.121 102.301 151.608 104.264 160.483 106.289C169.358 108.289 175.446 110.039 178.746 111.539C183.546 113.739 187.084 116.539 189.359 119.939C191.659 123.339 192.809 127.251 192.809 131.676C192.809 136.051 191.546 140.189 189.021 144.089C186.521 147.964 182.909 150.989 178.184 153.164C173.484 155.314 168.196 156.389 162.321 156.389C154.846 156.389 148.583 155.301 143.533 153.126C138.508 150.926 134.558 147.651 131.683 143.301C128.808 138.926 127.296 133.976 127.146 128.451Z" fill="white"/>
</svg>
