<svg width="2000" height="1200" viewBox="0 0 2000 1200" fill="none" xmlns="http://www.w3.org/2000/svg">
<mask id="mask0" style="mask-type:alpha" maskUnits="userSpaceOnUse" x="0" y="0" width="2000" height="1201">
<rect y="0.00146484" width="2000" height="1200" fill="#C4C4C4"/>
</mask>
<g mask="url(#mask0)">
<circle cx="1717" cy="1200" r="88.5" stroke="#F5AF99" stroke-width="7" stroke-dasharray="22 22"/>
<circle cx="1799" cy="-109.999" r="594" fill="#8488E5" fill-opacity="0.08"/>
<g filter="url(#filter0_f)">
<circle cx="230" cy="1292" r="447" fill="#8488E5" fill-opacity="0.54"/>
</g>
<g filter="url(#filter1_f)">
<path d="M1691.61 151.468L1688.95 54.6028L1771.5 105.342L1691.61 151.468Z" stroke="#89D7DE" stroke-width="5"/>
</g>
<g filter="url(#filter2_f)">
<path d="M185.667 902.669L317.658 821.548L313.4 976.416L185.667 902.669Z" stroke="#DC3D78" stroke-width="5"/>
</g>
<path d="M851.661 -12.8489C845.945 -5.98287 836.826 -8.59297 829.569 -10.6484C823.065 -12.41 818.619 -13.4537 816.823 -11.2958C815.027 -9.13791 817.055 -4.79219 819.77 1.12193C823.107 7.88548 827.164 16.5769 821.611 23.2468C815.895 30.1128 806.776 27.5027 799.519 25.4473C793.015 23.6856 788.57 22.642 786.773 24.7998C784.977 26.9577 787.005 31.3035 789.721 37.2176C793.057 43.9811 797.114 52.6726 791.562 59.3424C785.846 66.2085 776.726 63.5983 769.47 61.5429C762.965 59.7813 758.52 58.7376 756.723 60.8955C755.09 62.8572 752.214 63.1201 750.253 61.487C748.291 59.8538 748.028 56.9779 749.661 55.0162C755.377 48.1502 764.497 50.7603 771.753 52.8157C778.258 54.5774 782.703 55.621 784.499 53.4631C786.296 51.3052 784.267 46.9595 781.552 41.0454C778.248 34.6413 774.028 26.146 779.58 19.4762C785.296 12.6102 794.416 15.2203 801.672 17.2757C808.177 19.0374 812.622 20.081 814.419 17.9231C816.215 15.7652 814.187 11.4195 811.471 5.50538C808.461 -1.65052 804.241 -10.1458 809.957 -17.0118C815.673 -23.8778 824.793 -21.2677 832.049 -19.2123C838.554 -17.4507 842.999 -16.407 844.795 -18.5649C846.592 -20.7228 844.563 -25.0685 841.848 -30.9826C838.674 -37.9423 834.617 -46.6338 840.17 -53.3036C841.803 -55.2654 844.679 -55.5282 846.641 -53.8951C848.603 -52.2619 848.865 -49.386 847.232 -47.4243C845.436 -45.2664 847.464 -40.9207 850.18 -35.0066C853.353 -28.0469 857.377 -19.7149 851.661 -12.8489Z" fill="#87E7B8"/>
</g>
<defs>
<filter id="filter0_f" x="-255" y="807" width="970" height="970" filterUnits="userSpaceOnUse" color-interpolation-filters="sRGB">
<feFlood flood-opacity="0" result="BackgroundImageFix"/>
<feBlend mode="normal" in="SourceGraphic" in2="BackgroundImageFix" result="shape"/>
<feGaussianBlur stdDeviation="19" result="effect1_foregroundBlur"/>
</filter>
<filter id="filter1_f" x="1678.32" y="42.0542" width="106.066" height="121.677" filterUnits="userSpaceOnUse" color-interpolation-filters="sRGB">
<feFlood flood-opacity="0" result="BackgroundImageFix"/>
<feBlend mode="normal" in="SourceGraphic" in2="BackgroundImageFix" result="shape"/>
<feGaussianBlur stdDeviation="4" result="effect1_foregroundBlur"/>
</filter>
<filter id="filter2_f" x="168.784" y="766.029" width="231" height="226.65" filterUnits="userSpaceOnUse" color-interpolation-filters="sRGB">
<feFlood flood-opacity="0" result="BackgroundImageFix"/>
<feBlend mode="normal" in="SourceGraphic" in2="BackgroundImageFix" result="shape"/>
<feGaussianBlur stdDeviation="6" result="effect1_foregroundBlur"/>
</filter>
</defs>
</svg>
