<svg width="465" height="359" viewBox="0 0 465 359" fill="none" xmlns="http://www.w3.org/2000/svg">
<path d="M243.535 194.823L233.783 215.069L238.584 216.784C242.103 218.04 244.78 218.181 246.679 217.147C248.577 216.112 250.412 213.751 252.21 209.99C252.837 208.583 253.461 207.297 253.861 206.176C254.12 205.453 254.365 204.766 254.511 204.125C254.969 202.495 254.626 201.027 253.737 199.812C252.775 198.572 251.024 197.457 248.422 196.528L243.535 194.823ZM351.41 263.398C350.657 262.15 349.939 261.038 349.222 259.803C349.975 261.051 350.705 262.249 351.41 263.398C422.975 239.013 469.054 207.076 464.053 180.461C462.376 171.504 455.082 163.925 443.275 157.874C442.923 161.173 442.214 164.548 441.039 167.839C439.67 171.671 437.816 175.127 435.561 178.317C437.036 180.434 437.994 182.611 438.397 184.956C442.221 205.606 403.853 230.88 343.654 251.21C344.852 253.065 346.025 254.87 347.186 256.711C346.025 254.87 344.852 253.065 343.654 251.21C341.56 247.934 339.305 244.642 337.101 241.327C340.286 224.77 339.38 208.098 334.867 192.502C332.717 198.176 328.687 208.071 322.378 220.413C320.214 224.736 317.776 229.248 314.964 234.114C309.513 243.705 302.904 254.228 295.094 265.219C292.89 268.265 290.661 271.382 288.249 274.435C288.249 274.435 288.8 273.123 289.689 270.75C290.33 269.185 290.935 267.607 291.564 266.078C294.291 259.021 296.97 251.864 299.566 244.597C302.136 237.401 304.583 230.203 306.905 223.123C308.672 217.597 310.412 212.144 311.994 206.675C316.155 192.709 319.795 179.047 322.825 165.819C322.825 165.819 323.526 162.93 323.846 161.454C324.377 159.157 324.833 156.955 325.265 154.704L347.831 154.813C350.203 168.421 359.065 180.637 372.331 186.883C373.722 187.502 375.063 188.144 376.492 188.655C396.174 195.684 417.423 188.025 428.144 171.428C429.899 168.712 431.364 165.769 432.487 162.624C433.481 159.839 434.195 156.914 434.565 154.029C436.684 138.723 430.334 123.409 418.217 113.944C414.543 111.042 410.319 108.636 405.664 106.974C382.794 98.8059 357.764 110.455 349.706 133.018C348.789 135.585 348.18 138.099 347.755 140.679C341.402 140.53 334.802 140.497 328.088 140.668C341.897 66.7096 336.513 10.9701 310.674 1.74198C284.908 -7.46001 245.52 32.1262 209.358 97.8566C151.609 48.6113 100.34 24.9601 79.5749 42.3728C58.7728 59.7725 73.9616 113.632 113.615 178.022C113.807 178.295 113.962 178.554 114.117 178.813C113.925 178.541 113.77 178.282 113.615 178.022C42.2329 202.472 -3.77015 234.314 1.16744 260.988C6.17833 287.688 60.9125 302.099 136.974 300.765C140.392 300.682 143.847 300.611 147.365 300.481C143.847 300.611 140.379 300.718 136.974 300.765C123.164 374.724 128.549 430.463 154.387 439.691C180.153 448.893 219.541 409.307 255.703 343.577C313.452 392.822 364.684 416.46 385.461 399.133C406.289 381.661 391.1 327.801 351.41 263.398ZM372.432 150.267L380.592 133.204C381.867 130.561 383.219 128.394 384.602 126.605C386.022 124.828 387.595 123.433 389.456 122.386C391.282 121.325 393.381 120.77 395.655 120.767C397.991 120.705 400.503 121.194 403.288 122.189C405.927 123.131 408.034 124.291 409.584 125.62C411.135 126.948 412.155 128.372 412.667 130.064C413.105 131.729 413.212 133.398 412.885 135.238C412.746 136.207 412.444 137.282 411.958 138.413C411.635 139.317 411.213 140.267 410.802 141.302L408.763 145.507L398.904 141.986L401.033 137.528C401.326 136.94 401.518 136.519 401.582 136.338C401.647 136.157 401.849 135.822 402.043 135.28C402.237 134.737 402.439 134.402 402.43 134.195C402.495 134.014 402.551 133.626 402.669 133.179C402.751 132.719 402.817 132.417 402.735 132.184C402.69 131.964 402.608 131.731 402.541 131.34C402.448 131.021 402.269 130.713 402.038 130.549C401.82 130.348 401.48 130.145 401.152 129.906C400.824 129.667 400.384 129.509 399.908 129.339C399.212 129.091 398.599 128.953 397.985 128.938C397.371 128.922 396.84 129.018 396.345 129.249C395.849 129.48 395.39 129.724 395.015 130.079C394.63 130.349 394.253 130.826 393.824 131.447C393.395 132.069 393.092 132.572 392.825 133.088C392.521 133.591 392.228 134.18 391.871 134.949L381.596 156.312C381.163 157.177 380.879 157.973 380.621 158.696C380.143 160.034 379.952 161.148 379.961 162.048C380.098 163.401 380.978 164.409 382.737 165.037C383.433 165.286 384.046 165.423 384.623 165.425C385.164 165.414 385.694 165.318 386.19 165.088C386.686 164.857 387.071 164.587 387.457 164.317C387.843 164.047 388.134 163.58 388.549 162.995C388.905 162.347 389.245 161.857 389.449 161.4C389.678 160.992 389.947 160.355 390.403 159.539L392.597 154.9L402.456 158.422L400.519 162.459C399.435 164.681 398.26 166.585 396.967 168.121C395.711 169.671 394.227 170.934 392.49 171.863C390.814 172.855 388.813 173.363 386.576 173.38C384.339 173.396 381.864 172.92 379.225 171.977C376.989 171.179 375.137 170.232 373.645 169.088C372.189 167.956 371.092 166.749 370.451 165.419C369.81 164.089 369.443 162.572 369.383 161.002C369.337 159.395 369.526 157.709 370.073 155.948C370.266 155.405 370.46 154.863 370.654 154.321C371.267 152.95 371.782 151.625 372.432 150.267ZM96.7025 62.107C112.791 48.6501 154.429 69.0656 202.797 110.557C201.042 113.967 199.273 117.534 197.503 121.101C181.999 126.328 167.796 135.199 156.139 146.895C162.265 145.943 172.848 144.545 186.761 143.888C191.645 143.635 196.859 143.499 202.49 143.471C213.7 143.439 226.254 143.927 239.949 145.271C243.668 145.621 247.421 146.105 251.297 146.592C251.297 146.592 253.945 146.233 259.685 145.552C260.325 145.495 260.978 145.402 261.582 145.332C260.942 145.389 260.289 145.482 259.685 145.552C254.019 146.26 248.253 147.014 242.462 147.84C239.356 148.321 236.3 148.778 233.12 149.233C232.295 149.346 231.506 149.472 230.618 149.644C227.032 150.198 223.37 150.847 219.757 151.473C212.039 152.834 204.504 154.261 197.017 155.786C195.586 156.091 194.168 156.359 192.81 156.689C191.601 156.95 190.491 157.166 189.282 157.427C186.346 158.009 183.249 158.697 180.089 159.444C167.354 162.357 153.205 165.987 138.912 170.138C136.181 170.956 133.451 171.775 130.819 172.547C130.597 172.59 130.436 172.696 130.214 172.739C129.349 172.96 128.483 173.303 127.619 173.524C128.838 175.55 130.143 177.565 131.435 179.617C130.143 177.565 128.838 175.55 127.619 173.524C94.1426 119.494 80.5413 75.5378 96.7025 62.107ZM268.073 211.048C267.595 212.386 267.018 213.77 266.293 215.223C264.484 218.899 262.492 221.816 260.191 224.092C257.89 226.369 255.479 227.914 252.848 228.686C250.216 229.459 247.53 229.804 244.756 229.588C241.982 229.372 238.957 228.699 235.805 227.574L228.952 225.126L213.759 256.556L198.659 251.163L233.279 179.337L256.589 187.662C268.317 191.851 272.128 199.694 268.073 211.048ZM267.202 158.755C268.668 158.585 270.034 158.462 271.463 158.279C282.251 157.117 292.763 156.265 302.866 155.633C292.69 156.238 282.251 157.117 271.463 158.279C270.034 158.462 268.642 158.658 267.202 158.755ZM254.33 160.314C250.289 160.869 246.211 161.41 242.094 162.06C246.235 161.459 250.326 160.882 254.33 160.314C255.414 160.171 256.449 160.052 257.546 159.873C256.449 160.052 255.438 160.221 254.33 160.314ZM183.815 172.965C180.397 173.742 177.002 174.568 173.621 175.358C173.164 175.48 172.72 175.566 172.263 175.688C172.72 175.566 173.164 175.48 173.584 175.345C177.028 174.496 180.373 173.693 183.815 172.965ZM244.744 333.995C214.575 389.309 182.991 422.55 163.089 415.442C143.114 408.308 139.785 362.435 151.56 300.308C155.373 300.161 159.212 299.942 163.037 299.759C159.622 296.827 156.516 293.72 153.512 290.445C152.33 289.126 151.197 287.784 150.041 286.393C146.597 286.549 143.215 286.646 139.833 286.743C75.8685 287.993 30.6098 277.252 26.7855 256.602C22.9613 235.952 61.3288 210.678 121.528 190.348C123.636 193.588 125.877 196.916 128.107 200.159C122.944 226.65 128.505 253.546 142.273 275.628C144.618 279.36 147.198 283.013 150.002 286.501C151.122 287.88 152.291 289.235 153.473 290.554C156.378 293.875 159.619 296.948 162.999 299.868C172.772 308.373 184.321 315.147 197.258 319.768C200.484 320.92 203.601 321.911 206.833 322.698C202.86 317.855 196.195 309.44 188.515 297.85C185.868 293.806 183.067 289.382 180.187 284.602C174.524 275.119 168.627 264.206 162.9 252.009C161.335 248.637 159.76 245.18 158.199 241.565C158.199 241.565 160.22 244.121 163.883 248.446C164.256 248.906 164.726 249.441 165.147 249.998C169.48 255.338 173.973 260.693 178.552 266.039C183.614 271.883 188.652 277.678 193.768 283.256C197.713 287.6 201.697 291.836 205.62 296.009C211.62 302.351 217.734 308.49 223.706 314.333C227.706 318.289 231.793 322.236 235.906 326.11L235.979 326.136C238.921 328.777 241.875 331.381 244.744 333.995ZM311.696 151.04C312.393 147.701 313.04 144.385 313.711 141.119C309.898 141.265 306.059 141.484 302.233 141.667C296.413 141.994 290.456 142.476 284.461 142.944C290.482 142.403 296.413 141.994 302.233 141.667C292.434 133.234 280.911 126.387 267.973 121.767C255.145 117.185 242.088 115.213 229.263 115.484C224.653 115.55 220.109 116.006 215.561 116.706C217.176 113.573 218.828 110.453 220.464 107.49C250.633 52.1765 282.217 18.9356 302.119 26.0433C322.094 33.1771 325.423 79.0501 313.648 141.178C313.077 144.398 312.406 147.665 311.696 151.04C311.561 151.766 311.376 152.516 311.254 153.206C311.389 152.48 311.574 151.73 311.696 151.04ZM368.542 379.392C352.454 392.849 310.816 372.433 262.447 330.941C264.228 327.459 265.972 323.964 267.742 320.397C292.285 312.08 313.488 294.946 326.283 271.384C328.452 267.511 330.342 263.375 332.002 259.075C333.904 262.079 335.783 265.033 337.675 267.951C371.115 321.969 384.656 365.862 368.542 379.392Z" fill="white"/>
</svg>
