<svg width="810" height="150" viewBox="0 0 810 150" fill="none" xmlns="http://www.w3.org/2000/svg">
<path d="M210.958 45.7163H183.672V105.971H201.517V89.81L210.958 89.7292C218.735 89.7292 224.765 87.7629 229.022 83.8033C233.278 79.8438 235.407 74.295 235.407 67.1301C235.407 60.3154 233.278 55.036 229.022 51.3189C224.765 47.6018 218.735 45.7163 210.958 45.7163ZM210.112 75.965H201.545V59.4535H210.112C212.786 59.4535 214.86 60.1538 216.334 61.5545C217.78 62.9551 218.517 64.9753 218.517 67.615C218.517 70.3086 217.78 72.3826 216.334 73.8102C214.887 75.2378 212.786 75.965 210.112 75.965ZM277.182 44.585C271.315 44.5042 265.531 45.8779 260.374 48.6253C255.517 51.2112 251.451 55.063 248.668 59.7498C245.803 64.5713 244.329 70.0931 244.411 75.6957C244.329 81.3522 245.803 86.9279 248.668 91.8032C251.451 96.5439 255.517 100.45 260.374 103.062C265.531 105.837 271.315 107.237 277.182 107.157C283.021 107.237 288.806 105.837 293.963 103.062C298.847 100.45 302.913 96.5439 305.723 91.8032C308.588 86.9009 310.062 81.3252 309.98 75.6957C310.062 70.0931 308.588 64.5982 305.723 59.7498C302.913 55.036 298.847 51.1842 293.963 48.6253C288.806 45.9048 283.021 44.5042 277.182 44.585ZM277.427 59.4535C279.992 59.4265 282.503 60.1807 284.631 61.6083C286.841 63.0898 288.615 65.11 289.788 67.5072C291.071 70.0931 291.725 72.9213 291.671 75.8034C291.725 78.7125 291.071 81.5677 289.788 84.1804C288.615 86.5777 286.814 88.6248 284.604 90.1063C282.503 91.5339 279.992 92.315 277.427 92.2881C274.808 92.2881 272.27 91.5339 270.087 90.1063C267.795 88.5979 265.94 86.5508 264.685 84.1266C263.321 81.5407 262.638 78.6856 262.666 75.7765C262.638 72.8944 263.321 70.0392 264.685 67.4803C265.94 65.083 267.795 63.0629 270.087 61.5814C272.27 60.2077 274.835 59.4535 277.427 59.4535ZM384.935 87.4935L374.13 45.7163H356.721L345.998 87.5743L335.192 45.7163H316.147L336.311 105.971H354.593L365.071 67.3726L375.194 105.971H393.503L413.831 45.7163H395.55L384.935 87.4935ZM423.436 105.971H473.452V92.2073H441.281V82.672H469.686V68.9079H441.281V59.4535H472.606V45.6893H423.436V105.971ZM543.086 105.971L530.917 86.2814C534.109 84.4767 536.701 81.8101 538.42 78.5778C540.248 75.0223 541.149 71.0897 541.04 67.1032C541.04 60.2885 538.829 55.0091 534.382 51.292C529.961 47.5748 523.713 45.7163 515.636 45.6893H487.586V105.944H505.431V89.7022H514.872L522.84 105.944L543.086 105.971ZM505.431 59.4535H515.636C518.31 59.4535 520.384 60.1538 521.857 61.5545C523.331 62.9551 524.04 64.9753 524.04 67.615C524.04 70.3086 523.304 72.3826 521.857 73.8102C520.411 75.2378 518.338 75.965 515.636 75.965H505.431V59.4535ZM598.395 67.615L608.682 55.3323C605.517 51.9654 601.642 49.2987 597.358 47.521C587.699 43.2651 576.566 43.6692 567.234 48.6253C562.405 51.2112 558.421 55.063 555.665 59.7498C552.827 64.5713 551.381 70.0392 551.463 75.6149C551.381 81.2714 552.8 86.8471 555.583 91.7763C558.257 96.517 562.186 100.423 566.962 103.089C576.184 108.207 587.372 108.53 596.895 104.005C601.37 101.985 605.381 99.0759 608.682 95.4934L598.395 84.5037C596.403 86.6316 594.029 88.3824 591.41 89.6484C589.145 90.8335 586.635 91.48 584.07 91.5339C581.478 91.5608 578.94 90.8335 576.785 89.4329C574.574 88.0053 572.801 86.0121 571.628 83.6686C570.345 81.1098 569.69 78.3085 569.745 75.4533C569.69 72.5981 570.345 69.7968 571.628 67.2379C572.801 64.9214 574.574 62.9282 576.785 61.5275C578.968 60.1538 581.505 59.4265 584.07 59.4535C586.744 59.5073 589.364 60.2615 591.656 61.6353C594.302 63.1437 596.594 65.1908 598.395 67.615ZM645.246 44.585C639.379 44.5042 633.595 45.8779 628.437 48.6253C623.581 51.2112 619.515 55.063 616.732 59.7498C613.867 64.5713 612.393 70.0931 612.475 75.6957C612.393 81.3522 613.867 86.9279 616.732 91.8032C619.515 96.5439 623.581 100.45 628.437 103.062C638.943 108.503 651.494 108.503 662.027 103.062C666.911 100.45 670.977 96.5439 673.787 91.8032C676.652 86.9009 678.126 81.3252 678.044 75.6957C678.126 70.0931 676.652 64.5982 673.787 59.7498C670.977 55.036 666.911 51.1842 662.027 48.6253C656.87 45.9048 651.085 44.5042 645.246 44.585ZM645.491 59.4535C648.056 59.4265 650.567 60.1807 652.695 61.6083C654.905 63.0898 656.679 65.11 657.852 67.5072C659.134 70.0931 659.789 72.9213 659.735 75.8034C659.789 78.7125 659.134 81.5677 657.852 84.1804C656.679 86.5777 654.878 88.6248 652.668 90.1063C650.567 91.5339 648.056 92.315 645.519 92.2881C642.899 92.2881 640.362 91.5339 638.179 90.1063C635.887 88.5979 634.031 86.5508 632.776 84.1266C631.412 81.5407 630.73 78.6856 630.757 75.7765C630.73 72.8944 631.412 70.0392 632.776 67.4803C634.031 65.083 635.887 63.0629 638.179 61.5814C640.334 60.2077 642.899 59.4535 645.491 59.4535ZM715.862 45.7163H689.531V105.971H715.262C721.784 105.971 727.541 104.732 732.507 102.227C737.337 99.8839 741.348 96.1937 744.076 91.6147C746.887 86.8201 748.306 81.3522 748.197 75.8034C748.306 70.2816 746.914 64.8406 744.158 60.0191C741.484 55.4939 737.528 51.8037 732.78 49.4603C727.896 46.9553 722.247 45.7163 715.862 45.7163ZM716.354 91.9379H707.349V59.8036H715.508C719.492 59.669 723.339 61.312 725.986 64.275C728.66 67.2648 730.024 71.1436 730.024 75.965C730.024 80.7865 728.769 84.6383 726.259 87.5743C723.803 90.4565 720.174 92.0726 716.354 91.9379ZM759.984 105.971H810V92.2073H777.83V82.672H806.234V68.9079H777.83V59.4535H809.154V45.6893H760.012V105.971H759.984Z" fill="url(#paint0_linear)"/>
<path d="M67.4011 65.94L66.6358 73.1484H68.2794C69.4839 73.1484 70.312 72.9007 70.7762 72.3805C71.2404 71.8603 71.5415 70.9438 71.6795 69.6061C71.7172 69.1107 71.7674 68.6525 71.7674 68.2685C71.7674 68.0208 71.7674 67.7855 71.7423 67.5749C71.7046 67.03 71.4412 66.6212 71.0397 66.3488C70.6131 66.0763 69.9606 65.9277 69.0698 65.9277L67.4011 65.94ZM107.588 75.0681C107.224 74.7709 106.885 74.5108 106.534 74.2135C106.898 74.5108 107.249 74.7956 107.588 75.0681C126.671 59.896 137.198 45.1944 132.794 37.6517C131.314 35.1127 128.277 33.6017 124.037 33.0443C124.288 34.0847 124.438 35.187 124.438 36.3141C124.438 37.6269 124.25 38.8779 123.911 40.0916C124.589 40.5747 125.116 41.132 125.492 41.8008C128.892 47.6591 119.984 59.4996 103.912 72.2071C102.921 71.4392 101.879 70.6837 100.85 69.9158C100.022 64.5405 97.9396 59.5739 94.8783 55.3257C94.8406 57.2826 94.6901 60.7258 94.1129 65.1598C93.9247 66.7079 93.6738 68.3428 93.3476 70.1263C92.7328 73.6314 91.8671 77.5452 90.6877 81.7315C90.3489 82.8957 90.0102 84.0847 89.6087 85.2737C89.6087 85.2737 89.6338 84.8154 89.6463 83.998C89.6714 83.453 89.684 82.9081 89.7091 82.3755C89.7718 79.9356 89.8094 77.4709 89.8094 74.9814C89.8094 72.5167 89.7718 70.0644 89.7091 67.6616C89.6463 65.7914 89.5836 63.946 89.4707 62.1129C89.2197 57.4189 88.8433 52.8734 88.3289 48.5261C88.3289 48.5261 88.2286 47.5724 88.1658 47.0894C88.078 46.3339 87.9776 45.6156 87.8647 44.8848L94.7277 42.4697C96.9234 46.3463 100.938 49.0959 105.643 49.5541C106.133 49.5913 106.609 49.6408 107.099 49.6408C113.836 49.6408 119.457 45.0087 120.913 38.8036C121.151 37.788 121.276 36.7352 121.276 35.6577C121.276 34.704 121.176 33.7379 120.975 32.8214C119.959 27.9415 116.371 23.9782 111.666 22.4176C110.235 21.9346 108.692 21.6621 107.099 21.6621C99.2696 21.6621 92.9335 27.9168 92.9335 35.6453C92.9335 36.5246 93.0214 37.3545 93.1719 38.1843C91.2272 38.8283 89.2197 39.5343 87.1997 40.3146C83.373 16.3488 75.6945 0 66.8491 0C58.0288 0 50.3628 16.2992 46.511 40.1907C23.6385 31.4962 5.50858 29.8737 1.09217 37.4164C-3.33679 44.9591 7.11455 59.673 26.1353 74.9319C26.2231 74.9938 26.2984 75.0557 26.3736 75.1176C26.2858 75.0557 26.2105 74.9938 26.1353 74.9319C7.11455 90.104 -3.39953 104.768 0.991794 112.336C5.40821 119.903 23.5883 118.343 46.5361 109.685C47.5649 109.289 48.6063 108.893 49.6602 108.472C48.6063 108.893 47.5649 109.301 46.5361 109.685C50.3628 133.651 58.0413 150 66.8867 150C75.707 150 83.373 133.701 87.2248 109.809C110.097 118.504 128.215 120.126 132.644 112.608C137.073 105.041 126.621 90.327 107.588 75.0681ZM101.704 38.4196L102.331 32.3507C102.431 31.4095 102.607 30.6044 102.833 29.9108C103.071 29.2172 103.397 28.6227 103.849 28.1026C104.288 27.5824 104.865 27.186 105.555 26.9383C106.258 26.6658 107.074 26.542 108.027 26.542C108.93 26.542 109.696 26.6658 110.311 26.9012C110.925 27.1365 111.39 27.4585 111.728 27.9168C112.042 28.375 112.255 28.8704 112.356 29.4649C112.418 29.7746 112.444 30.1338 112.418 30.5301C112.418 30.8397 112.393 31.1741 112.381 31.5333L112.218 33.0319H108.843L109.006 31.4466C109.031 31.2361 109.043 31.0874 109.043 31.0255C109.043 30.9636 109.069 30.8397 109.069 30.6539C109.069 30.4682 109.094 30.3443 109.069 30.2824C109.069 30.2205 109.043 30.0966 109.031 29.948C109.006 29.7994 108.993 29.7003 108.943 29.6383C108.905 29.5764 108.855 29.5145 108.792 29.403C108.73 29.3163 108.642 29.242 108.554 29.2172C108.466 29.1801 108.341 29.1553 108.215 29.1182C108.09 29.081 107.939 29.081 107.776 29.081C107.538 29.081 107.337 29.1058 107.149 29.1677C106.961 29.2296 106.81 29.3163 106.685 29.4402C106.559 29.564 106.446 29.6879 106.371 29.8365C106.283 29.9604 106.22 30.1461 106.158 30.3815C106.095 30.6168 106.057 30.8026 106.032 30.9884C105.995 31.1741 105.969 31.3847 105.944 31.6572L105.141 39.2618C105.104 39.5715 105.104 39.8439 105.104 40.0916C105.104 40.5499 105.167 40.9091 105.267 41.1816C105.455 41.5779 105.831 41.7884 106.434 41.7884C106.672 41.7884 106.873 41.7637 107.049 41.7018C107.212 41.6398 107.362 41.5531 107.488 41.4293C107.613 41.3054 107.701 41.1816 107.789 41.0577C107.877 40.9339 107.914 40.7605 107.977 40.5375C108.015 40.3022 108.065 40.1164 108.077 39.9554C108.102 39.8068 108.115 39.5838 108.165 39.2866L108.328 37.6393H111.703L111.553 39.076C111.465 39.8687 111.314 40.5747 111.089 41.1816C110.875 41.7884 110.562 42.3334 110.135 42.8041C109.733 43.2871 109.181 43.6587 108.504 43.9064C107.826 44.1541 107.023 44.2779 106.12 44.2779C105.355 44.2779 104.69 44.1912 104.113 44.0054C103.548 43.8197 103.084 43.572 102.745 43.2375C102.406 42.9031 102.13 42.482 101.942 42.0114C101.754 41.5284 101.628 40.9958 101.603 40.4013C101.603 40.2155 101.603 40.0297 101.603 39.8439C101.641 39.3609 101.653 38.9026 101.704 38.4196ZM8.43195 41.5531C11.8572 35.7196 26.7124 37.404 45.8962 44.761C45.7331 45.9871 45.5825 47.2628 45.432 48.5385C41.2916 51.8083 37.9416 56.0441 35.6707 60.862C37.4272 59.9083 40.4886 58.3354 44.6415 56.6262C46.0969 56.0193 47.6653 55.4124 49.3716 54.7932C52.7718 53.567 56.6361 52.3532 60.9396 51.2757C62.1065 50.9784 63.2984 50.7183 64.528 50.4459C64.528 50.4459 65.2933 50.0495 66.962 49.2197C67.1502 49.133 67.3384 49.0339 67.5141 48.9472C67.3259 49.0339 67.1377 49.133 66.962 49.2197C65.3184 50.0495 63.6497 50.9041 61.981 51.7835C61.0902 52.2665 60.2119 52.7372 59.296 53.2202C59.0576 53.3441 58.8318 53.4679 58.5808 53.6165C57.552 54.1739 56.5107 54.7684 55.4818 55.3505C53.2862 56.6014 51.1532 57.8524 49.0454 59.1281C48.6439 59.3758 48.2424 59.6111 47.866 59.8588C47.5273 60.0693 47.2136 60.2551 46.8748 60.4657C46.0468 60.9611 45.181 61.5061 44.3028 62.0758C40.7521 64.3423 36.8501 66.9804 32.9606 69.7919C32.2204 70.3369 31.4801 70.8818 30.765 71.402C30.7022 71.4392 30.6646 71.4887 30.6019 71.5259C30.3635 71.6869 30.1376 71.8851 29.8992 72.0461C13.8772 59.2643 4.98163 47.3867 8.43195 41.5531ZM76.6104 68.2066C76.6104 68.6648 76.5853 69.1479 76.5225 69.6681C76.372 70.9809 76.0834 72.0832 75.6317 73.0245C75.1801 73.9658 74.6155 74.6965 73.9003 75.2167C73.1851 75.7369 72.4072 76.1333 71.5415 76.3686C70.6758 76.6039 69.6846 76.7278 68.6056 76.7278H66.2594L65.0549 87.9242H59.8857L62.6083 62.3483H70.588C74.6029 62.3483 76.6104 64.3176 76.6104 68.2066ZM70.6758 52.4152C71.1024 52.2046 71.5039 52.0188 71.9179 51.8083C75.0671 50.2849 78.1662 48.8853 81.1648 47.5972C78.1411 48.8853 75.0671 50.2849 71.9179 51.8083C71.5039 52.0188 71.1024 52.2294 70.6758 52.4152ZM66.9369 54.2854C65.7701 54.8922 64.5907 55.4991 63.4113 56.1432C64.6032 55.5115 65.7826 54.8922 66.9369 54.2854C67.2506 54.1243 67.5517 53.9757 67.8654 53.8023C67.5517 53.9757 67.2631 54.1367 66.9369 54.2854ZM46.8999 65.779C45.9464 66.3859 45.0054 67.0052 44.0644 67.6121C43.9389 67.6988 43.8135 67.7731 43.688 67.8598C43.8135 67.7731 43.9389 67.6988 44.0518 67.6121C45.0054 66.9804 45.9338 66.3735 46.8999 65.779ZM82.8586 108.088C79.6968 128.164 73.7121 141.689 66.8993 141.689C60.0614 141.689 54.0766 128.115 50.9148 107.964C52.0566 107.506 53.1983 107.023 54.3401 106.552C52.9851 106.032 51.7053 105.425 50.4381 104.756C49.9362 104.484 49.4469 104.199 48.945 103.901C47.9162 104.322 46.8999 104.719 45.8837 105.115C26.5995 112.435 11.6941 114.082 8.29394 108.224C4.8938 102.366 13.8019 90.5251 29.8741 77.8177C30.8653 78.5732 31.9067 79.3411 32.9355 80.0842C34.2404 88.6921 38.845 96.2596 45.4194 101.474C46.5361 102.353 47.7155 103.183 48.945 103.939C49.4343 104.236 49.9362 104.521 50.4381 104.793C51.6802 105.487 52.9976 106.069 54.3401 106.589C58.2295 108.112 62.4703 108.917 66.8993 108.917C68.0034 108.917 69.0573 108.88 70.1238 108.769C68.3923 107.728 65.4564 105.895 61.8681 103.208C60.6259 102.267 59.296 101.226 57.9033 100.087C55.1556 97.8202 52.1821 95.1449 49.1207 92.0609C48.2801 91.2063 47.4269 90.327 46.5612 89.3981C46.5612 89.3981 47.452 89.9554 49.0329 90.8719C49.196 90.971 49.3967 91.0825 49.5849 91.2063C51.4795 92.3582 53.4242 93.4976 55.394 94.6247C57.5646 95.8509 59.7226 97.0646 61.8806 98.2041C63.5493 99.0958 65.218 99.9504 66.8616 100.793C69.371 102.068 71.8928 103.27 74.3394 104.397C75.983 105.165 77.6517 105.92 79.3204 106.651H79.3455C80.5249 107.134 81.7043 107.605 82.8586 108.088ZM83.3479 45.244C83.1973 44.1541 83.0342 43.0765 82.8837 42.0114C81.7419 42.4696 80.6002 42.9527 79.4585 43.4233C77.727 44.1541 75.9705 44.9467 74.2014 45.7394C75.9705 44.922 77.727 44.1541 79.4585 43.4233C75.569 41.9247 71.3282 41.0949 66.8993 41.0949C62.5079 41.0949 58.3299 41.9123 54.4656 43.3862C53.0729 43.9064 51.7429 44.538 50.4381 45.244C50.5886 44.1169 50.7517 42.9898 50.9274 41.9123C54.0891 21.8355 60.0739 8.31063 66.8867 8.31063C73.7246 8.31063 79.7094 21.8851 82.8711 42.0362C83.0468 43.0765 83.1973 44.1417 83.3479 45.244C83.3856 45.4793 83.4106 45.727 83.4483 45.95C83.4106 45.7146 83.3856 45.4669 83.3479 45.244ZM125.367 108.447C121.941 114.28 107.086 112.596 87.9023 105.239C88.0654 103.988 88.216 102.737 88.3666 101.461C94.9159 96.272 99.4954 88.7664 100.825 80.2205C101.064 78.8085 101.189 77.347 101.227 75.8608C102.13 76.5667 103.021 77.2603 103.912 77.9415C119.921 90.7233 128.792 102.589 125.367 108.447Z" fill="url(#paint1_linear)"/>
<defs>
<linearGradient id="paint0_linear" x1="18.8222" y1="-50" x2="875.726" y2="284.179" gradientUnits="userSpaceOnUse">
<stop stop-color="#6C94FB"/>
<stop offset="0.527561" stop-color="#00D8F5"/>
<stop offset="1" stop-color="#0047FF"/>
</linearGradient>
<linearGradient id="paint1_linear" x1="18.8222" y1="-50" x2="875.726" y2="284.179" gradientUnits="userSpaceOnUse">
<stop stop-color="#6C94FB"/>
<stop offset="0.527561" stop-color="#00D8F5"/>
<stop offset="1" stop-color="#0047FF"/>
</linearGradient>
</defs>
</svg>
